<?xml version="1.0" encoding="UTF-8"?>
<svg version="1.1" xmlns="http://www.w3.org/2000/svg" width="789" height="63">
<path d="M0 0 C5.61 -0.0825 11.22 -0.165 17 -0.25 C18.75441406 -0.28641602 20.50882813 -0.32283203 22.31640625 -0.36035156 C23.73175845 -0.3720513 25.14712428 -0.38224007 26.5625 -0.390625 C27.27728516 -0.41108887 27.99207031 -0.43155273 28.72851562 -0.45263672 C34.781233 -0.45675982 40.01517688 1.25012653 44.53295898 5.41229248 C49.40604805 10.95047798 50.47243168 16.04843097 50.30859375 23.21875 C49.62793143 29.35332689 47.05165143 33.33883213 42.34765625 37.23046875 C41.71996338 37.75406982 41.09227051 38.2776709 40.44555664 38.81713867 C39.96852295 39.20748291 39.49148926 39.59782715 39 40 C39.39380859 40.60062256 39.78761719 41.20124512 40.19335938 41.82006836 C41.96459403 44.52434541 43.73233986 47.23088526 45.5 49.9375 C46.43005859 51.35579102 46.43005859 51.35579102 47.37890625 52.80273438 C47.96542969 53.70185547 48.55195313 54.60097656 49.15625 55.52734375 C49.70087891 56.35999756 50.24550781 57.19265137 50.80664062 58.05053711 C52 60 52 60 52 61 C37.95111667 62.3660979 37.95111667 62.3660979 33.58984375 59.3125 C31.79529116 56.95791619 30.37241325 54.62257129 29 52 C28.06828604 50.3183075 27.11063242 48.65066935 26.125 47 C25.54105469 45.88625 25.54105469 45.88625 24.9453125 44.75 C22.3114108 42.03878647 22.3114108 42.03878647 14 42 C14 48.27 14 54.54 14 61 C9.38 61 4.76 61 0 61 C0 40.87 0 20.74 0 0 Z M14 13 C14 18.28 14 23.56 14 29 C16.5575 29.04125 19.115 29.0825 21.75 29.125 C22.54889648 29.14320801 23.34779297 29.16141602 24.17089844 29.18017578 C27.93836582 29.20959429 30.86249895 29.20642218 34 27 C35.92199114 24.43734514 36.01028636 23.16801051 35.8125 19.9375 C34.98370706 16.94109475 34.42883312 15.84591317 32 14 C28.81453711 12.40726856 25.36800652 12.89858167 21.875 12.9375 C17.976875 12.9684375 17.976875 12.9684375 14 13 Z " fill="#000000" transform="translate(231,1)"/>
<path d="M0 0 C1.31291016 -0.03867188 1.31291016 -0.03867188 2.65234375 -0.078125 C5.69956036 0.33673107 6.15240109 0.85712884 8.0625 3.25 C9.24671664 5.73949057 10.32552161 8.1982036 11.35546875 10.75 C11.8167215 11.86646912 11.8167215 11.86646912 12.28729248 13.00549316 C13.28198915 15.417468 14.2661954 17.83356448 15.25 20.25 C15.92647325 21.89807045 16.60363846 23.54585704 17.28149414 25.19335938 C18.28621599 27.63556019 19.29040611 30.07796135 20.29161072 32.52160645 C22.10179239 36.93640815 23.9390998 41.3369016 25.828125 45.71875 C26.20557861 46.5953125 26.58303223 47.471875 26.97192383 48.375 C27.63575573 49.90854471 28.30451854 51.4399687 28.97924805 52.96875 C30.44393447 56.37263971 31.0625 58.46715656 31.0625 62.25 C29.14708862 62.35841951 27.22990227 62.43578079 25.3125 62.5 C24.24515625 62.54640625 23.1778125 62.5928125 22.078125 62.640625 C18.33894248 62.15627493 17.33991369 61.19272556 15.0625 58.25 C13.92888115 56.19269171 13.0212305 54.11161263 12.08984375 51.95703125 C11.10574483 49.90343184 11.10574483 49.90343184 8.0625 49.25 C6.43530518 49.16856145 4.80498281 49.1424698 3.17578125 49.15234375 C2.23798828 49.15556641 1.30019531 49.15878906 0.33398438 49.16210938 C-0.64248047 49.17048828 -1.61894531 49.17886719 -2.625 49.1875 C-3.61306641 49.19201172 -4.60113281 49.19652344 -5.61914062 49.20117188 C-8.05865474 49.21295697 -10.49804689 49.22940989 -12.9375 49.25 C-13.08243896 50.02883545 -13.22737793 50.8076709 -13.37670898 51.61010742 C-14.2155968 55.55912524 -16.06386702 58.68405337 -17.9375 62.25 C-22.5575 62.25 -27.1775 62.25 -31.9375 62.25 C-29.81184364 55.59676319 -27.33338175 49.1957823 -24.59375 42.7734375 C-24.18338501 41.80395172 -23.77302002 40.83446594 -23.35021973 39.83560181 C-22.04918506 36.76403054 -20.74341331 33.69449975 -19.4375 30.625 C-18.56088652 28.55742366 -17.68458162 26.48971647 -16.80859375 24.421875 C-12.65104731 14.61297889 -12.65104731 14.61297889 -10.91479492 10.55682373 C-10.28718554 9.07540376 -9.67166661 7.58877036 -9.0715332 6.0960083 C-6.90070597 0.7512714 -5.65644136 0.09967298 0 0 Z M-0.9375 19.25 C-1.94169637 21.7066947 -2.94100501 24.16518353 -3.9375 26.625 C-4.22367188 27.32367188 -4.50984375 28.02234375 -4.8046875 28.7421875 C-6.38274399 32.37885961 -6.38274399 32.37885961 -6.9375 36.25 C-2.3175 36.25 2.3025 36.25 7.0625 36.25 C6.11273017 33.60079924 5.15322092 30.95588027 4.1875 28.3125 C3.91808594 27.55775391 3.64867187 26.80300781 3.37109375 26.02539062 C2.14630586 21.89902908 2.14630586 21.89902908 -0.9375 19.25 Z " fill="#000000" transform="translate(31.9375,-0.25)"/>
<path d="M0 0 C5.42224733 0.62564392 8.1024264 5.12112662 11.34375 9.203125 C12.48286969 10.6742234 13.61810653 12.14833438 14.75 13.625 C15.35440918 14.40770264 15.95881836 15.19040527 16.58154297 15.99682617 C21.40408361 22.24959028 26.20265905 28.52115889 30.98632812 34.80371094 C31.48841797 35.46274414 31.99050781 36.12177734 32.5078125 36.80078125 C32.9423877 37.37223877 33.37696289 37.94369629 33.82470703 38.5324707 C35.60604372 40.83527097 37.42686758 43.10521231 39.25 45.375 C39.24777939 44.82598526 39.24555878 44.27697052 39.24327087 43.71131897 C39.22121642 38.01792041 39.20609274 32.3245339 39.19506836 26.63110352 C39.19002702 24.50381986 39.18319409 22.37653969 39.17456055 20.24926758 C39.16248621 17.19872174 39.15676986 14.14822155 39.15234375 11.09765625 C39.14718246 10.14037125 39.14202118 9.18308624 39.13670349 8.1967926 C39.13662796 7.31595505 39.13655243 6.43511749 39.13647461 5.52758789 C39.134254 4.74815323 39.13203339 3.96871857 39.12974548 3.16566467 C39.25 1.375 39.25 1.375 40.25 0.375 C42.56 0.375 44.87 0.375 47.25 0.375 C47.25 20.505 47.25 40.635 47.25 61.375 C41.25 61.375 41.25 61.375 39.3359375 59.96875 C38.77132812 59.2778125 38.20671875 58.586875 37.625 57.875 C36.94824219 57.05386719 36.27148438 56.23273437 35.57421875 55.38671875 C31.78057872 50.47092637 28.04735677 45.51313861 24.3515625 40.5234375 C20.98728872 35.99615268 17.50773182 31.5649549 13.9909668 27.15551758 C11.78467468 24.37758558 9.65048108 21.56828664 7.59545898 18.67602539 C7.15370834 18.05506485 6.7119577 17.43410431 6.25682068 16.79432678 C5.92456985 16.32594894 5.59231903 15.85757111 5.25 15.375 C5.2345388 16.21731422 5.2345388 16.21731422 5.21876526 17.0766449 C5.11092315 22.89993466 4.99630792 28.72306264 4.87768555 34.54614258 C4.83426493 36.72188953 4.79259529 38.89767214 4.75268555 41.07348633 C4.69515498 44.19363168 4.63141177 47.31359633 4.56640625 50.43359375 C4.54133751 51.90233192 4.54133751 51.90233192 4.51576233 53.40074158 C4.49581711 54.30159988 4.47587189 55.20245819 4.45532227 56.13061523 C4.43977798 56.92781479 4.4242337 57.72501434 4.40821838 58.54637146 C4.25 60.375 4.25 60.375 3.25 61.375 C0.25 61.5 0.25 61.5 -2.75 61.375 C-4.49299388 59.63200612 -3.87758682 57.23093748 -3.87939453 54.86132812 C-3.88254669 53.68340698 -3.88569885 52.50548584 -3.88894653 51.29187012 C-3.8869223 50.00961548 -3.88489807 48.72736084 -3.8828125 47.40625 C-3.88376923 46.10046997 -3.88472595 44.79468994 -3.88571167 43.44934082 C-3.88718833 40.68187278 -3.88503511 37.91443696 -3.88037109 35.14697266 C-3.87467381 31.59237351 -3.87795298 28.03784986 -3.88394356 24.48325348 C-3.88841747 21.10341286 -3.88528886 17.72359277 -3.8828125 14.34375 C-3.88483673 13.06149536 -3.88686096 11.77924072 -3.88894653 10.45812988 C-3.88579437 9.28020874 -3.88264221 8.1022876 -3.87939453 6.88867188 C-3.87859894 5.84578003 -3.87780334 4.80288818 -3.87698364 3.72839355 C-3.69351326 0.32812864 -3.40835145 0.4647752 0 0 Z " fill="#030303" transform="translate(684.75,0.625)"/>
<path d="M0 0 C7.20979043 7.41006238 11.0065367 15.79557054 11.34375 26.20703125 C10.77710463 36.33581718 6.81597676 44.52972005 -0.75 51.3125 C-9.49940453 57.26859802 -17.70023599 58.48830823 -28.18359375 56.95703125 C-35.68582593 54.96445978 -42.01756898 49.475862 -46.234375 43.05078125 C-50.69641833 34.30452966 -51.37342939 22.99371975 -48.8125 13.4375 C-45.97212135 6.45713548 -40.10435081 0.19578806 -33.4375 -3.25 C-21.74863994 -7.80667426 -10.6204433 -6.51709021 0 0 Z M-36.6875 9.25 C-41.60446697 15.42743656 -43.17534022 21.74526908 -42.57421875 29.61328125 C-41.31547421 36.9750296 -37.55199343 42.0470585 -31.8125 46.6875 C-25.39285631 50.09384155 -19.77471839 51.15346068 -12.75 49.3125 C-6.51659351 46.67353959 -1.87117603 42.31005395 1.25 36.3125 C3.64312997 29.23900078 3.8880155 22.33942624 1.25 15.3125 C-1.99761359 9.26302371 -6.56011265 5.23202177 -12.75 2.3125 C-22.11253151 -0.48014802 -30.21334129 2.1297714 -36.6875 9.25 Z " fill="#000000" transform="translate(657.75,5.6875)"/>
<path d="M0 0 C6.15387515 4.54150612 9.86942685 12.11358589 11.6875 19.4296875 C13.22103182 29.85770384 10.98173651 39.16650155 4.83984375 47.77734375 C-0.53015374 53.86955348 -7.4466001 57.35798238 -15.5234375 58.03515625 C-25.21987615 58.37183815 -33.25010708 56.04450574 -40.51953125 49.39453125 C-46.69778768 42.9389466 -49.14646559 35.1464909 -49.4609375 26.3203125 C-49.11944685 17.03397003 -46.41652909 9.31855734 -39.9609375 2.54296875 C-28.23834206 -7.5540324 -13.04557557 -7.84813511 0 0 Z M-35.3984375 9.1328125 C-41.01954823 16.69663005 -42.1170098 23.46057328 -40.9609375 32.8203125 C-39.0778529 39.184441 -35.82114159 44.02086394 -30.2578125 47.69140625 C-24.22741168 50.65532774 -18.25176866 51.47328816 -11.7109375 49.8828125 C-5.61607681 47.65770463 -1.75342139 44.08614368 1.35546875 38.421875 C4.77024543 30.68806022 5.10463029 24.05124854 2.13671875 16.05859375 C-1.11556693 9.42670871 -5.88571627 5.04855796 -12.77734375 2.4453125 C-20.88551132 0.12454897 -29.74847221 2.89255232 -35.3984375 9.1328125 Z " fill="#000000" transform="translate(392.9609375,5.1796875)"/>
<path d="M0 0 C6.96003966 -0.02464201 13.92005416 -0.04283222 20.88012695 -0.05493164 C23.24992312 -0.05997341 25.61971615 -0.06680665 27.98950195 -0.07543945 C31.38754039 -0.0875119 34.78553785 -0.09322971 38.18359375 -0.09765625 C39.25024765 -0.10281754 40.31690155 -0.10797882 41.4158783 -0.11329651 C42.88729027 -0.11340981 42.88729027 -0.11340981 44.38842773 -0.11352539 C45.25668686 -0.115746 46.12494598 -0.11796661 47.01951599 -0.12025452 C49 -0 49 -0 50 1 C50.09851171 2.83115883 50.12972629 4.66619933 50.125 6.5 C50.12886719 8.00046875 50.12886719 8.00046875 50.1328125 9.53125 C50 12 50 12 49 13 C46.13732433 13.07325168 43.299281 13.09238205 40.4375 13.0625 C39.63119141 13.05798828 38.82488281 13.05347656 37.99414062 13.04882812 C35.99606244 13.03700518 33.99802217 13.01906914 32 13 C32.00222061 13.58659897 32.00444122 14.17319794 32.00672913 14.77757263 C32.0287821 20.86025384 32.04390664 26.94292377 32.05493164 33.02563477 C32.05997325 35.29842591 32.06680637 37.5712138 32.07543945 39.84399414 C32.08751261 43.10303551 32.09322987 46.36203417 32.09765625 49.62109375 C32.10281754 50.64400009 32.10797882 51.66690643 32.11329651 52.72080994 C32.11337204 53.66170975 32.11344757 54.60260956 32.11352539 55.57202148 C32.115746 56.40475082 32.11796661 57.23748016 32.12025452 58.09544373 C32 60 32 60 31 61 C26.71 61 22.42 61 18 61 C17.67 45.49 17.34 29.98 17 14 C11.39 13.67 5.78 13.34 0 13 C0 8.71 0 4.42 0 0 Z " fill="#030303" transform="translate(111,1)"/>
<path d="M0 0 C4.29 0 8.58 0 13 0 C14 1 14 1 14.12025452 2.90455627 C14.1169236 4.15365028 14.1169236 4.15365028 14.11352539 5.42797852 C14.11344986 6.36887833 14.11337433 7.30977814 14.11329651 8.27919006 C14.10813522 9.30209641 14.10297394 10.32500275 14.09765625 11.37890625 C14.0962413 12.42070541 14.09482635 13.46250458 14.09336853 14.53587341 C14.0877508 17.87811094 14.0751953 21.22028257 14.0625 24.5625 C14.05748728 26.82226466 14.05292398 29.08203037 14.04882812 31.34179688 C14.03777561 36.89455391 14.02102024 42.44727225 14 48 C14.84296631 47.99476318 15.68593262 47.98952637 16.55444336 47.98413086 C19.67227936 47.96712174 22.79009177 47.95456594 25.90795898 47.94506836 C27.25920386 47.94002943 28.61044326 47.93319823 29.96166992 47.92456055 C31.90020434 47.91247581 33.838778 47.90730172 35.77734375 47.90234375 C37.52905884 47.89448853 37.52905884 47.89448853 39.31616211 47.88647461 C42 48 42 48 43 49 C43 52.96 43 56.92 43 61 C28.81 61 14.62 61 0 61 C0 40.87 0 20.74 0 0 Z " fill="#030303" transform="translate(72,1)"/>
<path d="M0 0 C2.33294775 -0.04241723 4.66702567 -0.04092937 7 0 C9.12451709 2.12451709 8.18629123 6.90911771 8.2109375 9.85546875 C8.2390201 11.69336807 8.26768464 13.53125857 8.296875 15.36914062 C8.33805436 18.27449162 8.37492885 21.1796805 8.40136719 24.08520508 C8.42906124 26.88397586 8.47494984 29.68199111 8.5234375 32.48046875 C8.52669037 33.34318893 8.52994324 34.20590912 8.53329468 35.09477234 C8.65704766 41.19910467 10.08375842 45.12563763 13.5 50.25 C18.61289582 53.82902707 24.82162782 54.31621532 30.875 53.4375 C35.14614148 51.47277492 37.87007454 49.09868132 40.11083984 44.93676758 C41.38313216 40.7345698 41.35753657 36.69359397 41.4140625 32.32421875 C41.43342865 31.3990596 41.4527948 30.47390045 41.4727478 29.52070618 C41.53235254 26.57639683 41.57885248 23.63204798 41.625 20.6875 C41.66319736 18.68683225 41.70225012 16.68618064 41.7421875 14.68554688 C41.83803841 9.7904962 41.92214 4.89536855 42 0 C44.64 0 47.28 0 50 0 C50.0497499 5.53180661 50.08588418 11.06348052 50.10986328 16.59545898 C50.11986873 18.47406282 50.13347733 20.35265129 50.15087891 22.23120117 C50.1753688 24.94453748 50.1865379 27.65766638 50.1953125 30.37109375 C50.20563507 31.19959335 50.21595764 32.02809296 50.22659302 32.88169861 C50.22818214 41.2990033 49.18615883 48.62328007 43.78125 55.2734375 C37.65199854 61.21451019 30.01217991 62.31306208 21.81640625 62.21484375 C14.884401 61.68605001 9.91626839 58.91626839 5 54 C1.53455663 49.07309169 -0.13114138 44.58806788 -0.11352539 38.59863281 C-0.11344986 37.7380426 -0.11337433 36.87745239 -0.11329651 35.99078369 C-0.10813522 35.07085632 -0.10297394 34.15092896 -0.09765625 33.203125 C-0.0962413 32.25435486 -0.09482635 31.30558472 -0.09336853 30.32806396 C-0.08777742 27.30201038 -0.07522652 24.27603117 -0.0625 21.25 C-0.05748385 19.19661565 -0.05292115 17.14323014 -0.04882812 15.08984375 C-0.03781089 10.05986724 -0.02055233 5.02994622 0 0 Z " fill="#030303" transform="translate(467,1)"/>
<path d="M0 0 C1.36193074 0.96068852 2.70592452 1.94969222 4 3 C3.42655063 5.86724686 3.1385485 6.8614515 1 9 C-2.04554268 8.74620478 -4.06029348 7.96711265 -6.75 6.5 C-11.37233002 4.36661691 -16.02102714 3.26654077 -21.0625 4.5078125 C-24.47755573 5.85960539 -25.93814852 6.90722278 -28 10 C-28.15483439 13.50260082 -28.15483439 13.50260082 -27 17 C-22.50177378 20.6747048 -18.11996244 22.00384247 -12.625 23.375 C-5.18928076 25.4009687 1.19953398 27.5659288 5.5 34.375 C6.74286511 40.90004184 6.4361454 45.46307988 3.1953125 51.2421875 C-0.16556062 56.18464797 -4.2742744 57.87362775 -10 59 C-19.64312833 59.9253507 -28.48464015 57.72269982 -36.5625 52.33203125 C-38 51 -38 51 -38.625 48.3125 C-38 46 -38 46 -36 44 C-32.64878349 44.18617869 -30.9266075 45.04946016 -28.125 46.9375 C-22.33337496 50.75997253 -17.07629113 51.49468343 -10.3125 50.59765625 C-6.63795071 49.64798388 -5.05024853 48.14371441 -3 45 C-2.16654185 41.45704496 -2.16654185 41.45704496 -3 38 C-7.72308338 32.9985235 -14.08750011 32.07047634 -20.51953125 30.46484375 C-26.50692929 28.83519105 -30.81800391 26.67404107 -35 22 C-37.62112851 17.08538404 -37.29213226 12.29204167 -36 7 C-33.34028435 1.57827195 -30.27280181 -0.45775627 -25 -3 C-16.27101443 -5.64514714 -8.07523609 -3.85702171 0 0 Z " fill="#030303" transform="translate(328,4)"/>
<path d="M0 0 C0.78375 0.598125 1.5675 1.19625 2.375 1.8125 C1.6875 4.25 1.6875 4.25 0.375 6.8125 C-1.8125 7.875 -1.8125 7.875 -4.625 7.8125 C-6.31960588 6.83484276 -8.01204037 5.85199873 -9.671875 4.81640625 C-13.73579669 2.7275505 -18.26075201 2.18442653 -22.68359375 3.359375 C-25.45921831 4.49039873 -27.50157848 5.68907848 -29.625 7.8125 C-30.17930923 12.62197556 -30.17930923 12.62197556 -28.1796875 16.85546875 C-24.55546867 19.63181987 -20.73700149 20.55028156 -16.375 21.75 C-1.07685818 25.96479418 -1.07685818 25.96479418 2.58862305 31.71704102 C4.87400227 36.68545676 4.77860778 41.59495108 3.375 46.8125 C0.71528435 52.23422805 -2.35219819 54.27025627 -7.625 56.8125 C-17.53883232 59.86604178 -26.63211388 57.20094482 -35.6484375 52.83203125 C-37.3125 51.875 -37.3125 51.875 -39.625 49.8125 C-40.125 47.1875 -40.125 47.1875 -39.625 44.8125 C-38.965 44.1525 -38.305 43.4925 -37.625 42.8125 C-34.00070567 42.91909689 -31.81667813 44.30580009 -28.9375 46.3125 C-24.32788429 49.29876705 -20.09022396 50.12381023 -14.625 49.8125 C-10.16314441 48.83089177 -7.24249298 47.73873947 -4.625 43.8125 C-4.18218332 40.3437693 -4.12456452 38.54230175 -6.125 35.625 C-10.30675254 32.59322941 -14.92311332 31.30914337 -19.82421875 29.87890625 C-33.48863371 25.87462501 -33.48863371 25.87462501 -37.5 20.125 C-39.35149967 14.67336207 -39.38509802 10.00833871 -37.5 4.5625 C-34.47727159 0.129165 -31.3096046 -2.52001516 -26.3125 -4.5 C-17.04967136 -6.22696805 -8.02588667 -5.30652742 0 0 Z " fill="#030303" transform="translate(784.625,5.1875)"/>
<path d="M0 0 C1.22244667 0.00333092 1.22244667 0.00333092 2.46958923 0.00672913 C3.39046829 0.00680466 4.31134735 0.00688019 5.26013184 0.00695801 C6.2611644 0.01211929 7.26219696 0.01728058 8.29356384 0.02259827 C9.31316696 0.02401321 10.33277008 0.02542816 11.38327026 0.02688599 C14.65417867 0.03250355 17.92501972 0.04505902 21.19590759 0.05775452 C23.40749515 0.06276725 25.61908377 0.06733055 27.83067322 0.07142639 C33.26494116 0.08247868 38.69916957 0.09923389 44.13340759 0.12025452 C44.13340759 2.43025452 44.13340759 4.74025452 44.13340759 7.12025452 C37.86340759 7.12025452 31.59340759 7.12025452 25.13340759 7.12025452 C25.13340759 24.94025452 25.13340759 42.76025452 25.13340759 61.12025452 C22.49340759 61.12025452 19.85340759 61.12025452 17.13340759 61.12025452 C16.63840759 34.88525452 16.63840759 34.88525452 16.13340759 8.12025452 C10.19340759 7.79025452 4.25340759 7.46025452 -1.86659241 7.12025452 C-2.86659241 6.12025452 -2.86659241 6.12025452 -2.99159241 3.62025452 C-2.81966247 0.1816557 -2.81966247 0.1816557 0 0 Z " fill="#030303" transform="translate(529.8665924072266,0.8797454833984375)"/>
<path d="M0 0 C0.99773437 -0.00315216 1.99546875 -0.00630432 3.0234375 -0.009552 C4.65152344 -0.00651566 4.65152344 -0.00651566 6.3125 -0.00341797 C7.41851562 -0.00437469 8.52453125 -0.00533142 9.6640625 -0.00631714 C12.00781308 -0.00699913 14.35156553 -0.00514351 16.6953125 -0.00097656 C20.29691788 0.00437139 23.89839853 -0.00092093 27.5 -0.00732422 C29.77083361 -0.00666344 32.04166714 -0.00538229 34.3125 -0.00341797 C35.94058594 -0.00645432 35.94058594 -0.00645432 37.6015625 -0.009552 C38.59929687 -0.00639984 39.59703125 -0.00324768 40.625 0 C41.50800781 0.00079559 42.39101562 0.00159119 43.30078125 0.00241089 C45.3125 0.12939453 45.3125 0.12939453 46.3125 1.12939453 C46.41123816 3.12739025 46.44221799 5.12896611 46.4375 7.12939453 C46.44136719 8.76908203 46.44136719 8.76908203 46.4453125 10.44189453 C46.3125 13.12939453 46.3125 13.12939453 45.3125 14.12939453 C43.75250952 14.2278642 42.18809456 14.25738071 40.625 14.25878906 C39.62726563 14.26194122 38.62953125 14.26509338 37.6015625 14.26834106 C36.51617187 14.26631683 35.43078125 14.2642926 34.3125 14.26220703 C33.20648438 14.26316376 32.10046875 14.26412048 30.9609375 14.2651062 C28.61718692 14.2657882 26.27343447 14.26393257 23.9296875 14.25976562 C20.32808212 14.25441767 16.72660147 14.25971 13.125 14.26611328 C10.85416639 14.2654525 8.58333286 14.26417135 6.3125 14.26220703 C5.22710937 14.26423126 4.14171875 14.26625549 3.0234375 14.26834106 C2.02570313 14.2651889 1.02796875 14.26203674 0 14.25878906 C-0.88300781 14.25799347 -1.76601562 14.25719788 -2.67578125 14.25637817 C-4.6875 14.12939453 -4.6875 14.12939453 -5.6875 13.12939453 C-5.78623816 11.13139881 -5.81721799 9.12982295 -5.8125 7.12939453 C-5.81507813 6.03626953 -5.81765625 4.94314453 -5.8203125 3.81689453 C-5.59950073 -0.65129654 -4.02502551 0.00362656 0 0 Z " fill="#F2981F" transform="translate(175.6875,-0.12939453125)"/>
<path d="M0 0 C7.24487049 -0.02464113 14.48971682 -0.0428318 21.73461914 -0.05493164 C24.20142033 -0.05997356 26.66821852 -0.06680691 29.13500977 -0.07543945 C32.67204529 -0.08751125 36.20904145 -0.09322956 39.74609375 -0.09765625 C40.85649521 -0.10281754 41.96689667 -0.10797882 43.11094666 -0.11329651 C44.64242088 -0.11340981 44.64242088 -0.11340981 46.20483398 -0.11352539 C47.10862289 -0.115746 48.0124118 -0.11796661 48.94358826 -0.12025452 C51 0 51 0 52 1 C52.09851171 2.83115883 52.12972629 4.66619933 52.125 6.5 C52.12886719 8.00046875 52.12886719 8.00046875 52.1328125 9.53125 C52 12 52 12 51 13 C49.40389018 13.09333705 47.80366572 13.11745372 46.20483398 13.11352539 C45.18385117 13.11344986 44.16286835 13.11337433 43.11094666 13.11329651 C42.0005452 13.10813522 40.89014374 13.10297394 39.74609375 13.09765625 C38.61551041 13.0962413 37.48492706 13.09482635 36.32008362 13.09336853 C32.69252935 13.08775019 29.06503576 13.07519458 25.4375 13.0625 C22.98502693 13.05748736 20.5325529 13.05292405 18.08007812 13.04882812 C12.05336187 13.0377748 6.02669124 13.02049788 0 13 C0 8.71 0 4.42 0 0 Z " fill="#F29920" transform="translate(170,49)"/>
<path d="M0 0 C17.16 0 34.32 0 52 0 C52 3.96 52 7.92 52 12 C50.37245356 13.62754644 48.55861677 13.12737077 46.3125 13.12939453 C45.31476563 13.13254669 44.31703125 13.13569885 43.2890625 13.13894653 C42.20367187 13.1369223 41.11828125 13.13489807 40 13.1328125 C38.89398438 13.13376923 37.78796875 13.13472595 36.6484375 13.13571167 C34.30468692 13.13639367 31.96093447 13.13453804 29.6171875 13.13037109 C26.01558212 13.12502314 22.41410147 13.13031547 18.8125 13.13671875 C16.54166639 13.13605797 14.27083286 13.13477682 12 13.1328125 C10.91460937 13.13483673 9.82921875 13.13686096 8.7109375 13.13894653 C7.71320313 13.13579437 6.71546875 13.13264221 5.6875 13.12939453 C4.80449219 13.12859894 3.92148438 13.12780334 3.01171875 13.12698364 C1 13 1 13 0 12 C0 8.04 0 4.08 0 0 Z " fill="#F29920" transform="translate(170,25)"/>
<path d="M0 0 C2.31 0 4.62 0 7 0 C7.33 17.49 7.66 34.98 8 53 C23.84 53.495 23.84 53.495 40 54 C40 56.31 40 58.62 40 61 C26.8 61 13.6 61 0 61 C0 40.87 0 20.74 0 0 Z " fill="#030303" transform="translate(418,1)"/>
<path d="M0 0 C3 0.125 3 0.125 4 1.125 C4.09386381 2.9968094 4.11743804 4.8721806 4.11352539 6.74633789 C4.11344986 7.94750748 4.11337433 9.14867706 4.11329651 10.38624573 C4.10813522 11.6935112 4.10297394 13.00077667 4.09765625 14.34765625 C4.09579198 15.69144132 4.09436812 17.03522707 4.09336853 18.37901306 C4.08954402 21.92182277 4.07971432 25.4645917 4.06866455 29.00738525 C4.05844899 32.62015227 4.0538706 36.23292584 4.04882812 39.84570312 C4.03809198 46.9388188 4.02101636 54.03190674 4 61.125 C1.66705225 61.16741723 -0.66702567 61.16592937 -3 61.125 C-4.74299388 59.38200612 -4.12758682 56.98093748 -4.12939453 54.61132812 C-4.13254669 53.43340698 -4.13569885 52.25548584 -4.13894653 51.04187012 C-4.1369223 49.75961548 -4.13489807 48.47736084 -4.1328125 47.15625 C-4.13376923 45.85046997 -4.13472595 44.54468994 -4.13571167 43.19934082 C-4.13718833 40.43187278 -4.13503511 37.66443696 -4.13037109 34.89697266 C-4.12467381 31.34237351 -4.12795298 27.78784986 -4.13394356 24.23325348 C-4.13841747 20.85341286 -4.13528886 17.47359277 -4.1328125 14.09375 C-4.13483673 12.81149536 -4.13686096 11.52924072 -4.13894653 10.20812988 C-4.13579437 9.03020874 -4.13264221 7.8522876 -4.12939453 6.63867188 C-4.12859894 5.59578003 -4.12780334 4.55288818 -4.12698364 3.47839355 C-3.93580653 -0.06470043 -3.61279628 0.15053318 0 0 Z " fill="#030303" transform="translate(590,0.875)"/>
</svg>
