<?xml version="1.0" encoding="UTF-8"?>
<svg version="1.1" xmlns="http://www.w3.org/2000/svg" width="728" height="127">
<path d="M0 0 C0.226875 -0.804375 0.45375 -1.60875 0.6875 -2.4375 C2 -5 2 -5 4.09375 -5.80078125 C7.90234475 -6.06185428 11.68272974 -6.18420357 15.5 -6.1875 C16.61955078 -6.20586914 16.61955078 -6.20586914 17.76171875 -6.22460938 C18.85419922 -6.22750977 18.85419922 -6.22750977 19.96875 -6.23046875 C20.62294922 -6.23457764 21.27714844 -6.23868652 21.95117188 -6.24291992 C24.52042393 -5.93829578 26.61949245 -4.98837127 29 -4 C29.02312228 7.58688402 29.0409145 19.17376259 29.05181217 30.76066494 C29.05704125 36.14033762 29.06413935 41.51999458 29.07543945 46.8996582 C29.08626745 52.08674843 29.09227665 57.27382349 29.09487724 62.46092415 C29.09673165 64.4445628 29.10035256 66.42820058 29.10573006 68.41183281 C29.11293932 71.18009136 29.11399099 73.94828638 29.11352539 76.71655273 C29.11712067 77.54517319 29.12071594 78.37379364 29.12442017 79.2275238 C29.11405216 84.88594784 29.11405216 84.88594784 28 86 C23.88820862 86.41287998 19.75307853 86.51701218 15.625 86.6875 C14.46226563 86.74744141 13.29953125 86.80738281 12.1015625 86.86914062 C10.9878125 86.91619141 9.8740625 86.96324219 8.7265625 87.01171875 C7.18863037 87.08072388 7.18863037 87.08072388 5.61962891 87.15112305 C3 87 3 87 0 85 C-0.6875 82.875 -0.6875 82.875 -1 81 C-1.53367187 81.39832031 -2.06734375 81.79664062 -2.6171875 82.20703125 C-12.43093291 89.18531735 -21.49645655 91.18792225 -33.35546875 89.53125 C-45.20075736 87.36112079 -55.57928649 82.78969393 -63 73 C-71.49653513 59.59701501 -75.05726819 43.89766306 -71.875 28.1875 C-68.84888889 14.91807382 -61.86406831 5.08548253 -50.65625 -2.42578125 C-33.98142339 -12.3080682 -15.80433052 -10.8042879 0 0 Z M-40.58984375 27.921875 C-43.94418636 32.86511674 -44.59335322 38.16535996 -44 44 C-42.04095376 51.67499761 -38.59111611 56.6016482 -32 61 C-25.56934753 64.08135431 -19.44879429 63.73734095 -12.875 61.4375 C-7.09243642 58.92875703 -3.60764793 55.30399368 -0.8671875 49.671875 C1.1679472 43.40145998 1.16434512 35.62475654 -1.5625 29.5625 C-4.54043613 24.58524279 -8.63741608 21.15504103 -13.8125 18.625 C-25.31164655 16.37026538 -33.14685291 18.76648764 -40.58984375 27.921875 Z " fill="#181C4D" transform="translate(73,23)"/>
<path d="M0 0 C8.72451045 8.05660534 15.61991363 20.27835905 16.25 32.25 C16.35854617 36.58667799 16.46356403 40.91590643 16.25 45.25 C14.41211462 47.08788538 11.45235996 46.42305323 8.98608398 46.45532227 C8.33244873 46.46522186 7.67881348 46.47512146 7.00537109 46.48532104 C4.83564936 46.51701634 2.6659057 46.54172492 0.49609375 46.56640625 C-1.00463952 46.58696887 -2.5053669 46.60796515 -4.00608826 46.62937927 C-7.96311693 46.68467155 -11.92019849 46.73404911 -15.87731934 46.78222656 C-19.9124016 46.8323895 -23.94740672 46.88810268 -27.98242188 46.94335938 C-35.90488277 47.0510284 -43.82740804 47.15245379 -51.75 47.25 C-48.99945291 53.86645101 -47.02997084 57.24088972 -40.38671875 60.359375 C-35.20235247 62.11053872 -29.43466271 62.43195461 -24.36328125 60.19921875 C-22.4014296 58.96988842 -20.5759742 57.67115916 -18.75 56.25 C-15.16331687 53.85887791 -13.58603431 54.01618973 -9.33203125 54.0546875 C-7.45161133 54.06435547 -7.45161133 54.06435547 -5.53320312 54.07421875 C-3.56770508 54.09935547 -3.56770508 54.09935547 -1.5625 54.125 C-0.22722013 54.13503361 1.10806689 54.1441588 2.44335938 54.15234375 C5.71242015 54.17594708 8.98112028 54.20887406 12.25 54.25 C10.76666304 64.4433445 3.43601807 72.43566419 -4.546875 78.6484375 C-16.60502418 86.86990285 -30.76354337 88.0352992 -44.875 85.7421875 C-47.29432789 85.08443273 -49.4703601 84.28887649 -51.75 83.25 C-52.48992187 82.92128906 -53.22984375 82.59257813 -53.9921875 82.25390625 C-65.79121075 76.35439463 -74.58659984 66.71956451 -79.0625 54.375 C-83.40307484 39.99117042 -82.10985678 26.26864554 -75.18432617 12.95068359 C-68.38753732 0.78706805 -58.17318776 -6.4669903 -44.984375 -10.62109375 C-28.87063505 -14.29482377 -12.92776489 -10.14111335 0 0 Z M-48.75 19.25 C-50.86846092 22.24506543 -51.75 23.55650564 -51.75 27.25 C-38.88 27.25 -26.01 27.25 -12.75 27.25 C-15.99151584 19.68646304 -18.48042507 16.41183228 -25.8125 13.4375 C-34.0154156 10.72899013 -42.61208793 13.11208793 -48.75 19.25 Z " fill="#181C4D" transform="translate(392.75,25.75)"/>
<path d="M0 0 C7.25710986 6.02152434 11.14182713 12.15052079 12.13644409 21.57267761 C12.70417293 29.68248144 12.95990385 37.73860989 12.9453125 45.8671875 C12.94626923 47.06578903 12.94722595 48.26439056 12.94821167 49.49931335 C12.94888578 52.00076348 12.94708583 54.50221544 12.94287109 57.00366211 C12.93744973 60.85208969 12.94287345 64.70040382 12.94921875 68.54882812 C12.94855904 70.98828151 12.94728009 73.42773482 12.9453125 75.8671875 C12.94733673 77.02116531 12.94936096 78.17514313 12.95144653 79.36408997 C12.94671829 80.94790718 12.94671829 80.94790718 12.94189453 82.5637207 C12.94109894 83.49634232 12.94030334 84.42896393 12.93948364 85.3898468 C12.8125 87.50390625 12.8125 87.50390625 11.8125 88.50390625 C7.5118133 88.88927092 3.18947654 88.97424921 -1.125 89.12890625 C-2.34380859 89.18046875 -3.56261719 89.23203125 -4.81835938 89.28515625 C-5.98044922 89.32898438 -7.14253906 89.3728125 -8.33984375 89.41796875 C-9.41226318 89.45873535 -10.48468262 89.49950195 -11.58959961 89.54150391 C-14.1875 89.50390625 -14.1875 89.50390625 -16.1875 88.50390625 C-16.19963028 87.49365639 -16.19963028 87.49365639 -16.21200562 86.46299744 C-16.29821829 79.4384406 -16.39772924 72.41416053 -16.50488281 65.38989258 C-16.5431107 62.77014828 -16.57797427 60.1503526 -16.609375 57.53051758 C-16.65515941 53.75974189 -16.713133 49.98931803 -16.7734375 46.21875 C-16.78498871 45.05182114 -16.79653992 43.88489227 -16.80844116 42.68260193 C-16.91268591 36.90832531 -17.23541911 31.95143485 -19.1875 26.50390625 C-19.5175 25.51390625 -19.8475 24.52390625 -20.1875 23.50390625 C-25.98183287 20.8187276 -31.54762032 20.55753429 -37.5 22.69140625 C-41.63615346 25.48090509 -43.22626575 28.7181 -44.1875 33.50390625 C-44.3003341 35.33602126 -44.36335564 37.1714862 -44.39282227 39.00683594 C-44.41276749 40.10767517 -44.43271271 41.2085144 -44.45326233 42.3427124 C-44.46997482 43.52512512 -44.48668732 44.70753784 -44.50390625 45.92578125 C-44.52468735 47.14090393 -44.54546844 48.35602661 -44.56687927 49.60797119 C-44.63226828 53.48989198 -44.69121051 57.37188045 -44.75 61.25390625 C-44.79319532 63.88542367 -44.83680994 66.51693424 -44.88085938 69.1484375 C-44.98793883 75.60018885 -45.08972514 82.05200754 -45.1875 88.50390625 C-50.3038389 89.4226112 -55.13145266 89.68718027 -60.3125 89.69140625 C-61.11042969 89.70365234 -61.90835938 89.71589844 -62.73046875 89.72851562 C-70.3103372 89.74749693 -70.3103372 89.74749693 -73.1875 87.50390625 C-74.42053175 83.80481101 -74.35101736 80.36927977 -74.36450195 76.51586914 C-74.37435875 75.29589989 -74.37435875 75.29589989 -74.38441467 74.05128479 C-74.40412737 71.35970976 -74.4158037 68.66819038 -74.42578125 65.9765625 C-74.42985678 65.05757109 -74.4339323 64.13857967 -74.43813133 63.19174004 C-74.45898011 58.33070984 -74.47328885 53.4697078 -74.48266602 48.60864258 C-74.49374789 43.58346787 -74.52817154 38.55873385 -74.56783772 33.53371525 C-74.59394925 29.67243106 -74.60235281 25.81125295 -74.60594749 21.94988823 C-74.61082503 20.09709117 -74.62247208 18.2442992 -74.64098549 16.39158821 C-74.66526859 13.80114586 -74.66443245 11.21185861 -74.6574707 8.62133789 C-74.67028076 7.85497009 -74.68309082 7.08860229 -74.69628906 6.29901123 C-74.66184389 2.78717705 -74.46053007 0.86425621 -72.31074524 -1.97306824 C-69.69608602 -3.84859002 -68.25140583 -3.98661438 -65.0546875 -3.95703125 C-63.59869141 -3.95123047 -63.59869141 -3.95123047 -62.11328125 -3.9453125 C-60.60314453 -3.90857422 -60.60314453 -3.90857422 -59.0625 -3.87109375 C-58.04800781 -3.86980469 -57.03351563 -3.86851563 -55.98828125 -3.8671875 C-48.46847625 -3.77707 -48.46847625 -3.77707 -46.1875 -1.49609375 C-46.0625 1.12890625 -46.0625 1.12890625 -46.1875 3.50390625 C-45.76339844 3.10558594 -45.33929688 2.70726562 -44.90234375 2.296875 C-32.47167009 -8.93171154 -13.91167029 -9.70918656 0 0 Z " fill="#181C4D" transform="translate(190.1875,20.49609375)"/>
<path d="M0 0 C6.77277724 5.60505703 10.06543168 10.87035009 11.8125 19.5 C12.20696325 24.86076446 12.1636791 30.20024656 12.10546875 35.5703125 C12.09986188 37.10301291 12.09559695 38.63571876 12.09260559 40.16842651 C12.08124251 44.16991457 12.05185082 48.17106725 12.01849365 52.17242432 C11.98760681 56.26854925 11.97406079 60.36472926 11.95898438 64.4609375 C11.92697128 72.47411091 11.87588069 80.48701354 11.8125 88.5 C7.52118391 88.69619224 3.22943898 88.88048583 -1.0625 89.0625 C-2.28582031 89.11857422 -3.50914062 89.17464844 -4.76953125 89.23242188 C-6.51943359 89.30493164 -6.51943359 89.30493164 -8.3046875 89.37890625 C-9.92286377 89.44960327 -9.92286377 89.44960327 -11.57373047 89.52172852 C-14.1875 89.5 -14.1875 89.5 -16.1875 88.5 C-16.19963028 87.48975014 -16.19963028 87.48975014 -16.21200562 86.45909119 C-16.29821829 79.43453435 -16.39772924 72.41025428 -16.50488281 65.38598633 C-16.5431107 62.76624203 -16.57797427 60.14644635 -16.609375 57.52661133 C-16.65515941 53.75583564 -16.713133 49.98541178 -16.7734375 46.21484375 C-16.78498871 45.04791489 -16.79653992 43.88098602 -16.80844116 42.67869568 C-16.91268591 36.90441906 -17.23541911 31.9475286 -19.1875 26.5 C-19.5175 25.51 -19.8475 24.52 -20.1875 23.5 C-25.95675263 20.8901 -30.94052569 20.78845813 -36.9375 22.6875 C-40.95151206 24.92608365 -42.41372864 26.98184083 -43.74795532 31.32394409 C-44.26504614 33.88390804 -44.32724638 36.26700276 -44.34521484 38.87939453 C-44.36060806 40.49093918 -44.36060806 40.49093918 -44.37631226 42.13504028 C-44.38361359 43.28930511 -44.39091492 44.44356995 -44.3984375 45.6328125 C-44.42648784 48.07162151 -44.45515216 50.51042351 -44.484375 52.94921875 C-44.52577219 56.79866474 -44.56265645 60.64797743 -44.58886719 64.49755859 C-44.61633911 68.20958428 -44.66218967 71.92101368 -44.7109375 75.6328125 C-44.71419037 76.79112579 -44.71744324 77.94943909 -44.72079468 79.14285278 C-44.73736115 80.21091156 -44.75392761 81.27897034 -44.77099609 82.37939453 C-44.77908295 83.32219269 -44.7871698 84.26499084 -44.79550171 85.23635864 C-44.92486115 85.98336029 -45.05422058 86.73036194 -45.1875 87.5 C-48.38786658 89.63357772 -49.25267867 89.75572341 -52.93359375 89.765625 C-54.31321289 89.76949219 -54.31321289 89.76949219 -55.72070312 89.7734375 C-56.67912109 89.76570313 -57.63753906 89.75796875 -58.625 89.75 C-59.57955078 89.75773437 -60.53410156 89.76546875 -61.51757812 89.7734375 C-62.43861328 89.77085938 -63.35964844 89.76828125 -64.30859375 89.765625 C-65.1483374 89.76336914 -65.98808105 89.76111328 -66.85327148 89.75878906 C-69.40821248 89.47553026 -71.02006168 88.86688012 -73.1875 87.5 C-74.7597028 84.35559441 -74.35261754 80.98704689 -74.36450195 77.53369141 C-74.37107315 76.71077103 -74.37764435 75.88785065 -74.38441467 75.03999329 C-74.40416278 72.31051549 -74.41581269 69.58109271 -74.42578125 66.8515625 C-74.42985678 65.92062145 -74.4339323 64.9896804 -74.43813133 64.03052902 C-74.45899704 59.10466482 -74.47329743 54.17882854 -74.48266602 49.25292969 C-74.49374057 44.15934737 -74.52815101 39.06620071 -74.56783772 33.9727726 C-74.59395102 30.06087416 -74.60235306 26.14908044 -74.60594749 22.23710251 C-74.61082599 20.35918607 -74.62247573 18.4812747 -74.64098549 16.60344315 C-74.66526828 13.97697397 -74.66443224 11.35164413 -74.6574707 8.72509766 C-74.67028076 7.94780807 -74.68309082 7.17051849 -74.69628906 6.36967468 C-74.6621031 2.83572875 -74.47007878 0.87466039 -72.31272888 -1.98568726 C-69.66727379 -3.87068251 -68.21022118 -3.96564468 -64.984375 -3.890625 C-64.0046875 -3.87773437 -63.025 -3.86484375 -62.015625 -3.8515625 C-60.99984375 -3.81804688 -59.9840625 -3.78453125 -58.9375 -3.75 C-57.90625 -3.73195313 -56.875 -3.71390625 -55.8125 -3.6953125 C-53.26988936 -3.64822712 -50.72916838 -3.5824805 -48.1875 -3.5 C-47.5275 -1.19 -46.8675 1.12 -46.1875 3.5 C-45.76339844 3.10167969 -45.33929688 2.70335937 -44.90234375 2.29296875 C-32.48096294 -8.92722359 -13.89673328 -9.7277133 0 0 Z " fill="#181C4D" transform="translate(290.1875,20.5)"/>
<path d="M0 0 C1.66579102 -0.0309375 1.66579102 -0.0309375 3.36523438 -0.0625 C4.42935547 -0.06765625 5.49347656 -0.0728125 6.58984375 -0.078125 C7.56687256 -0.0874707 8.54390137 -0.09681641 9.55053711 -0.10644531 C12.0625 0.25 12.0625 0.25 13.69644165 1.42991638 C15.57622132 3.93446254 15.43442884 5.61320061 15.43139648 8.7277832 C15.43827988 9.84937332 15.44516327 10.97096344 15.45225525 12.12654114 C15.44609695 13.33904037 15.43993866 14.55153961 15.43359375 15.80078125 C15.45097868 18.36132944 15.46856303 20.92187629 15.48632812 23.48242188 C15.49941059 27.52466014 15.50000156 31.56687614 15.49829102 35.60913086 C15.5018608 39.50661698 15.52920925 43.40341708 15.55859375 47.30078125 C15.55041122 48.50720779 15.5422287 49.71363434 15.53379822 50.95661926 C15.59012572 57.30495208 15.64713895 61.49283746 20.0625 66.25 C23.97549544 68.57664593 27.57828435 68.64335225 32.0625 68.25 C36.1921762 66.661663 38.98022041 65.20633123 41.0625 61.25 C43.13232093 54.5079587 43.31745308 47.9779093 43.22265625 40.9765625 C43.21745468 39.93100189 43.21225311 38.88544128 43.20689392 37.80819702 C43.1892075 34.49698417 43.15802895 31.18609245 43.125 27.875 C43.09736149 24.54251708 43.07268085 21.21007738 43.05381775 17.87753296 C43.04157749 15.81078137 43.02399036 13.74405306 43.00050354 11.67739868 C42.99397263 10.74567841 42.98744171 9.81395813 42.98071289 8.85400391 C42.97245987 8.03509674 42.96420685 7.21618958 42.95570374 6.37246704 C43.0625 4.25 43.0625 4.25 44.0625 1.25 C49.51323241 0.33911557 54.79035797 0.06702635 60.3125 0.0625 C61.11429688 0.05025391 61.91609375 0.03800781 62.7421875 0.02539062 C68.70315754 0.01043836 68.70315754 0.01043836 72.0625 2.25 C72.35397533 5.11529056 72.451028 7.76412049 72.41894531 10.63110352 C72.42098969 11.49785706 72.42303406 12.3646106 72.42514038 13.25762939 C72.42815624 16.13160074 72.40964862 19.00500281 72.390625 21.87890625 C72.38756894 23.86905271 72.38569165 25.85920131 72.38494873 27.84934998 C72.38034075 32.02326624 72.36589489 36.19699009 72.34375 40.37084961 C72.31544892 45.73359971 72.3045373 51.09619817 72.3000679 56.45901585 C72.29592046 60.56895987 72.28610895 64.67887293 72.27419281 68.78880119 C72.26847714 70.7668527 72.26372276 72.74490721 72.25992584 74.72296333 C72.25308647 77.48145974 72.23946571 80.23983345 72.22363281 82.99829102 C72.22251495 83.82376938 72.22139709 84.64924774 72.22024536 85.4997406 C72.1771863 91.1353137 72.1771863 91.1353137 71.0625 92.25 C67.28495817 92.66130221 63.48260071 92.76685698 59.6875 92.9375 C58.62015625 92.99744141 57.5528125 93.05738281 56.453125 93.11914062 C55.42960938 93.16619141 54.40609375 93.21324219 53.3515625 93.26171875 C52.41006348 93.30772217 51.46856445 93.35372559 50.49853516 93.40112305 C48.0625 93.25 48.0625 93.25 45.0625 91.25 C44.375 89.125 44.375 89.125 44.0625 87.25 C43.381875 88.013125 42.70125 88.77625 42 89.5625 C35.82491806 95.21204305 29.2302172 96.23922465 21.0625 96.25 C11.22138166 95.55069573 1.10814553 92.49135791 -5.9375 85.25 C-13.59933832 74.4773401 -14.22912593 64.85492874 -14.1328125 52.03125 C-14.12907633 50.56294956 -14.12623222 49.09464661 -14.12423706 47.62634277 C-14.11664807 43.78602051 -14.09704103 39.94585263 -14.0748291 36.10559082 C-14.05426793 32.17718595 -14.04521351 28.24875582 -14.03515625 24.3203125 C-14.01379002 16.63013841 -13.97971222 8.94009094 -13.9375 1.25 C-9.82565087 -0.80592456 -4.51915712 0.02090992 0 0 Z " fill="#181C4D" transform="translate(570.9375,16.75)"/>
<path d="M0 0 C3.37341547 2.64035939 6.25602878 5.75485681 9.22265625 8.8359375 C12.08065906 11.65698338 15.01971775 14.18958895 18.19140625 16.64453125 C19.1453125 17.38960937 20.09921875 18.1346875 21.08203125 18.90234375 C24.40362951 20.7809526 26.18465024 21.06206005 29.94140625 20.51953125 C31.9311439 19.46724393 31.9311439 19.46724393 33.56640625 17.76953125 C34.56994141 16.8259375 34.56994141 16.8259375 35.59375 15.86328125 C37.3831556 14.07685303 39.16666338 12.28537065 40.9453125 10.48828125 C41.47108887 9.9581543 41.99686523 9.42802734 42.53857422 8.88183594 C43.57946451 7.8265643 44.61394182 6.76491885 45.64111328 5.69628906 C51.55921594 -0.36942174 56.32431674 -2.40369112 64.62890625 -2.79296875 C71.45965698 -2.7216027 76.96971522 -0.26348337 82.75390625 3.20703125 C88.86212372 9.66428972 91.4150222 17.03930772 91.2734375 25.8046875 C89.6279742 39.25876976 76.66549299 47.9427461 67.07421875 56.109375 C65.15975354 57.77544883 65.15975354 57.77544883 62.94140625 60.51953125 C63.02511377 63.91805646 63.76789953 65.31577718 65.98046875 67.9140625 C67.26050781 69.11095703 67.26050781 69.11095703 68.56640625 70.33203125 C72.95667507 74.54693983 77.00320813 78.88635699 80.94140625 83.51953125 C81.41449219 84.03 81.88757813 84.54046875 82.375 85.06640625 C87.28865893 90.49038584 89.2787806 95.66777074 89.00390625 102.95703125 C88.10200318 110.09296761 84.55344292 114.90749458 79.56640625 119.89453125 C72.105468 124.51320731 65.64937362 125.60004835 57.12890625 123.64453125 C49.73099606 120.5803081 43.65322115 113.81206118 38.75390625 107.64453125 C35.74341834 104.00434243 32.4786828 101.87124362 27.94140625 100.51953125 C21.90494598 100.02473942 19.20198436 101.78331593 14.50390625 105.51953125 C10.87833226 108.66303446 7.47551433 111.95777884 4.12890625 115.39453125 C-1.26424514 120.86391093 -5.88738684 123.04703796 -13.54296875 123.57421875 C-20.4970375 123.42304334 -25.40307899 120.0626139 -30.359375 115.3984375 C-34.75307525 110.54011608 -35.3975682 105.51648498 -35.5546875 99.2421875 C-33.95594572 90.46799047 -28.13779618 84.93977274 -22.00439453 78.88891602 C-20.54551569 77.44407907 -19.11249723 75.97650309 -17.6796875 74.50585938 C-16.76316406 73.59126953 -15.84664063 72.67667969 -14.90234375 71.734375 C-14.06896484 70.900271 -13.23558594 70.06616699 -12.37695312 69.20678711 C-10.05859375 67.51953125 -10.05859375 67.51953125 -7.75585938 67.75610352 C-7.19576172 68.00803467 -6.63566406 68.25996582 -6.05859375 68.51953125 C-6.6177347 72.32658416 -8.19342402 73.96376142 -10.953125 76.56640625 C-11.74396484 77.32953125 -12.53480469 78.09265625 -13.34960938 78.87890625 C-15.01662789 80.45941025 -16.68586414 82.03757875 -18.35742188 83.61328125 C-26.0285755 90.88110525 -26.0285755 90.88110525 -29.17285156 100.6875 C-28.8932735 105.47617044 -27.25703241 108.91103635 -24.05859375 112.51953125 C-20.25672392 115.30981709 -16.69787105 116.89373694 -11.93359375 116.51953125 C-2.7288054 114.6607002 3.43324708 106.19086061 9.62890625 99.70703125 C15.37186108 94.27450641 19.95390693 92.13191595 27.80859375 92.3203125 C38.49964247 93.31892694 45.1257137 101.56623885 52.12890625 108.89453125 C56.53135149 113.32349724 59.99936536 115.46699481 66.44140625 115.58203125 C70.93004036 114.21941018 73.7556088 111.91231554 76.94140625 108.51953125 C78.07697863 106.24838649 78.17224943 104.79659506 78.25390625 102.26953125 C78.29128906 101.521875 78.32867188 100.77421875 78.3671875 100.00390625 C77.38618776 94.27990776 72.7851341 90.13418121 68.7734375 86.2265625 C68.29315598 85.75385422 67.81287445 85.28114594 67.31803894 84.79411316 C65.80147472 83.30174409 64.2785703 81.81612131 62.75390625 80.33203125 C60.73382124 78.36514804 58.72047082 76.39171832 56.7109375 74.4140625 C55.81995361 73.54628174 54.92896973 72.67850098 54.01098633 71.78442383 C51.225136 68.73566442 50.76019564 66.20790278 50.62890625 62.20703125 C50.57283203 61.09908203 50.57283203 61.09908203 50.515625 59.96875 C51.53009478 54.13322202 56.15426134 50.09920993 60.25390625 46.14453125 C64.71046709 41.7883769 68.98879338 37.34214858 72.94140625 32.51953125 C73.48925781 31.86597656 74.03710938 31.21242187 74.6015625 30.5390625 C76.70764804 27.36458371 76.57632354 24.14763005 75.94140625 20.51953125 C74.33217128 17.41600667 72.93793358 15.30251701 70.19140625 13.14453125 C66.65794841 12.16301518 63.52326107 11.77941102 59.94140625 12.51953125 C53.73753244 16.07689838 48.75116859 21.49306547 43.8203125 26.5859375 C42.29259215 28.13894189 40.76458872 29.69166786 39.23632812 31.24414062 C36.86505637 33.66501338 34.49713878 36.08898978 32.13452148 38.51831055 C29.8304244 40.88317398 27.51374462 43.2351376 25.1953125 45.5859375 C24.50127823 46.30689102 23.80724396 47.02784454 23.09217834 47.77064514 C16.61569223 54.31204268 9.85943915 59.17684231 0.41796875 59.64453125 C-8.09884812 59.21466037 -13.10836237 55.22689604 -19.05859375 49.51953125 C-20.7665904 48.03997583 -22.47493678 46.56082405 -24.18359375 45.08203125 C-31.373712 38.57773966 -36.87196149 32.29115689 -37.43359375 22.26953125 C-37.22784347 15.08037434 -34.65414939 8.83276645 -29.74609375 3.58203125 C-21.76888503 -3.53867716 -9.56107825 -5.64882076 0 0 Z M-22.05859375 13.51953125 C-24.8794833 17.52337448 -25.44136728 20.51587848 -24.73852539 25.36621094 C-23.4247081 29.52702547 -20.34842882 32.26046374 -17.30859375 35.26953125 C-16.68726563 35.91535156 -16.0659375 36.56117187 -15.42578125 37.2265625 C-8.11668764 44.90710191 -8.11668764 44.90710191 1.75390625 47.66796875 C5.32602193 47.42557519 7.38845447 45.82312495 9.94140625 43.51953125 C10.78445313 42.7925 11.6275 42.06546875 12.49609375 41.31640625 C17.3273156 37.4163326 17.3273156 37.4163326 20.94140625 32.51953125 C20.39468262 32.33084473 19.84795898 32.1421582 19.28466797 31.94775391 C12.38882656 29.26857165 8.0808516 25.2313338 3.06640625 19.89453125 C1.59185027 18.35874803 0.11537027 16.82480918 -1.36328125 15.29296875 C-2.00249512 14.61669434 -2.64170898 13.94041992 -3.30029297 13.24365234 C-6.19819575 10.40208202 -7.77531475 9.54739476 -11.87109375 9.14453125 C-16.24584442 9.27320039 -18.74218174 10.58874854 -22.05859375 13.51953125 Z " fill="#1D63AA" transform="translate(455.05859375,2.48046875)"/>
<path d="M0 0 C4.93620951 4.0666637 8.27181128 9.74422186 10.1953125 15.80859375 C10.27177415 18.14067395 10.28674549 20.47705253 10.1953125 22.80859375 C5.77899073 22.95369126 1.36328057 23.04260193 -3.0546875 23.12109375 C-4.30894531 23.16298828 -5.56320312 23.20488281 -6.85546875 23.24804688 C-8.66337891 23.2722168 -8.66337891 23.2722168 -10.5078125 23.296875 C-12.17312012 23.33615112 -12.17312012 23.33615112 -13.87207031 23.3762207 C-17.74649243 22.62630134 -18.57663599 20.9484241 -20.8046875 17.80859375 C-24.022464 16.8030386 -25.90321548 16.51622444 -29.1171875 17.55859375 C-31.11751765 18.79026118 -31.11751765 18.79026118 -31.8046875 21.80859375 C-29.16928915 26.06414413 -26.75972409 27.59594756 -22.04296875 29.0546875 C-20.36364258 29.59899414 -20.36364258 29.59899414 -18.65039062 30.15429688 C-17.48443359 30.51458984 -16.31847656 30.87488281 -15.1171875 31.24609375 C5.85075164 37.76395229 5.85075164 37.76395229 11.1953125 46.80859375 C14.75103424 55.86795435 15.08439966 62.97519184 11.51953125 72.09375 C7.20784396 80.93334489 -0.26514891 86.32883812 -9.3671875 89.55859375 C-21.24743987 93.15313165 -33.18686167 92.74922351 -44.546875 87.5546875 C-52.3853894 83.18275014 -58.58238743 77.4014995 -61.37890625 68.703125 C-61.98406415 66.01044994 -62.07201299 63.54868007 -61.8046875 60.80859375 C-59.12729543 58.13120168 -51.70794217 59.37775756 -48.1171875 59.30859375 C-46.93189453 59.25445312 -45.74660156 59.2003125 -44.52539062 59.14453125 C-35.86761481 59.00857067 -35.86761481 59.00857067 -32.73974609 61.36279297 C-31.16015625 63.26953125 -31.16015625 63.26953125 -29.94213867 65.18505859 C-28.80763534 67.12993264 -28.80763534 67.12993264 -25.8046875 67.93359375 C-22.05761464 67.77746571 -19.90725922 66.90102584 -16.8046875 64.80859375 C-15.47575494 62.99317898 -15.47575494 62.99317898 -15.8046875 60.80859375 C-18.5660687 56.6544519 -20.89378156 54.98246394 -25.56640625 53.34375 C-26.68595703 52.93576172 -27.80550781 52.52777344 -28.95898438 52.10742188 C-30.70791992 51.49543945 -30.70791992 51.49543945 -32.4921875 50.87109375 C-43.7238845 46.91253612 -53.44720776 43.33816957 -59.8046875 32.80859375 C-61.98926572 26.2548591 -61.8380655 18.33134993 -59.1796875 11.93359375 C-58.43650367 10.53179529 -57.64535646 9.1541928 -56.8046875 7.80859375 C-56.41539062 7.18339844 -56.02609375 6.55820312 -55.625 5.9140625 C-50.01748849 -1.70087176 -40.27559904 -5.53959239 -31.16015625 -6.9453125 C-20.00274613 -8.11101207 -9.5436742 -6.15275459 0 0 Z " fill="#181C4D" transform="translate(713.8046875,21.19140625)"/>
</svg>
