<?xml version="1.0" encoding="UTF-8"?>
<svg version="1.1" xmlns="http://www.w3.org/2000/svg" width="704" height="212">
<path d="M0 0 C4.47394861 2.27918137 6.89284565 4.46925984 9 9 C9.45838993 12.07774747 9.48833077 15.13029674 9.51171875 18.23828125 C9.53864555 19.55943184 9.53864555 19.55943184 9.56611633 20.90727234 C9.6201191 23.7089668 9.65408266 26.51049187 9.6875 29.3125 C9.72068195 31.21682039 9.75517243 33.12111846 9.79101562 35.02539062 C9.87583978 39.68347134 9.94269874 44.3415027 10 49 C10.4549585 48.53952271 10.90991699 48.07904541 11.37866211 47.60461426 C13.24943118 45.71257684 15.12480411 43.82514976 17 41.9375 C17.64839844 41.28072266 18.29679687 40.62394531 18.96484375 39.94726562 C22.12977215 36.76666926 25.31803466 33.68353831 28.734375 30.7734375 C32.280622 27.71726935 35.59980967 24.46299711 38.890625 21.13671875 C39.40733765 20.61450241 39.92405029 20.09228607 40.4564209 19.554245 C42.60283567 17.38012053 44.74547369 15.20235508 46.88378906 13.02026367 C48.46501098 11.40885306 50.05239031 9.80371356 51.640625 8.19921875 C52.35946869 7.46018562 52.35946869 7.46018562 53.09283447 6.70622253 C57.16205515 2.6067429 60.14584992 0.71420732 65.9375 0.5625 C69.91775858 0.62707647 70.77221489 0.82335032 74.0625 3.375 C76.80089634 7.08508537 77.1492494 9.20809703 77.328125 13.83203125 C76.51495328 19.20477298 72.53084379 22.71434561 68.8125 26.375 C68.32201172 26.85831787 67.83152344 27.34163574 67.32617188 27.83959961 C64.02418259 31.06875089 60.63580874 34.1652467 57.125 37.1640625 C54.37351246 39.54126681 51.68654314 41.98757535 49 44.4375 C48.05125 45.30246094 47.1025 46.16742188 46.125 47.05859375 C45.073125 48.01958984 45.073125 48.01958984 44 49 C46.70795872 54.00369889 49.68626273 58.31702911 53.3125 62.6875 C58.36998595 68.89670652 63.25504905 75.22032328 68.0625 81.625 C68.70550049 82.47795654 69.34850098 83.33091309 70.01098633 84.2097168 C70.6170874 85.01965088 71.22318848 85.82958496 71.84765625 86.6640625 C72.6521521 87.73841553 72.6521521 87.73841553 73.47290039 88.83447266 C76.87525549 93.6592352 78.61351084 96.85892127 78.42578125 102.77734375 C77.68913463 106.62277425 75.8404281 108.35774131 73 111 C68.36842206 112.54385931 63.97598629 112.7711166 59.4375 111 C52.9871286 105.70738757 48.11843731 98.65050482 43.25 91.9375 C42.6523584 91.11983154 42.0547168 90.30216309 41.43896484 89.4597168 C40.21856815 87.78965759 38.99964334 86.11852177 37.78222656 84.44628906 C35.5611315 81.3976079 33.32933529 78.35686975 31.09667969 75.31665039 C29.06220468 72.54607883 27.03108719 69.77305577 25 67 C23.35441176 68.40560662 21.71228292 69.81544576 20.08691406 71.24438477 C18 73 18 73 15.78027344 74.55053711 C12.55146529 76.93292693 10.34720121 78.62937457 9.33789062 82.61376953 C9.13243581 85.62388598 9.13855441 88.5477047 9.25 91.5625 C9.5162115 103.89435648 9.5162115 103.89435648 5 109 C1.4381718 111.96819017 -1.57367107 112.47095651 -6.07421875 112.29296875 C-10.21890818 111.6624379 -13.36978814 109.15625423 -16 106 C-17.3187665 102.04370051 -17.16408426 98.2512653 -17.17700195 94.12573242 C-17.18357315 93.21809647 -17.19014435 92.31046051 -17.19691467 91.37532043 C-17.21664143 88.36870238 -17.22830837 85.36213423 -17.23828125 82.35546875 C-17.24235678 81.32864801 -17.2464323 80.30182728 -17.25063133 79.24389076 C-17.27148854 73.80997544 -17.28579228 68.37608536 -17.29516602 62.94213867 C-17.30623496 57.32977579 -17.34064167 51.71780888 -17.38033772 46.10558605 C-17.40648012 41.7895687 -17.41485571 37.4736461 -17.41844749 33.15755653 C-17.4233189 31.08871089 -17.43494858 29.01986963 -17.45348549 26.9511013 C-17.47782801 24.05456494 -17.47692084 21.15905847 -17.4699707 18.26245117 C-17.48278076 17.40976654 -17.49559082 16.55708191 -17.50878906 15.67855835 C-17.46184083 10.30450125 -16.55473534 7.27373408 -13 3 C-9.05487821 -0.28760149 -4.99255392 -0.88103893 0 0 Z " fill="#4CB9D3" transform="translate(483,40)"/>
<path d="M0 0 C2.37860228 -0.0097724 4.75636267 -0.04090638 7.13476562 -0.07226562 C8.66601058 -0.0787917 10.1972616 -0.08404372 11.72851562 -0.08789062 C12.42973541 -0.10023743 13.1309552 -0.11258423 13.85342407 -0.12530518 C18.94965407 -0.10251694 22.31265598 0.91361064 26.75195312 3.24023438 C29.64627986 6.50562864 30.65687704 8.46604337 31.18945312 12.80273438 C30.71310712 16.54545302 30.15972636 18.3509065 27.75195312 21.24023438 C22.57894705 24.54953964 18.26222178 24.6539876 12.33007812 24.61132812 C10.481118 24.62871708 8.63215971 24.64630139 6.78320312 24.6640625 C3.89579776 24.67410182 1.00851579 24.67773827 -1.87890625 24.67602539 C-20.78591692 24.66504405 -20.78591692 24.66504405 -36.56054688 34.31835938 C-42.64105001 41.24337684 -44.75899858 50.29593481 -44.56054688 59.33789062 C-43.67694474 67.5443455 -40.1769113 75.44312249 -34.24804688 81.24023438 C-25.99367883 87.34535187 -16.81329347 88.52245092 -6.79492188 88.54882812 C-5.02408485 88.57395964 -3.25325159 88.59935802 -1.48242188 88.625 C1.27147661 88.65383018 4.02531025 88.67789247 6.77929688 88.6965332 C9.4632013 88.71818527 12.1464137 88.75758476 14.83007812 88.79882812 C15.65098938 88.79894394 16.47190063 88.79905975 17.31768799 88.79917908 C21.95265101 88.87932488 24.96325637 89.27991524 28.75195312 92.24023438 C31.31827829 95.66200127 31.11630363 99.08663859 30.75195312 103.24023438 C29.23203209 106.42483084 27.46899354 108.97603403 24.75195312 111.24023438 C20.78899796 112.56121943 16.96816482 112.44271478 12.83398438 112.47851562 C11.94394211 112.48658737 11.05389984 112.49465912 10.1368866 112.50297546 C8.24467919 112.51681809 6.35244679 112.52753945 4.46020508 112.53540039 C2.55290243 112.54681751 0.64562906 112.56710216 -1.26147461 112.59692383 C-22.1878914 112.92387055 -41.05683917 110.10674614 -56.77148438 94.93554688 C-65.70003594 85.21835353 -70.37212256 73.37909904 -71.24804688 60.24023438 C-71.29960937 59.5828125 -71.35117188 58.92539063 -71.40429688 58.24804688 C-72.02504987 44.12591623 -66.83315238 29.7196546 -57.93554688 18.80273438 C-42.03576095 2.230129 -21.70900238 0.05395775 0 0 Z " fill="#221E53" transform="translate(310.248046875,39.759765625)"/>
<path d="M0 0 C1.13392433 -0.00074776 1.13392433 -0.00074776 2.29075623 -0.00151062 C3.88502642 0.00081807 5.47930112 0.01047502 7.07348633 0.02709961 C9.46535697 0.05048079 11.85609239 0.04767708 14.24804688 0.04101562 C34.81732123 0.07728289 52.42011213 3.01763137 68.1484375 17.38671875 C79.36525729 28.96953842 83.29783429 42.88118515 83.23681641 58.55957031 C82.87727447 74.46517771 77.05748758 86.20062821 65.93359375 97.36328125 C65.37929687 97.94078125 64.825 98.51828125 64.25390625 99.11328125 C50.7457902 112.01655629 31.44521635 112.88788897 13.91088867 112.80932617 C10.97700807 112.8007253 8.04502192 112.8298198 5.11132812 112.86132812 C3.23046933 112.86293837 1.34960711 112.86236599 -0.53125 112.859375 C-1.40007309 112.87060898 -2.26889618 112.88184296 -3.16404724 112.89341736 C-8.60607877 112.83104383 -11.77382024 112.0235199 -16.06640625 108.36328125 C-18.89009196 104.12775269 -18.73294382 100.33850811 -18.06640625 95.36328125 C-16.26993771 92.4290493 -15.12229915 90.8912277 -12.06640625 89.36328125 C-9.12271302 89.24212772 -6.19871752 89.17748729 -3.25390625 89.15234375 C-1.43749142 89.12424696 0.37891469 89.09558236 2.1953125 89.06640625 C5.05419406 89.02536266 7.91291794 88.98847332 10.77197266 88.96191406 C13.53452214 88.9340338 16.29633513 88.8881352 19.05859375 88.83984375 C20.31700073 88.83496445 20.31700073 88.83496445 21.60083008 88.82998657 C31.41842919 88.63009116 40.4903827 85.93835487 47.93359375 79.36328125 C55.36034149 70.4893514 56.76472746 61.5205743 56.12890625 50.27978516 C55.38069543 42.93796647 51.58719644 36.07062417 45.93359375 31.36328125 C40.1314614 27.82875442 34.57085081 25.26745342 27.71923828 25.20556641 C26.89803497 25.19530426 26.07683167 25.18504211 25.23074341 25.17446899 C24.35151215 25.16716766 23.47228088 25.15986633 22.56640625 25.15234375 C20.69269956 25.12427734 18.81900176 25.09561289 16.9453125 25.06640625 C14.00049062 25.02515812 11.05583496 24.98825657 8.11083984 24.96191406 C5.26235027 24.93424493 2.41460664 24.88837889 -0.43359375 24.83984375 C-1.30877655 24.83659088 -2.18395935 24.83333801 -3.08566284 24.82998657 C-8.127465 24.72905113 -11.72758342 24.21412381 -16.06640625 21.36328125 C-18.910866 17.09659162 -18.56280589 13.3673099 -18.06640625 8.36328125 C-16.66968408 4.50175525 -15.60813376 3.64244043 -11.94946289 1.75708008 C-8.00372813 0.14459485 -4.22316895 -0.05498143 0 0 Z " fill="#221E53" transform="translate(18.06640625,39.63671875)"/>
<path d="M0 0 C0.92453476 -0.01283524 1.84906952 -0.02567047 2.80162048 -0.03889465 C3.7933577 -0.04628159 4.78509491 -0.05366852 5.80688477 -0.0612793 C6.83258072 -0.06935104 7.85827667 -0.07742279 8.91505432 -0.08573914 C11.08283813 -0.09955678 13.25064349 -0.11028929 15.41845703 -0.11816406 C18.73259463 -0.13541634 22.04574456 -0.17932839 25.35961914 -0.22338867 C27.46703369 -0.23351272 29.5744567 -0.24202972 31.68188477 -0.2487793 C32.67159775 -0.26628738 33.66131073 -0.28379547 34.68101501 -0.30183411 C39.08190465 -0.28795539 41.59480492 -0.26194458 45.41259766 2.07861328 C48.00932738 4.94921032 48.51999632 6.69535407 48.68579102 10.48950195 C48.73477539 11.24875977 48.78375977 12.00801758 48.83422852 12.7902832 C48.01592453 16.52150513 46.2979573 17.84286076 43.31079102 20.17700195 C40.16433776 20.88450039 37.09503635 20.82780603 33.88110352 20.77856445 C32.51826736 20.79057388 32.51826736 20.79057388 31.12789917 20.80282593 C28.23007411 20.82586377 25.33365332 20.81645033 22.43579102 20.80200195 C19.54533229 20.79814479 16.65549585 20.80168409 13.7651062 20.82260132 C11.96983505 20.8346152 10.17438905 20.83214622 8.37918091 20.81289673 C2.938011 20.83703065 -0.90445009 21.50559519 -5.68920898 24.17700195 C-7.989394 27.43179754 -7.989394 27.43179754 -8.68920898 31.17700195 C-7.32716379 35.36042649 -4.77743366 36.9862541 -1.03051758 39.06835938 C5.28568827 42.05917176 12.10689235 44.01377266 18.73266602 46.20239258 C29.62411774 49.94046087 40.61257806 54.55489767 46.31079102 65.17700195 C49.97777856 74.36350362 49.4621913 84.65696358 45.61938477 93.7121582 C41.0303095 102.35605818 34.38631288 106.76007885 25.31079102 110.17700195 C18.98682486 111.95990002 12.96826322 112.48475057 6.42016602 112.4777832 C5.51252502 112.48206833 4.60488403 112.48635345 3.66973877 112.49076843 C1.76722035 112.49647103 -0.13531985 112.49704233 -2.0378418 112.49267578 C-4.94544268 112.48949513 -7.85204446 112.51309667 -10.75952148 112.53833008 C-12.61629104 112.54060146 -14.47306332 112.54130732 -16.32983398 112.5402832 C-17.1944928 112.54949295 -18.05915161 112.5587027 -18.95001221 112.56819153 C-23.67701695 112.53190622 -26.87763745 112.28747422 -30.68920898 109.17700195 C-33.36055361 105.16998501 -33.5157418 101.88823899 -32.68920898 97.17700195 C-30.15952424 93.89524877 -28.61189567 92.48456418 -24.68920898 91.17700195 C-21.73905399 91.05822351 -18.80825195 90.99169569 -15.85717773 90.96606445 C-14.07136133 90.93799218 -12.28555416 90.90932769 -10.49975586 90.88012695 C-7.68880508 90.83890851 -4.87802594 90.80201431 -2.06689453 90.77563477 C0.649205 90.74794626 3.36452525 90.70207287 6.08032227 90.65356445 C6.91489456 90.65031158 7.74946686 90.64705872 8.60932922 90.64370728 C13.54758045 90.54024197 17.06365242 89.96833862 21.31079102 87.17700195 C23.66009945 83.40387022 24.58768996 81.43563353 23.62329102 77.05200195 C18.14484762 70.24096421 8.42155786 68.051162 0.31079102 65.67700195 C-11.11954786 62.33114646 -23.61316606 58.33445941 -30.06420898 47.55200195 C-34.08219397 39.2069562 -33.98270884 29.15335604 -31.25170898 20.36450195 C-27.34568488 11.09110905 -20.24884101 5.82516072 -11.16967773 2.05200195 C-7.35715442 0.70711184 -4.05019002 0.04916347 0 0 Z " fill="#4CB9D3" transform="translate(395.689208984375,39.822998046875)"/>
<path d="M0 0 C4.08866079 2.43579792 5.54171077 4.55040716 7 9 C7.25447559 11.65997219 7.25447559 11.65997219 7.26069641 14.5721283 C7.26778122 15.68099899 7.27486603 16.78986969 7.28216553 17.93234253 C7.27968811 19.13923737 7.27721069 20.3461322 7.2746582 21.58959961 C7.2823246 23.50744514 7.2823246 23.50744514 7.29014587 25.46403503 C7.30351557 28.96405938 7.30411684 32.4639756 7.30158257 35.96402049 C7.30051152 38.88894598 7.30539965 41.81384972 7.310188 44.73877054 C7.32127608 51.64056091 7.32172448 58.54229684 7.31567383 65.4440918 C7.30963328 72.55768416 7.32194859 79.67107877 7.3432439 86.78463739 C7.36087193 92.89859461 7.36685938 99.01248894 7.36360615 105.12647063 C7.36179512 108.77522985 7.36441144 112.423848 7.37832069 116.07258415 C7.39325444 120.14218825 7.38391846 124.21139092 7.37231445 128.28100586 C7.38378006 130.08831177 7.38378006 130.08831177 7.39547729 131.93212891 C7.33047531 142.23421951 7.33047531 142.23421951 4 147 C0.7525341 149.86985359 -1.77097319 151.25126393 -6.0625 151.4375 C-11.26880282 150.85902191 -14.64890794 149.02131048 -18 145 C-19.02472191 141.92583427 -19.13309118 139.81336477 -19.14717102 136.592453 C-19.15790398 134.90802849 -19.15790398 134.90802849 -19.16885376 133.1895752 C-19.17154266 131.95678833 -19.17423157 130.72400146 -19.17700195 129.45385742 C-19.18357315 128.15607864 -19.19014435 126.85829987 -19.19691467 125.52119446 C-19.21793715 121.2159651 -19.22831477 116.91073545 -19.23828125 112.60546875 C-19.24232936 111.12251581 -19.2464463 109.63956305 -19.25063133 108.15661049 C-19.26967835 101.18981525 -19.28391088 94.22303058 -19.2922433 87.25621432 C-19.30201689 79.21747819 -19.32834139 71.17901732 -19.36874419 63.14037818 C-19.39891213 56.92456174 -19.41371277 50.70882418 -19.41702431 44.49293596 C-19.41937389 40.78147909 -19.42832188 37.07031647 -19.45348549 33.35893822 C-19.48111375 29.21722476 -19.47693306 25.07612593 -19.4699707 20.93432617 C-19.48278076 19.707612 -19.49559082 18.48089783 -19.50878906 17.2170105 C-19.46985159 10.8726314 -19.39836746 6.75643797 -15 2 C-10.08086983 -1.54634966 -5.67852809 -1.5401174 0 0 Z " fill="#4CB9D3" transform="translate(697,1)"/>
<path d="M0 0 C2.95365832 1.83484835 5.41785273 3.83570547 7 7 C7.10069566 8.51945045 7.13940933 10.04321538 7.14717102 11.565979 C7.15432632 12.52768509 7.16148163 13.48939117 7.16885376 14.48023987 C7.17288712 16.06831703 7.17288712 16.06831703 7.17700195 17.68847656 C7.18357315 18.80079147 7.19014435 19.91310638 7.19691467 21.05912781 C7.21668164 24.75296083 7.22831789 28.44675313 7.23828125 32.140625 C7.24235678 33.40004662 7.2464323 34.65946823 7.25063133 35.95705414 C7.26935236 41.93500795 7.28391464 47.91293699 7.2922433 53.89091229 C7.30201072 60.78751897 7.32831598 67.68380425 7.36874419 74.58029771 C7.40257062 80.55611033 7.41439064 86.53176724 7.41844749 92.5076828 C7.42332433 95.04821705 7.43496929 97.5887476 7.45348549 100.12921906 C7.4777864 103.68438902 7.47692791 107.23871803 7.4699707 110.79394531 C7.48278076 111.8445665 7.49559082 112.89518768 7.50878906 113.97764587 C7.46609434 119.96013982 7.01955937 123.45819394 3 128 C-0.97402724 130.4285722 -5.44659964 130.73068264 -10 130 C-14.05012098 127.89993727 -16.3303763 126.23209528 -18 122 C-18.25447559 119.72577763 -18.25447559 119.72577763 -18.26069641 117.18678284 C-18.26778122 116.22088226 -18.27486603 115.25498169 -18.28216553 114.2598114 C-18.27968811 113.2067128 -18.27721069 112.1536142 -18.2746582 111.06860352 C-18.27976913 109.95439026 -18.28488007 108.840177 -18.29014587 107.69219971 C-18.30406044 104.00438078 -18.30308371 100.31674833 -18.30078125 96.62890625 C-18.30466706 94.0682722 -18.30900149 91.50763879 -18.31376648 88.94700623 C-18.32123265 83.57784674 -18.32107254 78.20875587 -18.31567383 72.83959961 C-18.30963358 66.63769662 -18.32194718 60.43602048 -18.3432439 54.23415619 C-18.36299402 48.26261323 -18.36603247 42.29114048 -18.36250877 36.31956291 C-18.3630227 33.78100998 -18.36827378 31.24245347 -18.37832069 28.70392036 C-18.39063898 25.15603213 -18.38392065 21.60867065 -18.37231445 18.06079102 C-18.37995819 17.00971664 -18.38760193 15.95864227 -18.39547729 14.87571716 C-18.32995413 5.82655949 -18.32995413 5.82655949 -15 2 C-9.90478721 -0.99718399 -5.5857744 -1.88830835 0 0 Z " fill="#8ED3E5" transform="translate(649,22)"/>
<path d="M0 0 C5.00111301 2.4533762 6.96780528 4.88162932 9 10 C9.41495629 13.01535865 9.41044677 15.99105272 9.38818359 19.03125 C9.39344055 19.91981689 9.39869751 20.80838379 9.40411377 21.72387695 C9.4172746 24.64943222 9.40858952 27.57443958 9.3984375 30.5 C9.40045936 32.5397146 9.40337173 34.57942849 9.40713501 36.61914062 C9.41155306 40.88939308 9.40514393 45.159457 9.39111328 49.4296875 C9.37402182 54.89732878 9.38386576 60.36452824 9.40183067 65.83215332 C9.41268246 70.04267696 9.40921574 74.25309623 9.4014473 78.46362305 C9.39944915 80.47941134 9.40189099 82.49520918 9.40888596 84.51098633 C9.4165233 87.33049544 9.40486412 90.14929369 9.38818359 92.96875 C9.39729263 94.21265503 9.39729263 94.21265503 9.40658569 95.48168945 C9.35293897 100.38806512 8.70579907 103.74635786 6 108 C2.7525341 110.86985359 0.22902681 112.25126393 -4.0625 112.4375 C-9.43437438 111.84062507 -11.68116162 110.5896924 -15.10827637 106.45874023 C-17.53288152 102.02570401 -17.56498228 98.74967969 -17.51757812 93.78515625 C-17.5245874 92.87708221 -17.53159668 91.96900818 -17.53881836 91.03341675 C-17.55637032 88.0427967 -17.54478541 85.05312906 -17.53125 82.0625 C-17.53394571 79.97794412 -17.5378288 77.89338947 -17.54284668 75.80883789 C-17.54873794 71.44437667 -17.54019056 67.08024336 -17.52148438 62.71582031 C-17.49869528 57.12699786 -17.51182032 51.53894381 -17.53577423 45.95014954 C-17.55024211 41.64695466 -17.54562162 37.34394137 -17.53526306 33.04074097 C-17.53259853 30.98029489 -17.5358559 28.91983222 -17.54518127 26.85940552 C-17.55536298 23.97744199 -17.53982283 21.09671537 -17.51757812 18.21484375 C-17.52567505 17.36687225 -17.53377197 16.51890076 -17.54211426 15.64523315 C-17.46574288 10.29275907 -16.53311935 7.25872727 -13 3 C-9.05061527 -0.29115394 -4.99650314 -0.87193878 0 0 Z " fill="#C8E5E9" transform="translate(600,40)"/>
<path d="M0 0 C0.89832047 -0.00686325 1.79664093 -0.0137265 2.72218323 -0.02079773 C5.68018571 -0.03904151 8.63765666 -0.03523208 11.59570312 -0.02954102 C13.65783866 -0.03410357 15.71997268 -0.03940936 17.78210449 -0.04542542 C22.09942816 -0.05435146 26.4165668 -0.05193861 30.73388672 -0.04199219 C36.26215013 -0.03049596 41.78977542 -0.05072686 47.31795502 -0.07990932 C51.57480921 -0.09826709 55.83151031 -0.09797981 60.08839417 -0.0922718 C62.12651973 -0.09211858 64.16465567 -0.09816403 66.20274353 -0.11056328 C69.0535371 -0.12546542 71.90314929 -0.11480224 74.75390625 -0.09765625 C75.59252701 -0.10732422 76.43114777 -0.11699219 77.29518127 -0.12695312 C82.6176135 -0.06002821 85.64561362 0.88273898 89.87695312 4.40405273 C92.59762585 8.39437274 92.66109497 12.73962137 91.87695312 17.40405273 C90.15225523 20.90526349 87.84964111 22.98279512 84.23777771 24.54704285 C80.14778876 25.58998956 76.43040087 25.69188223 72.22875977 25.67871094 C70.95684029 25.68637733 70.95684029 25.68637733 69.65922546 25.69419861 C66.86844743 25.70804886 64.0779176 25.70714136 61.28710938 25.70483398 C59.33947153 25.70872326 57.39183452 25.71305841 55.44419861 25.71781921 C51.36649829 25.72527148 47.28888456 25.72499722 43.21118164 25.71972656 C37.99475835 25.71393155 32.77869008 25.73086859 27.56232548 25.75407124 C23.54135579 25.76882716 19.52047126 25.76967777 15.49947929 25.76656151 C13.57661676 25.76707373 11.65374934 25.77229276 9.73091316 25.78237343 C7.03855659 25.79475734 4.34688719 25.78793465 1.65454102 25.77636719 C0.86626923 25.78401093 0.07799744 25.79165466 -0.73416138 25.79953003 C-6.98266452 25.74041333 -11.72616399 24.49364294 -16.56054688 20.27905273 C-18.74892881 16.25242997 -18.78394575 12.8916377 -18.12304688 8.40405273 C-16.77715426 4.96454939 -15.69053319 3.76222662 -12.5760498 1.79649353 C-8.22565002 0.04217294 -4.64219641 -0.02491893 0 0 Z " fill="#221E53" transform="translate(141.123046875,39.595947265625)"/>
<path d="M0 0 C0.76147842 -0.00832352 1.52295685 -0.01664703 2.30751038 -0.02522278 C4.82175833 -0.04929407 7.33574673 -0.05809114 9.85009766 -0.06469727 C11.60120724 -0.07366555 13.35231605 -0.08278743 15.10342407 -0.09205627 C18.77355816 -0.10854084 22.44360107 -0.11624545 26.11376953 -0.11914062 C30.81043314 -0.12452496 35.50623689 -0.16220888 40.2026577 -0.20788479 C43.81956085 -0.23766615 47.43625715 -0.24486441 51.05327225 -0.24586678 C52.78440923 -0.25006669 54.51554696 -0.2624919 56.24656296 -0.28338432 C58.67152427 -0.31032344 61.09449536 -0.30546737 63.51953125 -0.29296875 C64.23038376 -0.30780304 64.94123627 -0.32263733 65.67362976 -0.33792114 C71.30342644 -0.25553429 73.57119357 1.46934702 77.38916016 5.30639648 C79.25849321 8.39485979 79.39266005 10.11390231 79.32666016 13.74389648 C78.15109007 18.2110628 76.59251418 20.02491187 73.38916016 23.30639648 C70.38854134 24.80670589 67.29737481 24.47113977 64.00537109 24.48339844 C63.24418472 24.48996964 62.48299835 24.49654083 61.69874573 24.50331116 C59.17367457 24.52305948 56.64866298 24.53471105 54.12353516 24.54467773 C53.26128578 24.54875326 52.39903641 24.55282879 51.51065826 24.55702782 C46.9455845 24.5778966 42.38054085 24.59219395 37.81542969 24.6015625 C33.10316868 24.61261962 28.39138084 24.64700895 23.67928696 24.6867342 C20.05382417 24.71290065 16.42847402 24.72125442 12.80292511 24.72484398 C11.06621358 24.72971106 9.32950712 24.74132857 7.59288788 24.75988197 C5.15838861 24.7842713 2.72511178 24.78330905 0.29052734 24.77636719 C-0.42346725 24.78917725 -1.13746185 24.8019873 -1.87309265 24.81518555 C-6.90056346 24.76308721 -9.72062567 23.42805313 -13.61083984 20.30639648 C-15.95865126 17.31827287 -16.02909065 14.08728461 -15.93115234 10.33764648 C-15.39727848 6.95210491 -13.80357886 4.86459201 -11.61083984 2.30639648 C-7.99832911 -0.17777161 -4.22824255 0.00393117 0 0 Z " fill="#6E6D8F" transform="translate(138.61083984375,83.693603515625)"/>
<path d="M0 0 C1.67258881 -0.01925285 1.67258881 -0.01925285 3.37896729 -0.03889465 C4.58003113 -0.04628159 5.78109497 -0.05366852 7.01855469 -0.0612793 C8.25909607 -0.06935104 9.49963745 -0.07742279 10.777771 -0.08573914 C13.40375373 -0.09956889 16.02975436 -0.110296 18.65576172 -0.11816406 C21.3386104 -0.12701728 24.02094001 -0.14787844 26.70361328 -0.1796875 C30.5795857 -0.22238283 34.45487622 -0.23853689 38.33105469 -0.2487793 C39.52402161 -0.26628738 40.71698853 -0.28379547 41.94610596 -0.30183411 C48.89051627 -0.28381786 53.61502197 0.25883445 59.44042969 4.17700195 C62.11742655 8.66756944 62.11897054 13.07139579 61.44042969 18.17700195 C59.31587294 21.81909923 57.31066853 23.62744512 53.44042969 25.17700195 C50.6907196 25.44442749 50.6907196 25.44442749 47.49780273 25.4675293 C45.70024788 25.48666885 45.70024788 25.48666885 43.86637878 25.50619507 C42.57468277 25.50842072 41.28298676 25.51064636 39.95214844 25.51293945 C38.60699829 25.51937106 37.26184952 25.52609969 35.91670227 25.53311157 C33.09816244 25.54507592 30.27974507 25.54879339 27.46118164 25.54760742 C23.86324037 25.54740453 20.2660916 25.57467849 16.66833782 25.60915184 C13.88949535 25.63147901 11.11084167 25.63544317 8.33191872 25.63438797 C6.36499297 25.63787241 4.39812615 25.65950257 2.43132019 25.68148804 C-4.4337489 25.64651401 -9.02857006 25.4047519 -14.55957031 21.17700195 C-17.00214736 18.20342989 -16.91893043 14.92021803 -16.81347656 11.13793945 C-16.31203989 7.26530545 -14.44479084 4.97655598 -11.62207031 2.42700195 C-7.8688111 0.1522994 -4.327544 0.04348899 0 0 Z " fill="#B6B6C5" transform="translate(139.5595703125,126.822998046875)"/>
<path d="M0 0 C1.65 0 3.3 0 5 0 C6.98 5.28 8.96 10.56 11 16 C12.98 10.72 14.96 5.44 17 0 C18.65 0 20.3 0 22 0 C23.98 5.28 25.96 10.56 28 16 C29.65 11.05 31.3 6.1 33 1 C34.65 0.67 36.3 0.34 38 0 C39.65869015 6.07958484 37.47365111 10.52105065 35.375 16.25 C35.03082031 17.26835937 34.68664062 18.28671875 34.33203125 19.3359375 C33.80802734 20.78613281 33.80802734 20.78613281 33.2734375 22.265625 C32.80043213 23.59255371 32.80043213 23.59255371 32.31787109 24.94628906 C31 27 31 27 28.35791016 27.79589844 C27.5797998 27.86325195 26.80168945 27.93060547 26 28 C23.74138003 23.06612142 21.59890486 18.19644079 20 13 C17.54630202 16.68054697 16.55947967 20.3872336 15.29296875 24.6015625 C14 27 14 27 11.36328125 27.8359375 C10.58339844 27.89007813 9.80351563 27.94421875 9 28 C-0.51203501 7.56673961 -0.51203501 7.56673961 0 0 Z " fill="#221E53" transform="translate(663,184)"/>
<path d="M0 0 C3.49772053 1.63494983 5.40154791 3.9935124 7.375 7.3125 C8.63612425 12.73533428 8.83330329 16.42267591 6.25 21.3125 C3.36939363 24.75322428 1.25412132 26.58195956 -3 28 C-8.24894167 28.39614654 -11.55342094 27.86557317 -16 25 C-19.80802992 21.50072926 -20.76042805 18.28550612 -21.09375 13.27734375 C-20.88652954 8.2436135 -19.05942813 5.05942813 -15.5625 1.5625 C-10.35289661 -0.72241377 -5.59890816 -0.88968952 0 0 Z M-14 9 C-15.33660145 12.35592863 -15.33660145 12.35592863 -15 16 C-13.17331062 19.57537156 -13.17331062 19.57537156 -10 22 C-6.006899 22.70054403 -4.02982754 22.67751812 -0.625 20.4375 C1.58331487 17.1250277 2.06874509 14.98721529 2 11 C0.66706406 8.20572603 -0.56338913 7.12555416 -3 5 C-7.95177337 3.96838055 -10.66602309 5.28499716 -14 9 Z " fill="#221E53" transform="translate(421,184)"/>
<path d="M0 0 C4.19486576 1.76625927 6.11949069 3.64400145 8 7.6875 C9.49764131 12.43741563 8.78274818 16.42078408 7 21 C4.56947955 24.93911934 2.49974437 26.8489026 -2 28 C-7.26497067 28.4786337 -10.51028356 27.79360134 -15 25 C-18.21490116 22.21954494 -19.73627472 20.26976671 -20.23828125 15.94921875 C-20.41972808 10.41986524 -19.73276814 7.35489616 -16 3 C-11.30424988 -1.33374295 -6.05233597 -0.70489054 0 0 Z M-13 9 C-14.44430855 11.88861709 -14.37688506 13.79647701 -14 17 C-12.06307631 20.02033737 -12.06307631 20.02033737 -9 22 C-5.00192592 22.63127485 -2.99264015 22.67917484 0.375 20.375 C2.38506043 17.43721938 2.92733979 15.5603504 3 12 C1.39588152 8.47093933 0.25840638 7.17227092 -3 5 C-7.94690306 4.36848046 -9.90247488 5.09941281 -13 9 Z " fill="#221E53" transform="translate(626,184)"/>
<path d="M0 0 C2.2109375 -0.328125 2.2109375 -0.328125 5 0 C7.3515625 2.265625 7.3515625 2.265625 9.625 5.25 C10.38039062 6.22453125 11.13578125 7.1990625 11.9140625 8.203125 C12.60242188 9.12609375 13.29078125 10.0490625 14 11 C14.99 12.32 15.98 13.64 17 15 C17.33 10.05 17.66 5.1 18 0 C19.65 0 21.3 0 23 0 C23 8.91 23 17.82 23 27 C18 27 18 27 16.33081055 25.62304688 C15.61598511 24.68041992 15.61598511 24.68041992 14.88671875 23.71875 C14.0987793 22.70361328 14.0987793 22.70361328 13.29492188 21.66796875 C12.76447266 20.95253906 12.23402344 20.23710937 11.6875 19.5 C11.13771484 18.78457031 10.58792969 18.06914062 10.02148438 17.33203125 C8.66700628 15.56532069 7.33162675 13.78399756 6 12 C5.67 16.95 5.34 21.9 5 27 C3.35 27 1.7 27 0 27 C-1.71084501 25.28915499 -1.13014689 23.05639907 -1.1328125 20.72265625 C-1.13410156 19.65208984 -1.13539063 18.58152344 -1.13671875 17.47851562 C-1.13285156 16.35123047 -1.12898437 15.22394531 -1.125 14.0625 C-1.12886719 12.93908203 -1.13273438 11.81566406 -1.13671875 10.65820312 C-1.13542969 9.58634766 -1.13414062 8.51449219 -1.1328125 7.41015625 C-1.13168457 6.42152588 -1.13055664 5.43289551 -1.12939453 4.41430664 C-1 2 -1 2 0 0 Z " fill="#221E53" transform="translate(208,184)"/>
<path d="M0 0 C0.88042969 0.18304688 1.76085937 0.36609375 2.66796875 0.5546875 C4.8125 1.125 4.8125 1.125 5.8125 2.125 C5.85313832 3.79117115 5.855221 5.45888095 5.8125 7.125 C4.90886719 7.01800781 4.00523437 6.91101563 3.07421875 6.80078125 C1.30498047 6.62095703 1.30498047 6.62095703 -0.5 6.4375 C-2.25763672 6.24607422 -2.25763672 6.24607422 -4.05078125 6.05078125 C-7.13758606 5.8350539 -7.13758606 5.8350539 -9.0546875 7.42578125 C-10.75340658 9.97385987 -11.0052664 12.08777341 -11.1875 15.125 C-10.49264736 17.90723378 -10.49264736 17.90723378 -9.1875 20.125 C-6.90044169 21.26852916 -5.59485238 21.22834439 -3.0625 21.1875 C-1.144375 21.1565625 -1.144375 21.1565625 0.8125 21.125 C1.4725 19.805 2.1325 18.485 2.8125 17.125 C0.8325 17.125 -1.1475 17.125 -3.1875 17.125 C-3.8475 15.805 -4.5075 14.485 -5.1875 13.125 C-4.1875 12.125 -4.1875 12.125 -1.46484375 12.02734375 C1.62760417 12.05989583 4.72005208 12.09244792 7.8125 12.125 C7.8125 16.085 7.8125 20.045 7.8125 24.125 C2.55868059 27.07451265 -1.01245113 28.9254693 -7.1875 28.125 C-11.83396027 26.39396578 -14.62613658 24.39393904 -17.1875 20.125 C-18.50015659 14.78686321 -18.44688182 10.96141214 -16.2734375 5.88671875 C-14.16001165 2.45810343 -11.04055225 0.77240528 -7.3203125 -0.52734375 C-4.65809268 -0.96129533 -2.63087814 -0.56736811 0 0 Z " fill="#221E53" transform="translate(514.1875,183.875)"/>
<path d="M0 0 C2.56314499 -0.08132187 5.12368418 -0.14064175 7.6875 -0.1875 C8.40873047 -0.21263672 9.12996094 -0.23777344 9.87304688 -0.26367188 C14.46146874 -0.32652697 17.36934474 0.13296248 21 3 C22.59869331 6.19738662 22.51085495 9.530167 22 13 C20 16 20 16 18 18 C19.0209375 19.11375 19.0209375 19.11375 20.0625 20.25 C22 23 22 23 21.75 25.3125 C21.5025 25.869375 21.255 26.42625 21 27 C18.875 26.9375 18.875 26.9375 16 26 C14.3573076 24.25227612 12.93659242 22.4362505 11.52734375 20.49609375 C9.88008308 18.5334928 9.88008308 18.5334928 6 19 C5.67 21.64 5.34 24.28 5 27 C3.35 27 1.7 27 0 27 C-0.19665429 23.06290089 -0.38075477 19.12531328 -0.5625 15.1875 C-0.61857422 14.06794922 -0.67464844 12.94839844 -0.73242188 11.79492188 C-0.80493164 10.18520508 -0.80493164 10.18520508 -0.87890625 8.54296875 C-0.9260376 7.55321045 -0.97316895 6.56345215 -1.02172852 5.54370117 C-1 3 -1 3 0 0 Z M5 6 C4.83333333 9 4.83333333 9 5 12 C6.89488952 13.89488952 9.57139146 13.18019112 12.08984375 13.23046875 C14.2412636 13.1702792 14.2412636 13.1702792 16 11 C15.83492354 8.42459787 15.83492354 8.42459787 15 6 C12.30891695 4.65445847 7.3130459 3.6869541 5 6 Z " fill="#221E53" transform="translate(554,184)"/>
<path d="M0 0 C1.18613892 0.00785522 1.18613892 0.00785522 2.39624023 0.01586914 C3.67724609 0.02070313 3.67724609 0.02070313 4.98413086 0.02563477 C5.88196289 0.03401367 6.77979492 0.04239258 7.70483398 0.05102539 C8.6065332 0.05553711 9.50823242 0.06004883 10.43725586 0.06469727 C12.67234712 0.07652315 14.90730835 0.09300319 17.14233398 0.11352539 C17.47233398 1.10352539 17.80233398 2.09352539 18.14233398 3.11352539 C15.37191289 5.88394648 13.37699593 5.51148645 9.51733398 5.73852539 C8.32881836 5.81329102 7.14030273 5.88805664 5.91577148 5.96508789 C5.00053711 6.01407227 4.08530273 6.06305664 3.14233398 6.11352539 C3.14233398 7.43352539 3.14233398 8.75352539 3.14233398 10.11352539 C7.10233398 10.44352539 11.06233398 10.77352539 15.14233398 11.11352539 C15.47233398 12.43352539 15.80233398 13.75352539 16.14233398 15.11352539 C14.33117443 16.92468495 11.52955171 16.49551987 9.07983398 16.67602539 C7.42274414 16.80170898 7.42274414 16.80170898 5.73217773 16.92993164 C4.8775293 16.99051758 4.02288086 17.05110352 3.14233398 17.11352539 C2.81233398 18.76352539 2.48233398 20.41352539 2.14233398 22.11352539 C7.09233398 22.11352539 12.04233398 22.11352539 17.14233398 22.11352539 C17.47233398 23.43352539 17.80233398 24.75352539 18.14233398 26.11352539 C17.14233398 27.11352539 17.14233398 27.11352539 15.19287109 27.22705078 C14.36021729 27.22181396 13.52756348 27.21657715 12.66967773 27.21118164 C11.77055664 27.20795898 10.87143555 27.20473633 9.94506836 27.20141602 C8.99954102 27.19303711 8.05401367 27.1846582 7.07983398 27.17602539 C6.13043945 27.17151367 5.18104492 27.16700195 4.20288086 27.16235352 C1.84930333 27.15052649 -0.50415079 27.13404564 -2.85766602 27.11352539 C-2.88653138 22.8010393 -2.90441856 18.48857777 -2.92016602 14.17602539 C-2.92854492 12.94432617 -2.93692383 11.71262695 -2.94555664 10.44360352 C-2.9487793 9.2737793 -2.95200195 8.10395508 -2.95532227 6.89868164 C-2.96055908 5.81466064 -2.9657959 4.73063965 -2.97119141 3.61376953 C-2.8149165 0.17202473 -2.8149165 0.17202473 0 0 Z " fill="#221E53" transform="translate(158.857666015625,183.886474609375)"/>
<path d="M0 0 C0.78375 0.04125 1.5675 0.0825 2.375 0.125 C11.949522 18.78993895 11.949522 18.78993895 13.375 24.125 C13.045 25.115 12.715 26.105 12.375 27.125 C10 26.875 10 26.875 7.375 26.125 C7.1171875 25.465 6.859375 24.805 6.59375 24.125 C6.1915625 23.465 5.789375 22.805 5.375 22.125 C2.4963065 21.41964389 2.4963065 21.41964389 -0.75 21.375 C-1.84570312 21.31828125 -2.94140625 21.2615625 -4.0703125 21.203125 C-4.91335937 21.17734375 -5.75640625 21.1515625 -6.625 21.125 C-7.285 23.105 -7.945 25.085 -8.625 27.125 C-10.275 27.125 -11.925 27.125 -13.625 27.125 C-13.0996439 21.08744611 -11.21046038 16.29156617 -8.6875 10.8125 C-8.32720703 10.00232422 -7.96691406 9.19214844 -7.59570312 8.35742188 C-3.90110815 0.18576705 -3.90110815 0.18576705 0 0 Z M-0.625 8.125 C-2.8263866 11.92927492 -2.8263866 11.92927492 -3.625 16.125 C-1.315 16.125 0.995 16.125 3.375 16.125 C2.385 13.485 1.395 10.845 0.375 8.125 C0.045 8.125 -0.285 8.125 -0.625 8.125 Z " fill="#221E53" transform="translate(62.625,183.875)"/>
<path d="M0 0 C7.26 0 14.52 0 22 0 C22 1.65 22 3.3 22 5 C19.36 5 16.72 5 14 5 C14 11.93 14 18.86 14 26 C12.35 26.33 10.7 26.66 9 27 C8 26 8 26 7.88647461 23.95874023 C7.89171143 23.08419189 7.89694824 22.20964355 7.90234375 21.30859375 C7.90556641 20.36435547 7.90878906 19.42011719 7.91210938 18.44726562 C7.92048828 17.45404297 7.92886719 16.46082031 7.9375 15.4375 C7.94201172 14.44041016 7.94652344 13.44332031 7.95117188 12.41601562 C7.96299993 9.94395151 7.97948151 7.47200482 8 5 C5.36 5 2.72 5 0 5 C0 3.35 0 1.7 0 0 Z " fill="#221E53" transform="translate(262,184)"/>
<path d="M0 0 C0.87454834 0.00523682 1.74909668 0.01047363 2.65014648 0.01586914 C3.59438477 0.0190918 4.53862305 0.02231445 5.51147461 0.02563477 C6.50469727 0.03401367 7.49791992 0.04239258 8.52124023 0.05102539 C9.51833008 0.05553711 10.51541992 0.06004883 11.54272461 0.06469727 C14.01478872 0.07652532 16.48673541 0.0930069 18.95874023 0.11352539 C18.62874023 1.76352539 18.29874023 3.41352539 17.95874023 5.11352539 C15.64874023 5.11352539 13.33874023 5.11352539 10.95874023 5.11352539 C10.95874023 12.37352539 10.95874023 19.63352539 10.95874023 27.11352539 C9.30874023 27.11352539 7.65874023 27.11352539 5.95874023 27.11352539 C4.95874023 26.11352539 4.95874023 26.11352539 4.84521484 24.07226562 C4.85045166 23.19771729 4.85568848 22.32316895 4.86108398 21.42211914 C4.86430664 20.47788086 4.8675293 19.53364258 4.87084961 18.56079102 C4.87922852 17.56756836 4.88760742 16.5743457 4.89624023 15.55102539 C4.90075195 14.55393555 4.90526367 13.5568457 4.90991211 12.52954102 C4.92174017 10.0574769 4.93822174 7.58553021 4.95874023 5.11352539 C2.64874023 5.11352539 0.33874023 5.11352539 -2.04125977 5.11352539 C-2.60375977 3.17602539 -2.60375977 3.17602539 -3.04125977 1.11352539 C-2.04125977 0.11352539 -2.04125977 0.11352539 0 0 Z " fill="#221E53" transform="translate(4.041259765625,183.886474609375)"/>
<path d="M0 0 C1.65 0.33 3.3 0.66 5 1 C5 7.93 5 14.86 5 22 C9.29 22 13.58 22 18 22 C18.33 23.32 18.66 24.64 19 26 C17.4779041 27.5220959 16.11789918 27.12959521 14 27.1328125 C13.195625 27.13410156 12.39125 27.13539063 11.5625 27.13671875 C10.716875 27.13285156 9.87125 27.12898438 9 27.125 C8.154375 27.12886719 7.30875 27.13273437 6.4375 27.13671875 C5.633125 27.13542969 4.82875 27.13414062 4 27.1328125 C3.2575 27.13168457 2.515 27.13055664 1.75 27.12939453 C0 27 0 27 -1 26 C-1.09959621 24.15840977 -1.13080411 22.31303033 -1.1328125 20.46875 C-1.13410156 19.34855469 -1.13539062 18.22835937 -1.13671875 17.07421875 C-1.13285156 15.89472656 -1.12898438 14.71523437 -1.125 13.5 C-1.12886719 12.32050781 -1.13273437 11.14101562 -1.13671875 9.92578125 C-1.13542969 8.80558594 -1.13414063 7.68539062 -1.1328125 6.53125 C-1.13168457 5.49548828 -1.13055664 4.45972656 -1.12939453 3.39257812 C-1 1 -1 1 0 0 Z " fill="#221E53" transform="translate(107,184)"/>
<path d="M0 0 C0.87454834 0.00523682 1.74909668 0.01047363 2.65014648 0.01586914 C3.59438477 0.0190918 4.53862305 0.02231445 5.51147461 0.02563477 C6.50469727 0.03401367 7.49791992 0.04239258 8.52124023 0.05102539 C9.51833008 0.05553711 10.51541992 0.06004883 11.54272461 0.06469727 C14.01478872 0.07652532 16.48673541 0.0930069 18.95874023 0.11352539 C19.52124023 2.05102539 19.52124023 2.05102539 19.95874023 4.11352539 C18.95874023 5.11352539 18.95874023 5.11352539 11.95874023 6.11352539 C11.62874023 13.04352539 11.29874023 19.97352539 10.95874023 27.11352539 C9.30874023 27.11352539 7.65874023 27.11352539 5.95874023 27.11352539 C5.62874023 20.18352539 5.29874023 13.25352539 4.95874023 6.11352539 C2.64874023 5.78352539 0.33874023 5.45352539 -2.04125977 5.11352539 C-2.60375977 3.17602539 -2.60375977 3.17602539 -3.04125977 1.11352539 C-2.04125977 0.11352539 -2.04125977 0.11352539 0 0 Z " fill="#221E53" transform="translate(353.041259765625,183.886474609375)"/>
</svg>
