<?xml version="1.0" encoding="UTF-8"?>
<svg version="1.1" xmlns="http://www.w3.org/2000/svg" width="666" height="218">
<path d="M0 0 C26.27000981 15.70657093 45.18790724 39.27427603 53.01611328 69.0222168 C60.13917654 98.66479966 55.38921254 128.91255022 39.63671875 154.84765625 C36.31113181 159.98329512 32.6316729 164.59192498 28.51953125 169.1171875 C28.04918457 169.63667969 27.57883789 170.15617188 27.09423828 170.69140625 C8.54493199 190.91609501 -16.28727786 203.03253966 -43.69921875 205.30078125 C-47.11007442 205.42362987 -49.64787639 205.07821298 -52.48046875 203.1171875 C-54.04023939 199.99764622 -53.60151001 196.68759366 -53.578125 193.265625 C-53.57671005 192.49159332 -53.5752951 191.71756165 -53.57383728 190.92007446 C-53.56823278 188.44407308 -53.55567958 185.96816162 -53.54296875 183.4921875 C-53.53795433 181.81510547 -53.53339132 180.13802203 -53.52929688 178.4609375 C-53.5182619 174.34631944 -53.50099429 170.23176872 -53.48046875 166.1171875 C-54.55006836 166.14337158 -55.61966797 166.16955566 -56.72167969 166.1965332 C-60.6947737 166.28711857 -64.66777673 166.34446607 -68.64160156 166.3918457 C-70.36050776 166.41697117 -72.07930731 166.45107797 -73.79785156 166.49438477 C-76.27044989 166.55512779 -78.74163481 166.58341512 -81.21484375 166.60546875 C-81.98165466 166.63127518 -82.74846558 166.6570816 -83.53851318 166.68367004 C-86.92618083 166.68544585 -89.00058118 166.50062726 -91.68205261 164.358078 C-94.48816598 159.30123605 -94.04513417 154.38684526 -94.01391602 148.6953125 C-94.02253159 147.43464966 -94.03114716 146.17398682 -94.0400238 144.87512207 C-94.06249502 141.42464128 -94.05958392 137.97461966 -94.05070233 134.52409363 C-94.04558695 131.64130169 -94.05288933 128.75859562 -94.06017441 125.87581253 C-94.07716574 119.07468385 -94.07361493 112.2737796 -94.05688477 105.47265625 C-94.03995719 98.46000174 -94.05580778 91.44796942 -94.08810765 84.43538284 C-94.11480856 78.40972925 -94.12207848 72.38426928 -94.11359257 66.35856247 C-94.10866553 62.76172828 -94.11086644 59.16526857 -94.13138008 55.56848145 C-94.15315765 51.55828019 -94.13433344 47.54925817 -94.11157227 43.5390625 C-94.12326447 42.3492981 -94.13495667 41.15953369 -94.14700317 39.93371582 C-94.05432175 31.92468391 -94.05432175 31.92468391 -91.17730713 27.876297 C-87.57194257 25.52456873 -84.49732795 25.48373982 -80.3359375 25.62890625 C-79.18125725 25.63951836 -79.18125725 25.63951836 -78.00325012 25.65034485 C-75.55714572 25.67821825 -73.11337491 25.74093613 -70.66796875 25.8046875 C-69.00459048 25.82977982 -67.34117613 25.85259137 -65.67773438 25.87304688 C-61.61108718 25.92802079 -57.54617286 26.01423823 -53.48046875 26.1171875 C-53.52123535 25.20952637 -53.56200195 24.30186523 -53.60400391 23.36669922 C-53.75081548 19.97877303 -53.88753831 16.59074399 -54.01757812 13.20214844 C-54.0757512 11.73941871 -54.1378679 10.27684003 -54.20410156 8.81445312 C-54.2989539 6.70470713 -54.37931397 4.59481348 -54.45703125 2.484375 C-54.50939941 1.21706543 -54.56176758 -0.05024414 -54.61572266 -1.35595703 C-54.47799666 -4.94727434 -53.87274124 -7.58211096 -52.48046875 -10.8828125 C-40.87934028 -20.32373084 -11.42373958 -6.17984565 0 0 Z M-51.48046875 28.1171875 C-51.48046875 72.9971875 -51.48046875 117.8771875 -51.48046875 164.1171875 C-35.60582624 162.98328446 -24.21537728 160.60150548 -11.48046875 151.1171875 C-10.77535156 150.59511719 -10.07023437 150.07304687 -9.34375 149.53515625 C4.47168681 138.37966601 13.81250398 120.63428519 15.74707031 103.04882812 C17.18749106 83.53520368 11.12264902 66.29157546 -1.5234375 51.32421875 C-2.16925781 50.59589844 -2.81507812 49.86757813 -3.48046875 49.1171875 C-4.03347656 48.48167969 -4.58648437 47.84617187 -5.15625 47.19140625 C-17.78386272 33.59939351 -33.48915275 30.23381291 -51.48046875 28.1171875 Z " fill="#080137" transform="translate(93.48046875,12.8828125)"/>
<path d="M0 0 C46.74572476 0 46.74572476 0 59.73828125 12.5234375 C68.83937227 22.48905357 71.66601138 34.49835661 71.28125 47.8046875 C70.21728614 59.8924991 65.79154191 70.19565721 56.84375 78.53515625 C41.35099307 90.84402034 17.24781877 86 0 86 C0 57.62 0 29.24 0 0 Z M9 10 C9 32.11 9 54.22 9 77 C33.23794112 78.4084183 33.23794112 78.4084183 53 68 C59.506488 61.493512 61.4087769 53.48765033 61.5 44.5625 C61.36446528 34.49216046 59.11532221 26.1426487 51.98046875 18.71875 C39.57923923 7.95634174 25.14147911 10 9 10 Z " fill="#080138" transform="translate(191,64)"/>
<path d="M0 0 C2.97 0 5.94 0 9 0 C9 26.73 9 53.46 9 81 C6.03 81 3.06 81 0 81 C-0.495 77.04 -0.495 77.04 -1 73 C-2.3921875 74.36125 -2.3921875 74.36125 -3.8125 75.75 C-10.24637959 81.22398627 -18.11394469 83.73869267 -26.53125 83.3125 C-36.18888508 82.09001455 -43.56867007 78.37073391 -49.82421875 70.7890625 C-56.33293109 61.55394039 -56.84822754 51.98345912 -56 41 C-54.19774129 32.39934769 -48.81867202 25.31530965 -41.62109375 20.36328125 C-33.03409676 15.42611165 -23.8177539 14.40919076 -14.0703125 16.68359375 C-7.97103692 18.91752295 -6.01704215 20.98295785 -1 26 C-0.67 17.42 -0.34 8.84 0 0 Z M-40.8828125 31.90234375 C-45.88040025 38.19157858 -47.55580114 44.12825669 -47.37109375 52.125 C-46.34485574 60.07564399 -42.05942427 65.59532158 -36.0625 70.625 C-30.03595791 74.64269473 -24.04052233 74.71505305 -17 74 C-10.25999304 72.20114679 -5.99343976 67.51316545 -2 62 C1.52849664 55.58455157 1.45658895 48.42284603 -0.1484375 41.45703125 C-2.61701148 34.33440265 -7.7643915 29.88254869 -14 26 C-23.53363903 22.82212032 -33.75833419 24.70396006 -40.8828125 31.90234375 Z " fill="#080134" transform="translate(587,69)"/>
<path d="M0 0 C7.3602031 5.88269021 11.13601683 13.32529786 12.7890625 22.4921875 C12.7890625 24.4721875 12.7890625 26.4521875 12.7890625 28.4921875 C-5.3609375 28.4921875 -23.5109375 28.4921875 -42.2109375 28.4921875 C-40.13238888 39.74770268 -40.13238888 39.74770268 -33.3046875 48.09765625 C-27.21838015 52.03390937 -21.29419799 52.48516794 -14.2109375 51.4921875 C-6.78174279 49.63776836 -2.80627392 45.37319976 1.7890625 39.4921875 C2.4490625 38.8321875 3.1090625 38.1721875 3.7890625 37.4921875 C6.0990625 38.8121875 8.4090625 40.1321875 10.7890625 41.4921875 C8.66252578 49.05320696 2.3907453 54.75898179 -4.2578125 58.52734375 C-12.44580403 62.57221157 -21.7889551 62.64808522 -30.5234375 60.3046875 C-40.62633126 56.79696279 -44.9577598 50.32547165 -50.0234375 41.2421875 C-53.06561565 31.63530912 -53.04195177 21.85688905 -49.2109375 12.4921875 C-44.61516802 4.09226433 -38.55118216 -2.01460703 -29.359375 -5.13671875 C-18.87456415 -6.94773153 -8.87241157 -6.05079658 0 0 Z M-36.8359375 10.20703125 C-39.60453283 13.80148598 -40.27576383 15.81631917 -41.2109375 20.4921875 C-26.6909375 20.4921875 -12.1709375 20.4921875 2.7890625 20.4921875 C0.42915645 13.25768259 0.42915645 13.25768259 -4.0859375 8.6171875 C-4.74335938 8.06289062 -5.40078125 7.50859375 -6.078125 6.9375 C-15.70873843 0.41126013 -28.86759038 1.79812648 -36.8359375 10.20703125 Z " fill="#080137" transform="translate(436.2109375,90.5078125)"/>
<path d="M0 0 C8.97895075 5.19224776 14.38990448 12.34218592 17.7421875 22.01953125 C18.31828065 25.37512537 18.12109375 28.82187526 18.12109375 32.2265625 C-0.02890625 32.2265625 -18.17890625 32.2265625 -36.87890625 32.2265625 C-34.80716206 41.54941135 -32.97047821 47.8321812 -24.87890625 53.2265625 C-19.63536324 56.40972878 -13.79815938 55.86684995 -7.87890625 55.2265625 C-0.56735937 53.17174851 3.34640225 49.47762849 7.16015625 43.01953125 C7.47726562 42.42785156 7.794375 41.83617187 8.12109375 41.2265625 C11.09303225 42.35107977 13.45550062 43.44950041 16.12109375 45.2265625 C14.56894643 51.5903665 11.32956361 56.00980151 5.97265625 59.7109375 C-3.13661071 64.99617772 -12.42375489 66.88216127 -22.81640625 64.57421875 C-31.89873191 61.63507725 -37.96464049 56.4309251 -42.87109375 48.31640625 C-47.17717348 39.38713238 -47.73372261 27.24507615 -44.44140625 17.7890625 C-40.27539649 9.17734622 -33.72213184 2.73335885 -24.87890625 -0.7734375 C-17.64928419 -3.18331152 -7.11029286 -2.87637556 0 0 Z M-31.75390625 15.1640625 C-34.28336652 18.50321708 -34.28336652 18.50321708 -35.87890625 24.2265625 C-21.35890625 24.2265625 -6.83890625 24.2265625 8.12109375 24.2265625 C5.67138798 16.87744518 2.53458626 12.41119771 -4.00390625 8.2265625 C-14.7462324 4.54070793 -24.28905086 6.98724114 -31.75390625 15.1640625 Z " fill="#080137" transform="translate(318.87890625,86.7734375)"/>
<path d="M0 0 C0.825 0.5775 1.65 1.155 2.5 1.75 C3.36625 2.306875 4.2325 2.86375 5.125 3.4375 C9.58408021 7.77923599 12.28319751 13.73438097 12.62025452 19.97735596 C12.61803391 20.78565857 12.61581329 21.59396118 12.61352539 22.42675781 C12.61344986 23.34741028 12.61337433 24.26806274 12.61329651 25.21661377 C12.60813522 26.20216248 12.60297394 27.18771118 12.59765625 28.203125 C12.5962413 29.21848328 12.59482635 30.23384155 12.59336853 31.27996826 C12.58777516 34.52000892 12.57522385 37.75998025 12.5625 41 C12.55748414 43.19791567 12.55292139 45.39583242 12.54882812 47.59375 C12.5378079 52.97919334 12.52054778 58.36458492 12.5 63.75 C9.53 63.75 6.56 63.75 3.5 63.75 C3.48541748 62.4182373 3.47083496 61.08647461 3.45581055 59.71435547 C3.39771899 54.7604728 3.32048627 49.80703949 3.23754883 44.85351562 C3.20435062 42.7119884 3.17630286 40.57037476 3.15356445 38.42871094 C3.11992496 35.34532946 3.06760346 32.26273631 3.01171875 29.1796875 C3.00532883 28.22633514 2.9989389 27.27298279 2.99235535 26.29074097 C2.87548951 20.97425194 2.27798142 17.43001858 -0.5 12.75 C-0.5 12.09 -0.5 11.43 -0.5 10.75 C-6.19488547 7.99441026 -12.49055634 6.82929959 -18.625 8.6875 C-24.16482893 11.10286542 -28.27255867 15.78696789 -30.56445312 21.31958008 C-31.72306188 25.56791296 -31.85247597 29.48401992 -31.9140625 33.8671875 C-31.93342865 34.72434357 -31.9527948 35.58149963 -31.9727478 36.46463013 C-32.03221256 39.18465428 -32.07879569 41.90472152 -32.125 44.625 C-32.1632103 46.47658028 -32.20226378 48.32814337 -32.2421875 50.1796875 C-32.33788664 54.70298425 -32.42203906 59.22636416 -32.5 63.75 C-35.47 63.75 -38.44 63.75 -41.5 63.75 C-41.5 42.63 -41.5 21.51 -41.5 -0.25 C-38.53 -0.25 -35.56 -0.25 -32.5 -0.25 C-32.17 2.39 -31.84 5.03 -31.5 7.75 C-31.0875 7.35167969 -30.675 6.95335938 -30.25 6.54296875 C-21.74488608 -1.25971389 -11.2413409 -4.01476461 0 0 Z " fill="#080138" transform="translate(504.5,86.25)"/>
<path d="M0 0 C3.3 0 6.6 0 10 0 C12.36641012 5.42590309 14.73253041 10.85193243 17.09838867 16.27807617 C17.90234652 18.12186045 18.7063819 19.96561092 19.51049805 21.80932617 C20.66996594 24.46784606 21.82914985 27.12648963 22.98828125 29.78515625 C23.34465164 30.60210464 23.70102203 31.41905304 24.06819153 32.26075745 C26.0615638 36.83373587 28.04008988 41.412577 30 46 C34.71302049 35.9982145 39.08189965 25.87442339 43.375 15.6875 C44.0219405 14.15681865 44.66907483 12.6262192 45.31640625 11.09570312 C46.87983212 7.3980724 48.44065923 3.69935521 50 0 C53.3 0 56.6 0 60 0 C57.81366876 6.90315486 55.17784836 13.4878554 52.28125 20.12109375 C51.59883492 21.69675362 51.59883492 21.69675362 50.90263367 23.304245 C49.43843926 26.68346097 47.96925036 30.06047968 46.5 33.4375 C44.50485968 38.03704564 42.51215768 42.63764608 40.51953125 47.23828125 C40.03519119 48.35559631 39.55085114 49.47291138 39.05183411 50.62408447 C34.92981877 60.14063266 30.87230847 69.6827659 26.8828125 79.25561523 C26.50253906 80.16384033 26.12226562 81.07206543 25.73046875 82.0078125 C25.41489014 82.76723145 25.09931152 83.52665039 24.77416992 84.30908203 C24 86 24 86 23 87 C21.48071962 87.07179964 19.95832518 87.08392007 18.4375 87.0625 C17.19806641 87.04896484 17.19806641 87.04896484 15.93359375 87.03515625 C14.97646484 87.01775391 14.97646484 87.01775391 14 87 C14.60157152 83.41726315 15.57494174 80.42053998 17.1015625 77.12890625 C17.50890625 76.22462891 17.91625 75.32035156 18.3359375 74.38867188 C19.19519069 72.50482435 20.0623915 70.62458162 20.9375 68.74804688 C21.34226562 67.84248047 21.74703125 66.93691406 22.1640625 66.00390625 C22.72794678 64.77909546 22.72794678 64.77909546 23.30322266 63.52954102 C25.03260312 57.25129611 21.67509573 51.49653818 19.140625 45.8671875 C18.75436951 44.99409943 18.36811401 44.12101135 17.97015381 43.22146606 C16.73655905 40.43639129 15.49364726 37.65559846 14.25 34.875 C12.62792628 31.22757456 11.00913915 27.57869367 9.390625 23.9296875 C9.0035437 23.05769714 8.6164624 22.18570679 8.21765137 21.28729248 C0 2.74647651 0 2.74647651 0 0 Z " fill="#080137" transform="translate(606,86)"/>
<path d="M0 0 C0 2.97 0 5.94 0 9 C-0.69867188 8.91621094 -1.39734375 8.83242187 -2.1171875 8.74609375 C-3.48230469 8.59333984 -3.48230469 8.59333984 -4.875 8.4375 C-5.77992188 8.33308594 -6.68484375 8.22867188 -7.6171875 8.12109375 C-10.01653057 7.80325148 -10.01653057 7.80325148 -12 9 C-12.46523063 10.89533342 -12.46523063 10.89533342 -12.625 13.0625 C-12.74875 14.361875 -12.8725 15.66125 -13 17 C-8.71 17 -4.42 17 0 17 C0 19.64 0 22.28 0 25 C-4.29 25 -8.58 25 -13 25 C-13 43.48 -13 61.96 -13 81 C-15.97 81 -18.94 81 -22 81 C-22 62.52 -22 44.04 -22 25 C-24.64 25 -27.28 25 -30 25 C-30 22.36 -30 19.72 -30 17 C-27.36 17 -24.72 17 -22 17 C-22.03480469 16.26394531 -22.06960938 15.52789062 -22.10546875 14.76953125 C-22.32341284 6.91316567 -22.32341284 6.91316567 -20.9375 3 C-15.41263087 -2.70309071 -7.07953075 -3.53976537 0 0 Z " fill="#080138" transform="translate(377,69)"/>
</svg>
