<?xml version="1.0" encoding="UTF-8"?>
<svg version="1.1" xmlns="http://www.w3.org/2000/svg" width="606" height="331">
<path d="M0 0 C8.15386552 -0.32608913 16.30496071 -0.57394108 24.46375751 -0.72537041 C28.25367068 -0.79810055 32.03909046 -0.89647617 35.82641602 -1.05615234 C62.36242807 -2.14595786 62.36242807 -2.14595786 68.30859375 2.93701172 C70.79856691 5.74783545 72.50959969 8.74429922 74.06262207 12.1479187 C75.70535231 15.3936426 78.06353453 18.08611914 80.375 20.875 C80.8788623 21.51808105 81.38272461 22.16116211 81.90185547 22.82373047 C85.38944991 27.25293337 88.93681595 31.63148182 92.5 36 C99.45031668 44.52119462 106.23941018 53.16257518 112.98828125 61.84375 C113.48183105 62.47651855 113.97538086 63.10928711 114.48388672 63.76123047 C115.4240958 64.96673201 116.36207633 66.17397643 117.29736328 67.38330078 C119.69787804 70.45853521 122.17271992 73.31047602 125 76 C131.68216986 67.81991925 138.33196574 59.62118843 144.83105469 51.29467773 C148.35197709 46.79565071 151.9476508 42.3612665 155.5625 37.9375 C160.276122 32.166617 164.85270909 26.31588726 169.37109375 20.390625 C181.91507353 4.08492647 181.91507353 4.08492647 186 0 C187.96369153 -0.0940067 189.93079199 -0.11743381 191.89672852 -0.11352539 C193.15796036 -0.11344986 194.4191922 -0.11337433 195.71864319 -0.11329651 C197.10539794 -0.1081891 198.49215229 -0.10297309 199.87890625 -0.09765625 C201.28995209 -0.09579201 202.70099857 -0.09436814 204.11204529 -0.09336853 C207.83240535 -0.08954379 211.5527266 -0.0797139 215.27307129 -0.06866455 C219.06680781 -0.05844948 222.86055058 -0.05387071 226.65429688 -0.04882812 C234.10288231 -0.03809158 241.55143572 -0.0210157 249 0 C248.07030646 1.41601773 247.13767523 2.8301069 246.20385742 4.2434082 C245.42530647 5.42493217 245.42530647 5.42493217 244.63102722 6.63032532 C242.07976309 10.33698696 239.21217674 13.75122249 236.3125 17.1875 C235.07168228 18.67605525 233.83211439 20.16565314 232.59375 21.65625 C231.9853125 22.3884375 231.376875 23.120625 230.75 23.875 C228.22368227 26.94267153 225.75943235 30.05633534 223.3125 33.1875 C222.8693042 33.7544458 222.4261084 34.3213916 221.96948242 34.90551758 C220.64500835 36.6026592 219.32243359 38.30126816 218 40 C211.69669016 48.0811071 205.31870728 56.09219114 198.84082031 64.03417969 C193.47486814 70.62299573 188.22838345 77.30185136 183 84 C181.21010442 86.29305803 179.41826501 88.5845762 177.625 90.875 C176.96274414 91.72396851 176.96274414 91.72396851 176.28710938 92.59008789 C173.72599907 95.85788511 171.11614406 99.07627211 168.453125 102.26171875 C167.85806152 102.9779541 167.26299805 103.69418945 166.64990234 104.43212891 C165.49148027 105.82255407 164.32544544 107.20668191 163.15087891 108.58349609 C159.03858714 113.20990481 159.03858714 113.20990481 158 119 C159.6214226 121.7377128 161.65508246 124.05211796 163.75 126.4375 C164.96201649 127.87018164 166.17293609 129.30379188 167.3828125 130.73828125 C167.99415039 131.4545166 168.60548828 132.17075195 169.23535156 132.90869141 C171.77693633 135.92075769 174.20623 139.0140774 176.625 142.125 C177.5259363 143.27612414 178.42697772 144.42716601 179.328125 145.578125 C180.66376575 147.28813513 181.99887529 148.99855912 183.33398438 150.70898438 C188.61304861 157.46772793 193.9435821 164.17536081 199.375 170.8125 C203.84159669 176.2729954 208.18067817 181.81213709 212.4375 187.4375 C217.43121795 194.03277679 222.60644048 200.44916876 227.89013672 206.8137207 C231.67191189 211.37340947 235.40090256 215.96817003 239.0625 220.625 C239.49127441 221.16858154 239.92004883 221.71216309 240.36181641 222.2722168 C249 233.3114127 249 233.3114127 249 235 C240.97642889 235.30283906 232.95528803 235.53297265 224.92739391 235.67355824 C221.19830571 235.74108043 217.47315746 235.83241704 213.74633789 235.98071289 C187.64785497 236.9923224 187.64785497 236.9923224 181.70507812 232.27026367 C178.78440366 229.2146785 176.91775011 225.75901486 175 222 C173.45392256 219.82237477 171.79918173 217.77176337 170.125 215.6875 C169.30385622 214.60870515 168.48333508 213.52943533 167.6640625 212.44921875 C164.69074064 208.56631738 161.59695138 204.78451241 158.5 201 C154.59079703 196.22038413 150.74367506 191.41053482 147 186.5 C143.13513742 181.43962347 139.19106081 176.45141625 135.1875 171.5 C134.64802734 170.82904297 134.10855469 170.15808594 133.55273438 169.46679688 C130.54247821 165.76100327 127.44263708 162.30900421 124 159 C118.3107066 165.73829544 112.74369135 172.54784037 107.32128906 179.50219727 C103.75129161 184.07057328 100.10682256 188.57365783 96.4375 193.0625 C91.71964094 198.83834499 87.13929378 204.69436881 82.6171875 210.625 C78.03876742 216.57658758 73.24769203 222.36253624 68.48876953 228.16992188 C66.89163127 230.07148239 66.89163127 230.07148239 65.29678345 232.5789032 C63 235 63 235 60.1272583 235.60127258 C58.46179962 235.584618 58.46179962 235.584618 56.76269531 235.56762695 C54.87118744 235.56706047 54.87118744 235.56706047 52.94146729 235.56648254 C51.57034311 235.54095124 50.19922905 235.51487129 48.828125 235.48828125 C47.42137916 235.47895149 46.01461704 235.47183614 44.60784912 235.46684265 C40.91175189 235.4477849 37.21664282 235.39869701 33.52093506 235.34332275 C29.7471656 235.29210246 25.97323589 235.26932282 22.19921875 235.24414062 C14.79902949 235.19057506 7.39965339 235.10527962 0 235 C2.35943268 230.98642286 4.97760028 227.32509237 7.875 223.6875 C8.35404785 223.08139893 8.8330957 222.47529785 9.32666016 221.85083008 C13.50524716 216.58086124 17.76528049 211.37823098 22.02319336 206.17236328 C25.92821923 201.37562954 29.70534497 196.49451908 33.4375 191.5625 C38.43529277 184.96184154 43.61457422 178.54004736 48.90332031 172.17089844 C54.39867805 165.54639964 59.71315932 158.79121032 65 152 C66.78909128 149.70631008 68.58094141 147.41480656 70.375 145.125 C70.81803467 144.55894043 71.26106934 143.99288086 71.7175293 143.40966797 C74.27162872 140.15883027 76.85811605 136.93756505 79.4765625 133.73828125 C80.06260254 133.0220459 80.64864258 132.30581055 81.25244141 131.56787109 C82.3896548 130.18154474 83.52980558 128.79762101 84.67333984 127.41650391 C87.41747935 124.0740757 89.89896792 120.8008254 92 117 C91.17757812 115.99582031 90.35515625 114.99164063 89.5078125 113.95703125 C84.25820335 107.53100367 79.03060036 101.09954998 74 94.5 C70.25632024 89.58945901 66.40905125 84.7797448 62.5 80 C57.74731214 74.18870881 53.13348007 68.29868468 48.58203125 62.328125 C45.69352598 58.57295545 42.69004287 54.91414272 39.6875 51.25 C34.63689352 45.08379473 29.76735189 38.8024047 24.96142578 32.44433594 C20.42488388 26.47685946 15.68846387 20.69084894 10.84399414 14.97094727 C7.94745037 11.51640481 5.28258521 8.0166719 2.80053711 4.25 C2.00842079 3.05117187 2.00842079 3.05117187 1.20030212 1.828125 C0.80420242 1.22484375 0.40810272 0.6215625 0 0 Z " fill="#5D248E" transform="translate(178,0)"/>
<path d="M0 0 C16.83 0 33.66 0 51 0 C49.7215041 7.6709754 48.63446185 14.15875757 45.9375 21.25 C45.63150879 22.05864502 45.32551758 22.86729004 45.01025391 23.70043945 C39.13527917 38.70854342 30.59946382 50.93804675 20 63 C19.31292969 63.79019531 18.62585938 64.58039063 17.91796875 65.39453125 C5.46109592 78.71985709 -11.24709548 87.92658086 -28.3125 93.8125 C-29.10479004 94.09061523 -29.89708008 94.36873047 -30.71337891 94.65527344 C-46.59261329 99.82554963 -62.56211832 100.4276181 -79.1015625 100.29296875 C-81.16091601 100.28735646 -83.22027358 100.28309411 -85.27963257 100.28010559 C-90.63561545 100.2687852 -95.99134467 100.23943216 -101.347229 100.20599365 C-107.80780803 100.16954214 -114.26847303 100.1560705 -120.72912598 100.13863373 C-130.48625907 100.10978413 -140.24283832 100.05220836 -150 100 C-150 84.16 -150 68.32 -150 52 C-143.62816406 51.97421875 -137.25632813 51.9484375 -130.69140625 51.921875 C-126.62170623 51.89666805 -122.55207772 51.87030552 -118.48242188 51.83984375 C-112.04223491 51.79174639 -105.60221375 51.74761336 -99.16186523 51.72900391 C-93.96152392 51.71370731 -88.76162047 51.67903564 -83.56147575 51.63169098 C-81.59110284 51.61700992 -79.62066737 51.60896674 -77.65023994 51.60811615 C-55.67147839 51.58911062 -35.6625619 48.04964905 -19.14868164 32.48339844 C-9.87272255 23.13933857 -5.19091307 12.1121305 0 0 Z " fill="#5E248E" transform="translate(150,135)"/>
<path d="M0 0 C16.83 0 33.66 0 51 0 C53.64 5.94 56.28 11.88 59 18 C66.62538779 29.38438177 74.90788593 37.54958883 87 44 C88.05960938 44.57041016 88.05960938 44.57041016 89.140625 45.15234375 C102.44501308 51.68134901 116.82646116 51.4658647 131.2734375 51.51171875 C133.29368151 51.52859891 135.31391523 51.54675354 137.33413696 51.56611633 C142.60454084 51.61326036 147.87490299 51.64329865 153.14544678 51.66955566 C159.49427797 51.70483161 165.84294902 51.76174128 172.19165039 51.81494904 C181.79441211 51.89304459 191.39697025 51.94396622 201 52 C201 67.84 201 83.68 201 100 C178.51232757 100.12032643 178.51232757 100.12032643 168.8203125 100.14648438 C162.24406542 100.16431817 155.66794534 100.18526136 149.09179688 100.22631836 C143.7814229 100.2592598 138.47118539 100.27692523 133.16071701 100.28463173 C131.14924348 100.29011354 129.13777619 100.30081504 127.12636185 100.31719017 C111.42575118 100.43975898 95.8160466 99.64472472 80.875 94.3125 C80.1425708 94.05831299 79.4101416 93.80412598 78.65551758 93.54223633 C46.07395679 81.82858147 23.32535447 59.12661446 8.25 28.4375 C4.45607762 20.09087077 0 9.37982335 0 0 Z " fill="#5E248E" transform="translate(404,135)"/>
<path d="M0 0 C23.15615259 -0.16043524 23.15615259 -0.16043524 33.1484375 -0.1953125 C39.92428366 -0.21907651 46.69991038 -0.24696 53.47558594 -0.30175781 C58.94807564 -0.34573115 64.42032952 -0.36924391 69.89298248 -0.37950897 C71.96422276 -0.38680915 74.03545249 -0.40105941 76.10659027 -0.42292023 C110.83185195 -0.77433185 141.77353692 9.71371929 167.23291016 33.7644043 C184.04049101 50.24962745 199.37378765 74.95176884 201 99 C200 100 200 100 197.98155212 100.12025452 C197.09552811 100.11803391 196.20950409 100.11581329 195.29663086 100.11352539 C194.29566879 100.11344986 193.29470673 100.11337433 192.26341248 100.11329651 C191.1748848 100.10813522 190.08635712 100.10297394 188.96484375 100.09765625 C187.85645645 100.0962413 186.74806915 100.09482635 185.60609436 100.09336853 C182.04986931 100.08775033 178.49370617 100.07519475 174.9375 100.0625 C172.53320403 100.05748734 170.12890708 100.05292403 167.72460938 100.04882812 C161.81638496 100.03777499 155.9081969 100.02101917 150 100 C149.61618164 98.99622314 149.23236328 97.99244629 148.83691406 96.95825195 C148.31351229 95.61395435 147.78972876 94.26980533 147.265625 92.92578125 C147.01506348 92.26743286 146.76450195 91.60908447 146.50634766 90.93078613 C139.40917259 72.84856345 125.45963115 60.32608863 108 52.6875 C93.78366655 47.43363764 78.23153806 47.68392338 63.28125 47.5859375 C61.44322899 47.56717354 59.60521611 47.5475965 57.76721191 47.5272522 C52.98676409 47.47647614 48.20628849 47.43656298 43.42572021 47.39910889 C37.65921676 47.35159102 31.89284511 47.29023266 26.12644958 47.23126221 C17.41768788 47.14371697 8.70894282 47.07347687 0 47 C0 31.49 0 15.98 0 0 Z " fill="#5E248E" transform="translate(0,0)"/>
<path d="M0 0 C2.13519152 0.00373645 4.27038476 0.00658043 6.40557861 0.00857544 C11.98845263 0.01616216 17.57122033 0.03576735 23.15405273 0.0579834 C29.87232263 0.08217396 36.59062834 0.09124645 43.30892944 0.10289001 C53.48206826 0.12219515 63.65497444 0.1605523 73.828125 0.1953125 C73.828125 15.7053125 73.828125 31.2153125 73.828125 47.1953125 C65.37058594 47.26878906 65.37058594 47.26878906 56.7421875 47.34375 C53.13279643 47.37920811 49.52342656 47.41520877 45.9140625 47.453125 C40.20706507 47.51302634 34.5000967 47.57110748 28.79296875 47.6171875 C24.18276014 47.65453804 19.57271965 47.70101936 14.96265793 47.75337601 C13.21918108 47.77165976 11.47566858 47.78685933 9.73213577 47.79865646 C0.77731957 47.86131384 -8.07918399 48.14244079 -16.98681641 49.11181641 C-17.71640753 49.19079855 -18.44599865 49.26978069 -19.19769859 49.35115623 C-36.93558292 51.47280506 -51.0319324 60.58069009 -62.49609375 73.89453125 C-68.64940776 81.92314096 -72.43727597 90.85881492 -76.171875 100.1953125 C-92.671875 100.1953125 -109.171875 100.1953125 -126.171875 100.1953125 C-128.72940484 95.08025282 -123.85983984 84.5388149 -122.171875 79.1953125 C-111.91651696 49.91895062 -89.64268558 25.25336585 -61.796875 11.8203125 C-52.86491603 7.65916152 -43.81467216 4.29881373 -34.171875 2.1953125 C-33.42903763 2.02299103 -32.68620026 1.85066956 -31.92085266 1.67312622 C-21.36015542 -0.4376001 -10.71706461 -0.05538991 0 0 Z " fill="#5E248E" transform="translate(531.171875,-0.1953125)"/>
<path d="M0 0 C3.35580666 0.03632882 5.23571964 0.10980944 7.97412109 2.09619141 C9.86088122 4.26953482 11.47744595 6.50032592 13.07421875 8.89453125 C13.90083008 10.04405273 13.90083008 10.04405273 14.74414062 11.21679688 C16.48760161 13.6511775 18.1865284 16.11723552 19.88671875 18.58203125 C22.52671875 22.21203125 25.16671875 25.84203125 27.88671875 29.58203125 C28.21671875 20.01203125 28.54671875 10.44203125 28.88671875 0.58203125 C32.84671875 0.58203125 36.80671875 0.58203125 40.88671875 0.58203125 C40.88671875 18.07203125 40.88671875 35.56203125 40.88671875 53.58203125 C30.88671875 53.58203125 30.88671875 53.58203125 28.58203125 52.17578125 C28.06382812 51.48484375 27.545625 50.79390625 27.01171875 50.08203125 C26.38007813 49.2725 25.7484375 48.46296875 25.09765625 47.62890625 C24.00324219 46.12070312 24.00324219 46.12070312 22.88671875 44.58203125 C21.88140816 43.25201145 20.87340185 41.92402664 19.86328125 40.59765625 C17.31890749 37.24416393 14.80668988 33.8686935 12.31542969 30.47558594 C10.55379217 28.14078406 8.71384941 25.86594457 6.88671875 23.58203125 C6.55671875 33.48203125 6.22671875 43.38203125 5.88671875 53.58203125 C1.92671875 53.58203125 -2.03328125 53.58203125 -6.11328125 53.58203125 C-6.13792196 46.19474534 -6.15611285 38.80748313 -6.16821289 31.42016602 C-6.17325488 28.9048623 -6.18008828 26.38956153 -6.1887207 23.87426758 C-6.20079219 20.2677335 -6.20651074 16.66123802 -6.2109375 13.0546875 C-6.21609879 11.92241226 -6.22126007 10.79013702 -6.22657776 9.62355042 C-6.22665329 8.58254684 -6.22672882 7.54154327 -6.22680664 6.46899414 C-6.22902725 5.54744034 -6.23124786 4.62588654 -6.23353577 3.67640686 C-6.00392423 -0.3225514 -3.52176819 0.23642682 0 0 Z " fill="#5E248E" transform="translate(247.11328125,276.41796875)"/>
<path d="M0 0 C6.5441531 6.90771716 9.63255732 14.17196463 9.53515625 23.578125 C8.84177808 30.37893008 6.27830848 37.62604199 1.25 42.375 C-7.28467773 48.62033285 -15.21590639 50.37523245 -25.75 49.375 C-33.18581699 47.48204049 -39.58662969 42.6903491 -44.1015625 36.53125 C-47.77104019 30.08986471 -48.61490584 22.34158933 -47.0625 15.125 C-44.10822655 6.6842187 -39.70412073 0.51283271 -31.65234375 -3.73046875 C-20.52119111 -8.03343701 -9.98423425 -5.89977478 0 0 Z M-31.5 12.0625 C-34.26251674 15.60306734 -35.02583536 18.91984108 -34.75 23.375 C-33.5415005 29.60164981 -30.86301082 32.78501368 -25.75 36.375 C-22.29592112 38.10203944 -18.53375533 37.73034398 -14.75 37.375 C-10.4036159 35.59693378 -7.06073296 32.47210728 -4.75 28.375 C-3.37554908 23.77394175 -3.50578117 20.23694882 -4.8125 15.625 C-7.3569192 11.35694199 -10.24481528 8.62759236 -14.75 6.375 C-22.19726067 5.61417966 -26.08900082 6.77447808 -31.5 12.0625 Z " fill="#5E248E" transform="translate(471.75,281.625)"/>
<path d="M0 0 C5.81838887 4.08885163 11.29168267 8.88389668 13 16 C13.93169382 24.75792187 13.88861021 33.40470165 9 41 C3.55492129 47.49896491 -3.56446838 51.30258391 -11.953125 52.37890625 C-20.68535588 52.72595645 -27.94772908 50.63297486 -34.875 45.25 C-39.5052899 40.95824545 -42.71619698 34.6839815 -43.203125 28.36328125 C-43.34851369 18.90090037 -41.77185549 12.33092754 -35.87890625 4.828125 C-26.7393874 -4.06437983 -11.16105963 -5.9274544 0 0 Z M-28.375 16.1875 C-30.51491644 20.41315779 -30.91444439 24.36416452 -30 29 C-28.22682828 33.33861166 -26.03972136 36.24383901 -22.25 39 C-16.53255474 40.75921392 -12.00583408 41.04006211 -6.625 38.25 C-2.77287965 34.94818255 -0.37482089 32.17061605 0.23828125 26.984375 C0.43512194 21.05843437 -0.43458264 17.78516541 -4 13 C-7.5361679 9.71641552 -10.28176794 8.71961741 -15 8.5 C-21.39089316 8.79747401 -24.56576616 11.07510721 -28.375 16.1875 Z " fill="#5E248E" transform="translate(346,279)"/>
<path d="M0 0 C-0.50522222 4.37859255 -3.17827222 6.81651224 -6 10 C-8.61367414 9.55194158 -10.84285343 9.0742081 -13.25 7.9375 C-17.21670893 6.58521286 -20.85372309 6.40767473 -25 7 C-29.38544865 9.19272433 -32.23315916 11.38658225 -34 16 C-34.66198068 21.34488104 -34.67332051 25.60348339 -32.3125 30.5 C-28.37341384 34.75847152 -24.82452411 36.66396976 -19 37 C-15.95172094 36.50028212 -12.98198059 35.80182145 -10 35 C-10 32.69 -10 30.38 -10 28 C-13.63 28 -17.26 28 -21 28 C-21 24.37 -21 20.74 -21 17 C-13.41 17 -5.82 17 2 17 C2.13478709 20.91781142 2.23403037 24.83100266 2.3125 28.75 C2.35439453 29.86117187 2.39628906 30.97234375 2.43945312 32.1171875 C2.5631432 40.33020844 2.5631432 40.33020844 -0.20703125 43.625 C-1.12871094 44.07875 -2.05039062 44.5325 -3 45 C-3.804375 45.41765625 -4.60875 45.8353125 -5.4375 46.265625 C-14.45291411 49.72886335 -23.30799035 50.69188177 -32.5 47.25 C-39.4888738 43.99831074 -43.5256414 39.84181385 -47 33 C-49.51864022 25.63536847 -49.22783227 15.54057373 -46 8.5 C-41.91278036 1.59994662 -36.2804159 -3.41711075 -28.4765625 -5.5625 C-18.19048514 -7.37959884 -8.75139382 -5.83426255 0 0 Z " fill="#5E248E" transform="translate(542,282)"/>
<path d="M0 0 C1.64510941 0.00015915 3.29022379 0.00585551 4.93530273 0.01586914 C6.23164894 0.01799156 6.23164894 0.01799156 7.55418396 0.02015686 C10.32578941 0.025773 13.09731528 0.0383282 15.86889648 0.05102539 C17.74324428 0.05603831 19.61759334 0.06060158 21.49194336 0.06469727 C26.09679192 0.07574767 30.70158069 0.09302309 35.30639648 0.11352539 C36.47101075 3.60736818 36.44207967 6.45007928 36.30639648 10.11352539 C35.30639648 11.11352539 35.30639648 11.11352539 32.71435547 11.22705078 C31.58843994 11.22181396 30.46252441 11.21657715 29.30249023 11.21118164 C28.08754883 11.20795898 26.87260742 11.20473633 25.62084961 11.20141602 C24.34145508 11.19303711 23.06206055 11.1846582 21.74389648 11.17602539 C20.46063477 11.17151367 19.17737305 11.16700195 17.85522461 11.16235352 C14.67223626 11.15052085 11.48933886 11.13403607 8.30639648 11.11352539 C8.30639648 14.41352539 8.30639648 17.71352539 8.30639648 21.11352539 C16.22639648 21.11352539 24.14639648 21.11352539 32.30639648 21.11352539 C32.30639648 24.41352539 32.30639648 27.71352539 32.30639648 31.11352539 C31.30639648 32.11352539 31.30639648 32.11352539 29.08154297 32.22705078 C28.12320557 32.22181396 27.16486816 32.21657715 26.17749023 32.21118164 C24.62578125 32.20634766 24.62578125 32.20634766 23.04272461 32.20141602 C21.95411133 32.19303711 20.86549805 32.1846582 19.74389648 32.17602539 C18.10517578 32.16925781 18.10517578 32.16925781 16.43334961 32.16235352 C13.72434217 32.15052379 11.01536269 32.1325877 8.30639648 32.11352539 C8.30639648 35.41352539 8.30639648 38.71352539 8.30639648 42.11352539 C17.54639648 42.11352539 26.78639648 42.11352539 36.30639648 42.11352539 C36.30639648 45.74352539 36.30639648 49.37352539 36.30639648 53.11352539 C30.6280957 53.13817244 24.94982579 53.15636001 19.27148438 53.16845703 C17.33821063 53.17349795 15.40494072 53.18033058 13.47167969 53.18896484 C10.69912777 53.20104104 7.92662607 53.20675596 5.15405273 53.21118164 C3.8493679 53.21892357 3.8493679 53.21892357 2.51832581 53.2268219 C0.44733834 53.22701724 -1.62354676 53.17560707 -3.69360352 53.11352539 C-5.33448096 51.47264794 -4.82100107 49.59521477 -4.82299805 47.33422852 C-4.82615021 46.31647339 -4.82930237 45.29871826 -4.83255005 44.25012207 C-4.83052582 43.14285767 -4.82850159 42.03559326 -4.82641602 40.89477539 C-4.82737274 39.76656372 -4.82832947 38.63835205 -4.82931519 37.47595215 C-4.82999719 35.08512313 -4.82814149 32.69429228 -4.82397461 30.3034668 C-4.81862667 26.62943388 -4.82391894 22.95552322 -4.83032227 19.28149414 C-4.82966149 16.96508762 -4.82838033 14.64868117 -4.82641602 12.33227539 C-4.82945236 10.67137878 -4.82945236 10.67137878 -4.83255005 8.97692871 C-4.82939789 7.95917358 -4.82624573 6.94141846 -4.82299805 5.89282227 C-4.82220245 4.99204956 -4.82140686 4.09127686 -4.82058716 3.16320801 C-4.59548242 -0.47027792 -3.80481617 0.11694359 0 0 Z " fill="#5E248E" transform="translate(62.693603515625,276.886474609375)"/>
<path d="M0 0 C3.96 0 7.92 0 12 0 C12.33 6.6 12.66 13.2 13 20 C18.94 20 24.88 20 31 20 C31.06058594 18.64003906 31.12117188 17.28007812 31.18359375 15.87890625 C31.26798171 14.10675903 31.35263058 12.33462423 31.4375 10.5625 C31.47681641 9.66466797 31.51613281 8.76683594 31.55664062 7.84179688 C31.59853516 6.98779297 31.64042969 6.13378906 31.68359375 5.25390625 C31.72025146 4.46314697 31.75690918 3.6723877 31.79467773 2.85766602 C32 1 32 1 33 0 C34.83115883 -0.09851171 36.66619933 -0.12972629 38.5 -0.125 C39.5003125 -0.12757813 40.500625 -0.13015625 41.53125 -0.1328125 C44 0 44 0 45 1 C45.09854422 2.5906331 45.12798694 4.18561477 45.12939453 5.77929688 C45.13254669 6.797052 45.13569885 7.81480713 45.13894653 8.86340332 C45.1369223 9.97066772 45.13489807 11.07793213 45.1328125 12.21875 C45.13376923 13.34696167 45.13472595 14.47517334 45.13571167 15.63757324 C45.13639368 18.02840226 45.13453797 20.41923311 45.13037109 22.81005859 C45.12502316 26.48409151 45.13031543 30.15800217 45.13671875 33.83203125 C45.13605797 36.14843777 45.13477682 38.46484422 45.1328125 40.78125 C45.13483673 41.8885144 45.13686096 42.99577881 45.13894653 44.13659668 C45.13421829 45.66322937 45.13421829 45.66322937 45.12939453 47.22070312 C45.12859894 48.12147583 45.12780334 49.02224854 45.12698364 49.95031738 C45 52 45 52 44 53 C42.16884117 53.09851171 40.33380067 53.12972629 38.5 53.125 C37.4996875 53.12757813 36.499375 53.13015625 35.46875 53.1328125 C33 53 33 53 32 52 C31.91330568 50.5112814 31.89296506 49.018555 31.90234375 47.52734375 C31.90556641 46.62822266 31.90878906 45.72910156 31.91210938 44.80273438 C31.92048828 43.85720703 31.92886719 42.91167969 31.9375 41.9375 C31.94201172 40.98810547 31.94652344 40.03871094 31.95117188 39.06054688 C31.96299872 36.70700469 31.98093479 34.35349468 32 32 C25.73 32.33 19.46 32.66 13 33 C12.67 39.6 12.34 46.2 12 53 C8.04 53 4.08 53 0 53 C0 35.51 0 18.02 0 0 Z " fill="#5E248E" transform="translate(177,277)"/>
<path d="M0 0 C0.804375 0.598125 1.60875 1.19625 2.4375 1.8125 C1.93227778 6.19109255 -0.74077222 8.62901224 -3.5625 11.8125 C-6.17603187 11.30989772 -7.91809746 10.60575729 -10.25 9.25 C-14.50738229 7.40245674 -17.98730739 7.07456571 -22.5625 7.8125 C-26.94794865 10.00522433 -29.79565916 12.19908225 -31.5625 16.8125 C-32.22448068 22.15738104 -32.23582051 26.41598339 -29.875 31.3125 C-26.00010619 35.50157439 -23.32472687 36.98509515 -17.625 37.25 C-12.84309228 37.1364829 -10.44323017 35.61023571 -6.5625 32.8125 C-3.2064321 32.8125 -1.88377148 33.57577365 0.8125 35.5625 C2.4375 37.8125 2.4375 37.8125 2.625 40.25 C0.3791491 45.09630983 -3.96188088 47.15342154 -8.75 49.125 C-17.95326983 50.78460603 -26.34153504 50.62824724 -34.5625 45.8125 C-40.10018149 41.70972638 -43.91794664 36.53582108 -45.5625 29.8125 C-46.64240801 20.53140378 -46.28111556 12.4604543 -40.5625 4.8125 C-30.0659301 -7.21291812 -13.23306486 -8.68806361 0 0 Z " fill="#5E248E" transform="translate(158.5625,281.1875)"/>
<path d="M0 0 C4.87771028 -0.80153385 9.1576004 -1.11947948 14 0 C17.72913411 3.89348805 19.66536156 8.14262429 22 13 C23.27182044 15.0509945 24.62053263 17.01814513 26 19 C26.32798584 18.45996338 26.65597168 17.91992676 26.99389648 17.36352539 C28.47363053 14.92895498 29.95553541 12.49571323 31.4375 10.0625 C31.95376953 9.21236328 32.47003906 8.36222656 33.00195312 7.48632812 C33.74155273 6.27299805 33.74155273 6.27299805 34.49609375 5.03515625 C34.95169678 4.2862915 35.4072998 3.53742676 35.87670898 2.76586914 C37 1 37 1 38 0 C40.35313555 -0.07271741 42.70833668 -0.08370868 45.0625 -0.0625 C46.35285156 -0.05347656 47.64320313 -0.04445313 48.97265625 -0.03515625 C49.97167969 -0.02355469 50.97070312 -0.01195312 52 0 C50.33704546 4.9115169 47.58054415 8.95375616 44.75 13.25 C44.25709473 14.01795898 43.76418945 14.78591797 43.25634766 15.57714844 C40.81417933 19.36142375 38.30164804 22.82368034 35.375 26.25 C33.41590902 29.63939907 32.6625618 32.27360976 32.45703125 36.171875 C32.37606201 37.60031738 32.37606201 37.60031738 32.29345703 39.05761719 C32.16087634 42.73932812 32.1032071 46.41751715 32.11010742 50.1015625 C32 52 32 52 31 53 C29.16884117 53.09851171 27.33380067 53.12972629 25.5 53.125 C24.4996875 53.12757813 23.499375 53.13015625 22.46875 53.1328125 C20 53 20 53 19 52 C19.05800781 50.70707031 19.11601563 49.41414063 19.17578125 48.08203125 C19.77723164 31.69369846 13.50341148 21.89850594 4 9 C0 3.47688387 0 3.47688387 0 0 Z " fill="#5E248E" transform="translate(554,277)"/>
<path d="M0 0 C6.1055471 -0.02464513 12.21106551 -0.04283371 18.31665039 -0.05493164 C20.39543156 -0.05997288 22.47420916 -0.06680574 24.55297852 -0.07543945 C27.53402586 -0.08751422 30.51502649 -0.09323024 33.49609375 -0.09765625 C34.89921059 -0.10539818 34.89921059 -0.10539818 36.33067322 -0.11329651 C37.19149002 -0.11337204 38.05230682 -0.11344757 38.93920898 -0.11352539 C40.08171364 -0.11685631 40.08171364 -0.11685631 41.24729919 -0.12025452 C43 0 43 0 44 1 C44.09823937 2.66429051 44.12973631 4.33281931 44.125 6 C44.12886719 7.36125 44.12886719 7.36125 44.1328125 8.75 C44 11 44 11 43 12 C38.05 12 33.1 12 28 12 C28 25.53 28 39.06 28 53 C24.04 53 20.08 53 16 53 C14.92555235 48.70220938 14.97109446 44.8915031 15.12109375 40.515625 C15.14470474 39.70003113 15.16831573 38.88443726 15.19264221 38.04412842 C15.26905433 35.4458986 15.35317484 32.84798386 15.4375 30.25 C15.49074319 28.48569236 15.54348343 26.72136947 15.59570312 24.95703125 C15.72463899 20.63782231 15.8604874 16.31887972 16 12 C14.39318359 12.01740234 14.39318359 12.01740234 12.75390625 12.03515625 C11.35677257 12.04453299 9.95963701 12.05363331 8.5625 12.0625 C7.85544922 12.07087891 7.14839844 12.07925781 6.41992188 12.08789062 C4.61306441 12.09653588 2.80612397 12.05220011 1 12 C0 11 0 11 -0.09765625 8.49609375 C-0.08605469 7.48675781 -0.07445312 6.47742188 -0.0625 5.4375 C-0.05347656 4.42558594 -0.04445312 3.41367187 -0.03515625 2.37109375 C-0.02355469 1.58863281 -0.01195312 0.80617188 0 0 Z " fill="#5E248E" transform="translate(0,277)"/>
<path d="M0 0 C3.96 0 7.92 0 12 0 C12.33 13.53 12.66 27.06 13 41 C21.25 41.33 29.5 41.66 38 42 C38 45.63 38 49.26 38 53 C25.46 53 12.92 53 0 53 C0 35.51 0 18.02 0 0 Z " fill="#5E248E" transform="translate(376,277)"/>
</svg>
