<?xml version="1.0" encoding="UTF-8"?>
<svg version="1.1" xmlns="http://www.w3.org/2000/svg" width="634" height="238">
<path d="M0 0 C0 0.66 0 1.32 0 2 C0.680625 2.226875 1.36125 2.45375 2.0625 2.6875 C5.6988709 4.31226146 9.02829263 6.32803257 12 9 C12 9.66 12 10.32 12 11 C12.74330566 11.10634766 13.48661133 11.21269531 14.25244141 11.32226562 C17.20020582 12.04938434 18.63028013 12.93988219 20.9609375 14.84375 C21.67709229 15.42672852 22.39324707 16.00970703 23.13110352 16.61035156 C24.24183228 17.54572754 24.24183228 17.54572754 25.375 18.5 C26.13288818 19.13131836 26.89077637 19.76263672 27.67163086 20.41308594 C32.73940858 24.71847405 37.71786538 29.1223698 41 35 C41 35.66 41 36.32 41 37 C41.66 37 42.32 37 43 37 C49.82388689 46.49885055 54.61597766 56.84342365 58 68 C58.21027832 68.67353516 58.42055664 69.34707031 58.63720703 70.04101562 C64.72548906 90.46062186 64.41048286 115.70528112 58.53369141 136.12304688 C58.04451765 137.84343472 57.63339525 139.58551904 57.23046875 141.328125 C54.49327183 152.06117302 48.51941924 161.4948082 43 171 C42.34 171 41.68 171 41 171 C40.690625 171.78375 40.38125 172.5675 40.0625 173.375 C39 176 39 176 38 178 C37.34 178 36.68 178 36 178 C35.67 179.32 35.34 180.64 35 182 C34.34 182 33.68 182 33 182 C33 182.66 33 183.32 33 184 C32.34 184 31.68 184 31 184 C30.61134766 184.89525391 30.61134766 184.89525391 30.21484375 185.80859375 C28.90986856 188.16258437 27.64525787 189.38285656 25.5625 191.0625 C23.73823125 192.5479197 22.02302589 193.97573555 20.40234375 195.68359375 C19 197 19 197 17 197 C17 197.66 17 198.32 17 199 C14.90395054 200.53730429 12.82509062 201.93839447 10.625 203.3125 C9.66315796 203.91916504 9.66315796 203.91916504 8.68188477 204.53808594 C-18.55536004 221.50811961 -51.02244072 227.3872566 -82.4375 220.25 C-93.84321832 217.48791691 -104.65849332 213.59966375 -115 208 C-115 207.34 -115 206.68 -115 206 C-115.57363281 205.88914063 -116.14726563 205.77828125 -116.73828125 205.6640625 C-123.96780161 203.5414054 -131.51155477 197.03431855 -137 192 C-137 191.34 -137 190.68 -137 190 C-137.56074219 189.77183594 -138.12148437 189.54367188 -138.69921875 189.30859375 C-147.25828106 184.44053624 -153.18153779 174.31493606 -158 166 C-158.46148437 165.20464844 -158.92296875 164.40929687 -159.3984375 163.58984375 C-160.63250127 161.40966442 -161.82219581 159.21096577 -163 157 C-163.50466797 156.10474609 -163.50466797 156.10474609 -164.01953125 155.19140625 C-177.80186178 129.65840348 -178.68067138 96.60714676 -170.93359375 69.12890625 C-166.99904721 56.44226607 -161.1634421 43.55431828 -153 33 C-152.34 33 -151.68 33 -151 33 C-150.690625 31.9790625 -150.690625 31.9790625 -150.375 30.9375 C-148.57104973 27.08360625 -146.0989655 23.92212236 -143 21 C-142.34 21 -141.68 21 -141 21 C-141 20.34 -141 19.68 -141 19 C-137.50956188 15.79187673 -133.72683502 12.92787305 -130 10 C-129.31035156 9.44570313 -128.62070313 8.89140625 -127.91015625 8.3203125 C-90.42250884 -21.00406285 -41.0341353 -21.63958199 0 0 Z M-66 18 C-67.11375 18.30421875 -68.2275 18.6084375 -69.375 18.921875 C-76.7855717 21.25973393 -83.66920155 24.4427231 -90 29 C-90 29.66 -90 30.32 -90 31 C-90.5775 31.268125 -91.155 31.53625 -91.75 31.8125 C-94.05550043 33.02929189 -96.02056192 34.30333879 -98 36 C-98 36.66 -98 37.32 -98 38 C-98.56847656 38.21011719 -99.13695313 38.42023437 -99.72265625 38.63671875 C-108.12274387 43.66524461 -113.63570024 56.99358185 -116 66 C-116.752247 69.71496443 -117.37304817 73.43969186 -117.9375 77.1875 C-118.14898682 78.58838867 -118.14898682 78.58838867 -118.36474609 80.01757812 C-118.48027832 80.89220703 -118.59581055 81.76683594 -118.71484375 82.66796875 C-118.81917725 83.45453857 -118.92351074 84.2411084 -119.03100586 85.05151367 C-119.22215997 87.24168446 -119.22215997 87.24168446 -117 89 C-116.80664062 88.45730469 -116.61328125 87.91460937 -116.4140625 87.35546875 C-116.15367188 86.64003906 -115.89328125 85.92460938 -115.625 85.1875 C-115.36976562 84.47980469 -115.11453125 83.77210937 -114.8515625 83.04296875 C-114 81 -114 81 -112 78 C-112 77.01 -112 76.02 -112 75 C-111.34 75 -110.68 75 -110 75 C-107.82796 72.03812728 -106.16438003 69.49314009 -105 66 C-104.34 66 -103.68 66 -103 66 C-100.33333333 63.66666667 -100.33333333 63.66666667 -98 61 C-98 60.34 -98 59.68 -98 59 C-97.21625 58.690625 -96.4325 58.38125 -95.625 58.0625 C-93.07669872 57.07124962 -93.07669872 57.07124962 -91 56 C-91 55.34 -91 54.68 -91 54 C-90.2265625 53.8453125 -90.2265625 53.8453125 -89.4375 53.6875 C-86.15434837 52.76148287 -83.13113677 51.34962792 -80 50 C-66.05770264 44.79100279 -52.01746098 46.89990469 -38.69140625 52.68359375 C-36 54 -36 54 -33.27734375 55.66015625 C-31.15307597 57.16902824 -31.15307597 57.16902824 -29 57 C-29 57.66 -29 58.32 -29 59 C-27.53798428 60.40414831 -27.53798428 60.40414831 -25.6875 61.8125 C-22.67916478 64.29528268 -20.89725325 66.56687508 -19 70 C-18.38125 70.598125 -17.7625 71.19625 -17.125 71.8125 C-7.20194831 82.02740616 -4.74388265 95.81666908 -4.7512207 109.53149414 C-4.83978074 115.45354847 -5.64482645 120.52351211 -8 126 C-8.35191406 126.83917969 -8.70382813 127.67835938 -9.06640625 128.54296875 C-11.85420349 134.62459902 -15.78659344 141.89329672 -22 145 C-22 145.66 -22 146.32 -22 147 C-22.66 147 -23.32 147 -24 147 C-24 147.66 -24 148.32 -24 149 C-24.7321875 149.28101563 -25.464375 149.56203125 -26.21875 149.8515625 C-28.75076805 150.89708681 -31.08987154 152.07914326 -33.5 153.375 C-39.42281273 156.39008745 -45.61837728 158.20954472 -52 160 C-52 160.66 -52 161.32 -52 162 C-36.7198215 162.54142365 -24.0716201 158.68125223 -10 153 C-10 152.34 -10 151.68 -10 151 C-9.29875 150.9175 -8.5975 150.835 -7.875 150.75 C-2.00754263 149.21935895 1.91560557 145.29385055 6 141 C6.928125 140.113125 7.85625 139.22625 8.8125 138.3125 C11.22906662 136.28837851 11.22906662 136.28837851 11 134 C11.66 134 12.32 134 13 134 C14.36819481 132.31792068 14.36819481 132.31792068 15.625 130.1875 C16.07101563 129.47980469 16.51703125 128.77210938 16.9765625 128.04296875 C18.22394864 125.93378793 18.22394864 125.93378793 18 123 C18.66 123 19.32 123 20 123 C30.71399532 95.80608058 29.43230554 72.93889019 18 46 C17.34 46 16.68 46 16 46 C15.67 44.35 15.34 42.7 15 41 C14.34 41 13.68 41 13 41 C12.75765625 40.28714844 12.5153125 39.57429688 12.265625 38.83984375 C8.703994 30.84815937 2.23299707 25.08691058 -5.625 21.5625 C-8.0659637 20.65989284 -10.52541083 19.80586098 -13 19 C-14.17949219 18.58878906 -15.35898438 18.17757812 -16.57421875 17.75390625 C-24.96772102 15.21919135 -32.99212454 14.62340407 -41.75 14.5625 C-42.77907471 14.55234863 -43.80814941 14.54219727 -44.8684082 14.53173828 C-52.27523429 14.61583273 -58.90226766 15.93810743 -66 18 Z M-116.125 23.375 C-117.03507812 24.00148438 -117.94515625 24.62796875 -118.8828125 25.2734375 C-119.58148438 25.84320313 -120.28015625 26.41296875 -121 27 C-121 27.66 -121 28.32 -121 29 C-121.53625 29.20625 -122.0725 29.4125 -122.625 29.625 C-125.91978009 31.53250426 -128.59363628 34.04819384 -131 37 C-131 37.66 -131 38.32 -131 39 C-131.66 39 -132.32 39 -133 39 C-133 39.66 -133 40.32 -133 41 C-133.66 41 -134.32 41 -135 41 C-137.31592022 44.22114157 -137.31592022 44.22114157 -138 48 C-138.66 48 -139.32 48 -140 48 C-155.70374803 69.95360241 -158.73546582 98.29437318 -154.76171875 124.36328125 C-152.80662834 133.6975847 -149.60713354 142.63890579 -145 151 C-144.34 151 -143.68 151 -143 151 C-142.9175 151.70125 -142.835 152.4025 -142.75 153.125 C-141.81990995 156.6903452 -140.23313631 159.09015572 -138 162 C-137.34 162 -136.68 162 -136 162 C-135.7525 162.721875 -135.505 163.44375 -135.25 164.1875 C-133.87730408 167.27606582 -132.27646704 169.51011418 -130 172 C-129.34 172 -128.68 172 -128 172 C-128 172.66 -128 173.32 -128 174 C-127.34 174 -126.68 174 -126 174 C-126 174.66 -126 175.32 -126 176 C-123.9102773 177.79539556 -121.82157918 179.47061442 -119.625 181.125 C-118.72007813 181.82689453 -118.72007813 181.82689453 -117.796875 182.54296875 C-114.74265059 185.13614239 -114.74265059 185.13614239 -111 186 C-111 186.66 -111 187.32 -111 188 C-109.09166638 188.95416681 -107.18310936 189.90788937 -105.2734375 190.859375 C-103.85770688 191.56967283 -102.44553756 192.28717178 -101.0390625 193.015625 C-86.30555148 200.59285924 -72.09159642 203.52328636 -55.5 203.375 C-53.55287109 203.39240234 -53.55287109 203.39240234 -51.56640625 203.41015625 C-34.50411663 203.35902052 -19.32385188 198.97140386 -4.6875 190.3125 C-4.02242432 189.91981934 -3.35734863 189.52713867 -2.67211914 189.12255859 C-1.07569967 188.14264515 0.46832686 187.07831484 2 186 C2 185.34 2 184.68 2 184 C3.11375 183.5978125 3.11375 183.5978125 4.25 183.1875 C6.89061949 182.04723249 8.85552844 180.90619694 11 179 C11 178.34 11 177.68 11 177 C11.9590625 176.5978125 11.9590625 176.5978125 12.9375 176.1875 C15.33131686 175.11332248 15.33131686 175.11332248 16 172 C16.66 172 17.32 172 18 172 C19.65806959 169.95090485 21.18390756 167.9089471 22.6875 165.75 C23.13375732 165.11320313 23.58001465 164.47640625 24.03979492 163.8203125 C33.14795164 150.67445181 42.8302708 134.60541604 42 118 C40.63523389 120.66967406 39.41226543 123.36207077 38.25 126.125 C34.82232619 133.8563087 30.3740858 140.80883624 25.1015625 147.40625 C23.81047309 148.95131086 23.81047309 148.95131086 24 151 C23.01 151.33 22.02 151.66 21 152 C21 152.66 21 153.32 21 154 C20.34 154 19.68 154 19 154 C19 154.66 19 155.32 19 156 C18.12214844 156.40992188 18.12214844 156.40992188 17.2265625 156.828125 C15.05577292 157.97064583 13.29494256 159.23038589 11.375 160.75 C5.11235729 165.51100533 -1.41335962 169.77147599 -8.91796875 172.26171875 C-10.75116917 172.91176543 -12.53952354 173.68544158 -14.31640625 174.4765625 C-25.03487578 178.90943961 -36.22970493 179.29711469 -47.6875 179.375 C-49.36054199 179.39566528 -49.36054199 179.39566528 -51.06738281 179.41674805 C-61.86264211 179.35719785 -71.97075763 177.56817441 -81.5625 172.5 C-82.69816406 171.9121875 -83.83382812 171.324375 -85.00390625 170.71875 C-88 169 -88 169 -90.27734375 167.28125 C-91.90964974 165.80106904 -91.90964974 165.80106904 -94 166 C-94 165.34 -94 164.68 -94 164 C-94.61875 163.9175 -95.2375 163.835 -95.875 163.75 C-98 163 -98 163 -99.0625 161.125 C-99.371875 160.42375 -99.68125 159.7225 -100 159 C-101.4166747 157.2488427 -101.4166747 157.2488427 -103 156 C-103.66 156 -104.32 156 -105 156 C-105.33 154.68 -105.66 153.36 -106 152 C-106.66 152 -107.32 152 -108 152 C-108.2475 151.28457031 -108.495 150.56914062 -108.75 149.83203125 C-110.13863595 146.68590294 -111.84463946 144.36189037 -114 141.6875 C-114.70125 140.80449219 -115.4025 139.92148438 -116.125 139.01171875 C-117.053125 138.01591797 -117.053125 138.01591797 -118 137 C-118.66 137 -119.32 137 -120 137 C-120.25136719 136.47019531 -120.50273438 135.94039063 -120.76171875 135.39453125 C-121.69750711 133.58494682 -122.7152322 131.8174196 -123.76953125 130.07421875 C-136.10422412 109.62645829 -139.58897169 85.98779458 -134.125 62.58203125 C-131.67526143 54.78199558 -128.54559232 46.81838848 -124 40 C-124 39.01 -124 38.02 -124 37 C-123.34 37 -122.68 37 -122 37 C-119.82796 34.03812728 -118.16438003 31.49314009 -117 28 C-116.34 28 -115.68 28 -115 28 C-113.41544134 26.21276059 -113.41544134 26.21276059 -111.875 24 C-111.33617187 23.2575 -110.79734375 22.515 -110.2421875 21.75 C-109.83226562 21.1725 -109.42234375 20.595 -109 20 C-112.0378006 20 -113.66458966 21.65761957 -116.125 23.375 Z M-84.625 73.375 C-85.25664063 73.81585938 -85.88828125 74.25671875 -86.5390625 74.7109375 C-87.02117187 75.13632813 -87.50328125 75.56171875 -88 76 C-88 76.66 -88 77.32 -88 78 C-88.66 78 -89.32 78 -90 78 C-99.73103527 90.25857689 -103.78581496 102.06564334 -102.875 117.6875 C-102.13761822 122.85874885 -99.99129598 127.73478282 -97 132 C-94.94139752 133.29960447 -94.94139752 133.29960447 -93 134 C-93 134.66 -93 135.32 -93 136 C-79.06273266 142.7124339 -65.68341359 145.98762732 -50.625 140.875 C-44.81980906 138.5382775 -38.94850869 135.88811397 -34 132 C-34 131.34 -34 130.68 -34 130 C-32.68 129.34 -31.36 128.68 -30 128 C-30.33 127.34 -30.66 126.68 -31 126 C-31.79664063 126.69029297 -31.79664063 126.69029297 -32.609375 127.39453125 C-38.98872442 131.67870218 -48.45109888 132.73053882 -56 132 C-61.82866102 130.78466217 -67.02463322 129.37040976 -72 126 C-72.66 126 -73.32 126 -74 126 C-74.33 125.01 -74.66 124.02 -75 123 C-75.66 123 -76.32 123 -77 123 C-77 122.34 -77 121.68 -77 121 C-77.66 121 -78.32 121 -79 121 C-79.28746094 120.42121094 -79.57492188 119.84242188 -79.87109375 119.24609375 C-80.57980738 117.83602338 -81.29956419 116.43139326 -82.03515625 115.03515625 C-82.37417969 114.38417969 -82.71320313 113.73320312 -83.0625 113.0625 C-83.57490234 112.08990234 -83.57490234 112.08990234 -84.09765625 111.09765625 C-87.44420838 103.31800908 -87.27481139 92.04875799 -85.2109375 83.875 C-84.25961421 81.49306077 -83.21375803 79.25785096 -82 77 C-81.4165984 75.79169962 -80.83325529 74.58337101 -80.25 73.375 C-79.8375 72.59125 -79.425 71.8075 -79 71 C-81.59121224 71 -82.53083983 71.88409584 -84.625 73.375 Z M-62 81 C-62 81.66 -62 82.32 -62 83 C-62.66 83 -63.32 83 -64 83 C-66.74016758 87.90681171 -69 92.25756774 -69 98 C-66.94331139 104.75604973 -63.8809018 109.0793988 -58 113 C-50.8724892 114.42550216 -45.44597891 113.60974819 -39 110 C-39 109.34 -39 108.68 -39 108 C-38.01 107.67 -37.02 107.34 -36 107 C-31.95192514 101.72523579 -29.65597151 97.12590018 -30.1875 90.4375 C-30.71460989 86.72263028 -31.59996155 83.97604767 -34 81 C-34.66 81 -35.32 81 -36 81 C-36 80.34 -36 79.68 -36 79 C-45.74222301 75.43421903 -53.01989547 75.01326365 -62 81 Z " fill="#3D8572" transform="translate(175,15)"/>
<path d="M0 0 C6.6 0 13.2 0 20 0 C20.09283094 16.74261721 20.16409821 33.48512728 20.20724869 50.22793961 C20.22782204 58.00296066 20.25584178 65.77781827 20.30175781 73.55273438 C20.34178663 80.33404207 20.36747075 87.11523132 20.37635398 93.89665389 C20.3815418 97.48317499 20.39362382 101.06935743 20.42292023 104.65576935 C20.45545794 108.67202904 20.45594922 112.68771027 20.45410156 116.70410156 C20.46848267 117.87655426 20.48286377 119.04900696 20.49768066 120.25698853 C20.4482857 130.23124268 17.91768647 138.93325889 13.25 147.75 C12.82203125 148.56984375 12.3940625 149.3896875 11.953125 150.234375 C11.63859375 150.81703125 11.3240625 151.3996875 11 152 C10.34 152 9.68 152 9 152 C8.731875 152.763125 8.46375 153.52625 8.1875 154.3125 C7.04865495 156.88988618 6.18583329 158.26954864 4 160 C3.34 160 2.68 160 2 160 C1.76023437 160.58910156 1.52046875 161.17820313 1.2734375 161.78515625 C-3.49863413 170.08504771 -15.84158885 174.17246532 -24.52734375 176.75 C-39.52258206 180.24969906 -54.19433858 177.22503338 -68 171 C-68 170.34 -68 169.68 -68 169 C-68.99 169 -69.98 169 -71 169 C-71 168.34 -71 167.68 -71 167 C-71.7425 166.731875 -72.485 166.46375 -73.25 166.1875 C-75.89061949 165.04723249 -77.85552844 163.90619694 -80 162 C-80 161.34 -80 160.68 -80 160 C-80.99 159.67 -81.98 159.34 -83 159 C-96.58588235 143.35369947 -98.35512104 125.84913547 -97 106 C-96.2273044 101.59651314 -95.02790569 97.96977902 -93 94 C-92.47148437 92.96101563 -91.94296875 91.92203125 -91.3984375 90.8515625 C-89.98747822 88.19681922 -88.52853098 85.58831246 -87 83 C-86.34 83 -85.68 83 -85 83 C-84.74476563 82.42121094 -84.48953125 81.84242187 -84.2265625 81.24609375 C-78.24426194 70.29124399 -65.39613181 64.31475596 -54.05273438 60.56005859 C-40.54640485 56.87505384 -25.75185412 58.87296587 -13 64 C-9.04 66.64 -5.08 69.28 -1 72 C-0.67 48.24 -0.34 24.48 0 0 Z M-65 80 C-65 80.66 -65 81.32 -65 82 C-65.66 82 -66.32 82 -67 82 C-70.93364826 85.87796088 -70.93364826 85.87796088 -72 91 C-72.66 91 -73.32 91 -74 91 C-74.64894237 93.06152389 -75.2940264 95.12426258 -75.9375 97.1875 C-76.29714844 98.33605469 -76.65679687 99.48460938 -77.02734375 100.66796875 C-81.2140393 115.01034348 -78.01353642 129.44508993 -70.953125 142.375 C-70.63859375 142.91125 -70.3240625 143.4475 -70 144 C-69.34 144 -68.68 144 -68 144 C-67.835 144.680625 -67.67 145.36125 -67.5 146.0625 C-63.4059309 154.08005199 -54.29501892 158.94325711 -46.1640625 162.1015625 C-35.84029219 165.03300345 -27.3472975 163.48447588 -18.21679688 158.49047852 C-16.79881828 157.68164607 -15.3973334 156.84399799 -14 156 C-14 155.34 -14 154.68 -14 154 C-13.34 154 -12.68 154 -12 154 C-2.2478316 143.5233848 0.62627781 131.49127482 0.30859375 117.578125 C-0.35271024 104.30814128 -6.81076657 90.85447985 -16.58203125 81.8203125 C-32.7767142 69.62851564 -48.00655724 69.89922468 -65 80 Z " fill="#3F4F61" transform="translate(487,0)"/>
<path d="M0 0 C0 0.66 0 1.32 0 2 C0.66 2 1.32 2 2 2 C2 2.66 2 3.32 2 4 C2.58910156 4.24234375 3.17820312 4.4846875 3.78515625 4.734375 C12.18159213 9.53233836 15.50814208 21.30938807 18 30 C21.54002786 46.54239433 18.07012051 61.05284306 11 76 C10.34 76.99 9.68 77.98 9 79 C8.34 79 7.68 79 7 79 C6.79375 79.70125 6.5875 80.4025 6.375 81.125 C4.6165622 84.80173359 2.19571859 87.47295079 -1 90 C-1.66 90 -2.32 90 -3 90 C-3 90.66 -3 91.32 -3 92 C-15.14245996 101.21878739 -30.94287591 105.21579263 -46 104 C-56.98220724 102.21945279 -68.06226209 98.86082231 -77 92 C-77.495 91.01 -77.495 91.01 -78 90 C-78.33 111.12 -78.66 132.24 -79 154 C-85.6 154 -92.2 154 -99 154 C-99.06971472 139.11730292 -99.12312012 124.23463083 -99.15543652 109.35180473 C-99.17084642 102.44004603 -99.19182211 95.5283912 -99.22631836 88.61669922 C-99.25963435 81.93824981 -99.27688695 75.25993024 -99.28463173 68.5813942 C-99.29014637 66.04189488 -99.30091463 63.502401 -99.31719017 60.96294785 C-99.44904281 39.52460165 -98.64552147 20.11881685 -83.48046875 3.31640625 C-82 2 -82 2 -80 2 C-80 1.34 -80 0.68 -80 0 C-56.44504314 -18.22108365 -23.02230113 -21.48748105 0 0 Z M-65 6 C-65 6.66 -65 7.32 -65 8 C-65.66 8 -66.32 8 -67 8 C-67 8.66 -67 9.32 -67 10 C-67.66 10 -68.32 10 -69 10 C-76.17197206 19.43589577 -80.53434119 32.05701992 -79 44 C-77.69085631 52.49994746 -75.92373017 60.28784071 -72 68 C-71.34 68 -70.68 68 -70 68 C-69.5359375 69.175625 -69.5359375 69.175625 -69.0625 70.375 C-68.07124962 72.92330128 -68.07124962 72.92330128 -67 75 C-66.34 75 -65.68 75 -65 75 C-65 75.66 -65 76.32 -65 77 C-56.59585768 85.24174343 -45.84641469 89.38680959 -34.1875 89.5234375 C-25.55270784 89.29317638 -18.33844189 85.64669726 -11.74609375 80.10546875 C-2.99640553 70.82664171 0.22564413 59.49433807 0.07641602 46.9765625 C-0.27006515 37.16439288 -3.07075719 28.92791256 -7 20 C-7.66 20 -8.32 20 -9 20 C-9.185625 19.319375 -9.37125 18.63875 -9.5625 17.9375 C-11.55619324 13.86343121 -14.49774708 10.86623057 -18 8 C-18.66 8 -19.32 8 -20 8 C-20 7.34 -20 6.68 -20 6 C-36.69205183 -3.33292825 -48.23705941 -3.96376656 -65 6 Z " fill="#3F5061" transform="translate(615,74)"/>
<path d="M0 0 C1.06863281 -0.02449219 2.13726562 -0.04898438 3.23828125 -0.07421875 C13.41226363 -0.11130496 21.68178949 2.81102889 30.375 7.9375 C31.37789063 8.51628906 32.38078125 9.09507813 33.4140625 9.69140625 C35.75 11.375 35.75 11.375 36.75 14.375 C37.41 14.375 38.07 14.375 38.75 14.375 C38.75 15.035 38.75 15.695 38.75 16.375 C39.41 16.375 40.07 16.375 40.75 16.375 C50.3111777 28.73502932 54.44388224 40.70158685 55.75 56.375 C24.73 56.705 -6.29 57.035 -38.25 57.375 C-35.00327966 71.56983738 -35.00327966 71.56983738 -28.25 83.375 C-27.76402344 84.02984375 -27.27804687 84.6846875 -26.77734375 85.359375 C-20.8029831 92.8153771 -13.40087269 97.48712797 -3.80786133 98.67822266 C-1.30135012 98.8110476 1.17773366 98.84215715 3.6875 98.8125 C5.0024646 98.80440308 5.0024646 98.80440308 6.34399414 98.79614258 C12.79847546 98.64425124 18.1184318 97.69679181 23.75 94.375 C24.74 93.7975 25.73 93.22 26.75 92.625 C27.41 92.2125 28.07 91.8 28.75 91.375 C29.41 91.375 30.07 91.375 30.75 91.375 C30.75 90.715 30.75 90.055 30.75 89.375 C31.41 89.375 32.07 89.375 32.75 89.375 C32.75 88.715 32.75 88.055 32.75 87.375 C33.41 87.375 34.07 87.375 34.75 87.375 C35.1521875 86.570625 35.1521875 86.570625 35.5625 85.75 C36.45000978 83.97498044 37.34748009 82.20493483 38.25 80.4375 C39.5387266 77.80634985 40.6618971 75.09525724 41.75 72.375 C46.37 72.375 50.99 72.375 55.75 72.375 C53.88427607 83.56934357 48.75340895 94.20657231 40.75 102.375 C40.09 102.375 39.43 102.375 38.75 102.375 C38.75 103.035 38.75 103.695 38.75 104.375 C24.76122652 115.47949029 9.65254505 119.85898415 -8.03515625 118.09765625 C-18.29344995 116.54784209 -27.81950039 112.37362472 -36.25 106.375 C-36.25 105.715 -36.25 105.055 -36.25 104.375 C-36.91 104.375 -37.57 104.375 -38.25 104.375 C-38.25 103.715 -38.25 103.055 -38.25 102.375 C-38.889375 102.106875 -39.52875 101.83875 -40.1875 101.5625 C-42.25 100.375 -42.25 100.375 -43.25 97.375 C-43.91 97.375 -44.57 97.375 -45.25 97.375 C-49.40625751 91.83666168 -52.8346594 85.85828268 -55.25 79.375 C-55.62125 78.385 -55.9925 77.395 -56.375 76.375 C-59.49401214 65.68124409 -59.61455059 53.02620587 -56.25 42.375 C-55.99347656 41.51648438 -55.73695313 40.65796875 -55.47265625 39.7734375 C-53.20492026 32.86316904 -49.77276354 22.86579731 -43.09375 19.1875 C-42.4853125 18.919375 -41.876875 18.65125 -41.25 18.375 C-40.5662955 17.05032254 -39.90035814 15.71636367 -39.25 14.375 C-35.82142857 11.375 -35.82142857 11.375 -33.25 11.375 C-33.25 10.715 -33.25 10.055 -33.25 9.375 C-31.06623234 8.24222732 -28.87842872 7.11877211 -26.6875 6 C-26.07841797 5.68289062 -25.46933594 5.36578125 -24.84179688 5.0390625 C-16.58212641 0.84367433 -9.18128396 0.0109171 0 0 Z M-20.25 17.375 C-20.25 18.035 -20.25 18.695 -20.25 19.375 C-21.013125 19.643125 -21.77625 19.91125 -22.5625 20.1875 C-25.13988618 21.32634505 -26.51954864 22.18916671 -28.25 24.375 C-28.25 25.035 -28.25 25.695 -28.25 26.375 C-28.91 26.375 -29.57 26.375 -30.25 26.375 C-31.42154293 28.66429053 -32.58738074 30.95618362 -33.75 33.25 C-34.08386719 33.90097656 -34.41773438 34.55195312 -34.76171875 35.22265625 C-36.61843717 38.6274471 -36.61843717 38.6274471 -37.25 42.375 C-13.49 42.375 10.27 42.375 34.75 42.375 C33.90623486 37.31240917 33.46271219 35.32869715 30.9375 31.25 C30.43605469 30.42242187 29.93460937 29.59484375 29.41796875 28.7421875 C27.71120024 26.31993523 25.97358366 24.33247527 23.75 22.375 C23.09 22.375 22.43 22.375 21.75 22.375 C21.255 20.89 21.255 20.89 20.75 19.375 C7.5495903 10.83355843 -6.28236468 10.83695793 -20.25 17.375 Z " fill="#3F5061" transform="translate(326.25,59.625)"/>
<path d="M0 0 C4.03119644 0.52672427 6.13732125 1.57672358 9.125 4.3125 C9.78757812 4.90675781 10.45015625 5.50101563 11.1328125 6.11328125 C16 11.03138075 16 11.03138075 16 14 C16.66 14 17.32 14 18 14 C32.77651844 31.21388231 38.4907547 55.73100973 37.1953125 78.02880859 C35.68529685 93.26864156 26.07076618 112.99443865 14 123 C13.34 123 12.68 123 12 123 C12 123.66 12 124.32 12 125 C3.83204751 132.01714131 -5.63817434 138.85059058 -15.91796875 142.26171875 C-17.75116917 142.91176543 -19.53952354 143.68544158 -21.31640625 144.4765625 C-32.03487578 148.90943961 -43.22970493 149.29711469 -54.6875 149.375 C-55.80286133 149.38877686 -56.91822266 149.40255371 -58.06738281 149.41674805 C-68.79745114 149.35755747 -78.90121797 147.60583408 -88.4375 142.5625 C-89.54996094 141.98628906 -90.66242188 141.41007813 -91.80859375 140.81640625 C-95.0122443 138.99303109 -98.02984284 137.18169915 -101 135 C-101 134.34 -101 133.68 -101 133 C-101.556875 132.95875 -102.11375 132.9175 -102.6875 132.875 C-106.19328368 131.54848726 -107.73119016 128.90873056 -110 126 C-110.8971875 125.13375 -110.8971875 125.13375 -111.8125 124.25 C-113 123 -113 123 -113 121 C-113.66 121 -114.32 121 -115 121 C-115.66 119.68 -116.32 118.36 -117 117 C-113.49649456 117 -113.04936599 117.5473053 -110.375 119.625 C-105.97618499 122.66090347 -101.50216212 124.5349987 -96.5 126.3125 C-95.45078369 126.69365967 -95.45078369 126.69365967 -94.38037109 127.08251953 C-84.99457653 130.29408125 -75.58235773 130.18648128 -65.7355957 130.18530273 C-63.70177111 130.18748469 -61.66849452 130.20568982 -59.63476562 130.22460938 C-48.78942402 130.24050387 -38.7192132 129.37102476 -28.5625 125.4375 C-24.70477193 123.9584848 -21.08086373 122.67887266 -17 122 C-17 121.34 -17 120.68 -17 120 C-15.730447 119.35165346 -14.45930294 118.70642185 -13.1875 118.0625 C-12.47980469 117.70285156 -11.77210938 117.34320313 -11.04296875 116.97265625 C-9 116 -9 116 -6 115 C-5.505 113.515 -5.505 113.515 -5 112 C-3.1875 110.24609375 -3.1875 110.24609375 -1 108.4375 C1.94959179 106.07789673 1.94959179 106.07789673 4 103 C4.66 103 5.32 103 6 103 C6.268125 102.29875 6.53625 101.5975 6.8125 100.875 C8.0681449 97.8350176 9.50235123 94.9272226 11 92 C11.66 92 12.32 92 13 92 C13.1546875 90.7315625 13.1546875 90.7315625 13.3125 89.4375 C14.0703052 85.648474 15.4501664 82.5336206 17 79 C23.3635227 60.26296093 20.14180609 38.64091418 12.25 20.875 C11 18 11 18 11 15 C10.34 15 9.68 15 9 15 C8.505 12.525 8.505 12.525 8 10 C7.34 10 6.68 10 6 10 C4.4921875 8.06640625 4.4921875 8.06640625 2.875 5.5625 C2.33617187 4.73878906 1.79734375 3.91507813 1.2421875 3.06640625 C0 1 0 1 0 0 Z " fill="#219BB3" transform="translate(182,46)"/>
<path d="M0 0 C0 0.66 0 1.32 0 2 C0.61875 2.268125 1.2375 2.53625 1.875 2.8125 C4 4 4 4 6 7 C4.515 7.495 4.515 7.495 3 8 C3 7.34 3 6.68 3 6 C1.25014646 5.52029877 -0.49988891 5.04126076 -2.25 4.5625 C-3.71179688 4.16224609 -3.71179688 4.16224609 -5.203125 3.75390625 C-6.12609375 3.50511719 -7.0490625 3.25632812 -8 3 C-8.64324219 2.80921875 -9.28648437 2.6184375 -9.94921875 2.421875 C-20.88658122 0.17190329 -30.6979376 2.48538828 -40.25 7.8125 C-43.77925253 10.61985997 -46.89800999 13.73281525 -50 17 C-50.66 16.34 -51.32 15.68 -52 15 C-52.78375 15.66 -53.5675 16.32 -54.375 17 C-57 19 -57 19 -59 19 C-59 19.66 -59 20.32 -59 21 C-59.66 21 -60.32 21 -61 21 C-61.28101562 21.58523437 -61.56203125 22.17046875 -61.8515625 22.7734375 C-62.91489336 24.83499732 -64.08788032 26.69841959 -65.375 28.625 C-72.57634192 40.19401972 -73.94266708 51.61718234 -72 65 C-72 65.99 -72 66.98 -72 68 C-74.71728453 67.64324492 -75.82627969 67.18188167 -77.74609375 65.171875 C-84.67508881 55.25045021 -89.63730533 44.33893921 -89 32 C-88.35552095 29.1047267 -87.35095842 26.63173717 -86 24 C-85.443125 22.845 -84.88625 21.69 -84.3125 20.5 C-83.879375 19.675 -83.44625 18.85 -83 18 C-82.34 18 -81.68 18 -81 18 C-80.731875 17.2575 -80.46375 16.515 -80.1875 15.75 C-79.04723249 13.10938051 -77.90619694 11.14447156 -76 9 C-75.34 9 -74.68 9 -74 9 C-73.67 8.01 -73.34 7.02 -73 6 C-71.51171875 4.4296875 -71.51171875 4.4296875 -69.6875 2.875 C-69.09324219 2.35679688 -68.49898437 1.83859375 -67.88671875 1.3046875 C-65.90589997 -0.06507125 -64.35267921 -0.57412871 -62 -1 C-62 -1.66 -62 -2.32 -62 -3 C-41.09046448 -12.74786176 -19.62008841 -14.51886542 0 0 Z " fill="#239BC1" transform="translate(146,72)"/>
<path d="M0 0 C3.37688548 3.37688548 5.86206208 5.93093122 6.1875 10.8125 C6.125625 11.534375 6.06375 12.25625 6 13 C4.02 13.33 2.04 13.66 0 14 C0 9.38 0 4.76 0 0 Z " fill="#1E4E65" transform="translate(144,99)"/>
<path d="M0 0 C2.50037734 2.17424117 3.43628586 3.73045798 4 7 C1.37812506 5.95125002 0.20628639 5.35068687 -1.25 2.875 C-1.4975 2.25625 -1.745 1.6375 -2 1 C-1.34 0.67 -0.68 0.34 0 0 Z " fill="#2E5C77" transform="translate(73,139)"/>
</svg>
