<?xml version="1.0" encoding="UTF-8"?>
<svg version="1.1" xmlns="http://www.w3.org/2000/svg" width="758" height="223">
<path d="M0 0 C1.05485847 0.00842926 1.05485847 0.00842926 2.13102722 0.01702881 C2.87293808 0.01513046 3.61484894 0.01323212 4.37924194 0.01127625 C6.84673966 0.00755585 9.31394594 0.01830608 11.78141785 0.02947998 C13.50663722 0.03067319 15.23185726 0.03112465 16.95707703 0.03086853 C20.58883184 0.03243654 24.22048854 0.04073838 27.85221863 0.05413818 C32.45549485 0.07092562 37.05866119 0.0749583 41.66196442 0.074193 C45.23644518 0.07446855 48.81090298 0.08001364 52.38537598 0.08719444 C54.07864203 0.09033091 55.77191065 0.09233645 57.46517944 0.09308815 C66.19516628 0.10118967 74.90702731 0.22762798 83.62712097 0.66497803 C84.34605782 0.69780538 85.06499466 0.73063272 85.80571747 0.76445484 C99.48053725 1.53698571 113.14674306 6.13036978 123.37516785 15.49822998 C131.3387301 24.47714643 133.61720111 34.38877879 133.32829285 46.16619873 C132.82000182 54.04839284 128.99197832 60.66129092 124.93766785 67.25994873 C125.52805847 67.53838623 126.1184491 67.81682373 126.72673035 68.10369873 C133.96025258 71.88660082 138.66025461 77.87087162 141.93766785 85.25994873 C146.14434227 99.05024984 146.40852015 112.19935516 140.31266785 125.38494873 C134.15736367 136.88564864 124.7364908 143.25987682 112.3397522 147.05534363 C100.38643151 150.05030448 88.44442089 149.65729305 76.1993866 149.58807373 C73.82282633 149.5850112 71.44626427 149.58313884 69.06970215 149.58239746 C64.12010191 149.57782102 59.1706668 149.56348798 54.22111511 149.54119873 C47.86326373 149.51271667 41.50554079 149.50196423 35.14763165 149.49751663 C30.25536814 149.49337382 25.36313074 149.4835692 20.47088051 149.47164154 C18.12440513 149.46593256 15.77792723 149.46117593 13.43144798 149.45737457 C10.17134985 149.45054245 6.91135605 149.43693004 3.65129089 149.42108154 C2.67635178 149.41996368 1.70141266 149.41884583 0.69692993 149.41769409 C-0.18452698 149.41198395 -1.06598389 149.4062738 -1.97415161 149.40039062 C-2.74410115 149.39741596 -3.51405069 149.3944413 -4.30733204 149.3913765 C-6.06233215 149.25994873 -6.06233215 149.25994873 -7.06233215 148.25994873 C-7.16325021 146.37895298 -7.19310327 144.49412656 -7.19604492 142.61042786 C-7.20030991 141.38347702 -7.20457489 140.15652618 -7.20896912 138.89239502 C-7.20861955 137.5202026 -7.20815799 136.14801022 -7.20759583 134.77581787 C-7.21058573 133.34050916 -7.21398786 131.90520125 -7.21777344 130.46989441 C-7.22663485 126.56084882 -7.22895245 122.65182509 -7.22958922 118.74277043 C-7.23053655 115.48464107 -7.23421281 112.22651685 -7.23776132 108.96838945 C-7.24591402 101.28440463 -7.24834481 93.60043152 -7.24763489 85.91644287 C-7.24703387 77.97811312 -7.25758855 70.03985128 -7.27337855 62.10153872 C-7.28643438 55.29644482 -7.29181961 48.49137317 -7.29117948 41.68626684 C-7.29092391 37.61730309 -7.29380716 33.54839965 -7.30435753 29.47944832 C-7.31400569 25.6537546 -7.31414042 21.82817924 -7.3068409 18.00248146 C-7.30579095 16.59555642 -7.3081821 15.18862414 -7.31420135 13.78171158 C-7.3218662 11.86664018 -7.31610223 9.95152884 -7.30957031 8.03645325 C-7.31011508 6.96294145 -7.31065985 5.88942965 -7.31122112 4.78338718 C-6.83444009 -0.05060604 -4.2658097 0.02789424 0 0 Z M24.93766785 29.25994873 C24.84999672 31.3325695 24.83070912 33.40815167 24.8400116 35.48260498 C24.84323425 36.74266357 24.84645691 38.00272217 24.84977722 39.30096436 C24.85813381 40.64145982 24.86659877 41.98195461 24.87516785 43.32244873 C24.88018125 44.66684815 24.88474443 46.01124933 24.88883972 47.35565186 C24.90067297 50.65712814 24.91715814 53.95851676 24.93766785 57.25994873 C27.56515669 58.57369315 29.52717948 58.3942439 32.46965027 58.4052124 C34.20736946 58.41478218 34.20736946 58.41478218 35.98019409 58.42454529 C37.86760063 58.42621452 37.86760063 58.42621452 39.7931366 58.42791748 C41.72833916 58.43291008 41.72833916 58.43291008 43.70263672 58.43800354 C46.43894791 58.44399786 49.17522751 58.44584331 51.9115448 58.44525146 C55.40392712 58.44515023 58.89610435 58.45876066 62.38843822 58.47602367 C65.73167379 58.48988122 69.07487272 58.48923443 72.4181366 58.49041748 C74.2903614 58.50119576 74.2903614 58.50119576 76.20040894 58.51219177 C86.72715055 58.65486134 86.72715055 58.65486134 95.75016785 53.88494873 C98.13408654 51.02424629 99.82247934 48.88440198 100.0900116 45.11151123 C99.65266536 40.57901391 99.0018067 36.94357303 95.68617249 33.53050232 C87.91646445 27.88463201 78.64497251 27.69823365 69.42985535 27.83416748 C67.55899765 27.83909966 67.55899765 27.83909966 65.65034485 27.84413147 C63.0367555 27.85448993 60.42318795 27.87433227 57.80973816 27.90325928 C54.45473078 27.94035043 51.10062649 27.96094126 47.74549675 27.97056866 C44.53606751 27.9805041 41.32672932 28.00073684 38.11735535 28.02166748 C36.30665054 28.03274788 36.30665054 28.03274788 34.45936584 28.04405212 C32.80096176 28.06330498 32.80096176 28.06330498 31.10905457 28.08294678 C29.64325455 28.09771309 29.64325455 28.09771309 28.14784241 28.11277771 C25.96353479 28.01456059 25.96353479 28.01456059 24.93766785 29.25994873 Z M24.93766785 84.25994873 C24.93766785 96.79994873 24.93766785 109.33994873 24.93766785 122.25994873 C37.13489686 122.37646546 37.13489686 122.37646546 49.3321991 122.45526123 C54.31365697 122.47908985 59.29481825 122.5071514 64.27604675 122.56170654 C68.29611568 122.60545489 72.31586616 122.62914635 76.33615494 122.6394577 C77.86303845 122.64679748 79.3899063 122.66112928 80.91665268 122.68286896 C94.6911792 122.96433606 94.6911792 122.96433606 106.60865784 116.77685547 C111.15555307 111.61598928 111.29458959 106.85773283 111.2071991 100.27166748 C110.80007844 95.72253669 109.84630421 93.82302827 106.93766785 90.25994873 C100.75921242 85.41087408 95.870682 84.13237137 88.05778503 84.14642334 C87.37445099 84.14627731 86.69111694 84.14613129 85.98707581 84.14598083 C83.73619881 84.14667558 81.48540533 84.15444741 79.23454285 84.16229248 C77.67084295 84.16415822 76.10714246 84.16558139 74.54344177 84.1665802 C70.43350096 84.17039312 66.32359564 84.18021293 62.21366882 84.19128418 C57.27937046 84.20332603 52.34506021 84.20790638 47.41075134 84.21373749 C39.91969884 84.22342535 32.42872419 84.24259046 24.93766785 84.25994873 Z " fill="#0F2C4E" transform="translate(241.0623321533203,72.74005126953125)"/>
<path d="M0 0 C0.8831337 -0.0049649 1.7662674 -0.00992981 2.67616272 -0.01504517 C5.61793791 -0.02972594 8.55965893 -0.03648362 11.50146484 -0.04199219 C13.54918418 -0.04774511 15.5969035 -0.05350282 17.6446228 -0.05926514 C21.95400239 -0.06979618 26.26336325 -0.07562298 30.57275391 -0.07910156 C36.05866686 -0.08454724 41.54432667 -0.10848118 47.0301609 -0.13707352 C51.27019938 -0.15584203 55.51017911 -0.16091331 59.75025558 -0.16243744 C61.76978289 -0.16543983 63.78930977 -0.17338535 65.80879593 -0.18662262 C87.41229444 -0.31795088 107.51814037 2.2123644 124.27490234 17.28613281 C134.85858047 28.43591465 136.25002902 42.81135804 135.89599609 57.39550781 C135.27744263 70.25936648 130.30310893 82.08983442 120.83740234 90.97363281 C116.39176896 94.58244109 109.4884646 100.16113281 103.58740234 100.16113281 C106.7700307 106.14742261 110.23669283 111.73590407 114.21240234 117.22363281 C115.26411104 118.69302152 116.31486758 120.16309213 117.36474609 121.63378906 C117.89567871 122.3764502 118.42661133 123.11911133 118.97363281 123.88427734 C122.10358806 128.300308 125.14819051 132.77523295 128.19726562 137.24731445 C130.21332911 140.3472383 130.21332911 140.3472383 132.58740234 143.16113281 C132.71240234 145.66113281 132.71240234 145.66113281 132.58740234 148.16113281 C130.65589351 150.09264165 127.04521582 149.32493934 124.41162109 149.32910156 C123.69005325 149.33242996 122.96848541 149.33575836 122.22505188 149.33918762 C120.69423054 149.34426084 119.1633981 149.34659583 117.63256836 149.34643555 C115.29506005 149.34861403 112.95802967 149.36674275 110.62060547 149.38574219 C109.13427896 149.38867767 107.6479502 149.39066143 106.16162109 149.39160156 C105.46356857 149.39878708 104.76551605 149.4059726 104.04631042 149.41337585 C97.48601771 149.38266226 97.48601771 149.38266226 94.58740234 147.16113281 C92.94728463 145.04029094 91.47956858 142.96505715 90.03271484 140.71972656 C89.60868378 140.07802017 89.18465271 139.43631378 88.74777222 138.77516174 C87.39385167 136.72194732 86.05297143 134.66058328 84.71240234 132.59863281 C83.81873021 131.23804209 82.92420718 129.87800986 82.02880859 128.51855469 C80.36088465 125.98414669 78.69837669 123.44635507 77.04101562 120.9050293 C76.64171844 120.31365677 76.24242126 119.72228424 75.83102417 119.11299133 C74.58740234 117.16113281 74.58740234 117.16113281 73.32644653 114.73014832 C70.76626135 109.99804113 70.76626135 109.99804113 66.28427124 107.38545227 C63.45898726 107.11815446 60.77357106 107.14720977 57.93896484 107.28222656 C56.92643646 107.29496109 55.91390808 107.30769562 54.87069702 107.32081604 C51.64878893 107.37104807 48.43259557 107.48391794 45.21240234 107.59863281 C43.02368185 107.64379278 40.83487269 107.68485471 38.64599609 107.72167969 C33.2891809 107.81305826 27.94465305 107.98907202 22.58740234 108.16113281 C22.25740234 121.36113281 21.92740234 134.56113281 21.58740234 148.16113281 C18.84215683 149.53375557 16.6252094 149.29082091 13.55615234 149.29394531 C11.75210937 149.29587891 11.75210937 149.29587891 9.91162109 149.29785156 C8.64962891 149.29398438 7.38763672 149.29011719 6.08740234 149.28613281 C4.19441406 149.29193359 4.19441406 149.29193359 2.26318359 149.29785156 C1.06048828 149.2965625 -0.14220703 149.29527344 -1.38134766 149.29394531 C-2.48929687 149.29281738 -3.59724609 149.29168945 -4.73876953 149.29052734 C-7.41259766 149.16113281 -7.41259766 149.16113281 -9.41259766 148.16113281 C-9.43592538 129.01198635 -9.45357621 109.86284275 -9.46440983 90.71368504 C-9.46957306 81.82303455 -9.47661626 72.93239288 -9.48803711 64.04174805 C-9.49798313 56.29552055 -9.50445089 48.54929943 -9.50668615 40.80306572 C-9.5079934 36.69892362 -9.51108012 32.59479979 -9.51832771 28.49066353 C-9.52508665 24.63218641 -9.52721488 20.77373516 -9.52570534 16.91525269 C-9.52598172 15.49500831 -9.5279876 14.07476312 -9.53180313 12.65452385 C-9.53673832 10.72371411 -9.53499569 8.79289066 -9.53285217 6.86207581 C-9.53377397 5.77896905 -9.53469576 4.69586229 -9.53564548 3.57993412 C-9.26540075 -1.7323768 -4.1753287 0.00554025 0 0 Z M21.58740234 28.16113281 C21.48893268 29.72112329 21.45941617 31.28553826 21.45800781 32.84863281 C21.45485565 33.84636719 21.45170349 34.84410156 21.44845581 35.87207031 C21.45048004 36.95746094 21.45250427 38.04285156 21.45458984 39.16113281 C21.45363312 40.26714844 21.45267639 41.37316406 21.45169067 42.51269531 C21.45100868 44.85644589 21.4528643 47.20019834 21.45703125 49.54394531 C21.46237921 53.14555069 21.45708688 56.74703135 21.45068359 60.34863281 C21.45134437 62.61946642 21.45262553 64.89029996 21.45458984 67.16113281 C21.45256561 68.24652344 21.45054138 69.33191406 21.44845581 70.45019531 C21.45160797 71.44792969 21.45476013 72.44566406 21.45800781 73.47363281 C21.45880341 74.35664063 21.459599 75.23964844 21.4604187 76.14941406 C21.36469561 78.15881173 21.36469561 78.15881173 22.58740234 79.16113281 C24.25257555 79.27036341 25.92235607 79.31020454 27.59106445 79.32226562 C28.65985336 79.33187317 29.72864227 79.34148071 30.82981873 79.35137939 C32.57960777 79.35775421 32.57960777 79.35775421 34.36474609 79.36425781 C35.56039688 79.36995789 36.75604767 79.37565796 37.9879303 79.38153076 C40.529298 79.39100333 43.0706781 79.39752364 45.61206055 79.40136719 C49.47711182 79.41101354 53.34161802 79.4419916 57.20654297 79.47363281 C59.67594085 79.48016855 62.14534255 79.48541678 64.61474609 79.48925781 C65.76305405 79.50160461 66.911362 79.51395142 68.09446716 79.52667236 C78.85127962 79.49724885 88.34658232 77.42670786 96.58740234 70.16113281 C102.12381555 63.30337994 103.29923327 56.83021655 102.58740234 48.16113281 C101.38221769 42.54284554 99.53002538 38.41698669 95.58740234 34.16113281 C92.7639776 32.33407496 92.7639776 32.33407496 89.64990234 30.91113281 C88.63025391 30.41097656 87.61060547 29.91082031 86.56005859 29.39550781 C81.96971074 27.48939753 77.84176806 27.03575127 72.89501953 27.03173828 C71.21868439 27.02701004 71.21868439 27.02701004 69.50848389 27.02218628 C68.31249573 27.02421051 67.11650757 27.02623474 65.88427734 27.02832031 C64.65074524 27.02736359 63.41721313 27.02640686 62.14630127 27.02542114 C58.8784813 27.02456763 55.61070914 27.02858514 52.34289551 27.03417969 C50.33323669 27.03613687 48.3236213 27.03417888 46.31396484 27.03076172 C42.46238151 27.02461356 38.61086329 27.02532373 34.75927734 27.02832031 C33.55519226 27.02629608 32.35110718 27.02427185 31.11053467 27.02218628 C30.00558655 27.02533844 28.90063843 27.0284906 27.76220703 27.03173828 C26.29590851 27.03293167 26.29590851 27.03293167 24.79998779 27.03414917 C22.61327208 26.91345312 22.61327208 26.91345312 21.58740234 28.16113281 Z " fill="#0F2C4E" transform="translate(428.41259765625,73.8388671875)"/>
<path d="M0 0 C1.35889844 -0.01653832 2.71771063 -0.04380155 4.07617188 -0.08203125 C6.04088944 -0.13699841 8.00651782 -0.15557123 9.97192383 -0.17333984 C11.14795166 -0.19315918 12.32397949 -0.21297852 13.53564453 -0.23339844 C17.85865757 0.55536415 19.03652174 1.89049034 21.73364258 5.35009766 C23.62327706 8.51412486 25.25207572 11.78087428 26.86645508 15.09228516 C27.58247391 16.53137741 27.58247391 16.53137741 28.31295776 17.99954224 C29.83763057 21.07015312 31.34812996 24.14750073 32.85864258 27.22509766 C33.84994487 29.22423476 34.84212515 31.22293676 35.83520508 33.22119141 C41.25014582 44.14260242 46.54847215 55.11669994 51.78933716 66.12252808 C55.63636346 74.18555224 59.60576176 82.18231321 63.62878418 90.15869141 C70.07396993 102.94224842 76.40050206 115.76965777 82.51879883 128.71337891 C84.82805137 133.58780885 87.2735447 138.38140671 89.80786133 143.14306641 C90.73364258 145.35009766 90.73364258 145.35009766 90.73364258 149.35009766 C86.16605893 151.63388948 79.87323134 150.62532371 74.85864258 150.66259766 C73.56571289 150.69160156 72.2727832 150.72060547 70.94067383 150.75048828 C69.69930664 150.75886719 68.45793945 150.76724609 67.17895508 150.77587891 C65.4698999 150.79775269 65.4698999 150.79775269 63.72631836 150.82006836 C60.03635539 150.24059547 58.9913726 149.27246138 56.73364258 146.35009766 C55.46923828 144.16772461 55.46923828 144.16772461 54.40942383 141.83837891 C54.02077148 140.99855469 53.63211914 140.15873047 53.23168945 139.29345703 C52.84045898 138.42527344 52.44922852 137.55708984 52.04614258 136.66259766 C51.25225685 134.92875122 50.45676995 133.19563673 49.65942383 131.46337891 C49.31306885 130.69807861 48.96671387 129.93277832 48.60986328 129.14428711 C47.86552454 127.37361808 47.86552454 127.37361808 46.73364258 126.35009766 C44.02526172 126.25495174 41.34245744 126.22454833 38.63378906 126.23657227 C37.36072906 126.23635323 37.36072906 126.23635323 36.06195068 126.23612976 C33.24285367 126.23682917 30.42382187 126.24462288 27.60473633 126.25244141 C25.65560441 126.25430549 23.70647203 126.25572944 21.75733948 126.25672913 C16.61657426 126.26055511 11.4758371 126.27038607 6.33508301 126.28143311 C1.0935911 126.29164551 -4.14790532 126.29622638 -9.3894043 126.30126953 C-19.68173436 126.31200827 -29.97404356 126.32908564 -40.26635742 126.35009766 C-40.58910645 127.04159912 -40.91185547 127.73310059 -41.24438477 128.44555664 C-42.70361709 131.5626259 -44.17234455 134.67512663 -45.64135742 137.78759766 C-46.14924805 138.87621094 -46.65713867 139.96482422 -47.18041992 141.08642578 C-47.67026367 142.12089844 -48.16010742 143.15537109 -48.66479492 144.22119141 C-49.11516113 145.17952881 -49.56552734 146.13786621 -50.02954102 147.12524414 C-51.26635742 149.35009766 -51.26635742 149.35009766 -53.26635742 150.35009766 C-55.43258268 150.4476505 -57.60184392 150.48086874 -59.77026367 150.48291016 C-61.06770508 150.48419922 -62.36514648 150.48548828 -63.7019043 150.48681641 C-64.71692017 150.48367432 -64.71692017 150.48367432 -65.75244141 150.48046875 C-67.82421157 150.47510967 -69.89576581 150.48042283 -71.9675293 150.48681641 C-73.91175781 150.48488281 -73.91175781 150.48488281 -75.89526367 150.48291016 C-77.09223877 150.48178223 -78.28921387 150.4806543 -79.52246094 150.47949219 C-82.26635742 150.35009766 -82.26635742 150.35009766 -83.26635742 149.35009766 C-82.85354756 144.45454793 -81.74643429 140.68658669 -79.56323242 136.30712891 C-79.00224854 135.16646973 -78.44126465 134.02581055 -77.86328125 132.85058594 C-77.56306061 132.25119202 -77.26283997 131.6517981 -76.95352173 131.03424072 C-75.32837521 127.78860473 -73.73562915 124.52704157 -72.13745117 121.26806641 C-71.80915817 120.60093628 -71.48086517 119.93380615 -71.1426239 119.24645996 C-68.01255382 112.87230885 -65.0377808 106.43028261 -62.07885742 99.97509766 C-56.41408799 87.66634272 -50.49118038 75.49151874 -44.52877808 63.32470703 C-39.27329626 52.59675664 -34.12247445 41.83310821 -29.14135742 30.97509766 C-25.60758045 23.2871855 -22.01393377 15.65453238 -18.07885742 8.16259766 C-17.7158252 7.46666504 -17.35279297 6.77073242 -16.97875977 6.05371094 C-12.97381844 -1.40182093 -7.88753266 0.07033105 0 0 Z M1.73364258 35.35009766 C-5.8170683 50.83889686 -13.32616644 66.34407667 -20.57885742 81.97509766 C-21.1230835 83.1465332 -21.66730957 84.31796875 -22.22802734 85.52490234 C-24.34658004 90.10691204 -26.39056757 94.66062303 -28.26635742 99.35009766 C-7.80635742 99.35009766 12.65364258 99.35009766 33.73364258 99.35009766 C32.21869685 94.80526047 30.56224959 90.6868014 28.46020508 86.42431641 C28.13998383 85.76719666 27.81976257 85.1100769 27.48983765 84.43304443 C26.44941537 82.29959479 25.40400616 80.16862978 24.35864258 78.03759766 C23.2762612 75.82071454 22.19521002 73.60318589 21.11419678 71.38563538 C20.38550092 69.89107134 19.65637367 68.39671756 18.92681885 66.90257263 C15.49833747 59.87890347 12.11026524 52.83633641 8.73364258 45.78759766 C8.22397949 44.72436279 7.71431641 43.66112793 7.18920898 42.56567383 C6.03674643 40.16077168 4.88483846 37.75560633 3.73364258 35.35009766 C3.07364258 35.35009766 2.41364258 35.35009766 1.73364258 35.35009766 Z " fill="#0F2C4E" transform="translate(667.266357421875,72.64990234375)"/>
<path d="M0 0 C0.66209473 -0.00095673 1.32418945 -0.00191345 2.00634766 -0.00289917 C3.40852961 -0.00358076 4.8107147 -0.00172792 6.21289062 0.00244141 C8.36595713 0.00779004 10.51881502 0.0024958 12.671875 -0.00390625 C14.03125046 -0.00324546 15.3906258 -0.00196429 16.75 0 C18.61785156 0.00169189 18.61785156 0.00169189 20.5234375 0.00341797 C23.375 0.1328125 23.375 0.1328125 24.375 1.1328125 C24.47591806 3.01380825 24.50577112 4.89863467 24.50871277 6.78233337 C24.51297775 8.00928421 24.51724274 9.23623505 24.52163696 10.50036621 C24.5212874 11.87255863 24.52082584 13.24475102 24.52026367 14.61694336 C24.52325357 16.05225208 24.52665571 17.48755998 24.53044128 18.92286682 C24.5393027 22.83191241 24.54162029 26.74093614 24.54225707 30.6499908 C24.5432044 33.90812016 24.54688065 37.16624438 24.55042917 40.42437178 C24.55858186 48.1083566 24.56101266 55.79232971 24.56030273 63.47631836 C24.55970172 71.41464811 24.57025639 79.35290995 24.5860464 87.29122251 C24.59910223 94.09631641 24.60448746 100.90138806 24.60384732 107.70649439 C24.60359176 111.77545814 24.60647501 115.84436158 24.61702538 119.91331291 C24.62667354 123.73900663 24.62680827 127.56458199 24.61950874 131.39027977 C24.61845879 132.79720481 24.62084995 134.20413709 24.6268692 135.61104965 C24.63453405 137.52612105 24.62877008 139.44123239 24.62223816 141.35630798 C24.62278293 142.42981978 24.62332769 143.50333158 24.62388897 144.60937405 C24.375 147.1328125 24.375 147.1328125 22.375 149.1328125 C19.609375 149.37573242 19.609375 149.37573242 16.125 149.36328125 C14.8771875 149.36134766 13.629375 149.35941406 12.34375 149.35742188 C11.0340625 149.34517578 9.724375 149.33292969 8.375 149.3203125 C7.0653125 149.31966797 5.755625 149.31902344 4.40625 149.31835938 C-5.34456465 149.27303017 -5.34456465 149.27303017 -7.625 148.1328125 C-7.64832772 128.98366603 -7.66597855 109.83452244 -7.67681217 90.68536472 C-7.6819754 81.79471424 -7.6890186 72.90407256 -7.70043945 64.01342773 C-7.71038548 56.26720023 -7.71685323 48.52097911 -7.71908849 40.7747454 C-7.72039574 36.67060331 -7.72348247 32.56647948 -7.73073006 28.46234322 C-7.73748899 24.6038661 -7.73961722 20.74541485 -7.73810768 16.88693237 C-7.73838407 15.466688 -7.74038995 14.04644281 -7.74420547 12.62620354 C-7.74914067 10.6953938 -7.74739803 8.76457035 -7.74525452 6.83375549 C-7.74617631 5.75064874 -7.7470981 4.66754198 -7.74804783 3.55161381 C-7.49978554 -1.32857909 -4.17372907 0.00378055 0 0 Z " fill="#0F2C4E" transform="translate(170.625,73.8671875)"/>
<path d="M0 0 C9.4488316 -0.11583828 18.8974189 -0.20468657 28.34680557 -0.25906086 C32.73455124 -0.28515769 37.12181122 -0.32055649 41.50927734 -0.37719727 C45.74330163 -0.43151524 49.97685872 -0.46141989 54.21120453 -0.47438622 C55.82680365 -0.48362661 57.44237713 -0.50167137 59.0577774 -0.52865028 C61.32065619 -0.56494052 63.58160371 -0.56994578 65.84472656 -0.56762695 C67.13268127 -0.57873001 68.42063599 -0.58983307 69.74761963 -0.60127258 C73 0 73 0 75.3614502 2.38546753 C77.99743882 6.59155138 80.12032159 10.95836532 82.25 15.4375 C82.70890625 16.36626953 83.1678125 17.29503906 83.640625 18.25195312 C84.07375 19.15751953 84.506875 20.06308594 84.953125 20.99609375 C85.34661133 21.81263428 85.74009766 22.6291748 86.14550781 23.47045898 C87 26 87 26 87 32 C68.85 32 50.7 32 32 32 C32.03959325 49.35231041 32.03959325 49.35231041 32.09008789 66.70458984 C32.09300737 68.8733719 32.09555586 71.0421545 32.09765625 73.2109375 C32.10277222 74.3450708 32.10788818 75.4792041 32.11315918 76.64770508 C32.11334045 78.26140991 32.11334045 78.26140991 32.11352539 79.90771484 C32.115746 80.84481293 32.11796661 81.78191101 32.12025452 82.74740601 C32 85 32 85 31 87 C26.74585377 87.02465622 22.49174502 87.04283899 18.23754883 87.05493164 C16.78929927 87.05997101 15.34105483 87.06680253 13.89282227 87.07543945 C11.81525412 87.08752247 9.73775303 87.09323211 7.66015625 87.09765625 C6.40855713 87.10289307 5.15695801 87.10812988 3.86743164 87.11352539 C1 87 1 87 0 86 C-0.09512944 83.32212027 -0.12555279 80.67011131 -0.11352539 77.99194336 C-0.11367142 77.15299026 -0.11381744 76.31403717 -0.1139679 75.44966125 C-0.1132685 72.66302956 -0.10547485 69.87646384 -0.09765625 67.08984375 C-0.09579217 65.16313209 -0.09436822 63.23641995 -0.09336853 61.30970764 C-0.08954259 56.22812603 -0.07971166 51.1465728 -0.06866455 46.06500244 C-0.05845206 40.88383366 -0.05387126 35.70266031 -0.04882812 30.52148438 C-0.03808946 20.34764375 -0.02101213 10.17382423 0 0 Z " fill="#0F2C4E" transform="translate(0,136)"/>
<path d="M0 0 C1.46979891 0.00138269 1.46979891 0.00138269 2.96929073 0.00279331 C4.64997646 0.00073132 4.64997646 0.00073132 6.36461544 -0.00137234 C7.60466839 0.00222294 8.84472134 0.00581821 10.12235165 0.00952244 C12.06840801 0.0093034 12.06840801 0.0093034 14.05377865 0.00907993 C17.62180117 0.00879197 21.18979036 0.01468851 24.75780511 0.02165389 C28.48274808 0.02788762 32.20769174 0.02849124 35.93263912 0.0296793 C42.99101551 0.03279256 50.04937648 0.04100587 57.10774606 0.05102879 C65.14147159 0.06219009 73.17519784 0.06770042 81.20892918 0.07272422 C97.73924245 0.08318849 114.2695402 0.10078783 130.79984188 0.12304783 C130.19289643 4.77974171 129.42882548 8.52152017 127.40140438 12.76757908 C126.92187313 13.77369236 126.44234188 14.77980564 125.94827938 15.8164072 C125.44554501 16.84572361 124.94281063 17.87504002 124.42484188 18.93554783 C123.92984188 19.98420017 123.43484188 21.03285252 122.92484188 22.1132822 C119.18619314 29.86548032 119.18619314 29.86548032 115.79984188 32.12304783 C113.60905266 32.3719368 113.60905266 32.3719368 111.01076412 32.37028599 C110.02507442 32.37448048 109.03938473 32.37867496 108.02382565 32.38299656 C106.94371716 32.37737705 105.86360867 32.37175755 104.75076962 32.36596775 C103.04317974 32.36881527 103.04317974 32.36881527 101.3010931 32.37172031 C97.52847113 32.37543285 93.75604056 32.36471746 89.98343563 32.35351658 C87.3693459 32.352325 84.75525573 32.35187157 82.14116573 32.35212803 C76.65928409 32.35119147 71.17745779 32.34250807 65.69559383 32.32885838 C59.35342117 32.31312512 53.01130911 32.30786055 46.66911834 32.30859393 C40.57209458 32.30920379 34.47509381 32.30399466 28.3780756 32.29580212 C25.78122801 32.29261124 23.18437863 32.29064707 20.58752918 32.28990841 C16.96482804 32.28774976 13.34220425 32.27901602 9.71951962 32.2683115 C8.09632053 32.26899128 8.09632053 32.26899128 6.44032955 32.26968479 C5.45745968 32.26541981 4.47458981 32.26115482 3.461936 32.2567606 C2.60487781 32.25508475 1.74781961 32.25340891 0.86478996 32.25168228 C-1.20015812 32.12304783 -1.20015812 32.12304783 -3.20015812 31.12304783 C-3.22481434 26.8689016 -3.2429971 22.61479285 -3.25508976 18.36059666 C-3.26012913 16.9123471 -3.26696065 15.46410266 -3.27559757 14.01587009 C-3.28768059 11.93830195 -3.29339023 9.86080086 -3.29781437 7.78320408 C-3.30305119 6.53160496 -3.308288 5.28000584 -3.31368351 3.99047947 C-3.16269808 0.17687962 -3.16269808 0.17687962 0 0 Z " fill="#0F2C4E" transform="translate(3.20015811920166,73.87695217132568)"/>
<path d="M0 0 C3.815625 -0.061875 7.63125 -0.12375 11.5625 -0.1875 C13.34636108 -0.22846802 13.34636108 -0.22846802 15.16625977 -0.27026367 C21.24137115 -0.31782537 25.67499187 -0.01677416 31 3 C33 5 33 5 33.265625 7.27734375 C33.26046875 8.15519531 33.2553125 9.03304688 33.25 9.9375 C33.25773437 11.25041016 33.25773437 11.25041016 33.265625 12.58984375 C33 15 33 15 31 18 C31.66 18.639375 32.32 19.27875 33 19.9375 C35.34429655 23.52720409 35.64618093 25.64042376 35.45703125 29.84375 C34.70738263 33.38055373 32.84826959 34.9285312 30 37 C26.64584017 38.15841896 23.4488561 38.11494537 19.921875 38.09765625 C18.87612305 38.09515869 17.83037109 38.09266113 16.75292969 38.09008789 C14.77147949 38.07643188 14.77147949 38.07643188 12.75 38.0625 C8.5425 38.041875 4.335 38.02125 0 38 C0 25.46 0 12.92 0 0 Z M10 7 C10 9.64 10 12.28 10 15 C11.77049689 15.05410687 13.54146849 15.09284119 15.3125 15.125 C16.79169922 15.15980469 16.79169922 15.15980469 18.30078125 15.1953125 C21.22406527 15.20682639 21.22406527 15.20682639 24 13 C23.80528889 11.05000871 23.80528889 11.05000871 23 9 C20.02602316 7.08815774 17.74458497 6.77221809 14.25 6.875 C13.05117187 6.90207031 13.05117187 6.90207031 11.828125 6.9296875 C10.92320313 6.96449219 10.92320313 6.96449219 10 7 Z M10 22 C10 24.64 10 27.28 10 30 C15.79141983 31.01603857 19.4584498 30.96263236 25 29 C25.6814823 27.10820797 25.6814823 27.10820797 26 25 C22.53451959 21.53451959 17.20360762 22.02149299 12.5 21.9375 C11.675 21.958125 10.85 21.97875 10 22 Z " fill="#0F2C4E" transform="translate(0,1)"/>
<path d="M0 0 C6.67773438 -0.19384766 6.67773438 -0.19384766 9.578125 1.55078125 C12.57524362 4.58173831 15.17450432 7.79631498 17.75 11.1875 C20.71451251 15.2355842 20.71451251 15.2355842 24 19 C24.06058594 17.71222656 24.12117188 16.42445312 24.18359375 15.09765625 C24.26798247 13.41925841 24.3526313 11.74087364 24.4375 10.0625 C24.47681641 9.21236328 24.51613281 8.36222656 24.55664062 7.48632812 C24.59853516 6.67744141 24.64042969 5.86855469 24.68359375 5.03515625 C24.72025146 4.2862915 24.75690918 3.53742676 24.79467773 2.76586914 C25 1 25 1 26 0 C27.8125 -0.1328125 27.8125 -0.1328125 30 -0.125 C30.721875 -0.12757812 31.44375 -0.13015625 32.1875 -0.1328125 C34 -0 34 -0 35 1 C35.10095564 3.65456193 35.13970998 6.28255176 35.1328125 8.9375 C35.13376923 9.732771 35.13472595 10.52804199 35.13571167 11.34741211 C35.13639343 13.0320646 35.13453943 14.71671971 35.13037109 16.40136719 C35.12502275 18.98899197 35.13031619 21.57644316 35.13671875 24.1640625 C35.13605797 25.79687539 35.1347768 27.42968816 35.1328125 29.0625 C35.13483673 29.84165771 35.13686096 30.62081543 35.13894653 31.42358398 C35.11495105 36.88504895 35.11495105 36.88504895 34 38 C31.10204684 38.48299219 28.95940722 38.55870015 26.36328125 37.046875 C19.91508389 31.81616945 14.58413169 24.87619753 10 18 C9.97494385 18.57032959 9.9498877 19.14065918 9.92407227 19.72827148 C9.80843451 22.29826157 9.68556376 24.86785527 9.5625 27.4375 C9.52318359 28.33533203 9.48386719 29.23316406 9.44335938 30.15820312 C9.40146484 31.01220703 9.35957031 31.86621094 9.31640625 32.74609375 C9.27974854 33.53685303 9.24309082 34.3276123 9.20532227 35.14233398 C9 37 9 37 8 38 C4.5 38.125 4.5 38.125 1 38 C0 37 0 37 -0.11352539 33.48999023 C-0.11336626 31.92951578 -0.10767142 30.36903607 -0.09765625 28.80859375 C-0.0962413 27.98875504 -0.09482635 27.16891632 -0.09336853 26.32423401 C-0.08775289 23.69528618 -0.07519779 21.06642227 -0.0625 18.4375 C-0.05748701 16.65950643 -0.05292376 14.88151154 -0.04882812 13.10351562 C-0.03777839 8.73564455 -0.02050331 4.36783652 0 0 Z " fill="#0F2C4E" transform="translate(100,1)"/>
<path d="M0 0 C4.34604147 2.83437487 6.84635219 5.95856488 8.6875 10.8125 C9.72632666 18.08428659 9.08024263 23.77288553 5 30 C-1.20568568 35.93771289 -7.24482439 36.3537207 -15.4765625 36.27734375 C-21.75182176 35.78339319 -25.80234331 33.62167467 -29.9375 28.9375 C-33.87610273 23.3279749 -33.47520585 17.63528164 -33 11 C-31.12176668 5.26095373 -27.37428501 1.71457571 -22.078125 -0.9765625 C-14.31379909 -4.19665115 -7.57112 -3.33015429 0 0 Z M-21 9 C-23.31069059 11.9708879 -23.47087809 15.25161104 -23.39453125 18.96484375 C-22.68647817 22.61727597 -20.62465368 24.43783808 -18 27 C-14.79139471 28.60430264 -11.4809543 28.48105318 -8 28 C-4.93951788 26.20363006 -3.42927497 24.72196245 -1.625 21.6875 C-0.78780496 18.08756135 -1.10460399 15.58158403 -2 12 C-3.82339052 9.29432374 -5.07457436 7.46271282 -8 6 C-13.29304255 5.65291524 -16.73358414 5.48648106 -21 9 Z " fill="#0F2C4E" transform="translate(230,3)"/>
<path d="M0 0 C3.18891861 0.86040634 4.16858166 2.91319431 6.0703125 5.55859375 C7.2138018 7.75626902 8.28774508 9.99097975 9.3046875 12.25 C9.72902069 13.19068581 9.72902069 13.19068581 10.16192627 14.15037537 C10.75364338 15.46737122 11.34170942 16.78601304 11.92626953 18.10620117 C12.82136092 20.12345656 13.73209812 22.13311699 14.64453125 24.14257812 C15.21969968 25.42796088 15.79395068 26.71375464 16.3671875 28 C16.88635742 29.16217041 17.40552734 30.32434082 17.94042969 31.52172852 C19.0703125 34.55859375 19.0703125 34.55859375 19.0703125 38.55859375 C16.0198332 38.84637482 13.10942518 39.00663345 10.0703125 38.55859375 C8.0703125 36.18359375 8.0703125 36.18359375 7.0703125 33.55859375 C6.7403125 32.89859375 6.4103125 32.23859375 6.0703125 31.55859375 C0.7903125 31.55859375 -4.4896875 31.55859375 -9.9296875 31.55859375 C-11.2496875 33.86859375 -12.5696875 36.17859375 -13.9296875 38.55859375 C-16.8996875 38.55859375 -19.8696875 38.55859375 -22.9296875 38.55859375 C-22.27200229 34.16513098 -20.66968326 30.36920677 -18.83984375 26.359375 C-18.53525742 25.68311569 -18.23067108 25.00685638 -17.91685486 24.31010437 C-17.27467024 22.8877947 -16.62988987 21.46665451 -15.98266602 20.04663086 C-14.99211686 17.8709386 -14.0121352 15.69070554 -13.03320312 13.50976562 C-12.40687489 12.12601907 -11.77994257 10.74254575 -11.15234375 9.359375 C-10.85957047 8.70729568 -10.56679718 8.05521637 -10.26515198 7.38337708 C-7.63940667 1.65274631 -6.4219115 0.37847767 0 0 Z M-2.9296875 12.55859375 C-5.22013764 17.37069276 -5.22013764 17.37069276 -5.9296875 22.55859375 C-2.9596875 22.55859375 0.0103125 22.55859375 3.0703125 22.55859375 C1.7503125 19.25859375 0.4303125 15.95859375 -0.9296875 12.55859375 C-1.5896875 12.55859375 -2.2496875 12.55859375 -2.9296875 12.55859375 Z " fill="#0F2C4E" transform="translate(67.9296875,0.44140625)"/>
<path d="M0 0 C0.9375 2.25 0.9375 2.25 1 4 C-0.6875 5.5625 -0.6875 5.5625 -3 7 C-5.69809776 6.74303831 -7.58350693 6.20824654 -10 5 C-14.74616694 4.34728549 -17.98277746 4.30065951 -22 7.0625 C-24.40813237 10.59944442 -25 12.72563406 -25 17 C-23.48483372 21.01519063 -22.5944747 22.60368353 -19 25 C-14.33492377 25.3823833 -11.95872359 25.47936179 -7.75 23.375 C-6.8425 22.92125 -5.935 22.4675 -5 22 C-2.625 22.8125 -2.625 22.8125 -1 24 C-1 24.66 -1 25.32 -1 26 C-0.34 26 0.32 26 1 26 C0.9375 27.75 0.9375 27.75 0 30 C-5.54410641 34.75209121 -11.27443555 34.65001562 -18.390625 34.453125 C-24.71113832 33.65964064 -27.99862206 31.00137794 -32.375 26.625 C-35.71212835 21.2342542 -36.44634967 16.30560295 -35.53515625 10.13671875 C-34.05261079 4.21735842 -29.86622982 0.36892834 -25 -3 C-16.2346044 -6.21397839 -7.5849072 -5.64833515 0 0 Z " fill="#0F2C4E" transform="translate(185,5)"/>
</svg>
