<?xml version="1.0" encoding="UTF-8"?>
<svg version="1.1" xmlns="http://www.w3.org/2000/svg" width="738" height="128">
<path d="M0 0 C1.19837494 -0.00262848 1.19837494 -0.00262848 2.42095947 -0.00531006 C5.0511698 -0.00969753 7.68131247 -0.00680265 10.31152344 -0.00341797 C12.14044203 -0.00409163 13.96936053 -0.00506218 15.79827881 -0.00631714 C19.62464249 -0.00778967 23.45098279 -0.00565281 27.27734375 -0.00097656 C32.19271823 0.00473662 37.10803829 0.0014289 42.0234108 -0.00454903 C45.79620783 -0.00815287 49.56899183 -0.00701715 53.34178925 -0.00442123 C55.15516923 -0.00375231 56.96855039 -0.0045792 58.78192902 -0.00690079 C61.30777654 -0.00942615 63.83353421 -0.00558914 66.359375 0 C67.11468506 -0.00202423 67.86999512 -0.00404846 68.64819336 -0.00613403 C73.80663239 0.01512849 73.80663239 0.01512849 74.92089844 1.12939453 C75.01436759 2.78677897 75.03834821 4.44814097 75.03442383 6.1081543 C75.03431053 7.69969078 75.03431053 7.69969078 75.03419495 9.32337952 C75.02903366 10.47752853 75.02387238 11.63167755 75.01855469 12.82080078 C75.01713974 13.99577621 75.01572479 15.17075165 75.01426697 16.3813324 C75.00864836 20.15154517 74.9960927 23.92169957 74.98339844 27.69189453 C74.97838584 30.2407218 74.97382251 32.78955 74.96972656 35.33837891 C74.95867288 41.60207344 74.94139577 47.86572407 74.92089844 54.12939453 C69.97089844 54.45939453 65.02089844 54.78939453 59.92089844 55.12939453 C61.13777344 55.97501953 62.35464844 56.82064453 63.60839844 57.69189453 C69.83507552 62.38669884 73.46970084 67.34569833 74.92089844 75.12939453 C75.74683461 83.9934595 74.41322399 91.42640223 68.73339844 98.44189453 C63.38334204 104.13199689 57.02591098 106.98709769 49.25764465 107.25637817 C47.76235082 107.26230982 46.26702894 107.26272252 44.77172852 107.25878906 C43.95345078 107.26054138 43.13517303 107.2622937 42.292099 107.26409912 C39.5915209 107.26849524 36.89100843 107.26558834 34.19042969 107.26220703 C32.31524137 107.26288052 30.44005313 107.26385092 28.56486511 107.2651062 C24.6383684 107.26657997 20.71189446 107.26443816 16.78540039 107.25976562 C11.7410823 107.25405673 6.69681727 107.25735669 1.65250111 107.26333809 C-2.21723332 107.26694229 -6.08695504 107.26580597 -9.95668983 107.2632103 C-11.8175183 107.26254125 -13.6783479 107.26336869 -15.53917503 107.26568985 C-18.13218646 107.26821534 -20.72511037 107.26437782 -23.31811523 107.25878906 C-24.09369781 107.26081329 -24.8692804 107.26283752 -25.66836548 107.2649231 C-30.96483649 107.2436596 -30.96483649 107.2436596 -32.07910156 106.12939453 C-32.17771754 104.5081203 -32.20708923 102.88257086 -32.20849609 101.25830078 C-32.21164825 100.2205249 -32.21480042 99.18274902 -32.2180481 98.11352539 C-32.21602386 96.98438721 -32.21399963 95.85524902 -32.21191406 94.69189453 C-32.21334915 92.96628296 -32.21334915 92.96628296 -32.21481323 91.20581055 C-32.21549525 88.76790309 -32.21363947 86.32999383 -32.20947266 83.89208984 C-32.20412474 80.14562935 -32.20941695 76.39928876 -32.21582031 72.65283203 C-32.21515953 70.2908526 -32.21387838 67.92887324 -32.21191406 65.56689453 C-32.21393829 64.43775635 -32.21596252 63.30861816 -32.2180481 62.14526367 C-32.21489594 61.10748779 -32.21174377 60.06971191 -32.20849609 59.00048828 C-32.2077005 58.08195068 -32.20690491 57.16341309 -32.20608521 56.21704102 C-32.07910156 54.12939453 -32.07910156 54.12939453 -31.07910156 53.12939453 C-28.72922894 52.8941168 -26.37354117 52.71553036 -24.01660156 52.56689453 C-22.72625 52.48310547 -21.43589844 52.39931641 -20.10644531 52.31298828 C-19.10742188 52.25240234 -18.10839844 52.19181641 -17.07910156 52.12939453 C-17.59859375 51.77748047 -18.11808594 51.42556641 -18.65332031 51.06298828 C-25.83091254 45.98162447 -30.39733451 40.99689351 -32.07910156 32.12939453 C-33.05456749 24.23562412 -31.26260133 16.48958029 -26.53613281 10.01611328 C-19.0286118 1.99320181 -10.6930907 -0.02896802 0 0 Z " fill="#030303" transform="translate(32.0791015625,19.87060546875)"/>
<path d="M0 0 C0.65926987 -0.00335861 1.31853973 -0.00671722 1.99778748 -0.01017761 C4.16748972 -0.01964038 6.33711436 -0.02162857 8.50683594 -0.02270508 C10.02512645 -0.02592165 11.54341666 -0.02928603 13.06170654 -0.03279114 C16.24247963 -0.03877126 19.4232256 -0.04063226 22.60400391 -0.04003906 C26.65995539 -0.03993768 30.7157309 -0.05357048 34.77164078 -0.07081127 C37.90825178 -0.08198675 41.04482103 -0.08395655 44.18144989 -0.08342934 C45.6756221 -0.08460185 47.16979565 -0.08898225 48.66394806 -0.0967617 C70.45231889 -0.19955804 70.45231889 -0.19955804 79.24121094 8.14526367 C87.62520459 16.9754122 87.5736681 26.94836232 87.50195312 38.57446289 C87.49123134 40.64133028 87.50189924 42.70732883 87.51464844 44.77416992 C87.52839251 55.92731974 87.03408424 64.66750602 79.24121094 73.14526367 C74.15067375 78.19733332 69.28549339 80.21957964 62.24121094 81.14526367 C60.43930383 81.01470035 58.64097791 80.82445069 56.85058594 80.58276367 C31.32637052 78.5256507 11.07207054 91.39309867 -10.67541504 103.35951233 C-11.58045776 103.85672287 -12.48550049 104.35393341 -13.41796875 104.86621094 C-14.21128601 105.30731705 -15.00460327 105.74842316 -15.82196045 106.20289612 C-17.75878906 107.14526367 -17.75878906 107.14526367 -19.75878906 107.14526367 C-19.82835016 94.74934937 -19.88163151 82.35348163 -19.91422558 69.95741177 C-19.92987039 64.20119258 -19.95108731 58.44510709 -19.98510742 52.68896484 C-20.01774271 47.13225556 -20.03565099 41.57567477 -20.04342079 36.01887703 C-20.04895678 33.90062501 -20.05976722 31.78237988 -20.07597923 29.66418266 C-20.09780864 26.69344857 -20.10075365 23.72324301 -20.09936523 20.75244141 C-20.11015106 19.87993744 -20.12093689 19.00743347 -20.13204956 18.10848999 C-20.10477481 12.70259451 -19.33856595 8.92817006 -16.75878906 4.14526367 C-11.66755056 0.12586486 -6.28969507 0.02018903 0 0 Z " fill="#EB1D25" transform="translate(138.7587890625,19.854736328125)"/>
<path d="M0 0 C6.6299207 6.6583753 9.72720433 14.93903444 10.1328125 24.203125 C9.89686433 33.31072431 6.56986586 40.67321452 0.5078125 47.390625 C-7.99153383 55.09933446 -15.63528566 57.68507169 -27.1796875 57.828125 C-36.6672124 57.13108235 -45.4506041 54.13184813 -52.0546875 47.078125 C-58.78374682 38.6985417 -61.15651655 29.42190486 -60.1796875 18.828125 C-57.95156539 9.43181575 -53.63302116 2.00040814 -45.6796875 -3.546875 C-31.31858653 -12.3936968 -13.04678856 -10.45855925 0 0 Z M-38.5546875 13.953125 C-41.72173263 17.97773463 -42.54889816 21.75823228 -42.1796875 26.828125 C-40.77862089 31.99455813 -38.42449988 35.39232288 -34.265625 38.65625 C-30.3681726 40.84583 -26.58984325 41.24222413 -22.1796875 40.828125 C-15.73262807 38.92607659 -12.15205552 35.3032496 -8.8671875 29.515625 C-7.53085635 24.29178506 -8.45295581 20.2277564 -10.8671875 15.578125 C-14.54558985 11.2038087 -17.95779698 8.7953575 -23.6171875 7.890625 C-29.83801388 7.4835575 -34.2294086 9.53538171 -38.5546875 13.953125 Z " fill="#030303" transform="translate(715.1796875,27.171875)"/>
<path d="M0 0 C0.69867188 0.41121094 1.39734375 0.82242187 2.1171875 1.24609375 C8.93991837 5.79028997 13.24986194 12.4312079 15.4375 20.3125 C17.25869822 31.20134832 15.11175424 40.84613386 9 50 C6.88713722 52.45348785 4.71647264 54.25119787 2 56 C1.44054687 56.38671875 0.88109375 56.7734375 0.3046875 57.171875 C-8.31939049 62.32392159 -19.9646325 63.0071675 -29.57421875 60.7578125 C-37.44843166 58.29791346 -44.40328037 54.31032065 -48.734375 47.12109375 C-53.57442095 37.72909982 -55.62114973 29.38690752 -52.875 19 C-49.55932838 9.1446627 -43.9694916 3.15268666 -35 -2 C-31.8125 -3.375 -31.8125 -3.375 -29 -4 C-27.4840625 -4.3403125 -27.4840625 -4.3403125 -25.9375 -4.6875 C-16.66605951 -5.42332861 -8.10300965 -4.79094297 0 0 Z M-32.9375 18.6875 C-35.53762395 22.86345664 -36.27350888 26.11102875 -36 31 C-34.59893339 36.16643313 -32.24481238 39.56419788 -28.0859375 42.828125 C-24.1884851 45.017705 -20.41015575 45.41409913 -16 45 C-9.55294057 43.09795159 -5.97236802 39.4751246 -2.6875 33.6875 C-1.35116885 28.46366006 -2.27326831 24.3996314 -4.6875 19.75 C-8.33544886 15.41189865 -11.77315627 12.97381449 -17.375 12 C-23.98506989 11.54374938 -28.19702961 14.3504739 -32.9375 18.6875 Z " fill="#030303" transform="translate(414,23)"/>
<path d="M0 0 C5.61 0 11.22 0 17 0 C17.01458252 1.24612061 17.02916504 2.49224121 17.04418945 3.77612305 C17.102243 8.40759712 17.17947576 13.03858862 17.26245117 17.66967773 C17.29566727 19.67252764 17.32370952 21.6754704 17.34643555 23.6784668 C17.38004234 26.56078594 17.43236148 29.44225668 17.48828125 32.32421875 C17.49467117 33.21711105 17.5010611 34.11000336 17.50764465 35.029953 C17.63137563 40.28378246 18.09625112 44.09625112 22 48 C24.22716166 48.27740465 24.22716166 48.27740465 26.8125 48.3125 C27.68519531 48.34988281 28.55789063 48.38726562 29.45703125 48.42578125 C32.09448758 48.16425026 32.09448758 48.16425026 34.27734375 46.46875 C36.60822354 43.12835085 36.67392898 40.12979395 36.75 36.1875 C36.79447266 35.03205688 36.79447266 35.03205688 36.83984375 33.85327148 C37.09781537 26.08417971 37.05647209 18.30195831 36.96386719 10.5300293 C36.95516602 9.59328369 36.94646484 8.65653809 36.9375 7.69140625 C36.92589844 6.85810791 36.91429687 6.02480957 36.90234375 5.16625977 C37 3 37 3 38 0 C40.64590014 -0.02684679 43.29153096 -0.04676357 45.9375 -0.0625 C46.69224609 -0.07087891 47.44699219 -0.07925781 48.22460938 -0.08789062 C50.14994313 -0.09652441 52.07535581 -0.05224333 54 0 C55.99907222 1.99907222 55.16397665 5.99582743 55.16796875 8.734375 C55.17296135 9.91788544 55.17296135 9.91788544 55.17805481 11.12530518 C55.18313388 12.80667538 55.18546284 14.48805573 55.18530273 16.16943359 C55.18745553 18.69777123 55.20550477 21.22564794 55.22460938 23.75390625 C55.32278729 51.11242327 55.32278729 51.11242327 48 59 C40.95986939 64.24558752 31.69364469 65.97282347 23 65 C15.35509114 63.78213634 8.94982087 62.23050835 4 56 C0.25035557 49.06392118 -0.55877334 42.73570665 -0.390625 34.9609375 C-0.38496521 33.95406891 -0.37930542 32.94720032 -0.37347412 31.90982056 C-0.35129392 28.73103898 -0.3011328 25.55343406 -0.25 22.375 C-0.22991125 20.2044435 -0.21166468 18.03386912 -0.1953125 15.86328125 C-0.15148944 10.5750756 -0.0825911 5.28773647 0 0 Z " fill="#030303" transform="translate(558,20)"/>
<path d="M0 0 C0.74886475 0.00523682 1.49772949 0.01047363 2.26928711 0.01586914 C3.07817383 0.0190918 3.88706055 0.02231445 4.72045898 0.02563477 C5.5705957 0.03401367 6.42073242 0.04239258 7.29663086 0.05102539 C8.15063477 0.05553711 9.00463867 0.06004883 9.88452148 0.06469727 C12.00108749 0.07652166 14.11761771 0.0944577 16.23413086 0.11352539 C18.92507655 6.03143303 21.41594237 11.99220369 23.73022461 18.06665039 C24.04564713 18.88872986 24.36106964 19.71080933 24.68605042 20.55780029 C25.68347846 23.1588591 26.67763263 25.76115421 27.67163086 28.36352539 C28.33351941 30.09147458 28.99562723 31.81933979 29.65795898 33.54711914 C30.6247352 36.06922778 31.59087178 38.59156829 32.55453491 41.11486816 C33.96432217 44.80616059 35.37926694 48.49495159 36.82055664 52.17407227 C37.2780127 53.34518555 37.73546875 54.51629883 38.20678711 55.72290039 C38.60260986 56.72804687 38.99843262 57.73319336 39.40625 58.76879883 C40.23413086 61.11352539 40.23413086 61.11352539 40.23413086 63.11352539 C34.29413086 63.11352539 28.35413086 63.11352539 22.23413086 63.11352539 C20.58413086 59.81352539 18.93413086 56.51352539 17.23413086 53.11352539 C10.63413086 53.11352539 4.03413086 53.11352539 -2.76586914 53.11352539 C-4.08586914 56.08352539 -5.40586914 59.05352539 -6.76586914 62.11352539 C-7.76586914 63.11352539 -7.76586914 63.11352539 -9.53173828 63.22705078 C-10.28060303 63.22181396 -11.02946777 63.21657715 -11.80102539 63.21118164 C-12.60991211 63.20795898 -13.41879883 63.20473633 -14.25219727 63.20141602 C-15.10233398 63.19303711 -15.9524707 63.1846582 -16.82836914 63.17602539 C-17.68237305 63.17151367 -18.53637695 63.16700195 -19.41625977 63.16235352 C-21.53282578 63.15052912 -23.64935599 63.13259308 -25.76586914 63.11352539 C-23.62672622 55.50651512 -20.98303133 48.16394498 -18.13305664 40.79711914 C-17.69575226 39.65944595 -17.25844788 38.52177277 -16.80789185 37.34962463 C-15.89022644 34.9648199 -14.97075586 32.58070906 -14.04956055 30.19726562 C-12.63372538 26.53253457 -11.22479713 22.86520097 -9.81665039 19.19750977 C-8.92252494 16.87638986 -8.02800785 14.55542078 -7.13305664 12.23461914 C-6.7101535 11.13371445 -6.28725037 10.03280975 -5.85153198 8.89854431 C-5.26554733 7.38545433 -5.26554733 7.38545433 -4.66772461 5.84179688 C-4.15168167 4.50470924 -4.15168167 4.50470924 -3.62521362 3.14060974 C-2.3580779 0.15159771 -2.3580779 0.15159771 0 0 Z M6.23413086 22.11352539 C5.397147 24.57067086 4.56440662 27.02911396 3.73413086 29.48852539 C3.4956543 30.18719727 3.25717773 30.88586914 3.01147461 31.60571289 C1.69677174 35.27755618 1.69677174 35.27755618 1.23413086 39.11352539 C5.19413086 39.11352539 9.15413086 39.11352539 13.23413086 39.11352539 C10.9998583 30.30856594 10.9998583 30.30856594 7.23413086 22.11352539 C6.90413086 22.11352539 6.57413086 22.11352539 6.23413086 22.11352539 Z " fill="#030303" transform="translate(324.765869140625,19.886474609375)"/>
<path d="M0 0 C0.74362793 0.01047363 1.48725586 0.02094727 2.25341797 0.03173828 C3.46191406 0.04140625 3.46191406 0.04140625 4.69482422 0.05126953 C5.95746094 0.07640625 5.95746094 0.07640625 7.24560547 0.10205078 C8.51984375 0.11558594 8.51984375 0.11558594 9.81982422 0.12939453 C11.9202043 0.15299431 14.02043991 0.18886595 16.12060547 0.22705078 C20.76940637 11.03229175 24.96904393 22.01506511 29.18823242 32.99316406 C30.02410588 35.16456626 30.86301701 37.33480134 31.70483398 39.50390625 C32.92934856 42.65915826 34.14511929 45.81765149 35.35888672 48.97705078 C35.73692947 49.94682861 36.11497223 50.91660645 36.50447083 51.91577148 C36.8487059 52.8177124 37.19294098 53.71965332 37.54760742 54.64892578 C37.85229446 55.43879883 38.15698151 56.22867188 38.47090149 57.04248047 C39.12060547 59.22705078 39.12060547 59.22705078 39.12060547 63.22705078 C33.18060547 63.22705078 27.24060547 63.22705078 21.12060547 63.22705078 C19.80060547 59.92705078 18.48060547 56.62705078 17.12060547 53.22705078 C10.19060547 53.22705078 3.26060547 53.22705078 -3.87939453 53.22705078 C-5.85939453 58.17705078 -5.85939453 58.17705078 -7.87939453 63.22705078 C-13.81939453 63.22705078 -19.75939453 63.22705078 -25.87939453 63.22705078 C-25.10696995 59.36492785 -24.23025612 56.19639528 -22.86987305 52.55053711 C-22.45596817 51.43620804 -22.04206329 50.32187897 -21.61561584 49.17378235 C-21.16770187 47.98093124 -20.7197879 46.78808014 -20.25830078 45.55908203 C-19.79834213 44.3279216 -19.33838348 43.09676117 -18.86448669 41.82829285 C-17.89279965 39.22919429 -16.91819341 36.6312133 -15.94165039 34.03393555 C-14.68999992 30.70391712 -13.44686657 27.37079135 -12.20602512 24.03673267 C-11.02019457 20.85477425 -9.82632044 17.67585203 -8.63330078 14.49658203 C-8.18741104 13.29765823 -7.7415213 12.09873444 -7.28211975 10.86347961 C-6.86506271 9.75860703 -6.44800568 8.65373444 -6.01831055 7.51538086 C-5.46990257 6.05241325 -5.46990257 6.05241325 -4.91041565 4.55989075 C-3.74383055 1.92031694 -3.00398011 0.36291264 0 0 Z M6.12060547 22.22705078 C5.28141149 24.49587166 4.44908823 26.76682105 3.62060547 29.03955078 C3.38212891 29.68214844 3.14365234 30.32474609 2.89794922 30.98681641 C1.84991801 33.87638817 1.12060547 36.12781139 1.12060547 39.22705078 C5.08060547 39.22705078 9.04060547 39.22705078 13.12060547 39.22705078 C12.33818067 36.5781546 11.54522979 33.93325253 10.74560547 31.28955078 C10.52388672 30.53480469 10.30216797 29.78005859 10.07373047 29.00244141 C9.48098095 27.05857166 8.80609375 25.14018627 8.12060547 23.22705078 C7.46060547 22.89705078 6.80060547 22.56705078 6.12060547 22.22705078 Z " fill="#030303" transform="translate(519.87939453125,19.77294921875)"/>
<path d="M0 0 C2.06553096 -0.00959819 4.13002003 -0.04055288 6.1953125 -0.07226562 C14.83582072 -0.14174119 22.06227187 0.37850767 29.4765625 5.05273438 C34.14446393 9.85792703 35.25400882 14.85024526 35.65234375 21.36523438 C35.55084655 27.11153743 34.57891674 31.98333733 30.72265625 36.38476562 C26.54206863 40.16500231 23.35956939 42.38127202 17.58984375 42.33789062 C16.45385742 42.33305664 16.45385742 42.33305664 15.29492188 42.328125 C14.11639648 42.31555664 14.11639648 42.31555664 12.9140625 42.30273438 C11.71813477 42.2959668 11.71813477 42.2959668 10.49804688 42.2890625 C8.53251993 42.27729288 6.56703165 42.25935786 4.6015625 42.24023438 C4.60941772 43.14116821 4.60941772 43.14116821 4.61743164 44.06030273 C4.63814264 46.76610275 4.65120375 49.47188614 4.6640625 52.17773438 C4.67244141 53.12326172 4.68082031 54.06878906 4.68945312 55.04296875 C4.69428711 56.39165039 4.69428711 56.39165039 4.69921875 57.76757812 C4.70707397 59.01655884 4.70707397 59.01655884 4.71508789 60.29077148 C4.6015625 62.24023438 4.6015625 62.24023438 3.6015625 63.24023438 C0.9242487 63.34004651 -1.72147925 63.37903313 -4.3984375 63.36523438 C-5.52378906 63.37103516 -5.52378906 63.37103516 -6.671875 63.37695312 C-12.27182697 63.36684491 -12.27182697 63.36684491 -13.3984375 62.24023438 C-13.49759545 60.34324589 -13.52643064 58.44254651 -13.52783203 56.54296875 C-13.53098419 55.3250061 -13.53413635 54.10704346 -13.53738403 52.85217285 C-13.53559425 51.51277633 -13.5335433 50.17338013 -13.53125 48.83398438 C-13.5319231 47.47017398 -13.53289317 46.1063637 -13.53414917 44.74255371 C-13.53562588 41.88092916 -13.53347247 39.01933578 -13.52880859 36.15771484 C-13.52311131 32.48204824 -13.52639046 28.80645464 -13.53238106 25.13079071 C-13.53598741 22.31361334 -13.53484775 19.4964534 -13.53225327 16.67927551 C-13.5315842 15.32363374 -13.53241171 13.96799041 -13.53473282 12.61235046 C-13.53726051 10.72073393 -13.53272764 8.82911188 -13.52783203 6.9375 C-13.52703644 5.85907837 -13.52624084 4.78065674 -13.52542114 3.66955566 C-13.21186397 -2.32909983 -4.59985138 0.01292093 0 0 Z M4.6015625 15.24023438 C4.36728472 17.25618019 4.18820126 19.27870838 4.0390625 21.30273438 C3.95527344 22.40746094 3.87148438 23.5121875 3.78515625 24.65039062 C3.72457031 25.50503906 3.66398437 26.3596875 3.6015625 27.24023438 C7.49614213 29.01790388 7.49614213 29.01790388 11.7265625 28.61523438 C14.83608673 27.12807061 16.13301028 26.35010966 17.6015625 23.24023438 C17.76605131 20.14374562 17.76605131 20.14374562 16.6015625 17.24023438 C13.77981874 14.82159686 12.06051869 14.2755387 8.3515625 13.99023438 C5.69225529 13.93614679 5.69225529 13.93614679 4.6015625 15.24023438 Z " fill="#030303" transform="translate(466.3984375,19.759765625)"/>
<path d="M0 0 C-0.58107632 3.7602985 -1.65199496 6.53035032 -3.5625 9.8125 C-4.01753906 10.60269531 -4.47257812 11.39289062 -4.94140625 12.20703125 C-5.46541016 13.09455078 -5.46541016 13.09455078 -6 14 C-10.75 12.125 -10.75 12.125 -13 11 C-17.65275976 10.6947378 -17.65275976 10.6947378 -22 12 C-22 13.98 -22 15.96 -22 18 C-20.98292969 18.22042969 -20.98292969 18.22042969 -19.9453125 18.4453125 C-12.3858735 20.26711636 -4.63552938 22.63172827 0.51171875 28.81640625 C3.45656602 33.93114097 3.8752906 39.23022727 3 45 C1.55513762 50.11383876 -0.63067523 54.79870469 -5.0546875 58 C-14.11595494 62.65800093 -24.27080159 63.08026295 -33.90625 60.1015625 C-40.36802326 57.63197674 -40.36802326 57.63197674 -43 55 C-42.86589799 49.36771547 -40.08717122 45.48835963 -37 41 C-34.15749084 42.11977634 -31.46706786 43.27671476 -28.75 44.6875 C-24.11000165 46.31149942 -20.74735757 45.8934936 -16 45 C-15.49758678 42.6704053 -15.49758678 42.6704053 -16 40 C-20.34374326 36.13889488 -25.71728005 34.39341712 -31.09765625 32.34375 C-35.15029869 30.46742564 -38.13446087 28.60255882 -40.2890625 24.61328125 C-41.98881802 18.36527882 -42.06386863 11.43716388 -39.3125 5.5 C-35.80553129 -0.36112764 -31.27095842 -2.77581437 -24.80859375 -4.5234375 C-15.91586253 -6.03235712 -7.99958489 -3.80511228 0 0 Z " fill="#030303" transform="translate(298,23)"/>
<path d="M0 0 C5.28 0 10.56 0 16 0 C17 1 17 1 17.12025452 2.90455627 C17.1169236 4.15365028 17.1169236 4.15365028 17.11352539 5.42797852 C17.11344986 6.36887833 17.11337433 7.30977814 17.11329651 8.27919006 C17.10813522 9.30209641 17.10297394 10.32500275 17.09765625 11.37890625 C17.0962413 12.42070541 17.09482635 13.46250458 17.09336853 14.53587341 C17.0877508 17.87811094 17.0751953 21.22028257 17.0625 24.5625 C17.05748728 26.82226466 17.05292398 29.08203037 17.04882812 31.34179688 C17.03777561 36.89455391 17.02102024 42.44727225 17 48 C18.28777344 47.98839844 19.57554687 47.97679687 20.90234375 47.96484375 C22.58072772 47.9554673 24.25911326 47.94636695 25.9375 47.9375 C27.21270508 47.92493164 27.21270508 47.92493164 28.51367188 47.91210938 C29.32255859 47.90888672 30.13144531 47.90566406 30.96484375 47.90234375 C31.7137085 47.89710693 32.46257324 47.89187012 33.23413086 47.88647461 C35 48 35 48 36 49 C36 53.62 36 58.24 36 63 C24.12 63 12.24 63 0 63 C0 42.21 0 21.42 0 0 Z " fill="#030303" transform="translate(619,20)"/>
<path d="M0 0 C3.77983799 0.3779838 4.91988886 0.78246362 7.3515625 3.59765625 C7.81304687 4.18417969 8.27453125 4.77070312 8.75 5.375 C9.43835938 6.21933594 10.12671875 7.06367187 10.8359375 7.93359375 C12.82853386 10.39812082 14.79691105 12.8791171 16.75 15.375 C16.73839844 14.37597656 16.72679687 13.37695312 16.71484375 12.34765625 C16.70582031 11.05730469 16.69679688 9.76695313 16.6875 8.4375 C16.67589844 7.14972656 16.66429687 5.86195312 16.65234375 4.53515625 C16.75 1.375 16.75 1.375 17.75 0.375 C21.25 0.25 21.25 0.25 24.75 0.375 C26.55279191 2.17779191 25.88036605 4.91547701 25.8828125 7.34375 C25.88474609 9.15939453 25.88474609 9.15939453 25.88671875 11.01171875 C25.88285156 12.28660156 25.87898438 13.56148437 25.875 14.875 C25.88080078 16.78732422 25.88080078 16.78732422 25.88671875 18.73828125 C25.88542969 19.94871094 25.88414062 21.15914062 25.8828125 22.40625 C25.88168457 23.52580078 25.88055664 24.64535156 25.87939453 25.79882812 C25.75 28.375 25.75 28.375 24.75 29.375 C21.76432736 30.05921665 20.5972008 30.29770396 17.75 29.375 C13.11520998 25.26968103 9.41621919 20.34063865 5.75 15.375 C5.68941406 16.30183594 5.62882812 17.22867188 5.56640625 18.18359375 C5.48261719 19.38113281 5.39882813 20.57867187 5.3125 21.8125 C5.23128906 23.00746094 5.15007812 24.20242187 5.06640625 25.43359375 C4.75 28.375 4.75 28.375 3.75 29.375 C1.41702567 29.41592937 -0.91705225 29.41741723 -3.25 29.375 C-4.60048039 26.67403923 -4.37963577 24.54773483 -4.3828125 21.52734375 C-4.38410156 20.36525391 -4.38539063 19.20316406 -4.38671875 18.00585938 C-4.38285156 16.78705078 -4.37898438 15.56824219 -4.375 14.3125 C-4.37886719 13.08982422 -4.38273437 11.86714844 -4.38671875 10.60742188 C-4.38542969 9.44662109 -4.38414062 8.28582031 -4.3828125 7.08984375 C-4.38168457 6.01855225 -4.38055664 4.94726074 -4.37939453 3.84350586 C-4.18317155 0.10008974 -3.83229057 0.44218737 0 0 Z " fill="#030303" transform="translate(412.25,97.625)"/>
<path d="M0 0 C4.35235562 4.70524932 5.34997574 8.47123698 5.2890625 14.71484375 C4.845545 18.22102937 3.22596735 20.32883918 1 23 C0.566875 23.5775 0.13375 24.155 -0.3125 24.75 C-4.9926791 28.21679933 -10.32471977 28.34935962 -15.85546875 27.5390625 C-20.24765772 26.435015 -23.06197543 24.19678997 -25.8125 20.6875 C-27.96005368 15.82724693 -28.52750235 11.85441947 -26.8125 6.8125 C-25.37724737 3.4850309 -23.99282867 1.16148737 -21 -1 C-13.71542101 -3.80176115 -6.73786543 -4.44086585 0 0 Z M-18 9 C-19.16210219 11.39351495 -19.16210219 11.39351495 -19 14 C-17.3256753 16.72852915 -15.9663818 18.48459637 -13.125 20 C-9.87816714 20 -7.74041539 18.64424923 -5 17 C-3.56264754 14.12529507 -3.61827351 12.18105412 -4 9 C-6.42095091 6.37153902 -8.04614692 5.18611767 -11.5625 4.5 C-14.851042 5.17457272 -15.98855659 6.34202121 -18 9 Z " fill="#030303" transform="translate(733,100)"/>
<path d="M0 0 C4.02443253 2.24439506 6.20282311 4.71814622 8.25 8.8125 C9.00940356 15.62223353 8.48428614 20.35249945 4.25 25.8125 C-1.27423403 29.5790232 -6.96975368 30.28372819 -13.4375 29.1875 C-18.33255428 27.15559068 -20.85373664 24.15689504 -23.75 19.8125 C-24.44484389 14.66580749 -24.33452659 10.1520401 -22.25 5.375 C-15.76602338 -1.27107603 -8.85864733 -2.80523832 0 0 Z M-14.75 10.8125 C-15.9076585 12.69207244 -15.9076585 12.69207244 -15.75 14.8125 C-14.60213059 17.05606294 -13.5404233 19.0220767 -11.75 20.8125 C-6.55118759 21.27962604 -6.55118759 21.27962604 -1.75 19.75 C-0.12102742 16.59386563 -0.26179095 14.29098951 -0.75 10.8125 C-2.87685929 8.2607714 -2.87685929 8.2607714 -5.75 6.8125 C-10.45781138 6.8125 -11.45934836 7.61078489 -14.75 10.8125 Z " fill="#030303" transform="translate(548.75,98.1875)"/>
<path d="M0 0 C4.02443253 2.24439506 6.20282311 4.71814622 8.25 8.8125 C8.77657873 14.09555214 8.89191122 18.48112857 6.5625 23.3125 C3.36435177 26.76995755 0.83205099 28.61278564 -3.90625 29.2109375 C-5.0096875 29.20320313 -6.113125 29.19546875 -7.25 29.1875 C-8.3534375 29.19523437 -9.456875 29.20296875 -10.59375 29.2109375 C-15.89945037 28.54115849 -19.29146555 25.7651108 -22.75 21.8125 C-24.60166045 16.25751864 -24.63402491 10.80155605 -22.25 5.4375 C-15.83618514 -1.2970056 -8.85054455 -2.80267244 0 0 Z M-12.625 8.3125 C-15.05401703 10.73034773 -15.05401703 10.73034773 -15.3125 14.375 C-15.0474413 17.76999766 -15.0474413 17.76999766 -13.1875 19.75 C-9.84741776 21.20593329 -7.35384106 21.2056463 -3.75 20.8125 C-1.33711498 19.28433949 -0.85784014 18.08569502 0.1875 15.4375 C0.47873798 12.6659952 0.47873798 12.6659952 -1.3125 10.0625 C-5.15215168 6.51820614 -7.94160616 5.86899017 -12.625 8.3125 Z " fill="#030303" transform="translate(465.75,98.1875)"/>
<path d="M0 0 C3.59928522 2.69946392 5.36299412 5.93157315 6.10546875 10.34375 C6.33114343 15.06486436 5.34044629 18.41759334 2.765625 22.32421875 C-2.86187681 27.40269599 -6.57119494 27.67127222 -14.0234375 27.60546875 C-18.13936978 27.24494913 -20.2778838 26.20290755 -23.234375 23.32421875 C-26.21106786 19.52636924 -26.98648371 16.11678376 -27.234375 11.32421875 C-26.43162821 5.60464786 -24.37783097 3.02389394 -20.0859375 -0.51171875 C-13.85454788 -4.42934345 -6.15579494 -3.45354637 0 0 Z M-18.234375 10.32421875 C-18.234375 13.62578605 -17.86023612 15.45993434 -15.921875 18.13671875 C-13.8645776 19.58444655 -12.76797658 20.17944152 -10.234375 20.32421875 C-6.95181544 19.47471031 -6.95181544 19.47471031 -4.234375 17.32421875 C-2.81527818 13.9740459 -2.81527818 13.9740459 -3.234375 10.32421875 C-5.4870147 7.21027564 -6.97438394 5.63921651 -10.734375 4.69921875 C-14.45742841 5.6299821 -15.9772763 7.27049698 -18.234375 10.32421875 Z " fill="#030303" transform="translate(316.234375,99.67578125)"/>
<path d="M0 0 C3 2.3125 3 2.3125 3.9375 5.0625 C3.958125 5.805 3.97875 6.5475 4 7.3125 C0.77208445 9.4644437 -0.28400809 9.51336443 -4 9.3125 C-4 8.6525 -4 7.9925 -4 7.3125 C-8.23029034 6.22654998 -8.23029034 6.22654998 -12.3125 7.375 C-14.62930186 10.03503176 -14.92982809 11.80390451 -15 15.3125 C-14.26051003 18.29507918 -14.26051003 18.29507918 -12 20.3125 C-9.20364347 20.74736647 -6.85610809 20.54660722 -4 20.3125 C-4 19.6525 -4 18.9925 -4 18.3125 C-5.65 17.9825 -7.3 17.6525 -9 17.3125 C-9.625 15.4375 -9.625 15.4375 -10 13.3125 C-8 11.3125 -8 11.3125 -4.7421875 11.1171875 C-3.46601563 11.14039062 -2.18984375 11.16359375 -0.875 11.1875 C1.04699219 11.21457031 1.04699219 11.21457031 3.0078125 11.2421875 C4.48894531 11.27699219 4.48894531 11.27699219 6 11.3125 C6.49144679 15.32598214 6.8516893 18.84434988 4.76953125 22.43359375 C1.56869523 26.23508047 -0.55700849 28.09746034 -5.70703125 28.55078125 C-16.26661361 28.80314863 -16.26661361 28.80314863 -21 24.3125 C-23.70102415 20.54920256 -24.4103233 17.92807818 -24.375 13.3125 C-24.38273438 12.301875 -24.39046875 11.29125 -24.3984375 10.25 C-23.8496994 6.20440144 -22.50172678 3.49825259 -19.2734375 0.94921875 C-12.79745072 -2.28877464 -6.6770243 -3.34533937 0 0 Z " fill="#030303" transform="translate(279,98.6875)"/>
<path d="M0 0 C2.56314499 -0.08132187 5.12368418 -0.14064175 7.6875 -0.1875 C8.40873047 -0.21263672 9.12996094 -0.23777344 9.87304688 -0.26367188 C14.48539373 -0.32685471 17.33955612 0.15523515 21 3 C25.149138 7.72540717 26.35478806 10.49240414 26.28515625 16.6796875 C25.734827 21.15770911 23.22085563 23.92712687 19.9375 26.8125 C15.94608048 29.2588539 12.45358116 29.1344016 7.875 29.125 C5.98394531 29.12886719 5.98394531 29.12886719 4.0546875 29.1328125 C1 29 1 29 0 28 C-0.08767112 25.92737924 -0.10695873 23.85179706 -0.09765625 21.77734375 C-0.09443359 20.51728516 -0.09121094 19.25722656 -0.08789062 17.95898438 C-0.07953403 16.61848891 -0.07106907 15.27799412 -0.0625 13.9375 C-0.0574866 12.59310058 -0.05292342 11.2486994 -0.04882812 9.90429688 C-0.03699488 6.60282059 -0.02050971 3.30143197 0 0 Z M9 7 C7.52806688 9.94386623 8.15063827 12.37390036 8.4375 15.625 C8.53933594 16.81351563 8.64117187 18.00203125 8.74609375 19.2265625 C8.82988281 20.14179687 8.91367187 21.05703125 9 22 C13.41522109 20.73025028 13.41522109 20.73025028 17 18 C17.58369443 14.58461856 17.58369443 14.58461856 17 11 C14.81501244 8.46808501 14.81501244 8.46808501 12 7 C11.01 7 10.02 7 9 7 Z " fill="#030303" transform="translate(494,98)"/>
<path d="M0 0 C1.31355469 -0.02578125 2.62710938 -0.0515625 3.98046875 -0.078125 C9.30019989 0.37738715 12.5231927 1.89283442 16.1875 5.75 C18.47109941 10.6685218 18.83957468 14.92156745 17.8125 20.25 C15.78556077 24.03451777 13.35823914 26.44224396 9.5625 28.42578125 C6.10944524 29.4607167 3.09870482 29.44226551 -0.5 29.375 C-1.75425781 29.35695313 -3.00851562 29.33890625 -4.30078125 29.3203125 C-5.25339844 29.29710938 -6.20601562 29.27390625 -7.1875 29.25 C-8.1589271 25.99084762 -8.31639878 23.03856563 -8.3203125 19.64453125 C-8.32160156 18.57912109 -8.32289063 17.51371094 -8.32421875 16.41601562 C-8.32035156 15.30935547 -8.31648437 14.20269531 -8.3125 13.0625 C-8.31636719 11.94423828 -8.32023438 10.82597656 -8.32421875 9.67382812 C-8.32292969 8.61228516 -8.32164062 7.55074219 -8.3203125 6.45703125 C-8.31918457 5.4822583 -8.31805664 4.50748535 -8.31689453 3.50317383 C-8.04010766 -1.31657338 -3.84377569 0.02914711 0 0 Z M0.8125 7.25 C0.8125 11.87 0.8125 16.49 0.8125 21.25 C1.8025 21.745 1.8025 21.745 2.8125 22.25 C6.18199443 20.56525278 7.69194386 19.4308342 9.8125 16.25 C9.66727926 12.76470227 9.45554068 10.91521449 7 8.375 C4.62961373 6.94510132 4.62961373 6.94510132 0.8125 7.25 Z " fill="#030303" transform="translate(683.1875,97.75)"/>
<path d="M0 0 C2.56364483 -0.10845031 5.12266279 -0.18749744 7.6875 -0.25 C8.40873047 -0.28351563 9.12996094 -0.31703125 9.87304688 -0.3515625 C13.74257064 -0.42223873 15.57928745 -0.26120859 18.95703125 1.8359375 C21.59073555 4.62575047 22 6.17682283 22 10 C20.67507024 13.28077846 19.499964 15.500036 17 18 C17.5053125 18.62648438 18.010625 19.25296875 18.53125 19.8984375 C19.1809375 20.71570313 19.830625 21.53296875 20.5 22.375 C21.47453125 23.59316406 21.47453125 23.59316406 22.46875 24.8359375 C24 27 24 27 24 29 C20.57438913 29.41905531 17.40776842 29.61912129 14 29 C11.56009168 26.86038809 10.56207511 24.91587355 9 22 C8.67 24.31 8.34 26.62 8 29 C5.66705225 29.04241723 3.33297433 29.04092937 1 29 C0 28 0 28 -0.11352539 25.31616211 C-0.10828857 24.14835205 -0.10305176 22.98054199 -0.09765625 21.77734375 C-0.09443359 20.51728516 -0.09121094 19.25722656 -0.08789062 17.95898438 C-0.07953403 16.61848891 -0.07106907 15.27799412 -0.0625 13.9375 C-0.0574866 12.59310058 -0.05292342 11.2486994 -0.04882812 9.90429688 C-0.03699488 6.60282059 -0.02050971 3.30143197 0 0 Z M9 6 C7.70366379 7.06645115 7.70366379 7.06645115 7.9375 9.5625 C7.958125 10.366875 7.97875 11.17125 8 12 C9.32 12 10.64 12 12 12 C12.33 10.68 12.66 9.36 13 8 C11.68 7.34 10.36 6.68 9 6 Z " fill="#030303" transform="translate(381,98)"/>
<path d="M0 0 C2.97 0 5.94 0 9 0 C11.92649368 5.66522559 14.45412925 11.36589914 16.75 17.3125 C17.06582031 18.10978516 17.38164063 18.90707031 17.70703125 19.72851562 C18.00480469 20.49486328 18.30257812 21.26121094 18.609375 22.05078125 C19.0110791 23.08199097 19.0110791 23.08199097 19.42089844 24.1340332 C20 26 20 26 20 29 C13.9453125 29.1953125 13.9453125 29.1953125 12 29 C11.34 28.34 10.68 27.68 10 27 C10 26.01 10 25.02 10 24 C8.3739713 24.06000106 6.74898451 24.1487885 5.125 24.25 C4.22007812 24.29640625 3.31515625 24.3428125 2.3828125 24.390625 C1.59648438 24.59171875 0.81015625 24.7928125 0 25 C-0.66 26.32 -1.32 27.64 -2 29 C-4.97 29 -7.94 29 -11 29 C-9.92152479 25.85242769 -8.83737091 22.70699914 -7.75 19.5625 C-7.44964844 18.68400391 -7.14929688 17.80550781 -6.83984375 16.90039062 C-4.83419819 11.11815714 -2.55704376 5.56100446 0 0 Z M4 11 C3.67 12.98 3.34 14.96 3 17 C4.32 17 5.64 17 7 17 C6.34 15.02 5.68 13.04 5 11 C4.67 11 4.34 11 4 11 Z " fill="#030303" transform="translate(651,98)"/>
<path d="M0 0 C0.66 0.33 1.32 0.66 2 1 C1.67 2.65 1.34 4.3 1 6 C-1.76264289 6.59732819 -4.16032769 7 -7 7 C-7 7.66 -7 8.32 -7 9 C-6.45730469 9.23074219 -5.91460938 9.46148437 -5.35546875 9.69921875 C-1.96388366 11.24529267 0.55781677 12.5042188 3.0625 15.3125 C4.35301359 19.0119723 4.09083578 21.25025199 3 25 C0.40045652 27.90537212 -1.51226785 28.85930803 -5.25 29.9375 C-9.98748908 30.01645815 -13.64436845 28.74817865 -18 27 C-17.125 22.25 -17.125 22.25 -16 20 C-12.7 20.33 -9.4 20.66 -6 21 C-5.67 20.34 -5.34 19.68 -5 19 C-5.61488281 18.81824219 -6.22976563 18.63648437 -6.86328125 18.44921875 C-7.67152344 18.19785156 -8.47976563 17.94648437 -9.3125 17.6875 C-10.11300781 17.44386719 -10.91351562 17.20023438 -11.73828125 16.94921875 C-14.18455092 15.92254599 -15.41888513 15.12306933 -17 13 C-17.74647459 9.90994238 -17.65773517 7.10385769 -17 4 C-12.169383 -1.91750582 -7.25089407 -2.41696469 0 0 Z " fill="#030303" transform="translate(615,98)"/>
<path d="M0 0 C2.64 0 5.28 0 8 0 C10.18326108 4.27113698 12.31326082 8.50202887 14 13 C16.27694716 10.72305284 16.92947387 8.93161848 18.0625 5.9375 C19.90277778 1.09722222 19.90277778 1.09722222 21 0 C24.00003445 -0.14177857 26.99757235 -0.04228771 30 0 C28.0146049 6.33004 25.65293794 12.38696017 22.9375 18.4375 C22.4105957 19.63922852 22.4105957 19.63922852 21.87304688 20.86523438 C21.36161133 22.01282227 21.36161133 22.01282227 20.83984375 23.18359375 C20.53425537 23.86993896 20.22866699 24.55628418 19.91381836 25.26342773 C19 27 19 27 17 29 C14.625 29.5 14.625 29.5 12 29 C8.27831841 24.23686019 6.05700345 18.92889719 3.75 13.375 C3.38648438 12.529375 3.02296875 11.68375 2.6484375 10.8125 C2.30554688 9.99523437 1.96265625 9.17796875 1.609375 8.3359375 C1.29967773 7.59907715 0.98998047 6.8622168 0.67089844 6.10302734 C0 4 0 4 0 0 Z " fill="#030303" transform="translate(324,98)"/>
<path d="M0 0 C1.12535156 0.00580078 1.12535156 0.00580078 2.2734375 0.01171875 C3.02367187 0.00785156 3.77390625 0.00398438 4.546875 0 C10.14682697 0.01010822 10.14682697 0.01010822 11.2734375 1.13671875 C11.3984375 3.63671875 11.3984375 3.63671875 11.2734375 6.13671875 C10.2734375 7.13671875 10.2734375 7.13671875 8.42578125 7.234375 C6.375 7.20182292 4.32421875 7.16927083 2.2734375 7.13671875 C2.6034375 8.12671875 2.9334375 9.11671875 3.2734375 10.13671875 C5.5834375 10.46671875 7.8934375 10.79671875 10.2734375 11.13671875 C10.31598106 13.13626621 10.31424533 15.13713511 10.2734375 17.13671875 C9.2734375 18.13671875 9.2734375 18.13671875 5.7109375 18.19921875 C4.5765625 18.17859375 3.4421875 18.15796875 2.2734375 18.13671875 C2.2734375 19.45671875 2.2734375 20.77671875 2.2734375 22.13671875 C3.3871875 21.93046875 4.5009375 21.72421875 5.6484375 21.51171875 C6.8446875 21.38796875 8.0409375 21.26421875 9.2734375 21.13671875 C9.9334375 21.79671875 10.5934375 22.45671875 11.2734375 23.13671875 C10.8984375 26.26171875 10.8984375 26.26171875 10.2734375 29.13671875 C7.62753736 29.16356554 4.98190654 29.18348232 2.3359375 29.19921875 C1.58119141 29.20759766 0.82644531 29.21597656 0.04882812 29.22460938 C-1.87650563 29.23324316 -3.80191831 29.18896208 -5.7265625 29.13671875 C-7.52935441 27.33392684 -6.85692855 24.59624174 -6.859375 22.16796875 C-6.86066406 20.95753906 -6.86195313 19.74710938 -6.86328125 18.5 C-6.85941406 17.22511719 -6.85554688 15.95023438 -6.8515625 14.63671875 C-6.85542969 13.36183594 -6.85929687 12.08695313 -6.86328125 10.7734375 C-6.86199219 9.56300781 -6.86070312 8.35257813 -6.859375 7.10546875 C-6.85824707 5.98591797 -6.85711914 4.86636719 -6.85595703 3.71289062 C-6.61635858 -1.05737896 -4.205959 0.00759198 0 0 Z " fill="#030303" transform="translate(363.7265625,97.86328125)"/>
<path d="M0 0 C2.97 0.33 5.94 0.66 9 1 C7.27118644 10.79661017 7.27118644 10.79661017 3 14 C-3.65844876 17.32922438 -12.34144942 13.86439416 -19 12 C-19.33 12.99 -19.66 13.98 -20 15 C-22.64 15 -25.28 15 -28 15 C-29.35688365 11.91617353 -28.90841398 10.72524195 -27.8125 7.4375 C-26.02729051 4.05175786 -25.18326615 2.90539587 -22 1 C-16.2088467 0.06981475 -10.43322535 1.11717062 -4.8125 2.5625 C-2.98673164 3.07821351 -2.98673164 3.07821351 -1 3 C-0.67 2.01 -0.34 1.02 0 0 Z " fill="#030303" transform="translate(342,0)"/>
<path d="M0 0 C5.61 0 11.22 0 17 0 C17 2.31 17 4.62 17 7 C14.36 7.33 11.72 7.66 9 8 C9 8.66 9 9.32 9 10 C10.134375 10.144375 11.26875 10.28875 12.4375 10.4375 C16 11 16 11 17 12 C17.125 14.5 17.125 14.5 17 17 C16 18 16 18 12.5 18.4375 C11.345 18.623125 10.19 18.80875 9 19 C8.67 19.66 8.34 20.32 8 21 C10.97 21.33 13.94 21.66 17 22 C17.625 24.375 17.625 24.375 18 27 C16 29 16 29 12.3046875 29.1953125 C10.82798332 29.1838709 9.35138199 29.15789907 7.875 29.125 C5.27625 29.08375 2.6775 29.0425 0 29 C0 19.43 0 9.86 0 0 Z " fill="#030303" transform="translate(574,98)"/>
<path d="M0 0 C1.27423828 -0.00193359 1.27423828 -0.00193359 2.57421875 -0.00390625 C3.91419922 0.00189453 3.91419922 0.00189453 5.28125 0.0078125 C6.17457031 0.00394531 7.06789063 0.00007813 7.98828125 -0.00390625 C8.83777344 -0.00261719 9.68726563 -0.00132813 10.5625 0 C11.34689453 0.00112793 12.13128906 0.00225586 12.93945312 0.00341797 C14.78125 0.1328125 14.78125 0.1328125 15.78125 1.1328125 C15.90625 3.6328125 15.90625 3.6328125 15.78125 6.1328125 C14.78125 7.1328125 14.78125 7.1328125 12.21875 7.1953125 C11.0121875 7.164375 11.0121875 7.164375 9.78125 7.1328125 C9.78648682 7.76372803 9.79172363 8.39464355 9.79711914 9.04467773 C9.81782826 11.88654597 9.83089066 14.72839838 9.84375 17.5703125 C9.85212891 18.56353516 9.86050781 19.55675781 9.86914062 20.58007812 C9.87236328 21.52431641 9.87558594 22.46855469 9.87890625 23.44140625 C9.88414307 24.31595459 9.88937988 25.19050293 9.89477539 26.09155273 C9.78125 28.1328125 9.78125 28.1328125 8.78125 29.1328125 C5.28125 29.2578125 5.28125 29.2578125 1.78125 29.1328125 C0.78125 28.1328125 0.78125 28.1328125 0.66772461 26.09155273 C0.67296143 25.21700439 0.67819824 24.34245605 0.68359375 23.44140625 C0.68681641 22.49716797 0.69003906 21.55292969 0.69335938 20.58007812 C0.70173828 19.58685547 0.71011719 18.59363281 0.71875 17.5703125 C0.72326172 16.57322266 0.72777344 15.57613281 0.73242188 14.54882812 C0.74424993 12.07676401 0.76073151 9.60481732 0.78125 7.1328125 C-0.023125 7.1534375 -0.8275 7.1740625 -1.65625 7.1953125 C-4.21875 7.1328125 -4.21875 7.1328125 -5.21875 6.1328125 C-5.34375 3.6328125 -5.34375 3.6328125 -5.21875 1.1328125 C-3.66268249 -0.42325501 -2.15917629 0.00310481 0 0 Z " fill="#030303" transform="translate(625.21875,97.8671875)"/>
</svg>
