<?xml version="1.0" encoding="UTF-8"?>
<svg version="1.1" xmlns="http://www.w3.org/2000/svg" width="409" height="410">
<path d="M0 0 C1.26018951 0.00060425 2.52037903 0.0012085 3.8187561 0.00183105 C150.80847465 0.19173576 150.80847465 0.19173576 179.5625 27 C196.43037859 45.81417227 197.57880638 75.17484802 200.6875 99.1875 C200.78578094 99.91997955 200.88406189 100.65245911 200.98532104 101.40713501 C205.35466831 134.3315952 206.57713164 167.52419353 206.45361328 200.70141602 C206.43651049 205.32762034 206.44672604 209.95330668 206.46394253 214.57949352 C206.59737125 257.05665812 203.75300308 299.48381128 196.125 341.3125 C195.89643311 342.58617432 195.66786621 343.85984863 195.43237305 345.17211914 C193.07623188 357.49100103 190.17032001 370.30483382 182.0625 380.1875 C181.58554687 380.79851562 181.10859375 381.40953125 180.6171875 382.0390625 C158.71874547 407.01869235 104.7758778 405.56510524 74.0625 408.1875 C72.99071503 408.27998016 72.99071503 408.27998016 71.89727783 408.37432861 C24.99863557 412.34823221 -24.05786366 412.40494502 -70.9375 408.1875 C-72.06022308 408.08921906 -72.06022308 408.08921906 -73.20562744 407.98895264 C-161.04805765 400.27585949 -161.04805765 400.27585949 -178.69140625 381.0234375 C-188.98210531 368.03031139 -191.08618601 352.10286002 -193.9375 336.1875 C-194.22536377 334.58479248 -194.22536377 334.58479248 -194.51904297 332.94970703 C-197.13209395 317.92643747 -198.67043155 302.79531095 -200.125 287.625 C-200.20985657 286.74261658 -200.29471313 285.86023315 -200.38214111 284.95111084 C-200.62841317 282.36238918 -200.86830689 279.77316478 -201.10546875 277.18359375 C-201.17508316 276.44351578 -201.24469757 275.70343781 -201.31642151 274.94093323 C-202.66337656 259.8554198 -203.10762884 244.79393367 -203.140625 229.65625 C-203.14345238 228.75431412 -203.14627975 227.85237823 -203.14919281 226.92311096 C-203.16406339 222.12842537 -203.17336324 217.3337688 -203.17773438 212.5390625 C-203.18207012 208.6808908 -203.19578706 204.82294891 -203.21875 200.96484375 C-203.34005027 180.13093263 -203.08954068 159.41112938 -201.5703125 138.625 C-201.50916512 137.78476791 -201.44801773 136.94453583 -201.3850174 136.07884216 C-194.94190915 49.6953619 -194.94190915 49.6953619 -178.9375 30.1875 C-178.46054688 29.57648437 -177.98359375 28.96546875 -177.4921875 28.3359375 C-154.99237218 2.67031903 -96.9111079 4.34258107 -65.75 2.0625 C-64.7202002 1.98692871 -63.69040039 1.91135742 -62.62939453 1.83349609 C-41.76679734 0.41097331 -20.9067285 -0.01870554 0 0 Z M-157.3125 181.75 C-160.15913253 186.0199488 -160.57152159 190.17783646 -159.9375 195.1875 C-158.09087674 201.0228295 -155.42175857 204.27034119 -149.9375 207.1875 C-144.50689165 208.99770278 -139.84006228 208.88847747 -134.6875 206.5 C-130.20008155 204.01384676 -127.57275101 201.09325302 -125.9375 196.1875 C-125.41583943 191.21889685 -125.3650949 187.33231021 -127.625 182.8125 C-131.28397998 178.65906327 -134.48996528 175.55515667 -140.171875 174.94921875 C-147.74105286 174.7259045 -152.01611318 176.03547738 -157.3125 181.75 Z M133.60693359 180.90600586 C132.70945404 181.06294418 131.81197449 181.21988251 130.88729858 181.38157654 C129.92159943 181.55342972 128.95590027 181.7252829 127.9609375 181.90234375 C126.96873199 182.07754044 125.97652649 182.25273712 124.95425415 182.4332428 C122.85761427 182.80434985 120.76121467 183.17681656 118.66503906 183.55053711 C115.44419364 184.12380861 112.22216578 184.69006241 109 185.25585938 C106.96607014 185.61676116 104.93221337 185.97807516 102.8984375 186.33984375 C101.92868988 186.5096727 100.95894226 186.67950165 99.95980835 186.85447693 C99.06863312 187.01456741 98.17745789 187.1746579 97.25927734 187.33959961 C96.4711264 187.47949814 95.68297546 187.61939667 94.87094116 187.76353455 C93.05192489 188.02239339 93.05192489 188.02239339 92.0625 189.1875 C92.0625 194.4675 92.0625 199.7475 92.0625 205.1875 C108.2325 205.1875 124.4025 205.1875 141.0625 205.1875 C141.0625 196.9375 141.0625 188.6875 141.0625 180.1875 C138.41834924 180.1875 136.19742211 180.44972457 133.60693359 180.90600586 Z M-80.15625 190.02734375 C-81.17074219 190.20330078 -82.18523437 190.37925781 -83.23046875 190.56054688 C-84.28878906 190.74681641 -85.34710938 190.93308594 -86.4375 191.125 C-88.02498047 191.39860352 -88.02498047 191.39860352 -89.64453125 191.67773438 C-95.36001035 192.64967354 -95.36001035 192.64967354 -100.9375 194.1875 C-100.9375 202.7675 -100.9375 211.3475 -100.9375 220.1875 C-105.8875 220.1875 -110.8375 220.1875 -115.9375 220.1875 C-115.96433201 223.66671735 -115.9842567 227.14573039 -116 230.625 C-116.00837891 231.61822266 -116.01675781 232.61144531 -116.02539062 233.63476562 C-116.02861328 234.57900391 -116.03183594 235.52324219 -116.03515625 236.49609375 C-116.04039307 237.37064209 -116.04562988 238.24519043 -116.05102539 239.14624023 C-116.16534809 241.18190206 -116.16534809 241.18190206 -114.9375 242.1875 C-112.58436445 242.26021741 -110.22916332 242.27120868 -107.875 242.25 C-106.58464844 242.24097656 -105.29429688 242.23195312 -103.96484375 242.22265625 C-102.46630859 242.20525391 -102.46630859 242.20525391 -100.9375 242.1875 C-100.94194122 242.76220032 -100.94638245 243.33690063 -100.95095825 243.92901611 C-100.99554954 249.96469613 -101.02551343 256.00032859 -101.04736328 262.03613281 C-101.0573589 264.28224593 -101.07095988 266.52834625 -101.08837891 268.77441406 C-101.11291257 272.02151672 -101.1240478 275.26844586 -101.1328125 278.515625 C-101.14313507 279.50363098 -101.15345764 280.49163696 -101.16409302 281.50958252 C-101.1660293 293.81580849 -99.71481338 304.31718139 -91.625 313.9375 C-83.28083629 320.92331148 -75.32237311 323.55653618 -64.5 323.4375 C-63.80068359 323.44523438 -63.10136719 323.45296875 -62.38085938 323.4609375 C-56.78027346 323.44036602 -52.640192 322.45476489 -46.9375 321.1875 C-46.9375 314.2575 -46.9375 307.3275 -46.9375 300.1875 C-52.30658937 299.93879816 -52.30658937 299.93879816 -57.67651367 299.70947266 C-61.74974671 299.4954742 -65.31619366 299.25480886 -68.9375 297.1875 C-71.46592125 289.60223625 -70.99089039 281.31279376 -70.91821289 273.40014648 C-70.86211384 262.98747665 -71.44378075 252.58580527 -71.9375 242.1875 C-71.1854126 242.19273682 -70.4333252 242.19797363 -69.65844727 242.20336914 C-66.27230658 242.22407227 -62.88617916 242.23713877 -59.5 242.25 C-58.31599609 242.25837891 -57.13199219 242.26675781 -55.91210938 242.27539062 C-54.78740234 242.27861328 -53.66269531 242.28183594 -52.50390625 242.28515625 C-50.94071655 242.29301147 -50.94071655 242.29301147 -49.34594727 242.30102539 C-46.98621253 242.46055556 -46.98621253 242.46055556 -45.9375 241.1875 C-45.85064397 239.62577255 -45.83047781 238.06020656 -45.83984375 236.49609375 C-45.84234131 235.64587646 -45.84483887 234.79565918 -45.84741211 233.91967773 C-45.85651611 232.83243408 -45.86562012 231.74519043 -45.875 230.625 C-45.895625 227.180625 -45.91625 223.73625 -45.9375 220.1875 C-54.5175 220.1875 -63.0975 220.1875 -71.9375 220.1875 C-71.9375 209.9575 -71.9375 199.7275 -71.9375 189.1875 C-74.81895156 189.1875 -77.32228627 189.53543176 -80.15625 190.02734375 Z M-29.9375 224.1875 C-30.02450342 225.82222882 -30.04451063 227.46064055 -30.03515625 229.09765625 C-30.03193359 230.08701172 -30.02871094 231.07636719 -30.02539062 232.09570312 C-30.01701172 233.13662109 -30.00863281 234.17753906 -30 235.25 C-29.99548828 236.29478516 -29.99097656 237.33957031 -29.98632812 238.41601562 C-29.97449913 241.0065666 -29.95801689 243.59700559 -29.9375 246.1875 C-25.83039053 245.29205128 -21.73275339 244.39437976 -17.6640625 243.3359375 C-10.72683911 241.60600018 -4.19753797 240.87507585 2.9375 240.8125 C3.7217334 240.79880371 4.5059668 240.78510742 5.31396484 240.77099609 C11.72078001 240.82125095 17.51432758 241.90755626 22.4375 246.3125 C23.95975007 249.00571166 24.54388032 250.88492014 25.1640625 253.8671875 C25.33502441 254.67655762 25.50598633 255.48592773 25.68212891 256.31982422 C25.80765137 256.93615723 25.93317383 257.55249023 26.0625 258.1875 C25.47984375 258.16655273 24.8971875 258.14560547 24.296875 258.12402344 C5.96888695 257.55487601 -13.05595658 258.35381026 -27.40234375 271.4453125 C-33.86150633 278.77555808 -35.32418596 286.23419294 -35.20703125 295.734375 C-34.53315564 304.36779589 -31.48876545 310.70892251 -25.09375 316.53125 C-15.16343985 324.15887954 -3.98158433 324.12785468 8.0625 323.1875 C15.63245722 321.58577051 21.32866455 316.11931671 27.0625 311.1875 C27.0625 314.4875 27.0625 317.7875 27.0625 321.1875 C35.9725 321.1875 44.8825 321.1875 54.0625 321.1875 C54.13066792 312.67629872 54.18553983 304.16531484 54.21793652 295.65391254 C54.23349657 291.70040438 54.25455465 287.74709499 54.28881836 283.79370117 C54.32176113 279.96814753 54.33942534 276.14278332 54.34713173 272.31709862 C54.35261337 270.86807466 54.36331465 269.41905936 54.37969017 267.97011757 C54.53702095 253.45262825 53.10490253 240.07728211 43.0234375 228.93359375 C37.92097859 224.03847858 32.82089566 221.1845376 26.0625 219.1875 C25.30582031 218.96320313 24.54914063 218.73890625 23.76953125 218.5078125 C11.64252944 215.54208006 -20.17598812 214.42598812 -29.9375 224.1875 Z M-156.9375 220.1875 C-156.9375 253.5175 -156.9375 286.8475 -156.9375 321.1875 C-147.3675 321.1875 -137.7975 321.1875 -127.9375 321.1875 C-127.9375 287.8575 -127.9375 254.5275 -127.9375 220.1875 C-137.5075 220.1875 -147.0775 220.1875 -156.9375 220.1875 Z M70.0625 220.1875 C69.97167168 229.48098375 69.89848243 238.77416657 69.85525131 248.06799603 C69.83448925 252.38477424 69.80638343 256.70122972 69.76074219 261.01782227 C69.71687344 265.1935163 69.69327763 269.36890242 69.68299103 273.54480934 C69.67567246 275.12782441 69.6613839 276.71082507 69.63957977 278.29370689 C69.44789551 292.80301456 71.30068908 305.15768074 81.72265625 315.8984375 C88.22460392 321.97087154 95.24038334 323.74357507 104 323.625 C104.79196777 323.61670166 105.58393555 323.60840332 106.39990234 323.59985352 C117.2568508 323.28553222 123.5258142 318.7241858 131.0625 311.1875 C131.12308594 311.82558594 131.18367188 312.46367187 131.24609375 313.12109375 C131.32988281 313.94738281 131.41367187 314.77367187 131.5 315.625 C131.58121094 316.44871094 131.66242188 317.27242188 131.74609375 318.12109375 C131.85180815 320.17412025 131.85180815 320.17412025 133.0625 321.1875 C141.9725 321.1875 150.8825 321.1875 160.0625 321.1875 C160.0625 287.8575 160.0625 254.5275 160.0625 220.1875 C150.4925 220.1875 140.9225 220.1875 131.0625 220.1875 C131.02511719 224.94285156 130.98773438 229.69820312 130.94921875 234.59765625 C130.91892496 237.61917613 130.88776801 240.6406381 130.85351562 243.66210938 C130.79928984 248.45268764 130.74817624 253.24315136 130.71606445 258.03393555 C130.68995994 261.89855443 130.64950794 265.76278641 130.59931374 269.62716484 C130.58269312 271.09781501 130.571149 272.56853202 130.56488609 274.03926277 C130.555192 276.10739347 130.52707291 278.17454504 130.49487305 280.24243164 C130.48376999 281.41713516 130.47266693 282.59183868 130.46122742 283.80213928 C129.83550307 289.11479783 128.02482012 293.02778089 124.625 297.125 C120.77785995 300.03687041 116.56613498 299.82080313 111.91015625 299.6015625 C107.97909106 299.02996729 105.87498115 297.99998115 103.0625 295.1875 C100.59111473 290.30266433 99.68176997 286.69709439 99.63012695 281.15063477 C99.6199353 280.48636978 99.60974365 279.8221048 99.59924316 279.13771057 C99.56933512 276.96802087 99.559882 274.79877419 99.55078125 272.62890625 C99.53391797 271.11431944 99.51576553 269.59974649 99.49638367 268.08518982 C99.4490561 264.11838104 99.41913573 260.15162847 99.39294434 256.18463135 C99.36305127 252.1288341 99.31655119 248.07323013 99.27148438 244.01757812 C99.18564755 236.0742981 99.11975243 228.13103753 99.0625 220.1875 C89.4925 220.1875 79.9225 220.1875 70.0625 220.1875 Z " fill="#F96311" transform="translate(202.9375,-0.1875)"/>
<path d="M0 0 C1.12921875 -0.02578125 2.2584375 -0.0515625 3.421875 -0.078125 C4.35515625 0.03015625 5.2884375 0.1384375 6.25 0.25 C9.53948841 5.18423262 8.0908696 10.56712296 7.25 16.25 C5.45128888 21.55146436 2.66503993 24.03070005 -1.75 27.25 C-7.69078647 29.23026216 -14.40507926 29.03164025 -20.3125 27.0625 C-23.88746572 24.40419216 -25.42855947 22.38579372 -26.1015625 17.9140625 C-26.36214131 13.34707598 -26.08790683 10.83077736 -23.75 6.8125 C-16.95555577 1.00891222 -8.72705913 0.12065059 0 0 Z " fill="#F96311" transform="translate(221.75,274.75)"/>
</svg>
