<?xml version="1.0" encoding="UTF-8"?>
<svg version="1.1" xmlns="http://www.w3.org/2000/svg" width="735" height="172">
<path d="M0 0 C11.85992296 8.85778707 19.43106295 21.07946033 22.68359375 35.5546875 C24.08858184 46.41299053 24.25455572 59.61816642 18 69 C15.5 69.3125 15.5 69.3125 13 69 C12.34 68.34 11.68 67.68 11 67 C10.61070312 67.68964844 10.22140625 68.37929687 9.8203125 69.08984375 C4.28083424 78.39463557 -3.25936253 87.62633823 -14 91 C-17.5 91.25 -17.5 91.25 -20 91 C-20.33 89.35 -20.66 87.7 -21 86 C-20.50371094 85.69707031 -20.00742187 85.39414063 -19.49609375 85.08203125 C-14.85920786 82.22247164 -10.40177917 79.20963065 -6 76 C-7.65 75.34 -9.3 74.68 -11 74 C-10.4420602 70.01673358 -9.25671875 67.51774084 -6.9375 64.25 C-4.92951278 61.83727809 -4.92951278 61.83727809 -4 59 C-5.65 59 -7.3 59 -9 59 C-9.66 57.68 -10.32 56.36 -11 55 C-11.515625 56.03125 -12.03125 57.0625 -12.5625 58.125 C-15.54495347 63.3205815 -19.52380381 66.84092944 -24.9375 69.375 C-28.8057371 70.16443614 -32.05116456 70.2632557 -36 70 C-36.66 69.34 -37.32 68.68 -38 68 C-37.625 64.875 -37.625 64.875 -37 62 C-37.94875 61.54625 -38.8975 61.0925 -39.875 60.625 C-43 59 -43 59 -45 57 C-44.625 54.375 -44.625 54.375 -44 52 C-37.26415094 52.9245283 -37.26415094 52.9245283 -34.375 53.75 C-31.88904067 54.187075 -31.88904067 54.187075 -29.25 53 C-26.71550273 51.08206652 -26.71550273 51.08206652 -25.875 47.625 C-25.67842925 43.89174974 -25.67842925 43.89174974 -28.0625 41 C-30.79903604 38.78759247 -30.79903604 38.78759247 -33.8125 38.75 C-43.42362236 42.51906759 -51.02623489 53.00500449 -58.046875 60.26171875 C-64.98754762 67.3143377 -72.2668303 74.26731306 -81.875 77.375 C-82.75929688 77.67148438 -83.64359375 77.96796875 -84.5546875 78.2734375 C-85.36164063 78.51320313 -86.16859375 78.75296875 -87 79 C-87.56285706 79.17764389 -88.12571411 79.35528778 -88.70562744 79.53831482 C-91.87962023 80.17700161 -94.91786449 80.11910713 -98.15527344 80.11352539 C-98.86786819 80.11367142 -99.58046295 80.11381744 -100.31465149 80.1139679 C-102.66292395 80.11327291 -105.01111645 80.10549994 -107.359375 80.09765625 C-108.99033566 80.0957906 -110.62129688 80.09436739 -112.2522583 80.09336853 C-116.53974969 80.08955494 -120.82720708 80.07973454 -125.11468506 80.06866455 C-129.49181661 80.05842553 -133.86895367 80.05386557 -138.24609375 80.04882812 C-146.83074475 80.03811123 -155.41536814 80.02104872 -164 80 C-164.625 77.625 -164.625 77.625 -165 75 C-162.14206684 72.14206684 -159.85334416 72.59200059 -155.875 72.375 C-153.95300781 72.26285156 -153.95300781 72.26285156 -151.9921875 72.1484375 C-150.51105469 72.07496094 -150.51105469 72.07496094 -149 72 C-149.495 71.505 -149.495 71.505 -150 71 C-150.04063832 69.33382885 -150.042721 67.66611905 -150 66 C-149.01 65.505 -149.01 65.505 -148 65 C-149.26444946 64.96241577 -149.26444946 64.96241577 -150.55444336 64.92407227 C-153.67241674 64.82911845 -156.79021503 64.72987552 -159.90795898 64.62768555 C-161.25914147 64.58428777 -162.61038053 64.5426163 -163.96166992 64.50268555 C-165.90036701 64.44510048 -167.83886276 64.38085702 -169.77734375 64.31640625 C-170.94515381 64.27974854 -172.11296387 64.24309082 -173.31616211 64.20532227 C-176 64 -176 64 -177 63 C-177.125 60.5 -177.125 60.5 -177 58 C-174.9431054 55.9431054 -170.64444002 56.74252924 -167.80859375 56.68359375 C-166.98875504 56.66281265 -166.16891632 56.64203156 -165.32423401 56.62062073 C-162.69541099 56.55503506 -160.06648496 56.49619874 -157.4375 56.4375 C-155.65949439 56.39432333 -153.88149935 56.35070933 -152.10351562 56.30664062 C-147.73578366 56.19934457 -143.36794773 56.09810296 -139 56 C-139.99 55.01 -139.99 55.01 -141 54 C-140.46428571 50.46428571 -140.46428571 50.46428571 -139 49 C-139.68626465 48.97494385 -140.3725293 48.9498877 -141.07958984 48.92407227 C-144.17825817 48.80828573 -147.27660923 48.68548115 -150.375 48.5625 C-151.45523438 48.52318359 -152.53546875 48.48386719 -153.6484375 48.44335938 C-154.6796875 48.40146484 -155.7109375 48.35957031 -156.7734375 48.31640625 C-157.72653809 48.27974854 -158.67963867 48.24309082 -159.66162109 48.20532227 C-162 48 -162 48 -164 47 C-164.042721 45.33388095 -164.04063832 43.66617115 -164 42 C-162.00383446 40.00383446 -158.18298037 40.59016573 -155.4375 40.4375 C-154.37112305 40.37272461 -154.37112305 40.37272461 -153.28320312 40.30664062 C-151.52238088 40.20028223 -149.7612168 40.09961154 -148 40 C-148.66 39.67 -149.32 39.34 -150 39 C-150 37.02 -150 35.04 -150 33 C-147.22857359 32.0761912 -145.65715768 31.88639265 -142.80737305 31.91821289 C-141.96607346 31.9247438 -141.12477386 31.93127472 -140.25798035 31.93800354 C-139.35171402 31.94943893 -138.44544769 31.96087433 -137.51171875 31.97265625 C-135.58919453 31.98530586 -133.66666839 31.99766658 -131.74414062 32.00976562 C-128.71584083 32.03455356 -125.68764081 32.06249844 -122.65942383 32.09594727 C-119.73518248 32.12623669 -116.8110674 32.14395387 -113.88671875 32.16015625 C-112.5364283 32.18034569 -112.5364283 32.18034569 -111.15885925 32.20094299 C-101.63794927 32.23875502 -96.71948101 29.52303107 -90 23 C-87.47527776 20.46087135 -84.9786738 17.89694614 -82.49047852 15.32202148 C-58.97571999 -8.90874847 -31.01006966 -19.13846526 0 0 Z M-38 -3 C-38 -2.67 -38 -2.34 -38 -2 C-35.03 -2 -32.06 -2 -29 -2 C-29 -2.33 -29 -2.66 -29 -3 C-31.97 -3 -34.94 -3 -38 -3 Z M-44 -2 C-44 -1.67 -44 -1.34 -44 -1 C-42.02 -1 -40.04 -1 -38 -1 C-38 -1.33 -38 -1.66 -38 -2 C-39.98 -2 -41.96 -2 -44 -2 Z M-29 -2 C-29 -1.67 -29 -1.34 -29 -1 C-27.02 -1 -25.04 -1 -23 -1 C-23 -1.33 -23 -1.66 -23 -2 C-24.98 -2 -26.96 -2 -29 -2 Z M-48 -1 C-44 0 -44 0 -44 0 Z M-46 7 C-43.16615892 7.82514784 -40.83064749 8.07936233 -37.890625 7.87890625 C-37.13652344 7.83056641 -36.38242187 7.78222656 -35.60546875 7.73242188 C-34.82816406 7.67634766 -34.05085937 7.62027344 -33.25 7.5625 C-32.45722656 7.51029297 -31.66445313 7.45808594 -30.84765625 7.40429688 C-28.89806003 7.27510676 -26.94897114 7.13830035 -25 7 C-25 6.67 -25 6.34 -25 6 C-32.45067301 4.95180646 -38.7109102 5.08681157 -46 7 Z M-40 14 C-40 14.33 -40 14.66 -40 15 C-35.38 15 -30.76 15 -26 15 C-26 14.67 -26 14.34 -26 14 C-30.62 14 -35.24 14 -40 14 Z M7 19 C8 21 8 21 8 21 Z M-38 22 C-38 22.33 -38 22.66 -38 23 C-34.7 23 -31.4 23 -28 23 C-28 22.67 -28 22.34 -28 22 C-31.3 22 -34.6 22 -38 22 Z M10 24 C11 26 11 26 11 26 Z M-6 29 C-5 31 -5 31 -5 31 Z M3 29 C4 31 4 31 4 31 Z M12 29 C13 31 13 31 13 31 Z M-37 30 C-37 30.33 -37 30.66 -37 31 C-34.69 31 -32.38 31 -30 31 C-30 30.67 -30 30.34 -30 30 C-32.31 30 -34.62 30 -37 30 Z M-5 31 C-4 33 -4 33 -4 33 Z M4 31 C5 33 5 33 5 33 Z M-89 32 C-88 34 -88 34 -88 34 Z M13 32 C14 35 14 35 14 35 Z M-13 33 C-12 35 -12 35 -12 35 Z M-4 33 C-3 35 -3 35 -3 35 Z M5 33 C6 37 6 37 6 37 Z M-12 35 C-11 37 -11 37 -11 37 Z M14 35 C14 36.98 14 38.96 14 41 C14.33 41 14.66 41 15 41 C15 39.02 15 37.04 15 35 C14.67 35 14.34 35 14 35 Z M-3 36 C-2 38 -2 38 -2 38 Z M-11 37 C-10 40 -10 40 -10 40 Z M6 37 C6.33 41.62 6.66 46.24 7 51 C7.33 51 7.66 51 8 51 C8.14975239 43.94348748 8.14975239 43.94348748 7 37 C6.67 37 6.34 37 6 37 Z M-2 39 C-2 41.31 -2 43.62 -2 46 C-1.67 46 -1.34 46 -1 46 C-1 43.69 -1 41.38 -1 39 C-1.33 39 -1.66 39 -2 39 Z M-19 40 C-18 42 -18 42 -18 42 Z M-10 40 C-10 43.96 -10 47.92 -10 52 C-9.67 52 -9.34 52 -9 52 C-9 48.04 -9 44.08 -9 40 C-9.33 40 -9.66 40 -10 40 Z M15 41 C15 44.63 15 48.26 15 52 C15.33 52 15.66 52 16 52 C16 48.37 16 44.74 16 41 C15.67 41 15.34 41 15 41 Z M-18 42 C-18 44.97 -18 47.94 -18 51 C-17.67 51 -17.34 51 -17 51 C-17 48.03 -17 45.06 -17 42 C-17.33 42 -17.66 42 -18 42 Z M-2 47 C-2 49.31 -2 51.62 -2 54 C-1.67 54 -1.34 54 -1 54 C-1 51.69 -1 49.38 -1 47 C-1.33 47 -1.66 47 -2 47 Z M-19 51 C-18 53 -18 53 -18 53 Z M6 51 C6 52.65 6 54.3 6 56 C6.33 56 6.66 56 7 56 C7 54.35 7 52.7 7 51 C6.67 51 6.34 51 6 51 Z M14 52 C14 53.65 14 55.3 14 57 C14.33 57 14.66 57 15 57 C15 55.35 15 53.7 15 52 C14.67 52 14.34 52 14 52 Z M-3 55 C-2 57 -2 57 -2 57 Z M5 57 C6 59 6 59 6 59 Z M13 58 C14 61 14 61 14 61 Z M4 60 C5 62 5 62 5 62 Z M12 61 C13 64 13 64 13 64 Z M3 62 C4 64 4 64 4 64 Z M-95 63 C-91 64 -91 64 -91 64 Z M2 64 C3 66 3 66 3 66 Z M1 66 C2 68 2 68 2 68 Z M-93 71 C-89 72 -89 72 -89 72 Z " fill="#1D9CC5" transform="translate(712,10)"/>
<path d="M0 0 C1.79133978 -0.05391993 3.58313899 -0.09275571 5.375 -0.125 C6.37273437 -0.14820312 7.37046875 -0.17140625 8.3984375 -0.1953125 C11 0 11 0 13 2 C13.2093033 4.63955762 13.3011079 7.18262908 13.30859375 9.82421875 C13.33377116 11.42643566 13.35916891 13.02864911 13.38476562 14.63085938 C13.4134094 17.15420496 13.43742513 19.67749004 13.45629883 22.20092773 C13.47809217 24.63818994 13.51755959 27.07471524 13.55859375 29.51171875 C13.55870956 30.2567717 13.55882538 31.00182465 13.5589447 31.76945496 C13.65430217 36.87206948 14.63473277 40.45669648 17 45 C19.12545364 47.22556103 19.12545364 47.22556103 22 48 C25.74919378 47.41822855 28.12132151 46.84938921 30.875 44.1875 C33.41301557 39.25246972 33.20042582 33.85542053 33.31640625 28.41796875 C33.33718735 27.60378983 33.35796844 26.7896109 33.37937927 25.95075989 C33.44449463 23.36308821 33.50358208 20.77531947 33.5625 18.1875 C33.60572142 16.42772455 33.64933685 14.66795872 33.69335938 12.90820312 C33.8001368 8.60556691 33.90151018 4.30283357 34 0 C35.79133978 -0.05391993 37.58313899 -0.09275571 39.375 -0.125 C40.37273437 -0.14820312 41.37046875 -0.17140625 42.3984375 -0.1953125 C45 0 45 0 47 2 C47.21261764 4.9199489 47.30395299 7.74245128 47.30078125 10.6640625 C47.30506638 11.53010101 47.3093515 12.39613953 47.31376648 13.28842163 C47.31951797 15.12602871 47.32000403 16.96365856 47.31567383 18.80126953 C47.31253577 21.59317847 47.33588547 24.38400514 47.36132812 27.17578125 C47.36360344 28.96354034 47.36430354 30.75130226 47.36328125 32.5390625 C47.372491 33.36644928 47.38170074 34.19383606 47.39118958 35.04629517 C47.33849671 41.7612496 45.86793014 46.9559657 42.3125 52.75 C37.09596017 57.82555227 30.5130724 60.1108585 23.3125 60.25 C17.13281552 60.14094674 11.74871483 59.37627446 6.953125 55.23046875 C-3.05647996 44.41430472 -1.42279765 28.90353799 -1 15 C-0.76418374 9.99283476 -0.40201472 4.99646871 0 0 Z " fill="#EC7313" transform="translate(163,112)"/>
<path d="M0 0 C0.89847656 -0.00257812 1.79695313 -0.00515625 2.72265625 -0.0078125 C4.9375 0.125 4.9375 0.125 5.9375 1.125 C6.09405027 2.61138992 6.18816943 4.10449127 6.25390625 5.59765625 C6.31674805 6.94633789 6.31674805 6.94633789 6.38085938 8.32226562 C6.42017578 9.26779297 6.45949219 10.21332031 6.5 11.1875 C6.54318359 12.13689453 6.58636719 13.08628906 6.63085938 14.06445312 C6.73729276 16.41781353 6.83931008 18.77128354 6.9375 21.125 C7.824375 20.63773438 8.71125 20.15046875 9.625 19.6484375 C15.20305194 17.08305984 20.47925254 17.2901235 26.25 19.25 C31.05848367 22.60475605 34.14696376 26.56408349 35.9375 32.125 C36.92335856 41.2052762 36.72224164 49.63801519 30.9375 57.125 C25.9160899 61.86072813 21.05290681 63.45893408 14.30078125 63.42578125 C10.50306582 62.94243565 8.0754958 61.26150778 4.9375 59.125 C4.6075 60.115 4.2775 61.105 3.9375 62.125 C0.3075 62.125 -3.3225 62.125 -7.0625 62.125 C-7.95739485 58.54542059 -8.15655191 56.07071816 -8.08422852 52.43847656 C-8.06413223 51.29759583 -8.04403595 50.15671509 -8.02333069 48.98126221 C-7.99629562 47.75510193 -7.96926056 46.52894165 -7.94140625 45.265625 C-7.91779526 44.00611023 -7.89418427 42.74659546 -7.86985779 41.44891357 C-7.80627606 38.10827726 -7.73806319 34.76780089 -7.66760254 31.42730713 C-7.59677725 28.01541532 -7.53204538 24.60340846 -7.46679688 21.19140625 C-7.33764476 14.50248398 -7.20238533 7.81370595 -7.0625 1.125 C-4.56110398 -0.12569801 -2.78857309 -0.00802467 0 0 Z M6.9375 33.125 C4.96610346 37.06779308 5.49094517 41.82690979 5.9375 46.125 C7.76434313 49.50804284 8.85176523 50.67957035 12.375 52.125 C15.73228305 52.125 17.28429605 51.13283002 19.9375 49.125 C22.16448735 45.78451897 22.2086921 44.59214419 22.1875 40.6875 C22.19265625 39.74003906 22.1978125 38.79257813 22.203125 37.81640625 C21.9286874 35.03570764 21.46749338 33.44548996 19.9375 31.125 C14.65741089 27.60494059 10.86065208 28.18473442 6.9375 33.125 Z " fill="#EC7313" transform="translate(292.0625,108.875)"/>
<path d="M0 0 C4.3751554 2.21538589 6.27472264 4.77657331 7.90625 9.30859375 C8.75126294 13.50612763 9.03464989 17.48823072 9.0390625 21.765625 C9.04099609 23.55709961 9.04099609 23.55709961 9.04296875 25.38476562 C9.03910156 26.61775391 9.03523438 27.85074219 9.03125 29.12109375 C9.03705078 30.99958008 9.03705078 30.99958008 9.04296875 32.91601562 C9.04167969 34.10388672 9.04039062 35.29175781 9.0390625 36.515625 C9.03793457 37.60335205 9.03680664 38.6910791 9.03564453 39.81176758 C8.90625 42.30859375 8.90625 42.30859375 7.90625 43.30859375 C6.09697719 43.43347133 4.28228893 43.48430221 2.46875 43.49609375 C1.48003906 43.51027344 0.49132812 43.52445313 -0.52734375 43.5390625 C-3.09375 43.30859375 -3.09375 43.30859375 -5.09375 41.30859375 C-5.34912109 38.75830078 -5.34912109 38.75830078 -5.3671875 35.56640625 C-5.3878125 34.41785156 -5.4084375 33.26929688 -5.4296875 32.0859375 C-5.45564486 29.65892452 -5.4739245 27.23181679 -5.484375 24.8046875 C-5.50757813 23.65355469 -5.53078125 22.50242188 -5.5546875 21.31640625 C-5.56290527 20.2608252 -5.57112305 19.20524414 -5.57958984 18.11767578 C-6.21585731 14.64146805 -7.31019874 13.42608323 -10.09375 11.30859375 C-12.7371274 11.22054229 -12.7371274 11.22054229 -15.09375 12.30859375 C-17.41898258 15.79644263 -17.37938309 17.34404431 -17.47265625 21.47265625 C-17.50681641 22.67664063 -17.54097656 23.880625 -17.57617188 25.12109375 C-17.60259766 26.37921875 -17.62902344 27.63734375 -17.65625 28.93359375 C-17.71589239 31.42588427 -17.77947189 33.9180848 -17.84765625 36.41015625 C-17.87158447 37.51697754 -17.8955127 38.62379883 -17.92016602 39.76416016 C-18.09375 42.30859375 -18.09375 42.30859375 -19.09375 43.30859375 C-20.90302281 43.43347133 -22.71771107 43.48430221 -24.53125 43.49609375 C-25.51996094 43.51027344 -26.50867188 43.52445313 -27.52734375 43.5390625 C-30.09375 43.30859375 -30.09375 43.30859375 -32.09375 41.30859375 C-32.26928419 38.22334436 -32.32497797 35.22895173 -32.2890625 32.14453125 C-32.2862326 31.2373233 -32.28340271 30.33011536 -32.28048706 29.39541626 C-32.26927153 26.49134252 -32.24416463 23.58757463 -32.21875 20.68359375 C-32.20872197 18.71745236 -32.19959581 16.75130615 -32.19140625 14.78515625 C-32.16932772 9.95951716 -32.13478865 5.13410735 -32.09375 0.30859375 C-30.13571493 0.25470288 -28.17726091 0.21585158 -26.21875 0.18359375 C-24.58292969 0.14878906 -24.58292969 0.14878906 -22.9140625 0.11328125 C-20.09375 0.30859375 -20.09375 0.30859375 -18.09375 2.30859375 C-17.31 1.81359375 -16.52625 1.31859375 -15.71875 0.80859375 C-10.50143216 -1.35029639 -5.43311796 -1.7941453 0 0 Z " fill="#EC7313" transform="translate(249.09375,127.69140625)"/>
<path d="M0 0 C4.07830886 2.84533176 6.12891663 6.19924989 7.6875 10.875 C7.7720387 13.3160776 7.80355786 15.72759213 7.78515625 18.16796875 C7.7837413 18.87399734 7.78232635 19.58002594 7.78086853 20.30744934 C7.77527764 22.55917626 7.76272688 24.81080321 7.75 27.0625 C7.74498382 28.59049335 7.74042112 30.11848827 7.73632812 31.64648438 C7.7253112 35.38936135 7.70805287 39.13216373 7.6875 42.875 C5.89591511 42.90196365 4.10421527 42.92137917 2.3125 42.9375 C1.31476563 42.94910156 0.31703125 42.96070313 -0.7109375 42.97265625 C-3.3125 42.875 -3.3125 42.875 -5.3125 41.875 C-6.43302454 38.73118195 -6.46315906 35.65322262 -6.5234375 32.33984375 C-6.55179687 31.28345703 -6.58015625 30.22707031 -6.609375 29.13867188 C-6.66154605 26.91748921 -6.70579082 24.69610651 -6.7421875 22.47460938 C-6.773125 21.41951172 -6.8040625 20.36441406 -6.8359375 19.27734375 C-6.85575684 18.31304443 -6.87557617 17.34874512 -6.89599609 16.35522461 C-7.1347775 13.84590487 -7.1347775 13.84590487 -8.61181641 12.01782227 C-10.48415987 10.50215112 -10.48415987 10.50215112 -14 11.1875 C-15.093125 11.414375 -16.18625 11.64125 -17.3125 11.875 C-18.3154211 15.24767749 -18.49362425 18.40797529 -18.59375 21.91796875 C-18.63113281 23.07361328 -18.66851562 24.22925781 -18.70703125 25.41992188 C-18.77768278 27.86001625 -18.84799204 30.30012056 -18.91796875 32.74023438 C-18.95535156 33.89201172 -18.99273437 35.04378906 -19.03125 36.23046875 C-19.07668945 37.81831177 -19.07668945 37.81831177 -19.12304688 39.43823242 C-19.3125 41.875 -19.3125 41.875 -20.3125 42.875 C-21.95590867 42.97354655 -23.6036461 43.00472411 -25.25 43 C-26.14589844 43.00257813 -27.04179687 43.00515625 -27.96484375 43.0078125 C-30.3125 42.875 -30.3125 42.875 -32.3125 41.875 C-33.60282727 38.00401819 -33.45536046 34.33821748 -33.4453125 30.3046875 C-33.44626923 29.46785431 -33.44722595 28.63102112 -33.44821167 27.76882935 C-33.44889173 26.0019727 -33.44704957 24.23511355 -33.44287109 22.46826172 C-33.43750696 19.75352423 -33.44282883 17.03895118 -33.44921875 14.32421875 C-33.4485582 12.60937463 -33.44727752 10.89453062 -33.4453125 9.1796875 C-33.44733673 8.36305634 -33.44936096 7.54642517 -33.45144653 6.70504761 C-33.42745964 0.98995964 -33.42745964 0.98995964 -32.3125 -0.125 C-30.50437276 -0.27591913 -28.68919383 -0.34669008 -26.875 -0.375 C-25.88628906 -0.40078125 -24.89757812 -0.4265625 -23.87890625 -0.453125 C-23.03199219 -0.34484375 -22.18507813 -0.2365625 -21.3125 -0.125 C-20.6525 0.865 -19.9925 1.855 -19.3125 2.875 C-18.714375 2.400625 -18.11625 1.92625 -17.5 1.4375 C-12.27807817 -2.29244417 -5.8733496 -1.99472251 0 0 Z " fill="#EC7313" transform="translate(413.3125,128.125)"/>
<path d="M0 0 C5.10223342 4.10179549 7.94005752 9.58938634 9 16 C9.23953318 22.99636484 8.05818448 29.2143451 4 35 C-0.89011551 40.02595205 -7.02863072 42.12638632 -13.9375 42.4375 C-20.05942339 42.21180697 -25.20023934 40.4760196 -29.82421875 36.38671875 C-34.97297668 30.76422522 -36.50184533 25.20442921 -36.30859375 17.65625 C-35.57379168 11.3313714 -33.39693275 5.87001418 -28.6875 1.5 C-20.47840523 -4.66989288 -8.94972883 -4.73610886 0 0 Z M-19 9 C-22.29676837 13.82741083 -22.74969083 18.33679496 -22 24 C-20.78925897 27.32953783 -19.93599967 29.28240025 -17.125 31.4375 C-14.35625147 32.17040402 -12.70968737 31.90322912 -10 31 C-6.74194815 28.70729685 -5.86113589 25.80335018 -5 22 C-4.99017808 16.99082079 -5.90648653 13.04536377 -9 9 C-12.90178315 6.39881123 -15.18854128 6.37962213 -19 9 Z " fill="#EC7313" transform="translate(502,130)"/>
<path d="M0 0 C4.77179745 4.3950766 5.82909885 9.90635503 6.17480469 16.16430664 C6.23214686 19.75749795 6.22368192 23.34406433 6.1875 26.9375 C6.18685547 28.18080078 6.18621094 29.42410156 6.18554688 30.70507812 C6.14050052 39.85949948 6.14050052 39.85949948 5 41 C-2.20379147 41.36018957 -2.20379147 41.36018957 -5.625 39.8125 C-6.40875 39.544375 -7.1925 39.27625 -8 39 C-9.36125 39.680625 -9.36125 39.680625 -10.75 40.375 C-14.96621316 42.48310658 -18.36544422 42.75581465 -23 42 C-26.97911581 39.93675477 -29.64246569 37.79637331 -32 34 C-32.85891404 28.87746762 -32.57668213 24.32156322 -30.5 19.5625 C-25.11116391 14.03894301 -18.78671262 12.06207726 -11.1875 11.9375 C-10.135625 11.958125 -9.08375 11.97875 -8 12 C-8.87644433 9.82271927 -8.87644433 9.82271927 -11 8 C-16.29791593 7.18574945 -21.76046099 8.10816357 -27 9 C-28.85776765 5.86501708 -29.20140476 3.62528568 -29 0 C-19.44754472 -4.05255679 -9.37882771 -4.85689292 0 0 Z M-18 24 C-19.15474612 26.43810155 -19.15474612 26.43810155 -19 29 C-18 31 -18 31 -16 32 C-13.1546538 31.85773269 -11.53267791 31.39950843 -9.25 29.6875 C-7.8119703 27.74615991 -7.29911945 26.39295557 -7 24 C-7.33 23.01 -7.66 22.02 -8 21 C-12.23795734 20.63674651 -14.66753954 21.31551796 -18 24 Z " fill="#EC7313" transform="translate(85,130)"/>
<path d="M0 0 C3.04057572 2.64397889 4.72372114 4.17116342 6 8 C6.09590036 10.41777468 6.13074263 12.83813752 6.1328125 15.2578125 C6.13376923 15.96146942 6.13472595 16.66512634 6.13571167 17.3901062 C6.13639125 18.87449229 6.13455245 20.35888137 6.13037109 21.84326172 C6.12500367 24.12343958 6.13033171 26.40342189 6.13671875 28.68359375 C6.13605824 30.12500044 6.13477765 31.566407 6.1328125 33.0078125 C6.13168457 34.32410645 6.13055664 35.64040039 6.12939453 36.99658203 C6 40 6 40 5 41 C3.48071962 41.07179964 1.95832518 41.08392007 0.4375 41.0625 C-0.38878906 41.05347656 -1.21507812 41.04445312 -2.06640625 41.03515625 C-2.70449219 41.02355469 -3.34257812 41.01195312 -4 41 C-4.33 40.01 -4.66 39.02 -5 38 C-5.81791016 38.433125 -5.81791016 38.433125 -6.65234375 38.875 C-12.14738826 41.58025268 -16.86353587 43.1325301 -23 42 C-27.91624028 39.63292134 -30.18602527 37.13959507 -32 32 C-32.56138108 26.76044321 -31.85632372 23.43222647 -29 19 C-24.72119284 14.59534557 -18.95492578 12.33981995 -12.86328125 11.81640625 C-11.24103611 11.81311569 -9.61895383 11.89666252 -8 12 C-8.33 11.01 -8.66 10.02 -9 9 C-13.27273753 6.86363123 -18.5393637 7.71904334 -23 9 C-23.99 9.33 -24.98 9.66 -26 10 C-29.05164319 4.62910798 -29.05164319 4.62910798 -28.828125 1.90625 C-28 0 -28 0 -26.35546875 -1.046875 C-17.56819613 -3.89680126 -8.17955602 -4.84096173 0 0 Z M-18 25 C-18.66743877 27.58655333 -18.66743877 27.58655333 -18 30 C-15.25305475 32.26142258 -15.25305475 32.26142258 -12.5 31.875 C-9.39033829 30.7866184 -8.50046188 29.92195208 -7 27 C-6.74913276 23.83267579 -6.74913276 23.83267579 -7 21 C-12.05426729 20.5298356 -14.52419392 21.21750515 -18 25 Z " fill="#EC7313" transform="translate(364,130)"/>
<path d="M0 0 C1.79093191 -0.08086147 3.58289628 -0.13912702 5.375 -0.1875 C6.87160156 -0.23970703 6.87160156 -0.23970703 8.3984375 -0.29296875 C9.25695312 -0.19628906 10.11546875 -0.09960938 11 0 C13.21841082 3.32761623 13.26833706 4.51175115 13.34375 8.40234375 C13.37339844 9.45744141 13.40304688 10.51253906 13.43359375 11.59960938 C13.45550781 12.70111328 13.47742188 13.80261719 13.5 14.9375 C13.54344275 17.11347092 13.5951913 19.28929587 13.65625 21.46484375 C13.67494141 22.430271 13.69363281 23.39569824 13.71289062 24.39038086 C14.00515591 27.04686358 14.64944821 28.71706877 16 31 C18.31 31 20.62 31 23 31 C25.0431669 27.60494022 25.28615976 24.88787212 25.37890625 20.95703125 C25.41306641 19.80138672 25.44722656 18.64574219 25.48242188 17.45507812 C25.50884766 16.25302734 25.53527344 15.05097656 25.5625 13.8125 C25.62214059 11.42306959 25.68571974 9.03373306 25.75390625 6.64453125 C25.77783447 5.58596924 25.8017627 4.52740723 25.82641602 3.43676758 C26 1 26 1 27 0 C28.64340867 -0.09854655 30.2911461 -0.12972411 31.9375 -0.125 C32.83339844 -0.12757812 33.72929687 -0.13015625 34.65234375 -0.1328125 C37 0 37 0 39 1 C40.26584754 4.79754262 40.14297986 8.36056928 40.1328125 12.31640625 C40.13376923 13.12867172 40.13472595 13.94093719 40.13571167 14.77781677 C40.13639173 16.49339882 40.13454955 18.20898345 40.13037109 19.92456055 C40.12501347 22.5558853 40.13032549 25.18703989 40.13671875 27.81835938 C40.13605807 29.48437538 40.13477713 31.15039127 40.1328125 32.81640625 C40.13483673 33.60600235 40.13686096 34.39559845 40.13894653 35.2091217 C40.11496487 40.77007025 40.11496487 40.77007025 39 43 C31.61538462 43.49230769 31.61538462 43.49230769 28.5 41 C28.005 40.34 27.51 39.68 27 39 C26.236875 39.639375 25.47375 40.27875 24.6875 40.9375 C20.11043212 44.45013349 15.58444393 44.69686223 10 44 C4.88237182 41.34641502 1.82294058 38.46882174 0 33 C-0.0846817 30.48631945 -0.11601885 28.00130626 -0.09765625 25.48828125 C-0.0962413 24.76005661 -0.09482635 24.03183197 -0.09336853 23.28153992 C-0.08777659 20.95848461 -0.07522562 18.63552612 -0.0625 16.3125 C-0.05748396 14.73632952 -0.05292123 13.16015752 -0.04882812 11.58398438 C-0.0378098 7.72261902 -0.02055074 3.86132592 0 0 Z " fill="#EC7313" transform="translate(98,128)"/>
<path d="M0 0 C2.64 0 5.28 0 8 0 C8.33 7.59 8.66 15.18 9 23 C10.65 21.68 12.3 20.36 14 19 C19.47578663 17.17473779 24.90740347 17.19872977 30.25 19.5 C35.11401015 22.21840887 37.92339049 26.65284862 39.609375 31.89453125 C41.14256526 40.15842674 40.51728724 47.83414043 36 55 C32.39686227 59.36169304 28.59204401 62.39242378 22.8984375 63.35546875 C16.68788068 63.75029796 12.86476362 61.71153628 8 58 C7.67 58.99 7.34 59.98 7 61 C4.6739143 61.38063221 2.33944736 61.71269945 0 62 C-1.75518106 60.24481894 -1.12760783 57.77650285 -1.12939453 55.39453125 C-1.13254669 54.19658936 -1.13569885 52.99864746 -1.13894653 51.7644043 C-1.1369223 50.46027588 -1.13489807 49.15614746 -1.1328125 47.8125 C-1.1334856 46.47110985 -1.13445568 45.12971981 -1.13571167 43.78833008 C-1.13718836 40.97378379 -1.13503504 38.15926918 -1.13037109 35.34472656 C-1.12467381 31.72959369 -1.12795297 28.11453505 -1.13394356 24.49940491 C-1.13754997 21.72855058 -1.13641022 18.95771398 -1.13381577 16.18685913 C-1.13282033 14.20310417 -1.13586741 12.21934853 -1.13894653 10.2355957 C-1.13579437 9.03765381 -1.13264221 7.83971191 -1.12939453 6.60546875 C-1.12859894 5.54481201 -1.12780334 4.48415527 -1.12698364 3.39135742 C-1 1 -1 1 0 0 Z M12 28 C8.37466857 32.00036572 7.8290856 35.58944544 7.75 40.875 C7.72421875 41.90367187 7.6984375 42.93234375 7.671875 43.9921875 C8.12821404 48.17529533 9.85847111 50.72675623 12.625 53.8125 C16.3642106 55.6821053 19.91484975 55.78055549 24 55 C27.7208205 52.22917623 29.87433976 49.50264097 31 45 C31.64400669 38.9049367 31.00141174 34.35966382 28 29 C23.07877972 23.90908247 17.66904586 24.34661489 12 28 Z " fill="#EC7313" transform="translate(652,109)"/>
<path d="M0 0 C1.51400391 0.01740234 1.51400391 0.01740234 3.05859375 0.03515625 C4.07050781 0.04417969 5.08242188 0.05320312 6.125 0.0625 C7.29869141 0.07990234 7.29869141 0.07990234 8.49609375 0.09765625 C10.04516023 3.59250136 10.81661153 6.60412846 11.12109375 10.41015625 C11.19585937 11.29316406 11.270625 12.17617187 11.34765625 13.0859375 C11.39664063 13.74980469 11.445625 14.41367188 11.49609375 15.09765625 C14.13609375 15.42765625 16.77609375 15.75765625 19.49609375 16.09765625 C19.49609375 19.39765625 19.49609375 22.69765625 19.49609375 26.09765625 C15.53609375 26.59265625 15.53609375 26.59265625 11.49609375 27.09765625 C11.49609375 33.36765625 11.49609375 39.63765625 11.49609375 46.09765625 C14.13609375 47.08765625 16.77609375 48.07765625 19.49609375 49.09765625 C19.57706178 50.55508088 19.63527149 52.01378432 19.68359375 53.47265625 C19.73580078 54.69082031 19.73580078 54.69082031 19.7890625 55.93359375 C19.69238281 56.64773437 19.59570312 57.361875 19.49609375 58.09765625 C15.23054504 60.94135539 11.50405803 60.7274457 6.49609375 60.09765625 C2.46435036 58.60414547 -0.08728653 56.72258583 -2.50390625 53.09765625 C-3.75194397 47.72530844 -3.82749837 42.21362092 -4.06640625 36.72265625 C-4.10958984 35.79582031 -4.15277344 34.86898437 -4.19726562 33.9140625 C-4.30266811 31.64205331 -4.40479231 29.369947 -4.50390625 27.09765625 C-5.82390625 26.76765625 -7.14390625 26.43765625 -8.50390625 26.09765625 C-8.50390625 22.79765625 -8.50390625 19.49765625 -8.50390625 16.09765625 C-7.18390625 15.76765625 -5.86390625 15.43765625 -4.50390625 15.09765625 C-4.44332031 14.09863281 -4.38273437 13.09960938 -4.3203125 12.0703125 C-4.23652344 10.77996094 -4.15273438 9.48960938 -4.06640625 8.16015625 C-3.98519531 6.87238281 -3.90398438 5.58460937 -3.8203125 4.2578125 C-3.40731041 0.13289042 -3.40731041 0.13289042 0 0 Z " fill="#EC7313" transform="translate(29.50390625,111.90234375)"/>
<path d="M0 0 C-0.33 2.31 -0.66 4.62 -1 7 C-1.96679688 6.89300781 -2.93359375 6.78601563 -3.9296875 6.67578125 C-13.17416473 5.82455711 -21.2977947 5.29826392 -28.9375 11.3125 C-34.08577062 18.02085263 -35.9213832 24.66861954 -35 33 C-33.2422724 39.76976229 -30.87578602 44.16275199 -25 48 C-17.47680849 51.5498503 -9.005951 50.20844543 -1 49 C0.125 54.75 0.125 54.75 -1 57 C-10.2325478 60.47830871 -20.40034403 59.99727065 -29.421875 56.32421875 C-36.57973396 52.6476821 -41.24277664 47.55510357 -44 40 C-46.71072297 31.42825439 -45.70341967 21.56824234 -42.25 13.40234375 C-38.01257816 5.25854865 -31.77432869 1.23933111 -23.12109375 -1.62109375 C-15.54154515 -2.97508309 -7.21339986 -2.74796185 0 0 Z " fill="#EC7313" transform="translate(576,113)"/>
<path d="M0 0 C1.37671875 -0.02126953 1.37671875 -0.02126953 2.78125 -0.04296875 C5.69552633 0.20407479 7.85358797 0.97456115 10.5 2.1875 C9.625 10.0625 9.625 10.0625 8.5 11.1875 C6.58444032 11.2932671 4.66735994 11.37202917 2.75 11.4375 C-1.34273193 11.76355593 -3.18478303 11.98353608 -6.6875 14.25 C-9.66955462 19.08298508 -9.85944592 23.03082446 -8.9375 28.5625 C-7.70865702 31.36420182 -7.70865702 31.36420182 -5 32.5625 C-0.46311951 33.37265723 3.90557544 33.35093803 8.5 33.1875 C10.10355101 36.69526784 10.72036864 39.33104879 10.5 43.1875 C1.51226534 45.75542419 -5.8888202 46.17415732 -14.5 42.1875 C-19.80869947 38.93303641 -22.51113913 34.69346125 -24.1875 28.75 C-25.16113849 20.76616437 -24.00460243 14.2127539 -19.75 7.375 C-14.0207387 1.80488485 -7.86578852 0.05523728 0 0 Z " fill="#EC7313" transform="translate(450.5,126.8125)"/>
<path d="M0 0 C4.69373924 3.20027675 8.35662943 7.30151773 9.75 12.875 C9.75 16.175 9.75 19.475 9.75 22.875 C0.51 23.205 -8.73 23.535 -18.25 23.875 C-17.3276376 30.0832383 -17.3276376 30.0832383 -13.25 33.875 C-9.95729828 35.52135086 -6.30135342 34.93400169 -2.6875 34.875 C0.13088329 34.82920986 2.93031038 34.82795617 5.75 34.875 C6.75 35.875 6.75 35.875 6.8125 38.4375 C6.791875 39.241875 6.77125 40.04625 6.75 40.875 C-1.33332159 44.46758737 -8.18616544 45.2403725 -16.625 42.1875 C-22.12544588 39.7170337 -24.60024592 36.63351726 -27 31.1875 C-29.45129489 24.02217648 -28.86311151 16.87828645 -26.234375 9.84765625 C-24.7531955 6.87941956 -22.78440338 4.97670036 -20.25 2.875 C-19.569375 2.2975 -18.88875 1.72 -18.1875 1.125 C-12.89306683 -2.29076334 -5.75573812 -1.99237089 0 0 Z M-17.25 9.875 C-18.59772903 12.99633744 -18.59772903 12.99633744 -19.25 15.875 C-18.26592689 17.07995909 -18.26592689 17.07995909 -16.39233398 16.98852539 C-15.60157471 16.98328857 -14.81081543 16.97805176 -13.99609375 16.97265625 C-13.14208984 16.96943359 -12.28808594 16.96621094 -11.40820312 16.96289062 C-10.06145508 16.95032227 -10.06145508 16.95032227 -8.6875 16.9375 C-7.78580078 16.93298828 -6.88410156 16.92847656 -5.95507812 16.92382812 C-3.71998686 16.91200225 -1.48502563 16.8955222 0.75 16.875 C0.31807522 11.69880088 0.31807522 11.69880088 -2.375 7.4375 C-8.18977461 4.27729641 -12.79662177 5.03990364 -17.25 9.875 Z " fill="#EC7313" transform="translate(725.25,128.125)"/>
<path d="M0 0 C3.5 0.125 3.5 0.125 4.5 1.125 C4.64649916 3.22224125 4.72748949 5.32411698 4.78125 7.42578125 C4.81863281 8.71291016 4.85601563 10.00003906 4.89453125 11.32617188 C4.93020332 12.69660125 4.9653541 14.06704429 5 15.4375 C5.06785032 18.10046671 5.14164621 20.76304168 5.21875 23.42578125 C5.24904297 24.61341064 5.27933594 25.80104004 5.31054688 27.0246582 C5.49956045 30.66943458 5.49956045 30.66943458 6.5 34.125 C10.13782632 35.33760877 12.67735999 35.52044552 16.5 35.125 C19.78747363 32.55505426 21.3149888 31.048933 22.14355469 26.91113281 C22.15290039 25.72874023 22.16224609 24.54634766 22.171875 23.328125 C22.19636719 22.04035156 22.22085938 20.75257813 22.24609375 19.42578125 C22.24838621 18.07552215 22.24967643 16.72526101 22.25 15.375 C22.27840245 12.71337531 22.319252 10.05211759 22.359375 7.390625 C22.36662598 5.62380371 22.36662598 5.62380371 22.37402344 3.82128906 C22.5 1.125 22.5 1.125 23.5 0.125 C27 0 27 0 30.5 0.125 C31.5 1.125 31.5 1.125 31.61352539 5.09399414 C31.6133662 6.86605607 31.60766785 8.6381226 31.59765625 10.41015625 C31.5962413 11.34097519 31.59482635 12.27179413 31.59336853 13.2308197 C31.58775172 16.21641191 31.5751964 19.20193029 31.5625 22.1875 C31.55748716 24.20637913 31.55292388 26.22525943 31.54882812 28.24414062 C31.53777683 33.20445572 31.52050095 38.16471532 31.5 43.125 C29.19 43.125 26.88 43.125 24.5 43.125 C23.84 41.805 23.18 40.485 22.5 39.125 C21.79037109 39.66640625 21.79037109 39.66640625 21.06640625 40.21875 C16.57094571 43.37345915 13.14932818 44.90729139 7.60546875 44.53515625 C2.57168794 43.5545496 0.16069076 41.09681604 -2.6484375 36.96484375 C-5.47662629 31.08931997 -4.98806352 24.70306229 -4.85668945 18.33178711 C-4.81210271 16.16822136 -4.79516686 14.00576801 -4.78320312 11.84179688 C-4.66921779 0.16675778 -4.66921779 0.16675778 0 0 Z " fill="#EC7313" transform="translate(608.5,127.875)"/>
<path d="M0 0 C0.98871094 -0.01417969 1.97742188 -0.02835937 2.99609375 -0.04296875 C5.5625 0.1875 5.5625 0.1875 7.5625 2.1875 C7.80300903 4.5539856 7.80300903 4.5539856 7.78955078 7.55517578 C7.78932419 9.23669235 7.78932419 9.23669235 7.78909302 10.95217896 C7.77877045 12.16678802 7.76844788 13.38139709 7.7578125 14.6328125 C7.7549826 15.87296112 7.75215271 17.11310974 7.74923706 18.39083862 C7.73992174 21.68874633 7.7219489 24.98645972 7.6998291 28.28430176 C7.67937474 31.6491457 7.67023623 35.01401807 7.66015625 38.37890625 C7.63806519 44.98184723 7.60456483 51.58465771 7.5625 58.1875 C4.43307535 59.75221233 0.95167777 59.88451958 -2.4375 59.1875 C-4.99889165 57.1269334 -6.29297828 55.93547279 -6.92524719 52.66316223 C-6.91938095 51.71575668 -6.91351471 50.76835114 -6.9074707 49.79223633 C-6.91039627 48.71464554 -6.91332184 47.63705475 -6.91633606 46.52680969 C-6.89882797 45.36940781 -6.88131989 44.21200592 -6.86328125 43.01953125 C-6.85999313 41.82897629 -6.85670502 40.63842133 -6.85331726 39.41178894 C-6.84289759 36.89759855 -6.82294989 34.38343224 -6.79418945 31.86938477 C-6.75005238 28.00458696 -6.73274674 24.14040942 -6.72070312 20.27539062 C-6.70728228 17.83592846 -6.6923602 15.396474 -6.67578125 12.95703125 C-6.66839432 11.79355667 -6.66100739 10.63008209 -6.65339661 9.43135071 C-6.64056137 8.3632164 -6.62772614 7.29508209 -6.61450195 6.19458008 C-6.60465775 5.24956131 -6.59481354 4.30454254 -6.58467102 3.33088684 C-6.293981 -0.90269916 -3.66092436 0.02380315 0 0 Z " fill="#EC7313" transform="translate(6.4375,111.8125)"/>
<path d="M0 0 C0.98871094 -0.01417969 1.97742188 -0.02835937 2.99609375 -0.04296875 C5.5625 0.1875 5.5625 0.1875 7.5625 2.1875 C7.75026167 5.18885613 7.81800182 8.09637146 7.79296875 11.09765625 C7.79228142 12.42161659 7.79228142 12.42161659 7.7915802 13.77232361 C7.78855687 15.63932641 7.78066817 17.50632667 7.76831055 19.37329102 C7.75005226 22.24178939 7.74780084 25.10996521 7.74804688 27.97851562 C7.74313188 29.78906531 7.73730364 31.59961279 7.73046875 33.41015625 C7.72935593 34.27367203 7.7282431 35.13718781 7.72709656 36.02687073 C7.67854615 42.07145385 7.67854615 42.07145385 6.5625 43.1875 C4.75437276 43.33841913 2.93919383 43.40919008 1.125 43.4375 C-0.35806641 43.47617188 -0.35806641 43.47617188 -1.87109375 43.515625 C-2.71800781 43.40734375 -3.56492187 43.2990625 -4.4375 43.1875 C-7.05138261 39.26667608 -6.70711163 35.94411417 -6.66796875 31.3984375 C-6.66751053 30.53940826 -6.66705231 29.68037903 -6.6665802 28.7953186 C-6.66356083 26.98137021 -6.65568395 25.16742433 -6.64331055 23.35351562 C-6.62502502 20.56631364 -6.62280109 17.77944327 -6.62304688 14.9921875 C-6.61813274 13.23176794 -6.61230488 11.47135064 -6.60546875 9.7109375 C-6.60435593 8.87243256 -6.6032431 8.03392761 -6.60209656 7.17001343 C-6.54312222 0.04254306 -6.54312222 0.04254306 0 0 Z " fill="#EC7313" transform="translate(270.4375,127.8125)"/>
<path d="M0 0 C2.64 0 5.28 0 8 0 C9.74053132 1.74053132 9.1365843 4.13003003 9.14526367 6.49780273 C9.15164352 7.67249619 9.15802338 8.84718964 9.16459656 10.05747986 C9.16570938 11.33659744 9.1668222 12.61571503 9.16796875 13.93359375 C9.17129715 15.23700211 9.17462555 16.54041046 9.17805481 17.88331604 C9.184052 20.64658435 9.18589412 23.40982135 9.18530273 26.1730957 C9.18520109 29.71868473 9.19885231 33.26407357 9.21607494 36.80961514 C9.22985013 40.18427799 9.22928323 43.55890309 9.23046875 46.93359375 C9.23765427 48.2106871 9.24483978 49.48778046 9.25224304 50.80357361 C9.24916641 51.98141922 9.24608978 53.15926483 9.24291992 54.37280273 C9.24434494 55.41347397 9.24576996 56.4541452 9.24723816 57.52635193 C9 60 9 60 7 62 C4.69 61.67 2.38 61.34 0 61 C0 40.87 0 20.74 0 0 Z " fill="#EC7313" transform="translate(584,109)"/>
<path d="M0 0 C3.4375 0.625 3.4375 0.625 5.9375 2.6875 C7.88681249 6.50490362 7.59176305 8.54660388 6.4375 12.625 C2.62800527 15.16466316 -0.09757905 15.2122443 -4.5625 14.625 C-7.28050261 13.04680493 -7.52509511 11.73253905 -8.5625 8.75 C-8.5625 5.625 -8.5625 5.625 -6.5625 2.75 C-3.5625 0.625 -3.5625 0.625 0 0 Z " fill="#EC7313" transform="translate(271.5625,108.375)"/>
<path d="M0 0 C1.09570312 0.00902344 2.19140625 0.01804687 3.3203125 0.02734375 C4.16335937 0.03894531 5.00640625 0.05054687 5.875 0.0625 C3.62823084 5.05032753 0.38341539 8.94813411 -4.125 12.0625 C-7.57235846 12.70887971 -10.66654565 12.57276376 -14.125 12.0625 C-11.24633134 3.90627214 -8.76346899 -0.09322839 0 0 Z " fill="#EC7313" transform="translate(126.125,111.9375)"/>
</svg>
