<?xml version="1.0" encoding="UTF-8"?>
<svg version="1.1" xmlns="http://www.w3.org/2000/svg" width="345" height="434">
<path d="M0 0 C3.47173045 1.11591336 4.07299232 2.13381925 5.875 5.4375 C6.14054688 6.03433594 6.40609375 6.63117187 6.6796875 7.24609375 C8.79495969 10.05602634 10.67361644 10.79400596 14 12 C17.95575083 12.42327497 21.89905778 12.46610037 25.875 12.5 C42.53683748 12.64310781 42.53683748 12.64310781 48.1640625 18.09765625 C49.07285156 19.03931641 49.07285156 19.03931641 50 20 C52.58976329 20.93200519 52.58976329 20.93200519 55.375 21.4375 C60.57436356 22.72866371 63.38957295 24.01927274 67 28 C69.09144625 32.37302398 69.19215422 36.1961445 69 41 C66.26352229 42.36823886 63.8651825 42.22745953 60.8125 42.375 C55.503655 42.76846528 51.50219532 43.09858524 47 46 C44.08072132 50.98710108 44.8254509 56.53285421 46 62 C49.77902206 72.29828288 57.01825285 78.17958796 66.44140625 83.3359375 C83.09937648 90.3367536 105.18900119 86.60895016 121.625 80.75 C136.84167348 74.53421944 150.48926635 65.30898201 159 51 C159.639375 49.948125 160.27875 48.89625 160.9375 47.8125 C162.22424342 44.40641447 162.21663979 41.6106632 162 38 C160.1986944 37.20465529 160.1986944 37.20465529 158 37 C156.0410108 38.28046715 156.0410108 38.28046715 154.25 40.1875 C147.54101987 46.35384203 142.17616952 48.7961508 132.90234375 48.4453125 C126.72568132 47.49761463 122.77272472 44.32825077 119.0625 39.4375 C115.45827739 34.14723427 115.35483178 28.21792558 116 22 C117.62793494 16.01707987 120.71259242 12.95661179 126 9.91015625 C136.69526493 5.04297514 151.38619022 8.06492841 162.51538086 9.93261719 C171.0670413 11.33226693 179.2619467 12.48807091 187 8 C188.37013339 6.36345179 189.7120272 4.70196405 191 3 C191.99 3 192.98 3 194 3 C194.09167453 40.43627802 194.16209904 77.87253906 194.20426132 115.30890673 C194.20926379 119.73458384 194.21444111 124.16026072 194.21972656 128.5859375 C194.2207758 129.46696251 194.22182505 130.34798751 194.22290608 131.25571024 C194.24028309 145.49715999 194.27180579 159.73854476 194.30861118 173.97995603 C194.34609602 188.60690975 194.36825176 203.23382958 194.37635398 217.86082935 C194.38182615 226.87716201 194.39907199 235.89331096 194.43166587 244.90958703 C194.45290703 251.10315688 194.45917847 257.29663258 194.45400551 263.49023616 C194.45145855 267.05681339 194.45519684 270.62307095 194.4768219 274.18959045 C194.61158394 297.5935714 193.52818644 317.29138679 176.3046875 334.90234375 C171.39863569 339.65894968 165.8820151 343.65383926 160.3984375 347.7109375 C156.13541817 350.8674098 152.02842234 354.18751428 147.9375 357.5625 C142.06186732 362.38875769 136.06788344 367.01256597 129.95141602 371.52905273 C126.52985418 374.06577884 123.16749087 376.64961247 119.87109375 379.34765625 C119.20021729 379.89607178 118.52934082 380.4444873 117.83813477 381.00952148 C116.56795832 382.05475933 115.30367602 383.1072191 114.04663086 384.16821289 C110.55218232 387.04360286 107.55550612 389.13019869 103 390 C96.38604143 388.10218027 90.89447197 382.62774325 86 378 C86.23937876 374.38990947 86.87933697 373.1235497 89.44921875 370.4921875 C90.51790705 369.60666921 91.59818958 368.73502333 92.6875 367.875 C93.26838379 367.40054443 93.84926758 366.92608887 94.44775391 366.43725586 C96.28685784 364.94295311 98.14073985 363.46912352 100 362 C100.57540527 361.54286621 101.15081055 361.08573242 101.74365234 360.61474609 C104.62148863 358.33175602 107.51135862 356.0648949 110.41015625 353.80859375 C114.0749185 350.95177909 117.6936178 348.0395488 121.3125 345.125 C126.72902521 340.76961938 132.21743497 336.51928625 137.75 332.3125 C140.50257798 330.21168542 143.25239404 328.10731253 146 326 C146.56831543 325.56526367 147.13663086 325.13052734 147.72216797 324.68261719 C159.7750728 315.40087884 166.40263082 306.16384483 168.60100937 290.97214699 C169.41163113 282.90201066 169.25898341 274.80848033 169.22705078 266.70581055 C169.22648566 264.68421433 169.2268052 262.66261771 169.22793579 260.64102173 C169.22850635 255.18944952 169.21680036 249.73796647 169.20278788 244.28641486 C169.19023076 238.5756169 169.18910611 232.86481659 169.18673706 227.15400696 C169.18053687 216.35609189 169.16414593 205.55821763 169.14403808 194.76032048 C169.12163347 182.46037967 169.1106742 170.16043683 169.10064721 157.86048067 C169.07977834 132.57363121 169.04463093 107.2868179 169 82 C167.7934375 83.3921875 167.7934375 83.3921875 166.5625 84.8125 C165.88380859 85.59560547 165.88380859 85.59560547 165.19140625 86.39453125 C162.4080477 90.14522097 162.85295151 94.31654877 162.85523987 98.75889587 C162.85171302 99.55745217 162.84818618 100.35600847 162.84455246 101.17876345 C162.83384878 103.86389173 162.83018149 106.54898455 162.82641602 109.23413086 C162.82011171 111.1559667 162.81334604 113.07780107 162.80615234 114.99963379 C162.79146928 119.14442071 162.77974952 123.28920194 162.77020454 127.43400383 C162.75475636 133.99473082 162.73080464 140.5554095 162.70530701 147.11610413 C162.63410154 165.77471866 162.57443154 184.43336136 162.52319336 203.09204102 C162.49483192 213.3925455 162.45941497 223.69300239 162.41653961 233.9934569 C162.38985003 240.5073247 162.37189338 247.02113866 162.36050236 253.53505027 C162.35133342 257.60223578 162.33395074 261.66935638 162.31432343 265.7365036 C162.30689111 267.61330958 162.30276949 269.49013226 162.30232811 271.3669529 C162.28945238 301.67601448 162.28945238 301.67601448 151.625 312.8125 C146.61842756 317.61412503 141.26819152 321.86418565 135.7734375 326.08203125 C131.78597591 329.14521219 127.89150584 332.31633918 124 335.5 C117.3007077 340.96610124 110.5321264 346.33557841 103.71777344 351.65722656 C100.2309355 354.38286736 96.75273593 357.11955293 93.27587891 359.85791016 C90.22038602 362.26278411 87.15608326 364.65517561 84.078125 367.03125 C83.43746094 367.52818359 82.79679688 368.02511719 82.13671875 368.53710938 C80.90777527 369.48998584 79.67612876 370.43938954 78.44140625 371.38476562 C75.76895118 373.46230354 73.89638024 375.15542964 72 378 C73.12535156 378.8353125 73.12535156 378.8353125 74.2734375 379.6875 C80.95340345 384.66802877 87.5302287 389.74688923 94 395 C93.36048789 400.3353582 91.19898041 402.0115017 87.1875 405.28515625 C86.465625 405.85105469 85.74375 406.41695313 85 407 C84.071875 407.77150391 84.071875 407.77150391 83.125 408.55859375 C80.60512361 410.54412135 78.49539352 411.90294922 75.328125 412.5234375 C70.30041081 411.73269372 67.24892104 408.85187474 63.375 405.6875 C62.24964844 404.79514648 62.24964844 404.79514648 61.1015625 403.88476562 C59.70221863 402.77447062 58.30758583 401.65819158 56.91943359 400.53393555 C56.28602051 400.02773682 55.65260742 399.52153809 55 399 C54.32662598 398.43385986 53.65325195 397.86771973 52.95947266 397.28442383 C50.93358852 395.66430631 50.93358852 395.66430631 47.75 396.3125 C46.8425 396.539375 45.935 396.76625 45 397 C44.67 397.99 44.34 398.98 44 400 C44.8650415 400.40641724 44.8650415 400.40641724 45.74755859 400.82104492 C49.67743277 402.8779886 53.0943151 405.64375244 56.625 408.3125 C57.40101563 408.88162109 58.17703125 409.45074219 58.9765625 410.03710938 C65.92145018 415.28797497 65.92145018 415.28797497 67 420 C54.79282923 431.56701172 54.79282923 431.56701172 49 434 C44.86678652 433.64011487 42.5037571 432.1873926 39.27734375 429.65625 C38.40916016 428.98722656 37.54097656 428.31820313 36.64648438 427.62890625 C35.75251953 426.92636719 34.85855469 426.22382813 33.9375 425.5 C32.15950118 424.10874464 30.37711582 422.72307223 28.58984375 421.34375 C27.80472412 420.72693359 27.01960449 420.11011719 26.21069336 419.47460938 C23.99327708 417.99551558 22.65898988 417.15137814 20 417 C17.87220785 418.10144587 17.87220785 418.10144587 15.84765625 419.859375 C15.07099609 420.48070312 14.29433594 421.10203125 13.49414062 421.7421875 C12.69169922 422.40476562 11.88925781 423.06734375 11.0625 423.75 C-1.5699597 433.98647259 -1.5699597 433.98647259 -5.890625 434.02734375 C-10.0054181 432.66780784 -12.57088218 430.43832267 -15.75 427.5625 C-16.32621094 427.05912109 -16.90242187 426.55574219 -17.49609375 426.03710938 C-19.72491928 424.08104221 -21.90288251 422.09711749 -24 420 C-23.89773694 416.96406538 -23.00731019 416.00706217 -20.8125 413.88671875 C-19.884375 413.16097656 -18.95625 412.43523437 -18 411.6875 C-17.01128906 410.90890625 -16.02257812 410.1303125 -15.00390625 409.328125 C-14.01261719 408.55984375 -13.02132812 407.7915625 -12 407 C-11.12214844 406.29359375 -10.24429688 405.5871875 -9.33984375 404.859375 C-3.265625 400 -3.265625 400 -1 400 C-1.99 398.68 -2.98 397.36 -4 396 C-9.45232092 396.36277673 -12.92819937 399.63880134 -17.0625 402.875 C-17.76955078 403.41769531 -18.47660156 403.96039063 -19.20507812 404.51953125 C-20.52531708 405.53357394 -21.84279878 406.55122473 -23.15649414 407.57373047 C-23.76485107 408.04439941 -24.37320801 408.51506836 -25 409 C-25.67820801 409.54438721 -26.35641602 410.08877441 -27.05517578 410.6496582 C-29.91275915 412.63375231 -31.58432419 412.52646051 -35 412 C-37.44406328 410.46922946 -39.49610737 409.01323731 -41.6875 407.1875 C-42.25533203 406.73568359 -42.82316406 406.28386719 -43.40820312 405.81835938 C-44.96033524 404.57192268 -46.48159015 403.28730341 -48 402 C-48.64582031 401.50113281 -49.29164062 401.00226563 -49.95703125 400.48828125 C-51 399 -51 399 -51.13671875 396.69140625 C-49.40353849 392.58775951 -46.31035892 390.57332734 -42.8125 387.9375 C-42.15185547 387.42123047 -41.49121094 386.90496094 -40.81054688 386.37304688 C-36.98031309 383.40489927 -33.06496924 380.63622422 -29 378 C-31.9006141 374.07237421 -34.96712085 371.28885503 -38.875 368.375 C-40.04093958 367.49685668 -41.20628406 366.61792277 -42.37109375 365.73828125 C-43.26997314 365.06273193 -43.26997314 365.06273193 -44.18701172 364.37353516 C-47.13369419 362.14110375 -50.03545164 359.85247404 -52.9375 357.5625 C-54.1158374 356.63405364 -55.29422303 355.70566849 -56.47265625 354.77734375 C-57.0567627 354.3169873 -57.64086914 353.85663086 -58.24267578 353.38232422 C-59.97020902 352.02343381 -61.70125465 350.66916291 -63.43359375 349.31640625 C-71.13280194 343.29883555 -78.73940769 337.17542353 -86.3125 331 C-89.27622292 328.58444534 -92.25690539 326.19162648 -95.25 323.8125 C-96.39275391 322.89017578 -96.39275391 322.89017578 -97.55859375 321.94921875 C-99.38597524 320.49023737 -101.23630054 319.05991271 -103.09765625 317.64453125 C-113.1784131 309.83874363 -117.16650875 302.4528289 -119 290 C-119.38699523 284.78498305 -119.51867507 279.57134844 -119.62988281 274.3449707 C-119.66825466 272.79972146 -119.70666321 271.25447314 -119.74510574 269.70922565 C-120.1235094 253.38673585 -120.0558135 237.06557883 -119.95290375 220.74031639 C-119.91941005 215.32969587 -119.89931338 209.91906963 -119.88165283 204.50837708 C-119.87539853 202.63494776 -119.86913857 200.76151846 -119.86287308 198.88808918 C-119.85975695 197.95276029 -119.85664083 197.0174314 -119.85343027 196.05375922 C-119.81078017 183.5200258 -119.75767611 170.98643488 -119.67773438 158.45288086 C-119.62330089 149.90211279 -119.58659032 141.35146804 -119.57022786 132.80053979 C-119.56088323 128.30252689 -119.54244125 123.80496827 -119.50191498 119.30711937 C-119.46411689 115.10495149 -119.4495043 110.90334794 -119.45275497 106.70101738 C-119.44978596 105.16347351 -119.43824804 103.62591823 -119.41743088 102.08851242 C-118.94262981 93.03017876 -118.94262981 93.03017876 -122.47198486 85.03974915 C-124.58832682 82.89534266 -124.58832682 82.89534266 -126 83 C-126.07018434 109.61725458 -126.12303433 136.23449522 -126.15543652 162.85182381 C-126.17088352 175.21163152 -126.19193156 187.57138162 -126.22631836 199.93115234 C-126.2562871 210.70809274 -126.27559074 221.4849914 -126.28226548 232.26197231 C-126.28616508 237.96450716 -126.2952844 243.66692263 -126.31719017 249.3694191 C-126.33767349 254.74558854 -126.34380999 260.12159034 -126.33932304 265.4977951 C-126.34014297 267.46246886 -126.34603757 269.42714868 -126.35761642 271.39178848 C-126.45898435 289.49136433 -125.18178022 304.91850314 -112.33203125 318.76953125 C-108.46170229 322.47130317 -104.16618608 325.52511144 -99.83105469 328.65576172 C-96.25080028 331.28414582 -92.75399925 334.02127455 -89.25 336.75 C-88.48284668 337.34683594 -87.71569336 337.94367188 -86.92529297 338.55859375 C-81.15029004 343.06732902 -75.4495285 347.66144604 -69.77856445 352.30004883 C-65.3727783 355.9001613 -60.92266519 359.43688327 -56.4375 362.9375 C-51.85540028 366.51427146 -47.36232821 370.15699657 -43 374 C-43.30128441 377.32571637 -43.72498442 378.72192869 -46.109375 381.1328125 C-47.41648438 382.11894531 -47.41648438 382.11894531 -48.75 383.125 C-49.61109375 383.78757812 -50.4721875 384.45015625 -51.359375 385.1328125 C-52.23078125 385.74898438 -53.1021875 386.36515625 -54 387 C-54.83015625 387.59554688 -55.6603125 388.19109375 -56.515625 388.8046875 C-59 390 -59 390 -61.47265625 389.9296875 C-64.61239946 388.77472786 -66.79705468 387.18315571 -69.4375 385.125 C-70.2102124 384.52824463 -70.2102124 384.52824463 -70.99853516 383.91943359 C-72.67302068 382.62207089 -74.33681473 381.3118081 -76 380 C-77.13377397 379.11414722 -78.26789105 378.22873341 -79.40234375 377.34375 C-82.34804172 375.04066647 -85.28412309 372.72562746 -88.21777344 370.40722656 C-91.14079887 368.09923771 -94.07072644 365.80004953 -97 363.5 C-98.16148087 362.58726826 -99.32293916 361.67450779 -100.484375 360.76171875 C-102.86884396 358.88811228 -105.25438395 357.01588018 -107.640625 355.14453125 C-110.57021707 352.84676558 -113.49704127 350.54551831 -116.421875 348.24169922 C-117.86273707 347.10800113 -119.30623176 345.97765099 -120.75 344.84765625 C-123.18849683 342.92352984 -125.60053593 340.9725413 -128 339 C-128.85464844 338.30519531 -129.70929688 337.61039062 -130.58984375 336.89453125 C-140.89949911 328.13520001 -148.71676538 316.00528876 -150.31241512 302.3206625 C-151.25458654 289.50133972 -151.13599261 276.67345597 -151.11606562 263.82609165 C-151.11170218 260.29053503 -151.11321168 256.75497995 -151.1139679 253.21942139 C-151.11448943 247.11041891 -151.11138155 241.00142721 -151.10573006 234.89242744 C-151.09756456 226.06009984 -151.09499469 217.22777738 -151.09374207 208.39544641 C-151.09155944 194.0617237 -151.08492086 179.72800672 -151.07543945 165.39428711 C-151.06624485 151.47957386 -151.05917406 137.56486217 -151.05493164 123.65014648 C-151.05466892 122.79084561 -151.05440619 121.93154475 -151.05413551 121.04620446 C-151.05283037 116.73486739 -151.05156668 112.42353031 -151.05032361 108.11219323 C-151.0399756 72.40812474 -151.02237888 36.7040629 -151 1 C-147.1640625 2.6953125 -147.1640625 2.6953125 -145.6875 5.4375 C-143.43672535 8.85534298 -140.86258974 10.05063946 -137 11 C-130.40882175 11.56214566 -123.99323911 10.520877 -117.5 9.5 C-90.12907609 5.52255435 -90.12907609 5.52255435 -78.1875 12.6875 C-74.01663157 17.09670377 -72.8384741 22.02056124 -72.5625 28 C-72.76611969 33.7633225 -74.45938246 38.33031365 -78.4609375 42.53515625 C-84.20815193 47.53844191 -88.49054834 48.46287704 -95.96875 48.30859375 C-103.39897176 47.55216653 -108.01055826 43.4336348 -113.140625 38.29296875 C-114.9344164 36.73511949 -114.9344164 36.73511949 -117.234375 37.30078125 C-118.10835937 37.64689453 -118.10835937 37.64689453 -119 38 C-119.79773179 45.33913251 -117.26311174 50.80714609 -112.76269531 56.58984375 C-101.07202494 70.65505226 -84.58389109 83.35536935 -66 86 C-50.92693628 87.22365736 -38.98677774 84.8756023 -26.875 75.32421875 C-9.0119974 59.03120661 -4.60414079 31.54657324 -2.68286133 8.64746094 C-2.35568533 5.00956551 -2.06955719 3.10433578 0 0 Z " fill="#103354" transform="translate(151,0)"/>
<path d="M0 0 C5.45685371 1.02414147 10.50024302 2.87895562 15.72265625 4.74609375 C28.50741375 8.76368011 42.2330549 8.81091501 55.5078125 9.60180664 C76.80398542 10.88920883 101.38324167 12.53335006 117 29 C117.639375 28.29875 118.27875 27.5975 118.9375 26.875 C135.7432591 10.39511434 161.14898106 10.36412542 183.21652222 9.17544556 C198.38724573 8.35794366 213.07881967 7.24642811 227.0546875 0.734375 C229 0 229 0 233 0 C233.07014214 23.42673955 233.1230137 46.85346331 233.15543652 70.28028679 C233.17089244 81.15824778 233.19195763 92.03614344 233.22631836 102.9140625 C233.25625969 112.39742551 233.27558426 121.8807412 233.28226548 131.36415017 C233.28616971 136.38357218 233.29531869 141.40285884 233.31719017 146.4222374 C233.3376301 151.15162907 233.34381866 155.88083027 233.33932304 160.61026192 C233.34014489 162.34118372 233.34606566 164.07211223 233.35761642 165.80299568 C233.49002819 186.67786719 233.49002819 186.67786719 227.3125 195.6875 C226.87550781 196.35136719 226.43851563 197.01523437 225.98828125 197.69921875 C220.6363623 203.89230374 213.91522671 208.67073556 207.3125 213.4375 C200.30998842 218.54280663 193.37909573 223.72961711 186.5 229 C177.52256801 235.8685894 168.45663007 242.60650686 159.33837891 249.28662109 C156.19860326 251.58720007 153.06154289 253.89144378 149.92651367 256.19848633 C148.36150166 257.3497391 146.79527376 258.49934098 145.2277832 259.6472168 C140.94183908 262.79463057 136.70189214 265.99102896 132.5 269.25 C131.5917749 269.94875244 130.6835498 270.64750488 129.74780273 271.36743164 C127.98908986 272.72320276 126.23823457 274.08924294 124.49633789 275.46655273 C123.70477295 276.07442627 122.91320801 276.6822998 122.09765625 277.30859375 C121.05363647 278.12541626 121.05363647 278.12541626 119.98852539 278.95874023 C118 280 118 280 115.98632812 279.83496094 C113.76013309 278.89917099 112.0516617 277.78465344 110.12109375 276.33203125 C109.3748877 275.77596191 108.62868164 275.21989258 107.85986328 274.64697266 C107.0604834 274.04159668 106.26110352 273.4362207 105.4375 272.8125 C103.71501251 271.52451386 101.99235155 270.23675969 100.26953125 268.94921875 C99.39119629 268.28970215 98.51286133 267.63018555 97.60791016 266.95068359 C94.40229161 264.55292173 91.17400576 262.1871966 87.94360352 259.82299805 C79.49620244 253.63665768 71.15091414 247.32494345 62.83642578 240.96142578 C57.10138914 236.57954064 51.32228659 232.26512801 45.5 228 C38.56095831 222.91058776 31.66780267 217.7642381 24.8125 212.5625 C23.95140625 211.91216797 23.0903125 211.26183594 22.203125 210.59179688 C12.25810893 203.02020014 3.63347638 196.42130856 0 184 C-0.26154043 181.26659832 -0.39510724 178.77475758 -0.36076355 176.0526123 C-0.36332682 175.29440327 -0.3658901 174.53619424 -0.36853105 173.75500917 C-0.37343765 171.23684089 -0.35702843 168.71928409 -0.34057617 166.20117188 C-0.33972922 164.38720718 -0.34020637 162.57324145 -0.34190369 160.75927734 C-0.34276241 155.85072593 -0.32515653 150.94239564 -0.30418181 146.03389549 C-0.28539453 140.89830021 -0.28366295 135.76269954 -0.28010559 130.6270752 C-0.27079116 120.90915145 -0.24618549 111.19132926 -0.21605712 101.47345018 C-0.1824944 90.40698409 -0.16602239 79.34051309 -0.15097082 68.27400875 C-0.11963543 45.51594958 -0.06688661 22.75798049 0 0 Z " fill="#FCFCFB" transform="translate(56,104)"/>
<path d="M0 0 C8.415 1.98 8.415 1.98 17 4 C25.5689092 5.50749328 33.70073977 6.08361417 42.37719727 6.28491211 C64.95849865 6.81880717 88.14937033 8.62844712 105.27734375 24.984375 C107 27 107 27 108 30 C108.61875 29.34 109.2375 28.68 109.875 28 C125.33890163 12.75267963 144.78356005 7.17015194 166.16699219 6.70947266 C176.91752662 6.47635127 187.58186952 6.08695332 198.25 4.625 C199.09828369 4.5110791 199.94656738 4.3971582 200.82055664 4.27978516 C206.0069013 3.50403435 210.87910189 2.23127455 215.86230469 0.59912109 C218 0 218 0 221 0 C221 11.22 221 22.44 221 34 C209.76248217 38.49500713 209.76248217 38.49500713 205.51171875 39.4921875 C204.5690918 39.71914307 203.62646484 39.94609863 202.65527344 40.17993164 C201.6759082 40.4093042 200.69654297 40.63867676 199.6875 40.875 C191.82185504 42.77576289 184.01677564 44.79069066 176.25 47.0625 C169.53130722 49.02330393 162.79930555 50.83995997 156 52.5 C149.43141151 54.10531481 142.92692983 55.85040424 136.4375 57.75 C126.08138939 60.77520078 115.63845136 63.4296207 105.18414307 66.08914185 C95.5386956 68.54526854 85.94077424 71.09854954 76.38818359 73.89794922 C66.87034474 76.6639324 57.23880674 78.97435708 47.61767578 81.34912109 C39.60330506 83.34187546 31.64492445 85.5242931 23.70703125 87.80078125 C22.58288818 88.12119385 21.45874512 88.44160645 20.30053711 88.77172852 C18.05355618 89.41342566 15.80820333 90.06085727 13.56469727 90.71459961 C12.53014404 91.00987549 11.49559082 91.30515137 10.4296875 91.609375 C9.50397949 91.87717773 8.57827148 92.14498047 7.62451172 92.42089844 C5 93 5 93 0 93 C0 62.31 0 31.62 0 0 Z " fill="#95793D" transform="translate(62,114)"/>
<path d="M0 0 C0.04643744 10.03175134 0.08192707 20.0634769 0.10362434 30.09531403 C0.11404042 34.75401113 0.12815975 39.41263443 0.15087891 44.07128906 C0.17268504 48.57112855 0.18458498 53.07089725 0.18975449 57.57078552 C0.19343632 59.28349419 0.20062592 60.9961992 0.21146011 62.70887756 C0.22607848 65.11654896 0.22797365 67.52393165 0.22705078 69.93164062 C0.23424133 70.63223602 0.24143188 71.33283142 0.24884033 72.05465698 C0.20629122 82.38193527 -3.14181645 89.85347102 -10.171875 97.30078125 C-17.97324909 104.70239549 -26.75793963 110.84048492 -35.44873047 117.13818359 C-39.66522533 120.21521611 -43.83120051 123.35882202 -48 126.5 C-56.99487984 133.26540239 -66.04512893 139.95351501 -75.11914062 146.61230469 C-76.45663551 147.59910647 -77.76547266 148.62526954 -79.05273438 149.67675781 C-81 151 -81 151 -84 151 C-84.04667433 134.21503997 -84.08196638 117.43010013 -84.10362434 100.6450901 C-84.11394679 92.85191303 -84.12802555 85.05877623 -84.15087891 77.265625 C-84.17078323 70.47489247 -84.18370939 63.6841891 -84.18817699 56.89342821 C-84.19078941 53.29616016 -84.19694965 49.69897553 -84.21146011 46.10173416 C-84.22750907 42.09073399 -84.2279816 38.07987981 -84.22705078 34.06884766 C-84.23424133 32.86979294 -84.24143188 31.67073822 -84.24884033 30.43534851 C-84.246091 29.34717331 -84.24334167 28.25899811 -84.24050903 27.1378479 C-84.24235262 26.18840113 -84.24419621 25.23895435 -84.24609566 24.26073647 C-84 22 -84 22 -82 20 C-79.43611327 19.29618796 -76.90791171 18.68444406 -74.3125 18.125 C-72.74571042 17.77122469 -71.17930889 17.4157268 -69.61328125 17.05859375 C-68.82904785 16.88054199 -68.04481445 16.70249023 -67.23681641 16.51904297 C-57.30468453 14.21433741 -47.50384775 11.31072484 -37.6875 8.5625 C-36.61322754 8.26230957 -35.53895508 7.96211914 -34.43212891 7.65283203 C-29.49347182 6.27030713 -24.55909027 4.87701773 -19.63671875 3.4375 C-18.82565674 3.20345459 -18.01459473 2.96940918 -17.17895508 2.72827148 C-15.69869971 2.30052364 -14.22045403 1.8657236 -12.74487305 1.42211914 C-8.37005686 0.16721941 -4.52952334 -0.07347186 0 0 Z " fill="#95793D" transform="translate(283,203)"/>
<path d="M0 0 C0 37.62 0 75.24 0 114 C-0.99 114.495 -0.99 114.495 -2 115 C-3.16276042 114.14322917 -4.32552083 113.28645833 -5.48828125 112.4296875 C-6.2477002 111.87015381 -7.00711914 111.31062012 -7.78955078 110.73413086 C-9.4951012 109.47733132 -11.20050087 108.22032717 -12.90576172 106.96313477 C-17.23193056 103.77411899 -21.55997959 100.5877709 -25.89453125 97.41015625 C-36.36086112 89.73147653 -46.73133391 81.94113515 -57 74 C-57.66499512 73.48743652 -58.32999023 72.97487305 -59.01513672 72.44677734 C-60.93016457 70.96884976 -62.84088045 69.48554875 -64.75 68 C-65.31050049 67.56727783 -65.87100098 67.13455566 -66.44848633 66.6887207 C-71.00399057 63.12266614 -75.25251567 59.3038823 -78.6875 54.625 C-79.08324219 54.10164063 -79.47898437 53.57828125 -79.88671875 53.0390625 C-83.56326765 46.30517294 -83.24570343 39.54147008 -83.125 32.0625 C-83.11597656 30.99708984 -83.10695312 29.93167969 -83.09765625 28.83398438 C-83.07423414 26.22241966 -83.04143452 23.61133063 -83 21 C-77.26992123 19.04241083 -71.52599803 17.23003729 -65.6875 15.625 C-64.91897705 15.41222412 -64.1504541 15.19944824 -63.35864258 14.98022461 C-57.65639857 13.41680811 -51.92932578 11.97249506 -46.1875 10.5625 C-39.05956055 8.81192498 -31.99048664 6.90666246 -24.9375 4.875 C-24.05416992 4.62105469 -23.17083984 4.36710938 -22.26074219 4.10546875 C-18.62756894 3.05757058 -14.99833331 1.99950251 -11.375 0.91796875 C-10.405625 0.63566406 -9.43625 0.35335937 -8.4375 0.0625 C-7.65246094 -0.17339844 -6.86742187 -0.40929687 -6.05859375 -0.65234375 C-4 -1 -4 -1 0 0 Z " fill="#967A3F" transform="translate(145,240)"/>
<path d="M0 0 C4.8009145 4.44962807 5.77570676 8.20234078 6.0625 14.625 C5.86785952 22.04672615 3.88124855 27.65421777 -1.08203125 33.21875 C-7.52529578 39.152953 -14.02038503 40.96490816 -22.6875 40.7265625 C-26.36688997 40.25618594 -28.10373124 39.25331481 -30.4375 36.375 C-33.74245366 29.76509269 -33.56725566 20.97267651 -31.8203125 13.86328125 C-28.89533805 7.27561756 -23.1690641 2.94312013 -17.0625 -0.5625 C-10.98826755 -2.34287848 -5.79763982 -2.74070246 0 0 Z " fill="#2A2626" transform="translate(154.4375,193.625)"/>
<path d="M0 0 C1.56427734 -0.03867188 1.56427734 -0.03867188 3.16015625 -0.078125 C5.9375 0.25 5.9375 0.25 7.77734375 1.5 C9.98947699 4.83682051 9.6456797 8.42456499 8.9375 12.25 C7.52032276 14.95149411 5.93433551 16.90371827 3.9375 19.25 C4.4428125 20.14203125 4.948125 21.0340625 5.46875 21.953125 C6.12544226 23.13517107 6.78166789 24.31747647 7.4375 25.5 C7.77136719 26.08652344 8.10523437 26.67304688 8.44921875 27.27734375 C10.29826806 30.63582107 10.9375 32.31645784 10.9375 36.25 C6.4825 36.745 6.4825 36.745 1.9375 37.25 C-0.0425 33.29 -2.0225 29.33 -4.0625 25.25 C-6.0425 25.25 -8.0225 25.25 -10.0625 25.25 C-10.0625 30.53 -10.0625 35.81 -10.0625 41.25 C-14.0625 43.25 -14.0625 43.25 -18.0625 42.25 C-18.0625 29.71 -18.0625 17.17 -18.0625 4.25 C-11.50263374 1.79005015 -6.82199212 0.10144226 0 0 Z " fill="#2A2626" transform="translate(109.0625,202.75)"/>
<path d="M0 0 C0.04254356 1.99954746 0.04080783 4.00041636 0 6 C-1.58430963 7.58430963 -3.36852674 7.15621183 -5.5625 7.25 C-11.98773906 7.86498717 -16.28201191 10.0296273 -20.640625 14.79296875 C-23.29542483 18.44696522 -24.3508446 21.21141457 -24 25.75 C-23.13976058 30.53218691 -23.13976058 30.53218691 -20 34 C-15.76487822 34.53729157 -12.05093459 34.35031153 -8 33 C-7.67 30.03 -7.34 27.06 -7 24 C-7.66 24.33 -8.32 24.66 -9 25 C-10.99960012 25.039992 -13.00047242 25.04346799 -15 25 C-15 23.02 -15 21.04 -15 19 C-12.89748139 18.32815382 -10.79292237 17.66269032 -8.6875 17 C-7.51574219 16.62875 -6.34398437 16.2575 -5.13671875 15.875 C-2 15 -2 15 1 15 C1 22.26 1 29.52 1 37 C-15.16471427 43.77875115 -15.16471427 43.77875115 -24 43 C-28.19633986 41.26672919 -30.48747363 38.74557319 -33 35 C-34.30616596 27.11796402 -33.78735076 19.12608844 -29.6796875 12.15234375 C-21.79225722 2.04542727 -12.2864046 -0.60980317 0 0 Z " fill="#2C2828" transform="translate(253,165)"/>
<path d="M0 0 C1.04027344 -0.03738281 2.08054687 -0.07476562 3.15234375 -0.11328125 C6.0625 0.3125 6.0625 0.3125 8.41015625 2.0625 C10.72118892 5.20943811 10.63240241 7.20831108 10.4453125 11 C9.60014058 16.10552836 7.26758272 19.32165421 3.25 22.625 C-0.18202202 24.44195283 -3.17636133 25.40982672 -6.9375 26.3125 C-6.96328125 27.20453125 -6.9890625 28.0965625 -7.015625 29.015625 C-7.07234375 30.18609375 -7.1290625 31.3565625 -7.1875 32.5625 C-7.25710937 34.30273438 -7.25710937 34.30273438 -7.328125 36.078125 C-8.03941806 39.85344969 -8.80236434 41.12871585 -11.9375 43.3125 C-13.5875 43.3125 -15.2375 43.3125 -16.9375 43.3125 C-16.9375 30.4425 -16.9375 17.5725 -16.9375 4.3125 C-5.8007967 0.13623626 -5.8007967 0.13623626 0 0 Z " fill="#2D2829" transform="translate(78.9375,210.6875)"/>
<path d="M0 0 C0 1.98 0 3.96 0 6 C-4.62440425 8.07626313 -9.1008651 9.70022952 -14 11 C-14.33 13.31 -14.66 15.62 -15 18 C-14.40832031 17.855625 -13.81664062 17.71125 -13.20703125 17.5625 C-9.07470059 16.59177306 -5.2770238 15.72406298 -1 16 C-0.6875 18.3125 -0.6875 18.3125 -1 21 C-4.74627376 24.04384743 -9.49560164 25.39673957 -14 27 C-14.33 29.97 -14.66 32.94 -15 36 C-13.63875 35.505 -12.2775 35.01 -10.875 34.5 C-7.1171619 33.23551419 -3.99788492 32.69247039 0 33 C0.3125 35.3125 0.3125 35.3125 0 38 C-3.81917612 40.84980508 -8.01162884 42.06865291 -12.5625 43.25 C-13.22185547 43.435625 -13.88121094 43.62125 -14.56054688 43.8125 C-18.3270417 44.81185139 -20.11599719 44.9710007 -24 44 C-24 31.46 -24 18.92 -24 6 C-18.85386339 4.07019877 -14.44074262 2.49027326 -9.1875 1.3125 C-8.08792969 1.06113281 -6.98835938 0.80976563 -5.85546875 0.55078125 C-3 0 -3 0 0 0 Z " fill="#2F2A2B" transform="translate(283,156)"/>
<path d="M0 0 C0 2.3125 0 2.3125 -1 5 C-3.52734619 6.43558089 -6.21941303 7.18962857 -9 8 C-10.155 8.391875 -11.31 8.78375 -12.5 9.1875 C-13.325 9.455625 -14.15 9.72375 -15 10 C-15.33 12.64 -15.66 15.28 -16 18 C-15.40832031 17.7834375 -14.81664062 17.566875 -14.20703125 17.34375 C-6.35852373 14.57820738 -6.35852373 14.57820738 -2 15 C-2 16.98 -2 18.96 -2 21 C-3.9570868 21.67031719 -5.91571113 22.33614683 -7.875 23 C-8.96554688 23.37125 -10.05609375 23.7425 -11.1796875 24.125 C-14 25 -14 25 -16 25 C-16 28.3 -16 31.6 -16 35 C-15.09636719 34.71125 -14.19273437 34.4225 -13.26171875 34.125 C-12.08222656 33.75375 -10.90273437 33.3825 -9.6875 33 C-8.51574219 32.62875 -7.34398437 32.2575 -6.13671875 31.875 C-3 31 -3 31 0 31 C0 32.98 0 34.96 0 37 C-16.38071066 44 -16.38071066 44 -24 44 C-24 31.13 -24 18.26 -24 5 C-19.16950504 2.92978788 -15.30403918 1.4078008 -10.3125 0.25 C-9.21550781 -0.01296875 -8.11851562 -0.2759375 -6.98828125 -0.546875 C-4.18929461 -0.9712965 -2.62503021 -0.94526635 0 0 Z " fill="#2B2627" transform="translate(217,175)"/>
<path d="M0 0 C0 1.98 0 3.96 0 6 C-4.95 7.485 -4.95 7.485 -10 9 C-10.33 19.89 -10.66 30.78 -11 42 C-15.455 42.495 -15.455 42.495 -20 43 C-20 32.77 -20 22.54 -20 12 C-23.63 12.66 -27.26 13.32 -31 14 C-31 12.02 -31 10.04 -31 8 C-25.39588355 5.39290081 -19.80999855 3.7711128 -13.8125 2.3125 C-12.92369141 2.08755859 -12.03488281 1.86261719 -11.11914062 1.63085938 C-7.2284622 0.66915148 -4.04488677 0 0 0 Z " fill="#302A2A" transform="translate(191,181)"/>
<path d="M0 0 C2.57285724 2.172635 4.48996919 3.97993838 6 7 C6.17406722 14.38542364 4.90562478 20.34293559 0 26 C-3.09780948 28.06520632 -3.9540481 28.29477024 -7.5 28.3125 C-8.66015625 28.33763672 -8.66015625 28.33763672 -9.84375 28.36328125 C-12.52867986 27.91092894 -13.35878405 27.13658295 -15 25 C-17.05388439 18.83834684 -16.48496817 12.68549535 -13.9921875 6.7265625 C-10.87316317 1.29896898 -5.95779931 -0.70091757 0 0 Z " fill="#FCFCFB" transform="translate(146,199)"/>
<path d="M0 0 C1 1 1 1 1.25 4.375 C1 8 1 8 -0.125 9.875 C-2.70351319 11.42210791 -5.02743012 11.74151566 -8 12 C-9 11 -9 11 -9.09765625 8.71484375 C-9.08605469 7.79832031 -9.07445313 6.88179687 -9.0625 5.9375 C-9.05347656 5.01839844 -9.04445313 4.09929687 -9.03515625 3.15234375 C-9.02355469 2.44207031 -9.01195313 1.73179687 -9 1 C-6.01787087 -0.49106457 -3.28390342 -0.11941467 0 0 Z " fill="#F1F0F0" transform="translate(79,218)"/>
<path d="M0 0 C2.01822917 0.06510417 4.03645833 0.13020833 6.0546875 0.1953125 C6.8671875 2.3828125 6.8671875 2.3828125 7.0546875 5.1953125 C4.50629702 8.59316648 2.89204313 9.98992338 -1.2578125 11.0078125 C-2.1446875 11.0696875 -3.0315625 11.1315625 -3.9453125 11.1953125 C-3.99930986 9.73738366 -4.03810427 8.27888538 -4.0703125 6.8203125 C-4.10511719 5.60214844 -4.10511719 5.60214844 -4.140625 4.359375 C-3.87619321 1.42947081 -2.98113708 0.29931095 0 0 Z " fill="#F7F6F6" transform="translate(102.9453125,209.8046875)"/>
<path d="M0 0 C3.14737182 0.69941596 6.02588876 1.76078698 9 3 C5.5647952 5.29013653 4.014669 5.17842973 0 5 C0 3.35 0 1.7 0 0 Z " fill="#EDF0F4" transform="translate(183,21)"/>
</svg>
