<?xml version="1.0" encoding="UTF-8"?>
<svg version="1.1" xmlns="http://www.w3.org/2000/svg" width="625" height="346">
<path d="M0 0 C1.36125 0.8971875 1.36125 0.8971875 2.75 1.8125 C9.93115552 8.79417897 13.34373427 17.09360843 14.4375 26.9375 C14 30 14 30 12.59375 31.66796875 C8.5309941 33.75441418 4.56043394 33.43312119 0.0625 33.375 C-1.27844727 33.39240234 -1.27844727 33.39240234 -2.64648438 33.41015625 C-7.50357708 33.38852109 -11.19087572 33.35408439 -15 30 C-16.40625 27.66015625 -16.40625 27.66015625 -17.5 25.0625 C-20.18053102 19.35288593 -23.03606319 16.72078059 -28.8125 14.25 C-34.87175843 12.19620641 -39.79555118 12.29358317 -45.6875 14.625 C-50.09151999 16.80799437 -52.44457643 18.76757971 -55 23 C-56.28725816 27.48126746 -56.37845157 30.88567037 -54.875 35.3125 C-50.61687537 41.41581196 -45.63331139 43.0087484 -38.74609375 44.8046875 C-37.84939468 45.05115021 -36.95269562 45.29761292 -36.02882385 45.55154419 C-32.21571102 46.59929206 -28.39526077 47.6189981 -24.57495117 48.64013672 C6.83135686 57.08475765 6.83135686 57.08475765 14.2734375 69.046875 C19.355137 78.63362725 19.26916164 89.49679522 16.375 99.8125 C12.66804172 110.54588792 5.82166813 117.49030118 -4.234375 122.6640625 C-25.41287097 132.21791735 -48.2678785 132.85898388 -70.09375 124.8671875 C-79.40452605 120.63246707 -84.40735122 113.831848 -89.6171875 105.2578125 C-90.81107889 103.11102491 -90.81107889 103.11102491 -92 102 C-92.08631874 100.65732587 -92.10706473 99.31025678 -92.09765625 97.96484375 C-92.09443359 97.15595703 -92.09121094 96.34707031 -92.08789062 95.51367188 C-92.07951172 94.66353516 -92.07113281 93.81339844 -92.0625 92.9375 C-92.05798828 92.08349609 -92.05347656 91.22949219 -92.04882812 90.34960938 C-92.03700373 88.23304337 -92.01906769 86.11651315 -92 84 C-70.4796009 81.89678473 -70.4796009 81.89678473 -64 85 C-60.54414365 88.15092785 -59.61724751 91.14316686 -58.5625 95.5625 C-57.65968117 99.17377531 -57.22368564 100.75213213 -54.6875 103.5625 C-45.95249815 108.23471029 -35.92107089 108.31491151 -26.4375 105.8125 C-20.74524198 103.80621234 -18.00524224 100.84294411 -15.125 95.5625 C-13.88355568 91.63125966 -13.6786374 89.88150265 -15 86 C-18.96858142 79.05498251 -25.61375611 77.15655494 -33 75 C-37.18791755 73.89268916 -41.3993372 72.884638 -45.61108398 71.87255859 C-59.89642745 68.38846095 -74.21083372 63.48248616 -83 51 C-88.057247 42.51986021 -88.77652983 34.85022768 -88 25 C-85.09603526 13.71516292 -77.50405974 4.11465891 -67.5078125 -1.8046875 C-46.57996302 -11.7796438 -19.56880572 -13.52815775 0 0 Z " fill="#193F71" transform="translate(92,216)"/>
<path d="M0 0 C1.31387695 0.0009668 1.31387695 0.0009668 2.65429688 0.00195312 C4.01458008 0.02612305 4.01458008 0.02612305 5.40234375 0.05078125 C6.31306641 0.04755859 7.22378906 0.04433594 8.16210938 0.04101562 C14.93884482 0.09594863 14.93884482 0.09594863 18.33984375 2.36328125 C19.49174841 5.81899522 19.45991468 8.48377151 19.45336914 12.12963867 C19.45351517 12.81282669 19.45366119 13.49601471 19.45381165 14.1999054 C19.45311544 16.45621932 19.44533671 18.71245051 19.4375 20.96875 C19.43563478 22.53387914 19.43421137 24.09900886 19.43321228 25.66413879 C19.42939527 29.78231418 19.41957193 33.90045427 19.4085083 38.01861572 C19.39827666 42.22139 19.3937109 46.42416998 19.38867188 50.62695312 C19.37794894 58.87241203 19.36088229 67.11784225 19.33984375 75.36328125 C19.99984375 75.36328125 20.65984375 75.36328125 21.33984375 75.36328125 C21.61151367 74.79125977 21.88318359 74.21923828 22.16308594 73.62988281 C23.36052961 71.32343737 24.69986653 69.24114272 26.16796875 67.09765625 C26.72097656 66.28941406 27.27398438 65.48117187 27.84375 64.6484375 C28.70806641 63.39353516 28.70806641 63.39353516 29.58984375 62.11328125 C30.15058594 61.29214844 30.71132813 60.47101563 31.2890625 59.625 C43.36987372 42.01993793 43.36987372 42.01993793 51.33984375 39.36328125 C59.98294394 38.83474635 68.72373189 39.7121311 77.33984375 40.36328125 C75.08348729 44.30826577 72.50162954 47.90834993 69.71484375 51.48828125 C69.05887207 52.3376123 69.05887207 52.3376123 68.38964844 53.20410156 C65.52291021 56.89758478 62.57824854 60.51706532 59.58984375 64.11328125 C52.51442754 72.214452 52.51442754 72.214452 48.71484375 81.98828125 C50.09358182 89.43346682 55.66212127 95.93275334 59.83984375 102.11328125 C64.71150038 109.37562243 69.52292451 116.67084267 74.21484375 124.05078125 C74.73240234 124.85805664 75.24996094 125.66533203 75.78320312 126.49707031 C76.25306641 127.24053711 76.72292969 127.98400391 77.20703125 128.75 C77.62065918 129.40186279 78.03428711 130.05372559 78.46044922 130.7253418 C79.33984375 132.36328125 79.33984375 132.36328125 79.33984375 134.36328125 C74.75032345 134.58668526 70.16399556 134.74946054 65.5703125 134.85766602 C64.01018133 134.90278175 62.45042778 134.96409844 60.89160156 135.04223633 C48.01345575 135.67134115 48.01345575 135.67134115 44.11328125 132.62304688 C42.51634041 130.27041082 41.42115099 127.98971294 40.33984375 125.36328125 C39.54702624 123.92551681 38.74005056 122.49545331 37.91796875 121.07421875 C36.76167189 118.93506957 35.61729198 116.7901816 34.48046875 114.640625 C30.27775376 106.88495688 25.28798871 99.65522085 20.33984375 92.36328125 C20.32526123 93.4934668 20.31067871 94.62365234 20.2956543 95.78808594 C20.2376369 99.98534624 20.16040438 104.18207198 20.07739258 108.37890625 C20.04415939 110.19457314 20.01612241 112.01034293 19.9934082 113.82617188 C19.95983234 116.43794567 19.90751613 119.04877779 19.8515625 121.66015625 C19.84197762 122.87599396 19.84197762 122.87599396 19.8321991 124.11639404 C19.74719339 127.38229139 19.57041176 129.9169866 18.05786133 132.84472656 C14.86671626 135.66537774 11.74203723 135.48505143 7.64453125 135.27734375 C6.32388672 135.21160156 6.32388672 135.21160156 4.9765625 135.14453125 C4.06519531 135.09296875 3.15382813 135.04140625 2.21484375 134.98828125 C0.83619141 134.92253906 0.83619141 134.92253906 -0.5703125 134.85546875 C-7.39761007 134.49455434 -7.39761007 134.49455434 -9.66015625 133.36328125 C-9.83758045 117.29942434 -10.00323679 101.23549571 -10.15493202 85.17137718 C-10.22564224 77.71232674 -10.3001849 70.25335157 -10.38378906 62.79443359 C-10.45665904 56.29231707 -10.52229824 49.79017436 -10.57930028 43.28789866 C-10.60972639 39.84583473 -10.64374196 36.40389166 -10.68642044 32.96195602 C-10.73395903 29.11712574 -10.76535228 25.27225472 -10.79541016 21.42724609 C-10.81195145 20.28932617 -10.82849274 19.15140625 -10.84553528 17.97900391 C-10.89852326 8.14245558 -10.89852326 8.14245558 -8.66015625 3.36328125 C-5.89315089 0.56827797 -3.87788308 -0.01448871 0 0 Z " fill="#193F71" transform="translate(545.66015625,208.63671875)"/>
<path d="M0 0 C8.78507682 7.32376267 13.42585733 16.27239053 15.6875 27.375 C16.85735964 40.94537178 16.85735964 40.94537178 14 47 C12.29655924 48.70344076 10.09248198 48.15994619 7.76171875 48.18945312 C6.64385986 48.20617065 5.52600098 48.22288818 4.37426758 48.2401123 C3.15763428 48.25368774 1.94100098 48.26726318 0.6875 48.28125 C-0.55169189 48.29965942 -1.79088379 48.31806885 -3.06762695 48.33703613 C-7.72173177 48.40604335 -12.37592062 48.46631345 -17.03015137 48.52606201 C-21.58268773 48.58497008 -26.13508311 48.65111934 -30.6875 48.71875 C-31.9041333 48.73232544 -33.1207666 48.74590088 -34.37426758 48.7598877 C-35.49212646 48.77660522 -36.60998535 48.79332275 -37.76171875 48.81054688 C-38.75131592 48.82307495 -39.74091309 48.83560303 -40.76049805 48.84851074 C-42.97063387 48.75137655 -42.97063387 48.75137655 -44 50 C-44.66918236 55.99690347 -44.11208211 60.81319648 -41 66 C-36.60915922 69.4029016 -32.06490435 69.50899727 -26.69140625 69.35546875 C-22.55917658 68.80970257 -20.33567722 67.50175792 -17 65 C-16.53207031 64.3296875 -16.06414062 63.659375 -15.58203125 62.96875 C-12.65834825 59.33038893 -8.44537603 58.77608619 -4 58 C8.51935788 57.25967894 8.51935788 57.25967894 12 59 C11.78753826 68.42557542 9.20235123 74.14814382 2.4375 80.6875 C-8.86029697 90.07369254 -22.96994813 91.02549871 -37 90 C-48.4978707 88.53325234 -58.7478943 85.49148873 -66.3125 76.25 C-73.3408741 66.02868033 -75.38551401 54.35650142 -75.3125 42.1875 C-75.30512817 40.7339209 -75.30512817 40.7339209 -75.29760742 39.25097656 C-75.06148733 24.81253582 -71.11829865 12.60840418 -61.1015625 1.97265625 C-45.04259802 -13.10127881 -17.17862208 -12.90668961 0 0 Z M-42 15 C-44.35587359 18.38656829 -45.05042768 20.12592026 -44.8125 24.25 C-44.20436952 27.11414511 -44.20436952 27.11414511 -42 29 C-39.54333602 29.31109158 -39.54333602 29.31109158 -36.6953125 29.265625 C-35.63699219 29.26820313 -34.57867187 29.27078125 -33.48828125 29.2734375 C-32.37839844 29.26570313 -31.26851563 29.25796875 -30.125 29.25 C-29.02285156 29.25773437 -27.92070312 29.26546875 -26.78515625 29.2734375 C-25.19380859 29.26957031 -25.19380859 29.26957031 -23.5703125 29.265625 C-22.59852051 29.26336914 -21.62672852 29.26111328 -20.62548828 29.25878906 C-17.9441162 28.99449165 -16.29691353 28.36742059 -14 27 C-14.43422712 21.57216103 -15.47342864 18.19376054 -19 14 C-26.32307941 8.76922899 -35.13169834 9.67356198 -42 15 Z " fill="#193F71" transform="translate(510,256)"/>
<path d="M0 0 C9.97737775 7.82840408 15.31917587 19.65412365 17 32 C17.84543777 48.1608681 15.98418057 62.86222447 5.3125 75.75 C-3.37448773 84.99217115 -14.89503303 89.4576652 -27.41015625 90.203125 C-42.42884074 90.39587817 -55.78031869 87.78088517 -67.25 77.5 C-78.37659853 65.57210322 -80.62630848 50.63962316 -80.3125 35.03125 C-79.68687355 21.20490535 -74.1386628 10.26514657 -64.1875 0.78515625 C-46.44982267 -13.69005543 -18.29915137 -12.27664586 0 0 Z M-45.1875 16.125 C-51.7130285 26.47583831 -52.2945366 39.62358669 -50.46875 51.4375 C-48.93226001 58.11789128 -47.18237966 63.20336333 -41.9375 67.8125 C-37.00765493 70.83401794 -31.58657943 70.53205518 -26 70 C-21.0492778 68.63809129 -18.67771572 65.91371998 -16.125 61.5625 C-12.61578988 54.88105689 -12.78768203 48.19346782 -12.75 40.8125 C-12.729375 39.82185547 -12.70875 38.83121094 -12.6875 37.81054688 C-12.64623597 29.94459191 -13.29307806 22.34803503 -18.375 16.0625 C-19.24125 15.381875 -20.1075 14.70125 -21 14 C-21.70125 13.401875 -22.4025 12.80375 -23.125 12.1875 C-30.88085612 8.98399421 -39.18292208 10.29198145 -45.1875 16.125 Z " fill="#193F71" transform="translate(204,256)"/>
<path d="M0 0 C2.21477492 3.32216238 2.29667707 4.55033323 2.3125 8.4375 C2.32925781 9.38496094 2.34601563 10.33242187 2.36328125 11.30859375 C1.93784324 14.46049471 1.26582191 15.78464183 -1 18 C-3.0859375 18.6875 -3.0859375 18.6875 -5.375 19 C-9.57434553 19.79760297 -12.02658052 20.76421997 -15 24 C-18.51366532 29.85610887 -18.10490118 34.383905 -17 41 C-16.02417969 41.01417969 -15.04835938 41.02835938 -14.04296875 41.04296875 C-12.77066406 41.09066406 -11.49835938 41.13835937 -10.1875 41.1875 C-8.29064453 41.23970703 -8.29064453 41.23970703 -6.35546875 41.29296875 C-3 42 -3 42 -1.0703125 44.3359375 C1.13273188 49.81942752 0.16379627 54.6541504 -2 60 C-3.71867343 61.71867343 -6.09213219 61.32920599 -8.4375 61.5 C-12.36434915 61.71419183 -12.36434915 61.71419183 -16 63 C-17.07911542 66.23734625 -17.10787675 68.53319115 -17.08178711 71.93676758 C-17.0752562 73.15846146 -17.06872528 74.38015533 -17.06199646 75.63887024 C-17.05338498 76.61752265 -17.05338498 76.61752265 -17.04459953 77.61594582 C-17.02718204 79.66354214 -17.01690076 81.71106008 -17.00868225 83.75871277 C-16.98425769 89.58018412 -16.9487715 95.40155022 -16.90405273 101.22290039 C-16.87718179 104.78601573 -16.86019546 108.34906978 -16.84918404 111.91226768 C-16.83999925 113.92299029 -16.81962437 115.93365177 -16.79905701 117.94429016 C-16.79567825 119.17544052 -16.7922995 120.40659088 -16.78881836 121.67504883 C-16.77763222 123.29362541 -16.77763222 123.29362541 -16.76622009 124.94490051 C-17.02079354 128.2717357 -17.72748808 130.92044187 -19 134 C-25.23506964 138.28661038 -35.0204979 136.01677491 -41.96875 134.73046875 C-44 134 -44 134 -46 131 C-46.25828552 128.15380859 -46.25828552 128.15380859 -46.27124023 124.6484375 C-46.28142685 123.33697754 -46.29161346 122.02551758 -46.30210876 120.67431641 C-46.30304976 119.97381165 -46.30399075 119.27330688 -46.30496025 118.55157471 C-46.30862279 116.35760543 -46.32534457 114.16408863 -46.34571838 111.97021484 C-46.40114935 105.7334839 -46.43184788 99.49668683 -46.45629883 93.25976562 C-46.47216137 89.44362346 -46.50236367 85.62780386 -46.54106331 81.81182861 C-46.55272259 80.35739563 -46.55864374 78.902905 -46.55874443 77.44842529 C-46.55893617 75.4160926 -46.57869558 73.38379009 -46.59936523 71.3515625 C-46.60443588 70.19479004 -46.60950653 69.03801758 -46.61473083 67.84619141 C-46.76668657 65.00033368 -46.76668657 65.00033368 -48.38587952 63.1328125 C-50.49562931 61.65216037 -52.06791037 61.53325636 -54.625 61.375 C-58.91666667 61.08333333 -58.91666667 61.08333333 -60 60 C-60.09986975 57.15664952 -60.13877881 54.34302837 -60.125 51.5 C-60.12886719 50.70207031 -60.13273438 49.90414062 -60.13671875 49.08203125 C-60.12660767 43.12660767 -60.12660767 43.12660767 -59 42 C-56.45030614 41.79764334 -53.90307036 41.68084754 -51.34765625 41.57421875 C-48.87449808 41.2575795 -48.87449808 41.2575795 -47.87963867 39.22192383 C-46.98790208 36.96944124 -46.69915791 35.28233345 -46.578125 32.875 C-45.86601025 22.20425128 -45.16150163 11.79705052 -36.88671875 4.01171875 C-26.25353786 -3.68310473 -12.21753936 -3.80546308 0 0 Z " fill="#193F71" transform="translate(282,208)"/>
<path d="M0 0 C1.38618262 4.85840104 0.98256697 9.71324946 0.78515625 14.71289062 C0.69622747 19.30889141 0.9474583 22.29737998 4 26 C8.76839641 28.00272649 13.01244475 28.15421991 18.08203125 27.875 C20 28 20 28 22 30 C22.19849071 32.54535141 22.27851775 34.95716759 22.25 37.5 C22.26160156 38.53447266 22.26160156 38.53447266 22.2734375 39.58984375 C22.25333293 44.74666707 22.25333293 44.74666707 20 47 C16.82106212 47.29100358 13.68713736 47.41515621 10.49804688 47.47851562 C6.6542937 47.56885251 6.6542937 47.56885251 3.32495117 49.27490234 C-1.52464714 55.58912045 0.97892343 69.19292768 1.18701172 76.8605957 C1.25030311 79.32429907 1.29144666 81.78778377 1.33203125 84.25195312 C1.37104459 85.83076314 1.41136274 87.40954156 1.453125 88.98828125 C1.46265198 89.71856033 1.47217896 90.44883942 1.48199463 91.20124817 C1.64318286 96.0189501 2.52738234 99.52738234 6 103 C9.32947093 103.28538322 12.65897628 103.44892633 15.99609375 103.62109375 C19 104 19 104 21 106 C21.265625 108.93359375 21.265625 108.93359375 21.25 112.4375 C21.25773437 114.16806641 21.25773437 114.16806641 21.265625 115.93359375 C21 119 21 119 19 122 C8.90930373 124.66519803 -5.46330329 126.53697016 -15.2578125 122.0390625 C-21.29740839 118.43697168 -24.79901632 114.84750478 -27 108 C-28.32471461 102.09036247 -28.18892706 96.13468332 -28.24609375 90.109375 C-28.27900177 87.768225 -28.31221388 85.42707926 -28.34570312 83.0859375 C-28.39330157 79.40334721 -28.43780944 75.72077781 -28.47680664 72.03808594 C-28.51634355 68.47834381 -28.56789611 64.91893541 -28.62109375 61.359375 C-28.6295079 60.25108337 -28.63792206 59.14279175 -28.64659119 58.00091553 C-28.66323318 56.97935364 -28.67987518 55.95779175 -28.69702148 54.90527344 C-28.70732895 54.00403748 -28.71763641 53.10280151 -28.72825623 52.17425537 C-28.80023046 49.79046671 -28.80023046 49.79046671 -31 48 C-33.27414225 47.87097458 -33.27414225 47.87097458 -35.8125 48.0625 C-40.05497733 48.14219972 -42.72029874 47.96231082 -46 45 C-47.68712571 41.49596967 -47.59684596 36.81555095 -47 33 C-45.89453125 30.29296875 -45.89453125 30.29296875 -44 28 C-40.93359375 27.328125 -40.93359375 27.328125 -37.4375 27.25 C-33.05826503 27.27698029 -33.05826503 27.27698029 -29 26 C-28.72070455 22.50193892 -28.68442683 19.02400413 -28.63671875 15.515625 C-27.81285246 10.96667005 -26.70902866 9.74308693 -23 7 C-19.70332989 5.4662801 -16.33021927 4.31032233 -12.875 3.1875 C-11.96878906 2.87619141 -11.06257813 2.56488281 -10.12890625 2.24414062 C-3.47046703 0 -3.47046703 0 0 0 Z " fill="#193F71" transform="translate(409,222)"/>
<path d="M0 0 C1.52756218 1.52756218 1.1617075 2.95084705 1.2109375 5.078125 C1.23929687 5.90957031 1.26765625 6.74101562 1.296875 7.59765625 C1.34849218 9.35005944 1.39289757 11.10269159 1.4296875 12.85546875 C1.56773874 19.52511262 1.56773874 19.52511262 5 25 C7.69986045 25.46352119 9.86824902 25.65558752 12.5625 25.625 C15.09475966 25.625 17.468399 25.74771995 20 26 C22.38081145 29.57121718 22.26906871 31.26674633 22.25 35.5 C22.25515625 36.6446875 22.2603125 37.789375 22.265625 38.96875 C22 42 22 42 20 45 C15.63540553 46.17098876 11.50878028 45.9756089 7.05078125 45.64453125 C4.90084427 45.82858463 4.90084427 45.82858463 3.39453125 47.45703125 C1.30961605 51.25893544 1.59035264 54.7740164 1.63671875 59.04296875 C1.63622025 59.92600174 1.63572174 60.80903473 1.63520813 61.71882629 C1.63754679 63.5873947 1.64726308 65.45596636 1.66381836 67.32446289 C1.68727221 70.15996086 1.68439469 72.99450865 1.67773438 75.83007812 C1.68331651 77.65104719 1.69042974 79.47201234 1.69921875 81.29296875 C1.69830734 82.13079391 1.69739594 82.96861908 1.69645691 83.83183289 C1.75995069 89.2090818 1.90366485 94.97637602 4 100 C8.28989278 101.42996426 12.56898963 101.38544316 17.06640625 101.62109375 C20 102 20 102 22 104 C22.23046875 106.71484375 22.23046875 106.71484375 22.1875 109.9375 C22.18105469 110.99839844 22.17460937 112.05929687 22.16796875 113.15234375 C22 116 22 116 21 119 C19.14453125 119.6953125 19.14453125 119.6953125 16.8125 120.125 C16.05582031 120.27195312 15.29914063 120.41890625 14.51953125 120.5703125 C13.27236328 120.78300781 13.27236328 120.78300781 12 121 C11.05125 121.17789063 10.1025 121.35578125 9.125 121.5390625 C0.44699885 122.81906767 -9.06036158 123.20732976 -17 119 C-22.85132884 114.44896646 -25.77580839 108.1873903 -27 101 C-27.0903174 99.27311669 -27.13503045 97.54343908 -27.1418457 95.81420898 C-27.14888016 94.80643906 -27.15591461 93.79866913 -27.16316223 92.76036072 C-27.16732651 91.68315262 -27.17149078 90.60594452 -27.17578125 89.49609375 C-27.19896594 87.20637088 -27.2230827 84.91665729 -27.24804688 82.62695312 C-27.28324739 79.0234543 -27.31256378 75.42030079 -27.32592773 71.81665039 C-27.34136229 68.33437737 -27.38152634 64.85310391 -27.42578125 61.37109375 C-27.42387283 60.29186142 -27.42196442 59.21262909 -27.41999817 58.10069275 C-27.43648911 57.09607498 -27.45298004 56.09145721 -27.4699707 55.05639648 C-27.47583694 54.17435043 -27.48170319 53.29230438 -27.48774719 52.38352966 C-28.17096506 49.20449379 -29.4817147 47.99627377 -32 46 C-35.23213604 45.37762556 -35.23213604 45.37762556 -38.6875 45.375 C-40.79449528 45.31406354 -42.90209802 45.20481609 -45 45 C-46.5171199 41.96576019 -46.18439257 38.82495206 -46.1875 35.5 C-46.19974609 34.81035156 -46.21199219 34.12070312 -46.22460938 33.41015625 C-46.22988695 31.60522506 -46.12184458 29.80082158 -46 28 C-42.73914929 24.73914929 -38.51308943 25.59542544 -34.06640625 25.44140625 C-31.08653758 25.20829754 -31.08653758 25.20829754 -29.1171875 23.90234375 C-26.9031364 20.13226373 -27.57048679 15.5111548 -27.50390625 11.25 C-27 8 -27 8 -25.41796875 6.23046875 C-22.28191994 4.63457961 -19.08679834 3.40546072 -15.75 2.3125 C-15.08339355 2.09190918 -14.41678711 1.87131836 -13.72998047 1.64404297 C-8.91619878 0.12470412 -4.99610369 -0.59953244 0 0 Z " fill="#193F71" transform="translate(333,224)"/>
<path d="M0 0 C2.99661827 1.53018805 4.50383607 2.62825267 5.6640625 5.8359375 C6.41117552 9.65939824 6.09337983 11.76655043 4.625 15.4375 C1.44375674 18.54299937 -0.46798776 18.96516002 -4.80859375 19.1796875 C-7.85444581 18.92993849 -9.68136944 17.95634454 -12 16 C-13.74465448 12.51069104 -13.56450552 8.80713023 -13 5 C-9.60185189 -0.2034143 -5.85748145 -1.24249607 0 0 Z " fill="#88BF26" transform="translate(428,115)"/>
<path d="M0 0 C2.24752294 1.60537353 2.89455592 2.61238076 3.75 5.25 C4.20431929 10.2475122 3.8242446 13.22983399 0.75 17.25 C-3.02438614 19.13719307 -7.6738055 18.74774563 -11.625 17.5 C-13.74609306 15.86838996 -14.41951953 14.81064812 -15.25 12.25 C-15.70743132 8.05687957 -15.70881883 5.97778159 -13.4375 2.375 C-9.60382164 -1.34914469 -4.99092798 -1.66364266 0 0 Z " fill="#1F4273" transform="translate(469.25,92.75)"/>
<path d="M0 0 C4.21494438 0.91962423 5.72032128 2.47340213 8.4375 5.75 C8.7675 6.08 9.0975 6.41 9.4375 6.75 C10.14034238 13.77842377 10.14034238 13.77842377 7.3125 17.6875 C4.08541407 20.00258338 2.39989846 20.75 -1.5625 20.75 C-5.53722063 19.22126129 -7.18103665 18.32219503 -9.5625 14.75 C-10.09476882 11.29025266 -10.16930857 8.86212246 -8.46484375 5.73828125 C-5.83644701 2.28281567 -4.33405932 0.91243354 0 0 Z " fill="#1F4374" transform="translate(462.5625,-0.75)"/>
<path d="M0 0 C0.76441406 0.07605469 1.52882813 0.15210937 2.31640625 0.23046875 C4.88860547 0.93628401 5.85094624 1.67935912 7.4375 3.8125 C8.3731747 6.8044179 8.63493592 9.68643122 8.4375 12.8125 C6.67246686 15.73393417 5.47902365 17.29173817 2.4375 18.8125 C-2.55470285 19.18927003 -5.54270143 18.88646361 -9.5625 15.8125 C-11.44969307 12.03811386 -11.06024563 7.3886945 -9.8125 3.4375 C-7.17698806 0.01133447 -4.12560003 -0.48166904 0 0 Z " fill="#87BE25" transform="translate(491.5625,92.1875)"/>
<path d="M0 0 C3.29744513 0.69945806 4.7979897 1.82154528 6.93359375 4.41015625 C8.27559179 8.40280882 8.35756252 11.38370555 6.74609375 15.28515625 C4.76001034 17.61366784 3.88506372 18.61246166 0.93359375 19.41015625 C-2.77650658 19.40264593 -5.97606522 19.21911895 -9.00390625 16.97265625 C-11.49215636 13.31346491 -11.77513147 9.72019453 -11.06640625 5.41015625 C-8.03232789 0.85903871 -5.28165251 -0.38938459 0 0 Z " fill="#87BE25" transform="translate(510.06640625,137.58984375)"/>
<path d="M0 0 C2.86830829 2.01391859 4.61592935 3.45434983 5.48046875 6.93359375 C5.75226702 10.81957437 5.20941022 12.67575192 3.0625 16 C-1.01080308 18.6601163 -4.25519889 18.98443537 -9 18 C-11.50160818 16.12379387 -12.61945652 14.76108697 -14 12 C-14.13865259 8.87730252 -13.85865427 6.00795657 -13 3 C-8.79464411 -1.20535589 -5.62898688 -1.73986867 0 0 Z " fill="#1E4273" transform="translate(454,24)"/>
<path d="M0 0 C2.80875414 0.02687803 4.23535131 0.09252072 6.45703125 1.8515625 C8.63243791 4.69777179 9.65680057 7.04332281 10.375 10.5625 C9.53716151 14.50034088 8.08038601 17.24641316 4.75 19.5 C1.5772919 20.30895451 -1.07050252 20.25893972 -4.25 19.5 C-7.3125 17.4375 -7.3125 17.4375 -9.25 14.5 C-9.98230839 10.02478205 -9.57780768 8.07101983 -7.3125 4.125 C-4.65567223 0.74358284 -4.22275963 0.27965296 0 0 Z " fill="#88C026" transform="translate(489.25,-0.5)"/>
<path d="M0 0 C3.38031589 1.18767855 3.93216817 1.89825225 6 5 C6.67226891 11.94677871 6.67226891 11.94677871 4.125 15.9375 C0.99747262 18.97304128 0.99747262 18.97304128 -2.0234375 19.0546875 C-6.08355705 18.74444581 -8.359902 18.53081297 -11.5625 15.875 C-13.38719803 12.22560394 -13.57650862 10.03556032 -13 6 C-9.24675489 0.24502417 -6.74280473 -0.34876576 0 0 Z " fill="#87BE25" transform="translate(405,138)"/>
<path d="M0 0 C3.43522779 0.86054191 4.91964542 2.67705308 6.93359375 5.484375 C8.22702246 9.28382184 8.1282481 10.95163677 6.74609375 14.734375 C4.86871998 17.58280417 4.15980018 18.56260173 0.93359375 19.484375 C-3.7137825 19.97877673 -6.31397625 19.27189443 -10.06640625 16.484375 C-11.81106073 12.99506604 -11.63091177 9.29150523 -11.06640625 5.484375 C-8.09488235 0.93422902 -5.26226748 -0.35811272 0 0 Z " fill="#88BF26" transform="translate(506.06640625,114.515625)"/>
<path d="M0 0 C2.46092753 3.16200573 2.56338346 6.8212051 2.34375 10.7265625 C0.49985991 14.19307586 -1.02660775 15.3907533 -4.46875 17.2265625 C-8.72881467 17.89480794 -10.93572317 16.80147169 -14.65625 14.7265625 C-17.11817771 11.03367094 -17.3414805 8.01343137 -16.65625 3.7265625 C-14.98374804 0.9191485 -13.79651675 -0.7229639 -10.84375 -2.1484375 C-7.01700984 -2.36710837 -3.130099 -2.40663272 0 0 Z " fill="#1D4172" transform="translate(454.65625,71.2734375)"/>
<path d="M0 0 C3 1.9375 3 1.9375 5 5 C5.86421959 9.29815406 5.77392977 12.71011705 3.5 16.5 C0.05353647 18.56787812 -2.98948958 19.19932954 -7 19 C-10.26210104 17.72352568 -11.5558282 16.72682657 -13.375 13.75 C-14.20601533 10.09353255 -13.98701011 7.61903706 -13 4 C-9.36765546 -0.29277082 -5.35583985 -1.20938319 0 0 Z " fill="#88BF26" transform="translate(379,138)"/>
<path d="M0 0 C3.0002525 2.23423058 4.5516288 3.9351184 6 7.375 C6 11.17355306 4.80926031 13.69342082 3 17 C0.03459078 18.97693948 -2.06131683 19.22126758 -5.5625 18.8125 C-6.32691406 18.73644531 -7.09132813 18.66039062 -7.87890625 18.58203125 C-10.48401242 17.86718628 -11.44885009 17.21316716 -13 15 C-13.68189973 11.27796397 -13.58132298 7.73388224 -13 4 C-9.70064856 -0.43350349 -5.22851844 -1.22526897 0 0 Z " fill="#87BE25" transform="translate(535,115)"/>
<path d="M0 0 C2.75329021 1.79562405 4.52627461 3.05254922 6 6 C6.39447548 10.18144011 6.45035186 12.30946048 4.125 15.875 C1.02777778 18.97222222 1.02777778 18.97222222 -2.0234375 19.0546875 C-6.08355705 18.74444581 -8.359902 18.53081297 -11.5625 15.875 C-13.67093893 11.65812214 -13.69994897 8.15817598 -12.25 3.6875 C-9.10851041 -0.55351095 -4.98177386 -0.52439725 0 0 Z " fill="#87BE25" transform="translate(401,115)"/>
<path d="M0 0 C4.6 2.2 4.6 2.2 6 5 C6.36524972 9.45604661 6.53894975 11.94455674 4.5 15.9375 C1.13558638 18.71314123 -1.67736968 19.30077945 -6 19 C-8.90208571 17.80131242 -10.40814148 16.72637182 -12.375 14.3125 C-13.34637358 10.71841776 -13.1124099 7.54807864 -12 4 C-8.41976186 -0.21204488 -5.38035755 -0.67254469 0 0 Z " fill="#88C027" transform="translate(374,115)"/>
<path d="M0 0 C2.69990662 1.79993774 4.5418865 3.083773 6 6 C6.34556568 9.01135805 6.57794337 11.09361171 6 14 C2.94854964 17.57242969 1.08575513 18.82856498 -3.5625 19.5625 C-7.52374737 18.91429589 -9.18799374 17.81200626 -12 15 C-13.55024464 11.89951072 -13.28992015 9.42105782 -13 6 C-9.58657773 0.58560605 -6.30664581 -0.63066458 0 0 Z " fill="#87BE25" transform="translate(387,92)"/>
<path d="M0 0 C1.51461994 3.29652574 1.44032028 5.72320732 1.0625 9.3125 C-1.1375 13.9125 -1.1375 13.9125 -3.9375 15.3125 C-8.3506016 15.83218957 -11.79909151 16.16630637 -15.4375 13.4375 C-18.15462255 9.58824306 -18.41938268 7.051013 -17.9375 2.3125 C-15.84252921 -0.36440712 -14.10569001 -2.10340499 -11.0625 -3.625 C-6.85252348 -3.74882284 -3.19055225 -2.77886809 0 0 Z " fill="#88C026" transform="translate(428.9375,72.6875)"/>
<path d="M0 0 C2.18459737 1.61822027 2.84462242 2.65112747 3.6875 5.25 C4.12417288 9.25283472 4.06053469 11.53501684 2.1875 15.125 C-1.16120977 17.9714033 -3.95834551 18.56162935 -8.3125 18.25 C-11.93340756 16.67569236 -13.10505284 15.56117074 -15.3125 12.25 C-15.78047583 8.03821757 -15.77815795 5.96400886 -13.4375 2.375 C-9.54183457 -1.52066543 -5.22211262 -1.69365815 0 0 Z " fill="#1C4172" transform="translate(487.3125,138.75)"/>
<path d="M0 0 C2.99661827 1.53018805 4.50383607 2.62825267 5.6640625 5.8359375 C6.4182392 9.69554767 6.10462387 11.7498125 4.5625 15.4375 C1.60652185 18.39347815 0.03584494 18.95593202 -4.03515625 19.17578125 C-6.98881519 18.91153741 -8.73525335 17.86508547 -11 16 C-13.48386059 12.27420911 -13.3804212 10.41288598 -13 6 C-10.05739281 -0.15272413 -6.60267923 -0.87276794 0 0 Z " fill="#89C027" transform="translate(432,138)"/>
<path d="M0 0 C2.97247625 2.1120226 3.83352425 3.44111713 4.875 6.9375 C5.04889221 11.19785924 4.21915812 13.64016979 1.375 16.8125 C-2.08546392 18.54273196 -5.26618634 18.76155011 -9 18 C-12 16.0625 -12 16.0625 -14 13 C-14.62886083 9.87239126 -14.6427262 7.12598652 -14 4 C-10.14213247 -1.3211966 -6.12903666 -1.39785047 0 0 Z " fill="#88BF26" transform="translate(522,93)"/>
<path d="M0 0 C2.00903434 2.45548642 2.63176269 3.6537597 3.0625 6.8125 C2.66138773 10.28880637 1.773878 12.33194512 -0.62109375 14.91796875 C-3.39719117 16.79648271 -5.87368881 16.82052839 -9.15234375 16.57421875 C-12.84294369 15.69995366 -14.28297452 14.20499107 -16.3125 11.0625 C-17.28542915 6.75381377 -16.82100351 3.91605946 -14.5625 0.125 C-10.09538629 -3.96985423 -4.7378019 -3.9695097 0 0 Z " fill="#8AC128" transform="translate(374.3125,71.9375)"/>
<path d="M0 0 C3.24875254 2.22283069 3.89631231 3.61981182 4.9375 7.4375 C5.00735492 11.41923028 4.39706001 12.89269999 2 16 C-0.37040308 18.37040308 -1.06302753 18.34465793 -4.3125 18.4375 C-7.88942573 18.339423 -8.93984229 18.03928667 -12.0625 16 C-14.2222631 12.65585068 -14.68017828 10.83093554 -14.4296875 6.93359375 C-13.7461763 3.85779336 -12.25636877 2.12743341 -10 0 C-6.19426871 -1.2685771 -3.89430952 -0.88817586 0 0 Z " fill="#88BF25" transform="translate(532,70)"/>
<path d="M0 0 C2.67432246 3.16956736 2.89920628 6.92818257 2.6875 11 C1.72573067 13.38333189 1.10337716 14.68009449 -0.9375 16.25 C-4.4478845 17.35854247 -7.7101967 17.67766102 -11.3125 17 C-14.2963283 15.01078114 -15.91526841 13.61497432 -16.7890625 10.0625 C-17.08452976 5.95706014 -16.6108264 4.37895515 -14 1.0625 C-9.17635563 -2.63936661 -5.46386963 -2.36275443 0 0 Z " fill="#87BE24" transform="translate(483.3125,25)"/>
<path d="M0 0 C2.57469641 2.57469641 3.84850863 4.35568745 4.1875 8.03515625 C3.96582185 11.74133779 3.33075281 13.59908751 0.9375 16.5 C-3.13852444 18.58137418 -5.43905219 18.50677198 -10 18 C-13.23613354 16.25746655 -13.82395315 15.52814056 -15 12 C-15.38514834 7.84039789 -15.44225244 5.70150387 -13.1875 2.125 C-9.30551126 -1.64607478 -4.98549505 -1.60176548 0 0 Z " fill="#88C026" transform="translate(402,24)"/>
<path d="M0 0 C4.61899241 0.54801605 5.8364895 1.85337251 8.6875 5.4375 C10.54008119 8.04795531 10.69255047 9.19507764 10.625 12.4375 C9.40792671 16.33213452 8.25128609 17.46604387 4.6875 19.4375 C0.46408997 20.27364986 -2.44391272 19.89951451 -6.25 17.875 C-8.99626349 14.62941588 -9.38555303 12.67457546 -9.3125 8.4375 C-5.06154068 0.66850537 -5.06154068 0.66850537 0 0 Z " fill="#88C027" transform="translate(435.3125,-0.4375)"/>
<path d="M0 0 C3.62118727 1.2327446 5.46972741 2.02415658 7.9375 5 C8.80798644 9.54923785 8.72567436 13.49530349 6.5625 17.625 C2.43559865 19.78671023 -1.51055142 19.74224785 -6.0625 19 C-9.26332978 16.97020551 -9.86327845 15.6688152 -10.9375 12.0625 C-11.07871232 8.60279821 -10.85465677 6.96095467 -9.0625 4 C-5.93488863 1.29888109 -4.17645016 0 0 0 Z " fill="#1E4273" transform="translate(462.0625,183)"/>
<path d="M0 0 C3.05067422 1.99227704 4.59426669 3.33682874 5.47265625 6.9375 C5.77001861 10.96332882 5.27564163 12.62985266 2.8125 15.9375 C-0.11277654 18.08270279 -1.39917454 19 -5 19 C-11.20565149 17.00156986 -11.20565149 17.00156986 -13.4375 14.1875 C-14.38436604 10.5052432 -14.48642069 7.34701113 -13.1875 3.75 C-9.96016125 -1.00607816 -5.16352644 -0.85908058 0 0 Z " fill="#87BE25" transform="translate(533,161)"/>
<path d="M0 0 C2.94855414 1.53837607 4.54706386 2.6607629 5.6328125 5.87109375 C6.26171392 9.41033684 6.20079978 11.51385316 4.8125 14.875 C2.06936424 18.09109021 0.23618747 18.84218883 -3.9375 19.375 C-7.7368243 18.90977662 -9.28638434 17.63608379 -12 15 C-13.79009505 11.41980989 -13.46638897 7.43803267 -12.25 3.6875 C-9.10851041 -0.55351095 -4.98177386 -0.52439725 0 0 Z " fill="#193F71" transform="translate(481,115)"/>
<path d="M0 0 C1.9375 1.0625 1.9375 1.0625 3 3 C4.22720771 7.9906447 4.61045539 9.84223979 2.1875 14.4375 C0 17 0 17 -2 18 C-6.96258946 18.37453505 -10.04413742 18.14142028 -14 15 C-15.20190901 11.39427296 -15.32670315 8.7897565 -15 5 C-10.97940503 -1.37749548 -6.83617717 -1.55562278 0 0 Z " fill="#88C027" transform="translate(416,93)"/>
<path d="M0 0 C3.05067422 1.99227704 4.59426669 3.33682874 5.47265625 6.9375 C5.7595293 10.82131981 5.20766662 12.67845169 3.0625 16 C-1.01080308 18.6601163 -4.25519889 18.98443537 -9 18 C-11.50160818 16.12379387 -12.61945652 14.76108697 -14 12 C-14.41314256 7.3521462 -13.78987316 4.75559848 -11 1 C-7.51069104 -0.74465448 -3.80713023 -0.56450552 0 0 Z " fill="#89C027" transform="translate(492,184)"/>
<path d="M0 0 C3.37175211 2.10734507 3.87454241 3.54835266 4.9375 7.375 C5.00995665 11.57748599 4.39674773 13.56466159 2 17 C-1.06462787 18.9579567 -2.91066741 19.00156724 -6.5625 18.9375 C-10 18 -10 18 -12.4375 15.9375 C-14.46225274 12.13096484 -14.95291043 9.22003189 -14 5 C-10.42965778 -0.52827182 -6.14319619 -1.21715663 0 0 Z " fill="#1D4172" transform="translate(480,161)"/>
<path d="M0 0 C3 1.375 3 1.375 5 4 C5.86190469 8.59174001 5.89929276 12.52515988 3.4375 16.5625 C0.16223558 18.4940662 -2.19629853 18.93441894 -6 19 C-11.5862069 16.82758621 -11.5862069 16.82758621 -13 14 C-13.65157772 9.26209912 -13.65620107 6.00480788 -11 1.9375 C-7.13871074 -0.55624931 -4.46895112 -0.92802816 0 0 Z " fill="#88BF27" transform="translate(539,138)"/>
<path d="M0 0 C2.75329021 1.79562405 4.52627461 3.05254922 6 6 C6.39447548 10.18144011 6.45035186 12.30946048 4.125 15.875 C1.39955109 18.60044891 0.56499391 18.94669869 -3.3125 19.3125 C-7.69433524 18.94115803 -9.15956566 18.34168746 -12 15 C-13.35705063 10.9874861 -13.44337533 8.01976326 -11.75 4.125 C-8.20119974 -0.18425746 -5.38342014 -0.55690553 0 0 Z " fill="#88C027" transform="translate(561,115)"/>
<path d="M0 0 C3.24875254 2.22283069 3.89631231 3.61981182 4.9375 7.4375 C5.00754154 11.42986787 4.46465254 12.91918433 2 16 C-1.69720147 18.46480098 -4.71155966 18.7842673 -9 18 C-12.15554267 15.96204536 -13.6672675 14.53275134 -14.4765625 10.8046875 C-14.62947441 8.36614495 -14.56880183 6.3774139 -14 4 C-9.44054827 -0.79942288 -6.37784476 -1.42951693 0 0 Z " fill="#88C026" transform="translate(508,24)"/>
<path d="M0 0 C3.0432531 1.9874306 4.62073803 3.32041127 5.4375 6.9375 C5.6524537 10.48423604 5.11472792 12.74968454 3.625 16 C0.15676173 18.64246725 -2.30253609 18.52070078 -6.5625 18.46875 C-9.47705134 17.90825936 -10.88382516 17.06883312 -13 15 C-14.15963373 10.28415616 -14.42370766 8.10971054 -12.6875 3.5625 C-9.62171227 -1.09295544 -5.17621459 -0.76750768 0 0 Z " fill="#8AC129" transform="translate(453,161)"/>
<path d="M0 0 C3 1.9375 3 1.9375 5 5 C5.86936882 9.32376349 5.79647745 12.72563608 3.4375 16.5 C0.16764866 18.51221621 -2.16202455 18.93382801 -6 19 C-11.5862069 16.82758621 -11.5862069 16.82758621 -13 14 C-13.58492738 9.20359551 -14.00314925 5.31663339 -11 1.375 C-7.14787575 -0.39055695 -4.15925912 -0.93918754 0 0 Z " fill="#87BF24" transform="translate(459,138)"/>
<path d="M0 0 C2.1875 1.625 2.1875 1.625 3.1875 3.625 C3.84381559 8.39735191 3.86129368 11.62451847 1.125 15.6875 C-2.56274203 18.11984049 -4.46754309 18.24570813 -8.8125 17.625 C-13.4125 15.425 -13.4125 15.425 -14.8125 12.625 C-15.22659424 8.49998429 -15.45171241 4.84254745 -13.5 1.125 C-9.53729811 -2.39740168 -4.55612585 -2.22743931 0 0 Z " fill="#86BE23" transform="translate(442.8125,93.375)"/>
<path d="M0 0 C1.02480469 0.23976563 1.02480469 0.23976563 2.0703125 0.484375 C3.875 1.25 3.875 1.25 5.875 4.25 C6.41282864 7.64115109 6.41977689 10.85904183 5.875 14.25 C3.52983264 16.99719605 1.76139578 17.90907855 -1.5625 19.1875 C-5.11006808 19.27402605 -7.14297577 18.10548174 -10.125 16.25 C-12.799053 12.2389205 -12.82407091 8.96446603 -12.125 4.25 C-10.33520095 1.69314421 -9.18057919 0.60915972 -6.2421875 -0.390625 C-3.87619748 -0.79223216 -2.31880154 -0.58190457 0 0 Z " fill="#89C028" transform="translate(557.125,69.75)"/>
<path d="M0 0 C2.34765625 0.4140625 2.34765625 0.4140625 4.91015625 1.9765625 C6.84172245 5.25182692 7.28207519 7.61036103 7.34765625 11.4140625 C5.17524246 17.0002694 5.17524246 17.0002694 2.34765625 18.4140625 C-2.39024463 19.06564022 -5.64753587 19.07026357 -9.71484375 16.4140625 C-12.20859306 12.55277324 -12.58037191 9.88301362 -11.65234375 5.4140625 C-9.10130205 -0.15184667 -5.62843435 -0.31499338 0 0 Z " fill="#88BF25" transform="translate(436.65234375,183.5859375)"/>
<path d="M0 0 C2.42576364 0.60863023 3.54604975 1.26587474 5.2890625 3.04296875 C7.33184541 6.85616352 7.67374971 8.58375694 6.7890625 12.70703125 C5.75365326 15.7485459 4.9745611 16.89779884 2.1640625 18.54296875 C-1.28943036 19.14632441 -4.3867164 19.19041391 -7.8359375 18.54296875 C-10.62587145 16.41730479 -11.5277548 15.02703301 -12.23828125 11.60546875 C-12.54069414 7.71098085 -12.05479683 5.88184771 -9.8984375 2.54296875 C-6.34262829 0.22080763 -4.18557327 -0.2589736 0 0 Z " fill="#88BF26" transform="translate(397.8359375,160.45703125)"/>
<path d="M0 0 C2.23442542 2.30213528 2.92409278 3.7683441 3.12109375 6.96484375 C2.90577431 10.69473207 2.35075188 12.57484621 -0.0625 15.5 C-3.8689399 17.44371399 -6.81293143 17.95390877 -11 17 C-13.9838283 15.01078114 -15.60276841 13.61497432 -16.4765625 10.0625 C-16.77202976 5.95706014 -16.2983264 4.37895515 -13.6875 1.0625 C-8.87153524 -2.63347295 -5.37370477 -2.23438868 0 0 Z " fill="#86BE24" transform="translate(504,48)"/>
<path d="M0 0 C2.4375 1.5 2.4375 1.5 4 4 C4.81333471 8.48591826 4.50134369 11.93191997 2.5625 16.0625 C-0.69261786 18.52368667 -2.79847681 18.67339101 -6.8046875 18.40234375 C-10.36922367 17.74905687 -11.83376517 16.93489881 -14 14 C-14.64118287 10.55364207 -14.63098216 7.44745708 -14 4 C-10.21097148 -1.3569024 -6.09566515 -1.39023942 0 0 Z " fill="#1D4172" transform="translate(449,47)"/>
<path d="M0 0 C2.51666056 2.12948202 3.71851452 3.6855159 4.4140625 6.93359375 C4.69682873 10.86999737 4.23298334 12.65052498 2 16 C-1.34947502 18.23298334 -3.13000263 18.69682873 -7.06640625 18.4140625 C-10.3144841 17.71851452 -11.87051798 16.51666056 -14 14 C-15.20726532 9.92547953 -15.24351221 7.71700817 -13.875 3.6875 C-10.19007292 -1.59422882 -5.98190271 -1.63142801 0 0 Z " fill="#86BE23" transform="translate(535,24)"/>
<path d="M0 0 C3.40971716 2.41521632 4.68340622 4.05021865 6 8 C6 11.60577657 5.14136992 13.14484011 3 16 C0.50959058 18.49040942 -0.43154357 18.32391014 -3.875 18.375 C-7.08342446 18.28227097 -8.75201024 18.1298994 -11.625 16.625 C-13.79266185 12.48673647 -13.72012261 8.56330327 -13 4 C-10.22419275 -1.06886542 -5.22860519 -1.07181746 0 0 Z " fill="#88C026" transform="translate(426,161)"/>
<path d="M0 0 C2.1875 1.625 2.1875 1.625 3.1875 3.625 C3.70718957 8.0381016 4.04130637 11.48659151 1.3125 15.125 C-2.2645595 17.64998318 -4.41816657 17.9696536 -8.8125 17.625 C-13.44485294 15.36029412 -13.44485294 15.36029412 -14.8125 12.625 C-15.22659424 8.49998429 -15.45171241 4.84254745 -13.5 1.125 C-9.53729811 -2.39740168 -4.55612585 -2.22743931 0 0 Z " fill="#86BE24" transform="translate(456.8125,116.375)"/>
<path d="M0 0 C2.97247625 2.1120226 3.83352425 3.44111713 4.875 6.9375 C5.04889221 11.19785924 4.21915812 13.64016979 1.375 16.8125 C-2.08546392 18.54273196 -5.26618634 18.76155011 -9 18 C-12 16.0625 -12 16.0625 -14 13 C-14.62886083 9.87239126 -14.6427262 7.12598652 -14 4 C-10.14213247 -1.3211966 -6.12903666 -1.39785047 0 0 Z " fill="#88BF27" transform="translate(479,70)"/>
<path d="M0 0 C2.69990662 1.79993774 4.5418865 3.083773 6 6 C6.4200542 13.56097561 6.4200542 13.56097561 4 17 C0.28249585 19.4783361 -2.69352919 19.63675444 -7 19 C-10 17.625 -10 17.625 -12 15 C-12.75754095 10.61500333 -12.98222058 6.64464842 -10.65625 2.75 C-7.62779598 -0.44987595 -4.1795444 -0.41795444 0 0 Z " fill="#87BF25" transform="translate(547,92)"/>
<path d="M0 0 C2.91633708 0.56083405 4.32210239 1.39594429 6.4375 3.46875 C7.50913193 7.89816196 8.00358196 10.16676148 6.1875 14.34375 C4.4375 16.46875 4.4375 16.46875 1.4375 18.46875 C-3.55135232 18.93068077 -6.55130248 18.53613634 -10.5625 15.46875 C-12.17345977 12.24683047 -12.00999207 8.96185971 -11.5625 5.46875 C-8.98874737 -0.14671029 -5.61921596 -0.06852702 0 0 Z " fill="#86BE23" transform="translate(419.5625,46.53125)"/>
<path d="M0 0 C1.56017956 3.48746019 1.81694877 6.67600359 1.0625 10.375 C-0.875 13.375 -0.875 13.375 -3.9375 15.375 C-8.21689739 16.23544823 -11.63643685 16.07313144 -15.5 14 C-17.74703798 9.89671326 -17.69730234 5.94141204 -16.9375 1.375 C-15.1572938 -1.23173051 -13.9127633 -2.15418323 -11.125 -3.5 C-6.91694098 -3.74046052 -3.23536857 -2.71353493 0 0 Z " fill="#88BF25" transform="translate(508.9375,72.625)"/>
<path d="M0 0 C2.22385616 2.92334801 1.84703278 5.79383641 1.72265625 9.34375 C1.31640625 11.73046875 1.31640625 11.73046875 -0.68359375 14.35546875 C-4.55116229 16.12810433 -7.50541374 16.52230125 -11.68359375 15.73046875 C-14.68359375 14.35546875 -14.68359375 14.35546875 -16.68359375 11.73046875 C-17.5597181 7.06297442 -17.65314513 3.15016899 -14.93359375 -0.83203125 C-9.88545358 -4.05723192 -4.98393042 -3.75818419 0 0 Z " fill="#86BE24" transform="translate(531.68359375,49.26953125)"/>
<path d="M0 0 C2.17964543 1.55827658 2.87223907 2.53440144 3.58203125 5.12109375 C3.65808594 5.88550781 3.73414063 6.64992188 3.8125 7.4375 C3.90144531 8.19933594 3.99039062 8.96117187 4.08203125 9.74609375 C3.98727538 12.349624 3.36949985 13.8020964 2 16 C-1.43677318 18.54575791 -4.85107675 18.43672876 -9 18 C-11.75329021 16.20437595 -13.52627461 14.94745078 -15 12 C-15.47707476 7.78583959 -15.43171409 5.67635208 -13.125 2.0625 C-8.88604077 -0.73521309 -4.96670576 -1.01017744 0 0 Z " fill="#86BE23" transform="translate(476,47)"/>
<path d="M0 0 C2.74850092 2.65688422 3.81835059 5.18536229 4 9 C2.45641562 12.93614016 1.55160136 14.63226576 -2 17 C-6.82698169 17.5449818 -8.89592369 17.71304929 -13 15.0625 C-15.66656864 10.97931676 -15.96862984 7.75428409 -15 3 C-13.22970548 0.47100783 -11.92754696 -0.55221871 -9.1875 -1.875 C-5.77393575 -2.07006081 -3.17393138 -1.21186471 0 0 Z " fill="#86BE23" transform="translate(400,71)"/>
<path d="M0 0 C3.0625 2.0625 3.0625 2.0625 5 5 C5.50951861 9.14893725 5.54666957 12.56199608 3 16 C-0.43677318 18.54575791 -3.85107675 18.43672876 -8 18 C-10.75329021 16.20437595 -12.52627461 14.94745078 -14 12 C-14.03806058 7.98841537 -13.89721746 4.23367401 -11.5 0.9375 C-7.61773326 -0.51835003 -4.08031593 -0.76233661 0 0 Z " fill="#86BE23" transform="translate(395,47)"/>
<path d="M0 0 C2.875 1.5 2.875 1.5 5 4 C5.72947266 7.14732157 5.6844417 9.84708002 5 13 C3.0125694 16.0432531 1.67958873 17.62073803 -1.9375 18.4375 C-5.48423604 18.6524537 -7.74968454 18.11472792 -11 16.625 C-13.65509321 13.14019016 -13.6447885 10.64334967 -13.4296875 6.34765625 C-13 4 -13 4 -11.1875 1.4375 C-7.16061544 -1.20873843 -4.57439227 -1.18934199 0 0 Z " fill="#88C026" transform="translate(427,24)"/>
<path d="M0 0 C3 1.9375 3 1.9375 5 5 C5.86044823 9.27939739 5.69813144 12.69893685 3.625 16.5625 C-0.50068653 18.82180453 -4.41112292 18.71653562 -9 18 C-11.625 16.625 -11.625 16.625 -13 14 C-13.59140277 10.5434518 -13.64784062 7.45132791 -13 4 C-9.62372273 -0.43136392 -5.26163946 -1.18811214 0 0 Z " fill="#88BF27" transform="translate(506,161)"/>
</svg>
