<?xml version="1.0" encoding="UTF-8"?>
<svg version="1.1" xmlns="http://www.w3.org/2000/svg" width="619" height="244">
<path d="M0 0 C2.12419345 2.91722936 1.82861662 5.89018603 1.80628967 9.36427307 C1.81326874 10.1191803 1.8202478 10.87408752 1.82743835 11.65187073 C1.84746103 14.15239041 1.84691515 16.65249855 1.84706116 19.15309143 C1.85883586 20.89605824 1.87220031 22.63901498 1.88708496 24.38195801 C1.92333138 28.97961136 1.94348099 33.5771756 1.95863342 38.17494202 C1.98341315 45.50878774 2.0234712 52.84243594 2.08053398 60.17609978 C2.09673868 62.72732121 2.10063066 65.27835403 2.10354614 67.82962036 C1.72930909 83.43594767 1.72930909 83.43594767 8.40565491 96.93043518 C14.10188062 100.46209512 18.93458122 100.3476992 25.40565491 98.93043518 C29.04937891 97.45744037 30.10830065 96.41894574 32.15565491 93.05543518 C34.32402937 87.63449902 34.55915686 82.58081947 34.57923889 76.79127502 C34.5859259 75.98581741 34.59261292 75.1803598 34.59950256 74.35049438 C34.61351287 72.60775107 34.62541958 70.86498985 34.63545036 69.12221909 C34.65190413 66.36532255 34.67514066 63.60855993 34.7003479 60.85173035 C34.77102528 53.01572866 34.83137401 45.1796747 34.88246155 37.34352112 C34.91421237 32.54607876 34.95546836 27.74879501 35.00265694 22.95148087 C35.0186892 21.12303636 35.0310051 19.2945554 35.03956413 17.46606064 C35.05168829 14.91414459 35.07582262 12.36260366 35.10267639 9.81080627 C35.10326553 9.05333603 35.10385468 8.29586578 35.10446167 7.51544189 C35.15666269 3.78085129 35.28002874 2.11887443 37.40565491 -1.06956482 C40.32014327 -1.71805611 43.30263619 -1.53269722 46.28065491 -1.50706482 C47.50461975 -1.53703552 47.50461975 -1.53703552 48.75331116 -1.56761169 C49.93860413 -1.5666449 49.93860413 -1.5666449 51.14784241 -1.56565857 C51.86826721 -1.5675116 52.58869202 -1.56936462 53.33094788 -1.5712738 C56.4210621 -0.82401742 57.4708258 0.41103303 59.40565491 2.93043518 C59.80045994 5.7740443 59.95314686 8.23039787 59.92323303 11.07276917 C59.93024231 11.89127853 59.93725159 12.7097879 59.94447327 13.55310059 C59.96208501 16.26125487 59.95040978 18.96836379 59.93690491 21.67652893 C59.93960125 23.56781209 59.94348485 25.45909389 59.94850159 27.35037231 C59.95440288 31.32079727 59.94582205 35.29086258 59.92713928 39.26124573 C59.90448951 44.31811085 59.91737942 49.37412018 59.94142914 54.43095303 C59.95599036 58.34240986 59.95123182 62.25366923 59.94091797 66.16513252 C59.93827176 68.02720811 59.94144527 69.88930234 59.95083618 71.75135612 C60.0071638 86.07519533 59.65688374 98.95848907 48.96815491 109.77027893 C37.62161327 119.33527516 25.02081999 120.96339498 10.72206116 120.17311096 C1.07332408 119.16227152 -7.83499319 114.1570294 -14.30528259 107.05152893 C-21.48771759 98.09976239 -22.74623907 88.57903337 -22.73960876 77.36476135 C-22.74296738 76.53789825 -22.74632599 75.71103516 -22.74978638 74.8591156 C-22.75922664 72.14719614 -22.76123529 69.43533876 -22.76231384 66.72340393 C-22.76552878 64.83247859 -22.76889303 62.94155349 -22.7723999 61.05062866 C-22.77837201 57.09918134 -22.78024153 53.14775584 -22.77964783 49.19630432 C-22.77954575 44.1241071 -22.79325364 39.05204841 -22.81042004 33.97988415 C-22.82150948 30.08094635 -22.82356806 26.18204255 -22.8230381 22.28309059 C-22.82422069 20.41191946 -22.82865802 18.54074752 -22.83637047 16.6695919 C-22.84611848 14.06267235 -22.8433142 11.45606037 -22.83726501 8.84913635 C-22.84288452 8.07251144 -22.84850403 7.29588654 -22.85429382 6.49572754 C-22.82266807 1.15875816 -22.82266807 1.15875816 -20.59434509 -1.06956482 C-14.61528287 -2.36936096 -5.34720753 -3.58716885 0 0 Z " fill="#000000" transform="translate(215.59434509277344,2.0695648193359375)"/>
<path d="M0 0 C7.31200052 6.27892889 12.12108032 14.57559461 13.5625 24.125 C13.0625 26.8125 13.0625 26.8125 11.0390625 28.45703125 C7.29575841 30.16165923 3.96914828 30.25359259 -0.0625 30.1875 C-0.77792969 30.19910156 -1.49335938 30.21070313 -2.23046875 30.22265625 C-7.34752102 30.1939625 -7.34752102 30.1939625 -9.81640625 28.59765625 C-11.17888334 26.42813699 -11.94879493 24.30788297 -12.75 21.875 C-14.09456216 18.4124997 -14.90784693 16.84146346 -17.625 14.1875 C-21.90059769 12.4127236 -25.37525762 11.98819503 -29.9375 12.8125 C-33.7401029 14.8175088 -35.55540841 16.23936262 -37.9375 19.8125 C-39.05489103 24.28206411 -39.3454461 27.89696828 -37.25854492 32.13427734 C-32.20818038 38.55013501 -22.23482141 41.53632788 -14.9375 44.625 C-2.21747129 50.2238918 6.85181104 56.78705011 12.375 69.9375 C14.3427731 81.02858472 13.8022257 91.47032544 7.58984375 101.09375 C2.14245163 107.99635562 -5.67511795 111.96263189 -14.2734375 113.52734375 C-28.0955359 115.00683522 -41.35410069 114.02179931 -52.94140625 105.49609375 C-60.36271993 99.23662957 -65.30164214 92.02583839 -66.17578125 82.109375 C-66.18568897 80.00893776 -66.07493995 77.90845921 -65.9375 75.8125 C-62.27919572 73.98334786 -57.96493635 74.58487465 -53.9375 74.5625 C-53.009375 74.541875 -52.08125 74.52125 -51.125 74.5 C-50.238125 74.49484375 -49.35125 74.4896875 -48.4375 74.484375 C-47.6228125 74.4750293 -46.808125 74.46568359 -45.96875 74.45605469 C-45.2984375 74.57368164 -44.628125 74.69130859 -43.9375 74.8125 C-42.03327272 77.66884092 -41.39542785 79.49178224 -40.5625 82.75 C-39.07354407 87.86456361 -37.44447375 90.33780956 -32.8125 93.0625 C-27.49564855 94.44950472 -22.16568569 94.66584771 -17 92.6875 C-13.16189471 89.19831338 -12.06748095 85.98232856 -11.5 80.875 C-11.70673327 76.54187062 -13.08143284 73.08365498 -15.9375 69.8125 C-21.2157681 65.75205525 -27.22742848 63.29592994 -33.375 60.875 C-45.36151957 55.97278539 -56.69373858 50.01062916 -62.2265625 37.64453125 C-65.59454829 28.96549094 -64.36249855 19.28937141 -60.9375 10.8125 C-55.93469827 1.96032028 -48.29589364 -2.99873622 -38.75 -6.0625 C-25.56392253 -9.16838849 -11.21236831 -8.04894553 0 0 Z " fill="#000000" transform="translate(162.9375,8.1875)"/>
<path d="M0 0 C1.59134766 -0.04253906 1.59134766 -0.04253906 3.21484375 -0.0859375 C6.0625 0.375 6.0625 0.375 7.71751022 1.82215786 C9.7633215 5.70518607 9.46902603 9.35533533 9.42999268 13.68141174 C9.43326152 14.63418045 9.43653036 15.58694915 9.43989825 16.56858963 C9.44719594 19.7692758 9.43300541 22.9695076 9.41894531 26.17016602 C9.41973594 28.46142658 9.42183244 30.752687 9.42514038 33.04394531 C9.43028228 39.2731138 9.41672341 45.5021176 9.39961338 51.73125958 C9.38460012 58.24148491 9.38575195 64.75170789 9.38494873 71.26194763 C9.38125408 82.19476179 9.36636733 93.1275122 9.34375 104.06030273 C9.32048654 115.31356323 9.30632453 126.56678402 9.30273438 137.82006836 C9.30251161 138.51329123 9.30228884 139.20651409 9.30205932 139.92074371 C9.30161673 141.31721992 9.3011747 142.71369612 9.30073325 144.11017233 C9.30051369 144.79901414 9.30029412 145.48785595 9.3000679 146.19757175 C9.29985192 146.88465431 9.29963593 147.57173687 9.2994134 148.27964011 C9.29549033 159.64521114 9.28279103 171.01077406 9.26972103 182.37633777 C9.26561783 186.26069854 9.26269434 190.14505892 9.25992584 194.02942085 C9.25504007 200.1254006 9.24484885 206.22134958 9.23048782 212.31731415 C9.22595716 214.5591218 9.22312435 216.8009336 9.22208023 219.04274559 C9.22034003 222.09371882 9.21247163 225.14461452 9.20294189 228.1955719 C9.20380838 229.09069585 9.20467486 229.9858198 9.2055676 230.90806872 C9.18954062 234.30918838 9.14548797 237.1260361 8.0625 240.375 C4.09993885 242.58937241 0.53729153 242.78179923 -3.9375 242.375 C-6.12143898 241.43951511 -6.12143898 241.43951511 -7.9375 239.375 C-8.55239317 236.26919316 -8.46758074 233.18693025 -8.43197632 230.03025818 C-8.43680515 229.06130413 -8.44163398 228.09235007 -8.44660914 227.09403378 C-8.45792157 223.8325196 -8.44052929 220.57178226 -8.42333984 217.31030273 C-8.42548466 214.97815742 -8.42936079 212.64601314 -8.43484497 210.31387329 C-8.44456075 203.96897297 -8.42920742 197.62435285 -8.40893888 191.27948642 C-8.3931851 185.32250178 -8.3946133 179.36554014 -8.39548953 173.40853847 C-8.39649112 161.60605007 -8.37815768 149.80367001 -8.34912109 138.0012207 C-8.32093913 126.54026313 -8.30677979 115.0794009 -8.30810547 103.6184082 C-8.30818538 102.91240923 -8.30826529 102.20641025 -8.30834763 101.47901737 C-8.30842834 100.77425654 -8.30850905 100.06949571 -8.3085922 99.34337848 C-8.30990097 86.96726016 -8.29961524 74.5911812 -8.28300858 62.21507454 C-8.27593115 56.93877928 -8.2722804 51.66249782 -8.27122116 46.38619804 C-8.26921801 40.17857976 -8.2570554 33.97106236 -8.23688889 27.76347733 C-8.2310273 25.47932744 -8.22859048 23.19516595 -8.22974396 20.91100883 C-8.2307193 17.80481661 -8.21947424 14.69891068 -8.20492554 11.59275818 C-8.20802274 10.67847547 -8.21111995 9.76419277 -8.214311 8.82220453 C-8.15807088 1.60394705 -7.22589018 0.08758655 0 0 Z " fill="#000000" transform="translate(56.9375,0.625)"/>
<path d="M0 0 C0.8971875 0.00064453 1.794375 0.00128906 2.71875 0.00195312 C3.65460938 0.01806641 4.59046875 0.03417969 5.5546875 0.05078125 C6.92367188 0.04594727 6.92367188 0.04594727 8.3203125 0.04101562 C16.6503549 0.10627949 24.94157964 0.64756718 31.4296875 6.36328125 C36.09925194 15.05833227 36.9723432 26.33089904 34.86328125 35.9453125 C33.89574749 38.67568265 32.89408738 40.90339011 30.8203125 42.95703125 C30.36140625 43.42109375 29.9025 43.88515625 29.4296875 44.36328125 C29.5323068 47.33924097 30.7408971 48.82037035 32.4296875 51.30078125 C36.4837501 57.5085646 35.75309621 64.86940332 35.98730469 72.07568359 C36.05494526 74.12107559 36.13256602 76.1659317 36.2109375 78.2109375 C36.25476563 79.49355469 36.29859375 80.77617187 36.34375 82.09765625 C36.3845166 83.27553711 36.4252832 84.45341797 36.46728516 85.66699219 C36.4296875 88.36328125 36.4296875 88.36328125 35.4296875 89.36328125 C33.48218612 89.70336731 31.51999551 89.96134117 29.5546875 90.17578125 C28.48476563 90.30597656 27.41484375 90.43617188 26.3125 90.5703125 C23.4296875 90.36328125 23.4296875 90.36328125 21.77490234 88.70336914 C20.13081044 85.84336535 20.04701784 84.00162128 20.0234375 80.71484375 C20.00152344 79.626875 19.97960937 78.53890625 19.95703125 77.41796875 C19.94800781 76.28617187 19.93898438 75.154375 19.9296875 73.98828125 C20.19496199 64.15838083 20.19496199 64.15838083 16.4296875 55.36328125 C13.24024236 54.38692049 11.45796249 53.84914376 8.4296875 55.36328125 C8.40463135 56.3577124 8.3795752 57.35214355 8.35375977 58.37670898 C8.25983868 62.05376872 8.15958131 65.73063275 8.05737305 69.4074707 C8.01396604 71.00117425 7.97229531 72.59492605 7.93237305 74.1887207 C7.87480943 76.47492033 7.81107601 78.76087574 7.74609375 81.046875 C7.72102501 82.12188515 7.72102501 82.12188515 7.69544983 83.21861267 C7.54355921 88.24940954 7.54355921 88.24940954 6.4296875 89.36328125 C4.45349303 89.48843053 2.47230577 89.53900885 0.4921875 89.55078125 C-0.58933594 89.56496094 -1.67085938 89.57914062 -2.78515625 89.59375 C-5.5703125 89.36328125 -5.5703125 89.36328125 -7.5703125 87.36328125 C-7.77402847 84.6991628 -7.85350781 82.13855898 -7.8449707 79.47290039 C-7.85008163 78.65812729 -7.85519257 77.84335419 -7.86045837 77.00389099 C-7.87439465 74.3019991 -7.87339457 71.60036113 -7.87109375 68.8984375 C-7.87497853 67.02518112 -7.87931274 65.15192561 -7.88407898 63.27867126 C-7.89154992 59.34859362 -7.89124365 55.41860579 -7.88598633 51.48852539 C-7.88019121 46.4464646 -7.89711947 41.40477108 -7.920331 36.36277103 C-7.93504685 32.49293357 -7.93594297 28.62318499 -7.93282127 24.75332451 C-7.93333559 22.89414174 -7.93859396 21.03495415 -7.94863319 19.17579842 C-7.96093852 16.57797354 -7.95424171 13.98086955 -7.94262695 11.38305664 C-7.95027069 10.61152252 -7.95791443 9.8399884 -7.96578979 9.04507446 C-7.91434938 3.8526946 -7.91434938 3.8526946 -6.17988586 1.38531494 C-4.02439421 0.01663854 -2.54557454 -0.00940546 0 0 Z M7.4296875 15.36328125 C7.17760028 19.16916269 7.24446406 22.98753581 7.2421875 26.80078125 C7.22994141 27.87650391 7.21769531 28.95222656 7.20507812 30.06054688 C7.20314453 31.08728516 7.20121094 32.11402344 7.19921875 33.171875 C7.19510986 34.11861084 7.19100098 35.06534668 7.18676758 36.04077148 C7.20352244 38.55692469 7.20352244 38.55692469 9.4296875 40.36328125 C12.61653749 40.41386617 14.53373604 40.44112003 17.4296875 39.36328125 C21.33765873 33.86769671 21.33969593 26.91177327 20.4296875 20.36328125 C18.65127251 16.65989552 18.65127251 16.65989552 15.4296875 14.36328125 C11.11475127 13.82389611 11.11475127 13.82389611 7.4296875 15.36328125 Z " fill="#000000" transform="translate(289.5703125,152.63671875)"/>
<path d="M0 0 C1.33901367 0.0009668 1.33901367 0.0009668 2.70507812 0.00195312 C3.63642578 0.01806641 4.56777344 0.03417969 5.52734375 0.05078125 C6.88375977 0.04594727 6.88375977 0.04594727 8.26757812 0.04101562 C17.1507431 0.11086181 25.26073618 0.50959826 32.08984375 6.6328125 C35.82539836 11.33409288 35.8737032 16.42259513 36.08984375 22.17578125 C36.12706543 23.04525391 36.16428711 23.91472656 36.20263672 24.81054688 C36.61925319 35.66177403 36.6178267 46.50689121 36.46484375 57.36328125 C36.45759277 58.31460938 36.4503418 59.2659375 36.44287109 60.24609375 C36.41506477 62.95320469 36.3522322 65.65710822 36.27734375 68.36328125 C36.26888428 69.554375 36.26888428 69.554375 36.26025391 70.76953125 C36.03176574 76.66730315 34.18396605 80.77512128 30.46484375 85.36328125 C25.47566621 89.13558622 21.08259045 89.48881646 14.94921875 89.4609375 C13.69882812 89.45771484 12.4484375 89.45449219 11.16015625 89.45117188 C9.20722656 89.43860352 9.20722656 89.43860352 7.21484375 89.42578125 C5.23871094 89.41901367 5.23871094 89.41901367 3.22265625 89.41210938 C-0.02999366 89.40032441 -3.28255209 89.38387136 -6.53515625 89.36328125 C-8.09835688 86.23688 -7.69132865 82.90550911 -7.69628906 79.47290039 C-7.70125397 78.65812729 -7.70621887 77.84335419 -7.71133423 77.00389099 C-7.72596855 74.30206465 -7.73275941 71.600297 -7.73828125 68.8984375 C-7.74403098 67.02518206 -7.74978873 65.15192665 -7.7555542 63.27867126 C-7.76606734 59.34861984 -7.77190818 55.4185889 -7.77539062 51.48852539 C-7.78088071 46.4464893 -7.80491836 41.40472254 -7.83336258 36.36277103 C-7.85196115 32.49294741 -7.85719304 28.62318906 -7.8587265 24.75332451 C-7.86175908 22.89413414 -7.8698079 21.03494508 -7.88291168 19.17579842 C-7.89991678 16.57800753 -7.89810585 13.98088019 -7.89160156 11.38305664 C-7.90081635 10.61152252 -7.91003113 9.8399884 -7.91952515 9.04507446 C-7.87867724 3.85196071 -7.87867724 3.85196071 -6.14472961 1.38531494 C-3.99792213 0.02215273 -2.53561472 -0.00944315 0 0 Z M7.46484375 15.36328125 C7.360555 17.19355297 7.32630001 19.0278558 7.31958008 20.86108398 C7.31320023 22.03577744 7.30682037 23.21047089 7.30024719 24.42076111 C7.29913437 25.69987869 7.29802155 26.97899628 7.296875 28.296875 C7.2935466 29.60028336 7.2902182 30.90369171 7.28678894 32.24659729 C7.28079175 35.0098656 7.27894963 37.7731026 7.27954102 40.53637695 C7.27964266 44.08196598 7.26599144 47.62735482 7.24876881 51.17289639 C7.23499362 54.54755924 7.23556052 57.92218434 7.234375 61.296875 C7.22718948 62.57396835 7.22000397 63.85106171 7.21260071 65.16685486 C7.21567734 66.34470047 7.21875397 67.52254608 7.22192383 68.73608398 C7.22049881 69.77675522 7.21907379 70.81742645 7.21760559 71.88963318 C7.21875175 74.53937394 7.21875175 74.53937394 9.46484375 76.36328125 C13.30928588 76.69758057 16.31407025 76.72636138 19.46484375 74.36328125 C22.04904233 69.68233827 21.73741221 64.97932187 21.6953125 59.78515625 C21.69485428 58.85914612 21.69439606 57.93313599 21.69392395 56.97906494 C21.69090829 55.02232582 21.68304256 53.06558895 21.6706543 51.10888672 C21.65249244 48.13760714 21.65014421 45.16664162 21.65039062 42.1953125 C21.64547094 40.28775776 21.63964067 38.38020511 21.6328125 36.47265625 C21.63169968 35.59422058 21.63058685 34.71578491 21.62944031 33.81072998 C22.05365911 24.04838355 22.05365911 24.04838355 18.90234375 15.30078125 C15.79236252 14.10463462 10.04558043 12.78254457 7.46484375 15.36328125 Z " fill="#000000" transform="translate(537.53515625,152.63671875)"/>
<path d="M0 0 C0.8971875 -0.00257813 1.794375 -0.00515625 2.71875 -0.0078125 C4.12253906 0.00378906 4.12253906 0.00378906 5.5546875 0.015625 C6.46734375 0.00789062 7.38 0.00015625 8.3203125 -0.0078125 C16.65956581 0.01594606 24.9413914 0.53178194 31.4296875 6.265625 C36.13672063 13.45765757 35.99884749 19.96880044 35.92578125 28.3984375 C35.92593651 29.76268592 35.92743002 31.12693478 35.93019104 32.49118042 C35.93156885 35.33725712 35.919119 38.18282606 35.89624023 41.02880859 C35.86780236 44.66477965 35.87061551 48.29991182 35.88333035 51.93594551 C35.89030463 54.74823089 35.88247936 57.56032443 35.87007332 60.3725853 C35.86340643 62.36110091 35.86768706 64.34964357 35.87217712 66.33816528 C35.85315086 68.16068314 35.85315086 68.16068314 35.83374023 70.02001953 C35.82833725 71.08398956 35.82293427 72.14795959 35.81736755 73.24417114 C35.16259823 78.347233 33.23786017 81.49259028 29.5546875 85.015625 C24.71260049 88.50192765 20.43564054 89.57990281 14.5546875 90.390625 C13.38164062 90.55820313 12.20859375 90.72578125 11 90.8984375 C-0.04042999 92.03388654 -0.04042999 92.03388654 -4.5703125 89.265625 C-7.4954313 84.59548631 -8.00311808 80.56449592 -7.95849609 75.18066406 C-7.96375305 74.39296127 -7.96901001 73.60525848 -7.97442627 72.79368591 C-7.98756548 70.20600203 -7.97891344 67.61893945 -7.96875 65.03125 C-7.97077168 63.22857546 -7.9736839 61.42590172 -7.97744751 59.62322998 C-7.98186191 55.85404639 -7.97546529 52.08507664 -7.96142578 48.31591797 C-7.94428513 43.47786696 -7.95421134 38.64031344 -7.97214317 33.80228043 C-7.98296302 30.08431215 -7.97954383 26.36646268 -7.9717598 22.64849091 C-7.96975534 20.86384777 -7.97222563 19.07919393 -7.97919846 17.29456329 C-7.98678887 14.80708523 -7.97524562 12.3204247 -7.95849609 9.83300781 C-7.96456879 9.09221481 -7.97064148 8.35142181 -7.97689819 7.58818054 C-7.95126343 5.54083252 -7.95126343 5.54083252 -7.5703125 2.265625 C-4.4092018 0.15821787 -3.61663304 0.01011242 0 0 Z M7.4296875 14.265625 C6.11750855 16.8899829 6.29540774 18.84628538 6.28442383 21.78515625 C6.27804398 22.93975342 6.27166412 24.09435059 6.26509094 25.28393555 C6.26397812 26.53601807 6.2628653 27.78810059 6.26171875 29.078125 C6.25839035 30.35792236 6.25506195 31.63771973 6.25163269 32.95629883 C6.24564206 35.66651249 6.24379277 38.37669425 6.24438477 41.08691406 C6.2444865 44.56409462 6.23082227 48.04107151 6.21361256 51.51820374 C6.1998399 54.82984755 6.20040447 58.14145287 6.19921875 61.453125 C6.19203323 62.70520752 6.18484772 63.95729004 6.17744446 65.24731445 C6.18052109 66.40191162 6.18359772 67.55650879 6.18676758 68.74609375 C6.18534256 69.76598389 6.18391754 70.78587402 6.18244934 71.83666992 C6.18968991 74.44687209 6.18968991 74.44687209 8.4296875 76.265625 C12.60707926 76.57506143 15.9069858 76.70441849 19.4296875 74.265625 C20.70386324 71.71727351 20.57754106 69.89048133 20.60668945 67.03735352 C20.62594231 65.40039268 20.62594231 65.40039268 20.64558411 63.73036194 C20.65297104 62.54703781 20.66035797 61.36371368 20.66796875 60.14453125 C20.6760405 58.9336937 20.68411224 57.72285614 20.69242859 56.47532654 C20.70627641 53.91056759 20.71699543 51.34579015 20.72485352 48.78100586 C20.74210125 44.84779295 20.78598685 40.91541275 20.83007812 36.98242188 C20.84020153 34.49479787 20.84871873 32.0071667 20.85546875 29.51953125 C20.87297684 28.33823135 20.89048492 27.15693146 20.90852356 25.93983459 C20.90559799 24.84537521 20.90267242 23.75091583 20.8996582 22.62329102 C20.90552444 21.65891617 20.91139069 20.69454132 20.91743469 19.70094299 C20.64190971 17.12566466 20.64190971 17.12566466 18.54777527 15.44908142 C16.04142024 14.04868528 14.52746059 13.95248795 11.6796875 14.078125 C10.48085938 14.11873047 10.48085938 14.11873047 9.2578125 14.16015625 C8.65453125 14.19496094 8.05125 14.22976562 7.4296875 14.265625 Z " fill="#000000" transform="translate(431.5703125,152.734375)"/>
<path d="M0 0 C1.42855138 -0.00397925 2.85738241 0.01911204 4.28515625 0.06640625 C5.00123047 0.05544922 5.71730469 0.04449219 6.45507812 0.03320312 C9.7259872 0.07867452 11.86374533 0.25860107 14.49511719 2.2722168 C16.80225819 5.20722366 17.18123088 7.2151556 17.7734375 10.90234375 C17.88641678 11.57631195 17.99939606 12.25028015 18.11579895 12.94467163 C18.38211671 14.54815619 18.64052209 16.15296515 18.89312744 17.75866699 C19.41573943 21.058835 19.96572085 24.35392946 20.51708984 27.64941406 C21.64669652 34.42833686 22.75114797 41.21106374 23.84643555 47.99560547 C24.42348857 51.56908105 25.00681852 55.14150279 25.59157848 58.71372414 C26.04517582 61.49108685 26.49450333 64.26912809 26.94265175 67.04737473 C27.25882316 69.00094142 27.57933818 70.95380356 27.89994812 72.90664673 C28.09047256 74.0958371 28.28099701 75.28502747 28.47729492 76.51025391 C28.64589523 77.5500943 28.81449554 78.58993469 28.98820496 79.6612854 C29.3539347 82.68074094 29.41079869 85.59052401 29.34765625 88.62890625 C24.18196184 90.42108594 20.83711712 90.74920439 15.34765625 89.62890625 C15.11691406 88.72527344 14.88617188 87.82164062 14.6484375 86.890625 C14.15923828 85.12138672 14.15923828 85.12138672 13.66015625 83.31640625 C13.34691406 82.14464844 13.03367187 80.97289062 12.7109375 79.765625 C11.11762841 76.09964448 10.00882008 75.12615832 6.34765625 73.62890625 C3.43771715 73.43491031 1.25420912 74.00947695 -1.65234375 74.62890625 C-4.77302483 77.74958733 -4.36034649 81.60606251 -4.796875 85.87890625 C-5.65234375 88.62890625 -5.65234375 88.62890625 -7.9921875 90.0234375 C-11.46156641 90.81309056 -14.19471586 90.36032754 -17.65234375 89.62890625 C-19.23756845 88.04368155 -18.8075972 86.4400209 -18.81542969 84.24462891 C-18.75559954 78.64455179 -17.99023752 73.28753512 -17.04296875 67.77734375 C-16.87488708 66.76080719 -16.70680542 65.74427063 -16.53363037 64.69692993 C-15.99738782 61.46461503 -15.45011217 58.23428565 -14.90234375 55.00390625 C-14.55004332 52.89205005 -14.19847566 50.78007148 -13.84765625 48.66796875 C-13.14661849 44.45141607 -12.43619067 40.23658337 -11.72070312 36.02246094 C-10.98070608 31.64237355 -10.27820765 27.25817288 -9.59960938 22.86816406 C-9.42733826 21.77541168 -9.25506714 20.6826593 -9.07757568 19.55679321 C-8.75044303 17.47624622 -8.43149766 15.39438954 -8.12213135 13.31112671 C-6.17336623 1.06300745 -6.17336623 1.06300745 0 0 Z M4.34765625 22.62890625 C2.42209553 24.55446697 2.53675565 27.92110264 2.12109375 30.55078125 C2.0091568 31.24778137 1.89721985 31.94478149 1.78189087 32.66290283 C1.54607374 34.1421062 1.31252785 35.62167314 1.08105469 37.1015625 C0.72609292 39.35706886 0.35756122 41.61008103 -0.01171875 43.86328125 C-0.23912187 45.30064851 -0.46571036 46.73814493 -0.69140625 48.17578125 C-0.80279938 48.84679871 -0.9141925 49.51781616 -1.02896118 50.20916748 C-1.59658423 53.93895856 -1.73158338 56.99419646 -0.65234375 60.62890625 C0.33033484 61.83451809 0.33033484 61.83451809 2.1953125 61.7265625 C4.24609375 61.69401042 6.296875 61.66145833 8.34765625 61.62890625 C11.09624378 57.73285015 10.16013844 54.00666141 9.44921875 49.58203125 C9.33540863 48.81082947 9.22159851 48.03962769 9.1043396 47.24505615 C8.7389247 44.78772735 8.35604948 42.33348772 7.97265625 39.87890625 C7.72149985 38.21111123 7.47148632 36.54314368 7.22265625 34.875 C6.61088882 30.79084997 5.9834513 26.70938192 5.34765625 22.62890625 C5.01765625 22.62890625 4.68765625 22.62890625 4.34765625 22.62890625 Z " fill="#000000" transform="translate(493.65234375,152.37109375)"/>
<path d="M0 0 C5.65624242 4.10077575 9.0235189 7.96070492 10.5 14.8125 C10.98194097 20.24939656 11.32649701 24.99281586 8.5 29.8125 C6.87536158 29.86645478 5.25021459 29.90527195 3.625 29.9375 C2.26761719 29.97230469 2.26761719 29.97230469 0.8828125 30.0078125 C-1.5 29.8125 -1.5 29.8125 -3.5 27.8125 C-3.7734375 25.3515625 -3.7734375 25.3515625 -3.875 22.4375 C-4.14961349 18.89079697 -4.30488793 17.13046041 -6.1875 14.0625 C-8.5299202 12.54251944 -8.5299202 12.54251944 -11.6875 12.9375 C-13.0796875 13.370625 -13.0796875 13.370625 -14.5 13.8125 C-15.76451011 16.34152022 -15.6406959 18.11805522 -15.66113281 20.94897461 C-15.67074036 22.02026108 -15.6803479 23.09154755 -15.69024658 24.19529724 C-15.6966214 25.93747276 -15.6966214 25.93747276 -15.703125 27.71484375 C-15.70882507 28.90348526 -15.71452515 30.09212677 -15.72039795 31.31678772 C-15.72985676 33.83447374 -15.73638542 36.3521722 -15.74023438 38.86987305 C-15.74995098 42.73052416 -15.78097142 46.59064556 -15.8125 50.45117188 C-15.81902867 52.89322599 -15.82427968 55.33528393 -15.828125 57.77734375 C-15.8404718 58.93676987 -15.8528186 60.09619598 -15.86553955 61.29075623 C-15.86253845 62.36519485 -15.85953735 63.43963348 -15.85644531 64.54663086 C-15.86009094 65.49324081 -15.86373657 66.43985077 -15.86749268 67.41514587 C-15.67458479 69.85269556 -15.67458479 69.85269556 -14.20819092 71.66114807 C-12.3306489 73.18622206 -12.3306489 73.18622206 -8.8125 72.5 C-7.719375 72.273125 -6.62625 72.04625 -5.5 71.8125 C-4.07003574 67.52260722 -4.11455684 63.24351037 -3.87890625 58.74609375 C-3.5 55.8125 -3.5 55.8125 -1.5 53.8125 C0.8125 53.51171875 0.8125 53.51171875 3.5 53.5 C4.386875 53.48324219 5.27375 53.46648437 6.1875 53.44921875 C6.950625 53.56910156 7.71375 53.68898437 8.5 53.8125 C11.89776176 58.90914264 10.9747585 65.23400782 10.1875 71.16796875 C8.88323977 77.18852715 6.3743733 81.19372306 1.75 85.1875 C-4.65516271 88.48039276 -14.44533845 88.09696942 -21.17578125 85.96484375 C-26.16339643 83.19394643 -28.71161078 79.14735598 -30.5 73.8125 C-31.29164918 70.38917418 -31.62984322 67.21653913 -31.64526367 63.70605469 C-31.65164352 62.71442322 -31.65802338 61.72279175 -31.66459656 60.70111084 C-31.66570938 59.63958801 -31.6668222 58.57806519 -31.66796875 57.484375 C-31.67129715 56.38079651 -31.67462555 55.27721802 -31.67805481 54.14019775 C-31.68311226 51.80684831 -31.6854635 49.47349164 -31.68530273 47.14013672 C-31.68748348 43.58939528 -31.70563624 40.03896752 -31.72460938 36.48828125 C-31.72754477 34.21614689 -31.72952859 31.94401106 -31.73046875 29.671875 C-31.73765427 28.6184491 -31.74483978 27.56502319 -31.75224304 26.47967529 C-31.72550963 17.75364496 -31.28761322 9.75763586 -25.5 2.8125 C-18.31444606 -2.39702661 -8.26721442 -2.80494775 0 0 Z " fill="#000000" transform="translate(385.5,154.1875)"/>
<path d="M0 0 C0.74567734 -0.0004985 1.49135468 -0.00099701 2.2596283 -0.00151062 C3.83400135 0.00082764 5.4083783 0.0105417 6.98266602 0.02709961 C9.39698553 0.05072881 11.81020335 0.04765469 14.22460938 0.04101562 C15.75391285 0.04659129 17.28321167 0.05370047 18.8125 0.0625 C19.89846214 0.06113289 19.89846214 0.06113289 21.00636292 0.05973816 C26.10879812 0.13223562 26.10879812 0.13223562 28.33984375 2.36328125 C28.60546875 4.67578125 28.60546875 4.67578125 28.58984375 7.36328125 C28.59757813 8.69359375 28.59757813 8.69359375 28.60546875 10.05078125 C28.33984375 12.36328125 28.33984375 12.36328125 26.33984375 14.36328125 C23.87815812 14.61964614 21.49501262 14.78329961 19.02734375 14.86328125 C12.43290959 15.09007907 12.43290959 15.09007907 6.33984375 17.36328125 C4.10807321 20.71093706 4.09351052 21.8338941 4.15234375 25.73828125 C4.15878906 26.67414063 4.16523437 27.61 4.171875 28.57421875 C4.33513839 31.28515039 4.61366131 33.74532416 5.33984375 36.36328125 C8.87015248 38.12843562 13.11146055 37.77398513 17.01757812 37.96875 C22.23905206 38.26248956 22.23905206 38.26248956 23.33984375 39.36328125 C23.46439235 41.00558489 23.51552899 42.65380401 23.52734375 44.30078125 C23.54152344 45.19667969 23.55570313 46.09257812 23.5703125 47.015625 C23.33984375 49.36328125 23.33984375 49.36328125 21.33984375 51.36328125 C18.625 51.7421875 18.625 51.7421875 15.40234375 51.92578125 C12.09513427 52.1226868 9.49100211 52.31289513 6.33984375 53.36328125 C5.13954467 55.76387942 5.22524632 57.25688774 5.2421875 59.93359375 C5.24541016 60.82949219 5.24863281 61.72539062 5.25195312 62.6484375 C5.26033203 63.58558594 5.26871094 64.52273437 5.27734375 65.48828125 C5.28185547 66.43316406 5.28636719 67.37804687 5.29101562 68.3515625 C5.30282018 70.68886512 5.31928616 73.02604186 5.33984375 75.36328125 C5.96552246 75.38310059 6.59120117 75.40291992 7.23583984 75.42333984 C10.06260894 75.51842351 12.8886219 75.62816871 15.71484375 75.73828125 C16.6996875 75.76921875 17.68453125 75.80015625 18.69921875 75.83203125 C19.64023437 75.87070313 20.58125 75.909375 21.55078125 75.94921875 C22.85474854 75.9963501 22.85474854 75.9963501 24.18505859 76.04443359 C26.33984375 76.36328125 26.33984375 76.36328125 28.33984375 78.36328125 C28.60546875 80.45703125 28.60546875 80.45703125 28.58984375 82.86328125 C28.59757813 84.054375 28.59757813 84.054375 28.60546875 85.26953125 C28.33984375 87.36328125 28.33984375 87.36328125 26.33984375 89.36328125 C23.61498647 89.53845872 20.99325013 89.59477258 18.26953125 89.55859375 C17.47330353 89.55576385 16.67707581 89.55293396 15.85671997 89.55001831 C13.30927612 89.53880765 10.76218164 89.51370187 8.21484375 89.48828125 C6.4895884 89.47825258 4.76432756 89.46912653 3.0390625 89.4609375 C-1.19414539 89.43886547 -5.42709155 89.40432992 -9.66015625 89.36328125 C-11.22335688 86.23688 -10.81632865 82.90550911 -10.82128906 79.47290039 C-10.82625397 78.65812729 -10.83121887 77.84335419 -10.83633423 77.00389099 C-10.85096855 74.30206465 -10.85775941 71.600297 -10.86328125 68.8984375 C-10.86903098 67.02518206 -10.87478873 65.15192665 -10.8805542 63.27867126 C-10.89106734 59.34861984 -10.89690818 55.4185889 -10.90039062 51.48852539 C-10.90588071 46.4464893 -10.92991836 41.40472254 -10.95836258 36.36277103 C-10.97696115 32.49294741 -10.98219304 28.62318906 -10.9837265 24.75332451 C-10.98675908 22.89413414 -10.9948079 21.03494508 -11.00791168 19.17579842 C-11.02491678 16.57800753 -11.02310585 13.98088019 -11.01660156 11.38305664 C-11.02581635 10.61152252 -11.03503113 9.8399884 -11.04452515 9.04507446 C-11.00392267 3.88316405 -11.00392267 3.88316405 -9.35224915 1.38531494 C-6.459667 -0.36182106 -3.27832042 -0.04182074 0 0 Z " fill="#000000" transform="translate(590.66015625,152.63671875)"/>
<path d="M0 0 C1.08166443 -0.00074776 1.08166443 -0.00074776 2.18518066 -0.00151062 C3.70828002 0.00082763 5.23138339 0.01054165 6.75439453 0.02709961 C9.08531253 0.05069584 11.41508663 0.04765877 13.74609375 0.04101562 C15.22656932 0.04659254 16.70704007 0.05370251 18.1875 0.0625 C18.8844397 0.06158859 19.58137939 0.06067719 20.29943848 0.05973816 C23.94808425 0.11318049 25.47187115 0.28202868 28.59375 2.36328125 C28.95703125 4.67578125 28.95703125 4.67578125 28.90625 7.36328125 C28.90238281 8.25015625 28.89851563 9.13703125 28.89453125 10.05078125 C28.59375 12.36328125 28.59375 12.36328125 26.59375 14.36328125 C24.13206437 14.61964614 21.74891887 14.78329961 19.28125 14.86328125 C12.65047295 15.00853774 12.65047295 15.00853774 6.59375 17.36328125 C4.03286138 21.45920545 4.52734676 25.55215806 4.96875 30.17578125 C5.175 32.54765625 5.38125 34.91953125 5.59375 37.36328125 C11.20375 37.69328125 16.81375 38.02328125 22.59375 38.36328125 C24.86813837 42.91205799 24.66886657 44.52525669 23.59375 49.36328125 C20.83830169 52.11872956 18.93481623 51.7260798 15.09375 51.92578125 C10.68441238 52.02735396 10.68441238 52.02735396 6.59375 53.36328125 C6.59375 59.96328125 6.59375 66.56328125 6.59375 73.36328125 C11.43475477 75.78378363 14.87371902 75.4891693 20.19335938 75.28515625 C23.93555736 75.19596782 25.38333205 75.22300261 28.59375 77.36328125 C28.921875 79.67578125 28.921875 79.67578125 28.84375 82.36328125 C28.82828125 83.25015625 28.8128125 84.13703125 28.796875 85.05078125 C28.59375 87.36328125 28.59375 87.36328125 27.59375 89.36328125 C21.1513263 90.78787353 14.53667133 90.54697155 7.96875 90.55078125 C6.29039062 90.56915039 6.29039062 90.56915039 4.578125 90.58789062 C2.95777344 90.59079102 2.95777344 90.59079102 1.3046875 90.59375 C0.32806152 90.59785889 -0.64856445 90.60196777 -1.65478516 90.60620117 C-4.63784425 90.34283437 -6.76310754 89.76911472 -9.40625 88.36328125 C-10.6236883 84.71096635 -10.56172367 81.34621857 -10.56738281 77.54296875 C-10.57234772 76.74755676 -10.57731262 75.95214478 -10.58242798 75.13262939 C-10.59703487 72.50117123 -10.60384796 69.86977329 -10.609375 67.23828125 C-10.6151262 65.41129555 -10.62088393 63.58430988 -10.62664795 61.75732422 C-10.63715272 57.92740599 -10.6429993 54.09750873 -10.64648438 50.26757812 C-10.65197819 45.35448323 -10.67602723 40.44166421 -10.70445633 35.52865601 C-10.72305393 31.75576966 -10.72828669 27.98295029 -10.72982025 24.21002197 C-10.73285215 22.39827969 -10.74089867 20.58653872 -10.75400543 18.77484131 C-10.77101142 16.24420961 -10.76919964 13.71425899 -10.76269531 11.18359375 C-10.7719101 10.43233215 -10.78112488 9.68107056 -10.7906189 8.90704346 C-10.75000732 3.87722948 -10.75000732 3.87722948 -9.09161377 1.39778137 C-6.26884161 -0.33487611 -3.21038256 -0.04242377 0 0 Z " fill="#000000" transform="translate(196.40625,152.63671875)"/>
<path d="M0 0 C1.08166443 -0.00642769 1.08166443 -0.00642769 2.18518066 -0.01298523 C3.70824128 -0.01872256 5.23132929 -0.01923317 6.75439453 -0.01489258 C9.08543528 -0.01173003 11.41520968 -0.03520583 13.74609375 -0.06054688 C15.2265609 -0.06281968 16.70703146 -0.06352345 18.1875 -0.0625 C19.23290955 -0.07631462 19.23290955 -0.07631462 20.29943848 -0.09040833 C23.20346633 -0.06261289 25.13020659 -0.03029619 27.53393555 1.68652344 C28.9466437 3.83829176 28.96102245 5.30582918 28.90625 7.86328125 C28.90238281 8.64832031 28.89851563 9.43335938 28.89453125 10.2421875 C28.59375 12.30078125 28.59375 12.30078125 26.59375 14.30078125 C23.96681656 14.55735189 21.41385017 14.72107653 18.78125 14.80078125 C11.95708761 14.99323805 11.95708761 14.99323805 5.59375 17.30078125 C4.1230723 20.24213665 4.42326001 22.9030553 4.40625 26.17578125 C4.38498047 28.02816406 4.38498047 28.02816406 4.36328125 29.91796875 C4.57609545 33.04164837 4.94137774 34.70139721 6.59375 37.30078125 C7.48578125 37.26597656 8.3778125 37.23117188 9.296875 37.1953125 C10.46734375 37.16824219 11.6378125 37.14117187 12.84375 37.11328125 C14.58398438 37.06107422 14.58398438 37.06107422 16.359375 37.0078125 C19.85530334 37.32447268 21.22998794 37.73523462 23.59375 40.30078125 C24.0546875 42.23828125 24.0546875 42.23828125 23.96875 44.30078125 C23.95585937 44.98140625 23.94296875 45.66203125 23.9296875 46.36328125 C23.59375 48.30078125 23.59375 48.30078125 21.59375 51.30078125 C18.9140625 51.7421875 18.9140625 51.7421875 15.71875 51.86328125 C11.42966992 52.03716288 9.55071119 52.32230065 5.59375 54.30078125 C5.26375 61.23078125 4.93375 68.16078125 4.59375 75.30078125 C6.15867187 75.33816406 7.72359375 75.37554687 9.3359375 75.4140625 C11.380233 75.47970502 13.42450275 75.54615293 15.46875 75.61328125 C16.50128906 75.63583984 17.53382812 75.65839844 18.59765625 75.68164062 C20.07685547 75.73481445 20.07685547 75.73481445 21.5859375 75.7890625 C22.49714355 75.81524658 23.40834961 75.84143066 24.34716797 75.8684082 C25.08854004 76.01109131 25.82991211 76.15377441 26.59375 76.30078125 C29.30607939 80.36927534 28.90074887 82.46554909 28.59375 87.30078125 C25.72625573 90.16827552 23.58725442 89.64869063 19.57421875 89.78515625 C18.87863358 89.80926575 18.1830484 89.83337524 17.46638489 89.85821533 C15.99295776 89.90653829 14.51936175 89.94992439 13.0456543 89.98876953 C10.7998422 90.05027209 8.55556476 90.13341811 6.31054688 90.21875 C4.87764421 90.26303384 3.44470148 90.30604356 2.01171875 90.34765625 C0.71000732 90.38729492 -0.5917041 90.42693359 -1.93286133 90.46777344 C-5.3136896 90.30523133 -7.34782371 89.62650202 -10.40625 88.30078125 C-10.47565417 77.1223552 -10.52901241 65.94398011 -10.56168652 54.76538277 C-10.5773657 49.57511936 -10.59864496 44.38500299 -10.63256836 39.19482422 C-10.66508162 34.18926415 -10.68308602 29.18384581 -10.69088173 24.17818832 C-10.69643972 22.26513308 -10.70729261 20.3520859 -10.72344017 18.43909073 C-10.74510787 15.76667557 -10.74822143 13.09485165 -10.74682617 10.42236328 C-10.757612 9.62539032 -10.76839783 8.82841736 -10.7795105 8.0072937 C-10.76701355 5.80618286 -10.76701355 5.80618286 -10.40625 2.30078125 C-6.80515725 -0.09994725 -4.16185911 -0.00544258 0 0 Z " fill="#000000" transform="translate(107.40625,152.69921875)"/>
<path d="M0 0 C13 0 13 0 17 3 C17.60805321 4.87458801 17.60805321 4.87458801 17.74765015 6.99926758 C17.80287212 7.79934235 17.8580941 8.59941711 17.91498947 9.42373657 C18.06457273 13.95689119 18.08995542 18.47647993 18.03759766 23.01171875 C18.02959641 24.07456589 18.02159515 25.13741302 18.01335144 26.23246765 C17.985648 29.71754827 17.95011521 33.20249652 17.9140625 36.6875 C17.89227876 39.11604524 17.87082985 41.54459351 17.84970093 43.97314453 C17.80433306 49.04675214 17.75511529 54.1203037 17.703125 59.19384766 C17.63661564 65.71207126 17.5794578 72.23033759 17.52509499 78.74867249 C17.48237878 83.7550622 17.43492815 88.76139822 17.38599777 93.76773071 C17.36303872 96.17280758 17.34153682 98.5778988 17.32149124 100.98300171 C17.29285733 104.32988241 17.25790657 107.67663706 17.22119141 111.0234375 C17.2138649 112.02493332 17.20653839 113.02642914 17.19898987 114.05827332 C17.18775589 114.96378433 17.17652191 115.86929535 17.16494751 116.80224609 C17.15719614 117.59343842 17.14944477 118.38463074 17.14145851 119.19979858 C17 121 17 121 16 122 C10.72 122 5.44 122 0 122 C0 81.74 0 41.48 0 0 Z " fill="#000000" transform="translate(0,0)"/>
<path d="M0 0 C0.83208984 -0.0066568 1.66417969 -0.0133136 2.52148438 -0.02017212 C4.27992543 -0.03029255 6.03840485 -0.03498933 7.796875 -0.03466797 C10.49022372 -0.03904661 13.18194068 -0.0753855 15.875 -0.11328125 C17.58332772 -0.11914842 19.29166324 -0.12311848 21 -0.125 C21.80630859 -0.13937103 22.61261719 -0.15374207 23.44335938 -0.16854858 C28.98971275 -0.12309765 28.98971275 -0.12309765 31.5078125 2.14208984 C32.96103323 5.35533824 32.87918765 7.86005074 32.5 11.3359375 C30.82696153 13.67167303 29.90487425 14.26285317 27.0546875 14.77734375 C26.17039062 14.81730469 25.28609375 14.85726562 24.375 14.8984375 C21.75849402 14.98182822 21.75849402 14.98182822 19.5 15.3359375 C18.04449197 18.24695356 18.3348901 20.82910948 18.29467773 24.08056641 C18.27982834 25.11975975 18.27982834 25.11975975 18.26467896 26.1799469 C18.23304503 28.47409628 18.20829914 30.76826639 18.18359375 33.0625 C18.16302585 34.65148462 18.14202942 36.24046374 18.12062073 37.82943726 C18.06538309 42.01496945 18.01598131 46.20055116 17.96777344 50.38616943 C17.91757074 54.6559287 17.86187826 58.92561592 17.80664062 63.1953125 C17.69903837 71.57545995 17.59759801 79.9556676 17.5 88.3359375 C12.42092404 90.46825788 9.87854561 90.5703578 4.5 89.3359375 C2.07237732 86.06310529 2.26314416 82.85118974 2.28881836 78.88671875 C2.29219711 77.57856201 2.29557587 76.27040527 2.29905701 74.92260742 C2.31259234 73.49788354 2.32618941 72.07316025 2.33984375 70.6484375 C2.34611739 69.18400466 2.35135641 67.71956706 2.35560608 66.25512695 C2.36889653 62.40311883 2.39332169 58.55126985 2.42095947 54.69934082 C2.46410702 48.53417767 2.49382742 42.36897217 2.5170002 36.20370483 C2.52720746 34.05216528 2.54425964 31.90075654 2.56199646 29.74926758 C2.56852737 28.44111084 2.57505829 27.1329541 2.58178711 25.78515625 C2.59004013 24.63362061 2.59829315 23.48208496 2.60679626 22.2956543 C2.51592614 19.7773093 2.24163415 17.7290699 1.5 15.3359375 C0.72914063 15.28695312 -0.04171875 15.23796875 -0.8359375 15.1875 C-1.83882812 15.11273438 -2.84171875 15.03796875 -3.875 14.9609375 C-5.37160156 14.85652344 -5.37160156 14.85652344 -6.8984375 14.75 C-9.5 14.3359375 -9.5 14.3359375 -11.5 12.3359375 C-11.80078125 10.0234375 -11.80078125 10.0234375 -11.8125 7.3359375 C-11.82925781 6.4490625 -11.84601563 5.5621875 -11.86328125 4.6484375 C-11.74339844 3.8853125 -11.62351563 3.1221875 -11.5 2.3359375 C-7.65746112 -0.22575509 -4.45826091 0.0123061 0 0 Z " fill="#000000" transform="translate(243.5,152.6640625)"/>
<path d="M0 0 C0.7734375 -0.00773438 1.546875 -0.01546875 2.34375 -0.0234375 C5.12378883 0.49026533 5.82785163 1.09620314 7.5 3.375 C7.89199829 6.379776 7.89199829 6.379776 7.91650391 10.10961914 C7.92508926 10.78959457 7.93367462 11.46957001 7.94252014 12.17015076 C7.96760669 14.41692425 7.97196107 16.66325545 7.9765625 18.91015625 C7.99086994 20.47050835 8.00662649 22.03084778 8.02377319 23.59117126 C8.06565444 27.69867436 8.0906326 31.80609895 8.11126709 35.91375732 C8.14706474 42.49241024 8.20799923 49.07086943 8.26975632 55.6493206 C8.28887808 57.95046312 8.30058567 60.25155388 8.31118774 62.55274963 C8.32139724 63.95842603 8.33175494 65.36410136 8.34228516 66.76977539 C8.34878082 67.99982803 8.35527649 69.22988068 8.36196899 70.49720764 C8.30311011 73.31776091 8.30311011 73.31776091 9.5 75.375 C10.06509277 75.39481934 10.63018555 75.41463867 11.21240234 75.43505859 C13.76707997 75.53018236 16.32092541 75.63991058 18.875 75.75 C19.76445312 75.7809375 20.65390625 75.811875 21.5703125 75.84375 C22.42109375 75.88242188 23.271875 75.92109375 24.1484375 75.9609375 C25.32672119 76.00806885 25.32672119 76.00806885 26.52880859 76.05615234 C28.5 76.375 28.5 76.375 30.5 78.375 C30.765625 80.46875 30.765625 80.46875 30.75 82.875 C30.75773437 84.06609375 30.75773437 84.06609375 30.765625 85.28125 C30.5 87.375 30.5 87.375 28.5 89.375 C25.9427206 89.58678882 23.49636686 89.67898869 20.9375 89.67578125 C20.19040771 89.68006638 19.44331543 89.6843515 18.67358398 89.68876648 C17.09327204 89.69451213 15.51293364 89.6950083 13.93261719 89.69067383 C11.50930912 89.68751215 9.08721965 89.71097408 6.6640625 89.73632812 C5.13020988 89.73860087 3.59635396 89.73930473 2.0625 89.73828125 C0.97183228 89.75209587 0.97183228 89.75209587 -0.14086914 89.76618958 C-2.18359375 89.74731445 -2.18359375 89.74731445 -5.5 89.375 C-7.98270523 85.65094215 -7.78869756 82.77322977 -7.7746582 78.46289062 C-7.77976913 77.65772507 -7.78488007 76.85255951 -7.79014587 76.022995 C-7.80405689 73.3590046 -7.80308417 70.69527242 -7.80078125 68.03125 C-7.80466698 66.18184309 -7.80900139 64.33243708 -7.81376648 62.48303223 C-7.82123166 58.60600898 -7.82093498 54.7290768 -7.81567383 50.85205078 C-7.80987478 45.87839813 -7.82681922 40.90511733 -7.8500185 35.93152618 C-7.86473319 32.11230278 -7.86563071 28.29316945 -7.86250877 24.47392273 C-7.863023 22.63985965 -7.86827958 20.80579165 -7.87832069 18.97175598 C-7.89062587 16.4099594 -7.88392973 13.84889382 -7.87231445 11.28710938 C-7.87995819 10.52649704 -7.88760193 9.7658847 -7.89547729 8.98222351 C-7.84404576 3.86303176 -7.84404576 3.86303176 -6.11149597 1.40539551 C-3.98109577 0.04321103 -2.51688101 -0.02516881 0 0 Z " fill="#000000" transform="translate(149.5,152.625)"/>
<path d="M0 0 C0.99 0.66 1.98 1.32 3 2 C3.29161852 4.74085571 3.38865964 7.25555171 3.35644531 9.99804688 C3.35951187 11.23724632 3.35951187 11.23724632 3.36264038 12.5014801 C3.36565614 15.24079293 3.34714761 17.9795084 3.328125 20.71875 C3.32506863 22.61681977 3.32319158 24.51489178 3.32244873 26.41296387 C3.31784065 30.39437417 3.30339557 34.37558277 3.28125 38.35693359 C3.25296725 43.46848187 3.24203906 48.57987109 3.2375679 53.69149017 C3.23341692 57.61189374 3.22360212 61.53226491 3.21169281 65.45265198 C3.20598279 67.33777099 3.20122652 69.22289314 3.19742584 71.10801697 C3.19057397 73.73938503 3.1769466 76.37062559 3.16113281 79.00195312 C3.16001495 79.78643326 3.15889709 80.57091339 3.15774536 81.37916565 C3.11469181 86.77061637 3.11469181 86.77061637 2 89 C-2.98515806 90.17297837 -6.29458129 90.01660802 -11 88 C-13.00149278 85.99850722 -12.16751158 81.96607672 -12.17700195 79.22314453 C-12.18357315 78.40851746 -12.19014435 77.59389038 -12.19691467 76.75457764 C-12.21669447 74.04732177 -12.22831999 71.34012146 -12.23828125 68.6328125 C-12.24235678 67.71073879 -12.2464323 66.78866508 -12.25063133 65.83864975 C-12.27151107 60.95932995 -12.28580508 56.08003845 -12.29516602 51.20068359 C-12.30624056 46.15069138 -12.34064695 41.1011386 -12.38033772 36.05130196 C-12.40643282 32.17718667 -12.41485145 28.30317724 -12.41844749 24.42898178 C-12.42333111 22.5669851 -12.43499523 20.7049937 -12.45348549 18.84308243 C-12.47772882 16.24024489 -12.47693954 13.63855944 -12.4699707 11.03564453 C-12.48918579 9.87598679 -12.48918579 9.87598679 -12.50878906 8.69290161 C-12.45773274 3.4763452 -12.45773274 3.4763452 -10.0978241 1.02047729 C-6.5434717 -0.70852178 -3.92966507 -0.31187818 0 0 Z " fill="#000000" transform="translate(414,153)"/>
<path d="M0 0 C0.7734375 -0.01675781 1.546875 -0.03351563 2.34375 -0.05078125 C4.5 0.3125 4.5 0.3125 6.11149597 1.33396912 C8.28093894 4.42528885 7.9083918 7.69074521 7.87231445 11.33227539 C7.87596512 12.14880081 7.87961578 12.96532623 7.88337708 13.80659485 C7.89148919 16.50799294 7.87786832 19.2087925 7.86328125 21.91015625 C7.86276277 23.78437805 7.86327999 25.6586004 7.86479187 27.53282166 C7.86470212 31.46117264 7.85426614 35.38931851 7.83618164 39.31762695 C7.81347876 44.36082334 7.81295289 49.40372033 7.81969929 54.44695377 C7.82303541 58.31675391 7.81641619 62.18648538 7.80657005 66.05627251 C7.80271277 67.91627074 7.80157202 69.7762766 7.8031559 71.63627815 C7.80352543 74.23170746 7.79093852 76.82674805 7.7746582 79.42211914 C7.77837433 80.58245667 7.77837433 80.58245667 7.78216553 81.76623535 C7.72874313 87.08375687 7.72874313 87.08375687 5.5 89.3125 C2.71484375 89.54296875 2.71484375 89.54296875 -0.5625 89.5 C-1.64660156 89.49355469 -2.73070312 89.48710937 -3.84765625 89.48046875 C-6.5 89.3125 -6.5 89.3125 -7.5 88.3125 C-7.61108989 85.64548575 -7.6573928 83.00412384 -7.66113281 80.33618164 C-7.66609772 79.50044113 -7.67106262 78.66470062 -7.67617798 77.80363464 C-7.69083678 75.02663361 -7.69760737 72.24968968 -7.703125 69.47265625 C-7.70887291 67.55073544 -7.71463068 65.62881467 -7.72039795 63.70689392 C-7.7309182 59.67251314 -7.73675431 55.63815235 -7.74023438 51.60375977 C-7.74572462 46.42371616 -7.76975962 41.24393469 -7.79820633 36.06397343 C-7.81679063 32.09296384 -7.82203603 28.12201796 -7.82357025 24.15096855 C-7.8266063 22.24071251 -7.83466661 20.33045783 -7.84775543 18.42024422 C-7.86473018 15.75269498 -7.86295704 13.08579358 -7.85644531 10.41821289 C-7.8656601 9.62281097 -7.87487488 8.82740906 -7.8843689 8.00790405 C-7.86749268 5.81117249 -7.86749268 5.81117249 -7.5 2.3125 C-4.40219052 0.24729368 -3.5459519 0.01772976 0 0 Z " fill="#000000" transform="translate(340.5,152.6875)"/>
</svg>
