<?xml version="1.0" encoding="UTF-8"?>
<svg version="1.1" xmlns="http://www.w3.org/2000/svg" width="719" height="274">
<path d="M0 0 C0.63043213 0.33008057 1.26086426 0.66016113 1.91040039 1.00024414 C6.18763476 3.31276953 6.18763476 3.31276953 7.3125 5.5625 C1.02785492 3.57713625 -5.015423 1.23968454 -11.0625 -1.375 C-22.98307574 -7.06963555 -22.98307574 -7.06963555 -35.6875 -9.4375 C-37.96200671 -4.91850544 -40.232518 -0.3975223 -42.5 4.125 C-43.00762878 5.13734207 -43.00762878 5.13734207 -43.5255127 6.1701355 C-48.55758709 16.21415956 -53.49283937 26.29793159 -58.27270508 36.46508789 C-58.88795044 37.76820923 -58.88795044 37.76820923 -59.515625 39.09765625 C-59.8652832 39.844104 -60.21494141 40.59055176 -60.57519531 41.35961914 C-60.94225586 42.08656982 -61.30931641 42.81352051 -61.6875 43.5625 C-62.07309082 44.4687915 -62.45868164 45.37508301 -62.85595703 46.30883789 C-64.6875 48.5625 -64.6875 48.5625 -68.04150391 49.14599609 C-69.415823 49.15195574 -70.79044404 49.13021858 -72.1640625 49.0859375 C-72.88991547 49.08123444 -73.61576843 49.07653137 -74.36361694 49.07168579 C-76.68087761 49.05033846 -78.99585051 48.9937107 -81.3125 48.9375 C-82.88018687 48.92099463 -84.44789805 48.9066461 -86.015625 48.89453125 C-97.49187189 48.75812811 -97.49187189 48.75812811 -98.6875 47.5625 C-99.33084955 41.97831086 -97.49747406 38.43161266 -94.953125 33.65625 C-94.56339508 32.90209808 -94.17366516 32.14794617 -93.77212524 31.37094116 C-92.5057633 28.92841436 -91.22204824 26.49550399 -89.9375 24.0625 C-89.06570065 22.38993801 -88.19477221 20.71692179 -87.32470703 19.04345703 C-82.03020302 8.88840045 -76.64757291 -1.2206639 -71.07910156 -11.22851562 C-70.63791992 -12.02193359 -70.19673828 -12.81535156 -69.7421875 -13.6328125 C-69.36562012 -14.30328613 -68.98905273 -14.97375977 -68.60107422 -15.66455078 C-67.55120479 -17.59064963 -67.55120479 -17.59064963 -66.6875 -20.4375 C-67.9353125 -20.55480469 -69.183125 -20.67210938 -70.46875 -20.79296875 C-75.06111782 -21.30352989 -79.52820689 -22.16405482 -84.05029297 -23.10058594 C-97.28288318 -25.8397836 -110.50218933 -27.66751721 -123.91992188 -29.1809082 C-124.60696198 -29.25878067 -125.29400208 -29.33665314 -126.00186157 -29.41688538 C-127.87303655 -29.62723082 -129.74484981 -29.83187604 -131.61669922 -30.03613281 C-134.0677741 -30.3564991 -136.30688087 -30.81219923 -138.6875 -31.4375 C-138.80504639 -30.51937531 -138.92259277 -29.60125061 -139.04370117 -28.65530396 C-140.19533582 -19.81946458 -141.5166191 -11.02947521 -143 -2.2421875 C-143.21438721 -0.96570343 -143.42877441 0.31078064 -143.6496582 1.62594604 C-144.0982394 4.29326568 -144.54894204 6.96021668 -145.00097656 9.62695312 C-145.57812515 13.03406114 -146.14761802 16.44240297 -146.71534729 19.85109138 C-147.26355334 23.1333485 -147.81977726 26.4142351 -148.375 29.6953125 C-148.57714111 30.91300323 -148.77928223 32.13069397 -148.98754883 33.38528442 C-149.27795044 35.08393143 -149.27795044 35.08393143 -149.57421875 36.81689453 C-149.74139404 37.80867706 -149.90856934 38.80045959 -150.08081055 39.82229614 C-151.54058464 46.41558464 -151.54058464 46.41558464 -153.6875 48.5625 C-156.13580426 48.65093793 -158.55570599 48.67778752 -161.00390625 48.66015625 C-161.73496078 48.6587413 -162.46601532 48.65732635 -163.21922302 48.65586853 C-165.56285632 48.65025408 -167.90639539 48.63769922 -170.25 48.625 C-171.83528508 48.61998686 -173.42057166 48.61542363 -175.00585938 48.61132812 C-178.8997761 48.60027997 -182.79362205 48.58300572 -186.6875 48.5625 C-190.41442513 41.10864974 -185.57874936 27.15938483 -184.21875 19.2421875 C-183.97560651 17.80687207 -183.73281526 16.37149692 -183.49035645 14.93606567 C-182.98581281 11.95552972 -182.47788333 8.97559833 -181.96728516 5.99609375 C-181.31262575 2.1749723 -180.66539868 -1.64736351 -180.02048492 -5.47014046 C-179.52196434 -8.42157882 -179.02023094 -11.37246358 -178.5174408 -14.32317734 C-178.27737303 -15.733668 -178.03816077 -17.14430454 -177.79981995 -18.55508804 C-177.46803462 -20.51529373 -177.13159398 -22.47470975 -176.79492188 -24.43408203 C-176.60474487 -25.54816437 -176.41456787 -26.6622467 -176.21862793 -27.81008911 C-175.6875 -30.4375 -175.6875 -30.4375 -174.6875 -32.4375 C-197.45527892 -32.01230727 -220.01581573 -30.54120115 -242.6875 -28.4375 C-242.7285083 -27.83454102 -242.7695166 -27.23158203 -242.81176758 -26.61035156 C-243.33625168 -20.21793189 -244.56095822 -14.33103954 -246.375 -8.1875 C-246.6433667 -7.27291016 -246.9117334 -6.35832031 -247.18823242 -5.41601562 C-253.02596906 13.98281224 -261.97519339 31.86282649 -280.43530273 41.87744141 C-301.92082073 52.90855399 -331.56807527 54.33558199 -354.6875 47.5625 C-365.11572666 43.73603464 -373.25784192 38.51958761 -378.5 28.5625 C-381.63143466 21.743389 -382.94925826 16.02261054 -382.6875 8.5625 C-383.48414063 8.93503906 -384.28078125 9.30757812 -385.1015625 9.69140625 C-386.16117188 10.16449219 -387.22078125 10.63757813 -388.3125 11.125 C-389.35664063 11.60066406 -390.40078125 12.07632813 -391.4765625 12.56640625 C-395.06592291 13.67989397 -397.08997031 13.5239088 -400.6875 12.5625 C-402.5625 11.375 -402.5625 11.375 -403.6875 9.5625 C-404.125 6.625 -404.125 6.625 -403.6875 3.5625 C-401.02066982 0.38176526 -398.46563795 -1.24081397 -394.65625 -2.8125 C-393.63764893 -3.234104 -392.61904785 -3.65570801 -391.56958008 -4.09008789 C-390.45349365 -4.53473389 -389.33740723 -4.97937988 -388.1875 -5.4375 C-387.00115967 -5.91243896 -385.81481934 -6.38737793 -384.5925293 -6.87670898 C-303.80401489 -38.83433451 -215.46574455 -52.15289446 0 0 Z M-291.34765625 -19.96875 C-292.00204681 -19.81273819 -292.65643738 -19.65672638 -293.33065796 -19.49598694 C-295.47193536 -18.98248025 -297.61108987 -18.46077413 -299.75 -17.9375 C-300.47849152 -17.76064667 -301.20698303 -17.58379333 -301.95755005 -17.40158081 C-324.90425285 -12.49373982 -324.90425285 -12.49373982 -346.6875 -4.4375 C-347.17037701 3.28853217 -346.39097239 9.27449304 -341.375 15.375 C-333.06422693 22.13958273 -324.01158002 22.29075461 -313.6875 21.5625 C-304.04385645 19.94795334 -296.86647262 16.22173466 -290.6875 8.5625 C-285.74745194 0.50691408 -280.6875 -11.76098242 -280.6875 -21.4375 C-284.58431697 -21.4375 -287.5722074 -20.87074658 -291.34765625 -19.96875 Z " fill="#1E315D" transform="translate(515.6875,118.4375)"/>
<path d="M0 0 C9.21716706 7.58818228 10.77625332 20.65068216 12.74902344 31.72973633 C12.99510606 33.07150902 13.24202298 34.41312892 13.48970032 35.75460815 C14.15321855 39.36218393 14.80479713 42.9718186 15.45380306 46.58202958 C16.13744095 50.37466475 16.83129612 54.16543183 17.52374268 57.95646667 C18.6834161 64.31410988 19.8355878 70.67307592 20.98291016 77.03295898 C22.30776743 84.37660232 23.64313795 91.71827218 24.98441482 99.05893308 C26.2784491 106.14173997 27.56643593 113.2256321 28.85120392 120.31012535 C29.3965345 123.3170653 29.94371809 126.32365918 30.49236298 129.32999611 C31.13758506 132.86764053 31.77741583 136.40621974 32.41313744 139.94558334 C32.75790857 141.85817769 33.10782331 143.76984261 33.457901 145.68147278 C33.76476082 147.39910828 33.76476082 147.39910828 34.07781982 149.15144348 C34.25698315 150.14191083 34.43614647 151.13237818 34.62073898 152.15285969 C35.63110904 159.73778192 35.63110904 159.73778192 34 163 C29.05209823 163.0493651 24.10433917 163.08570269 19.15625 163.10986328 C17.47230534 163.11993317 15.78837821 163.13358988 14.10449219 163.15087891 C11.68680499 163.17508426 9.26934857 163.18647296 6.8515625 163.1953125 C6.0963028 163.20563507 5.34104309 163.21595764 4.56289673 163.22659302 C2.7070602 163.22699318 0.8518072 163.12222716 -1 163 C-3.42377805 160.57622195 -3.44652427 159.45856556 -3.95509338 156.11685181 C-4.11626648 155.08494217 -4.27743958 154.05303253 -4.4434967 152.98985291 C-4.61239914 151.8531868 -4.78130157 150.71652069 -4.95532227 149.54541016 C-5.13932587 148.3518541 -5.32332947 147.15829803 -5.51290894 145.92857361 C-6.0166913 142.65044622 -6.51313089 139.37135923 -7.00650907 136.09166002 C-7.52442209 132.6612739 -8.05196709 129.23237076 -8.57859802 125.80331421 C-9.57544394 119.30320656 -10.56418205 112.80189403 -11.54976553 106.30007017 C-12.99590977 96.76203681 -14.45295276 87.22566733 -15.91147518 77.68951988 C-16.0719262 76.64042189 -16.0719262 76.64042189 -16.23561865 75.57012999 C-16.44893066 74.17543862 -16.66226623 72.78075085 -16.87562603 71.38606679 C-17.50019443 67.30146909 -18.12199315 63.21646176 -18.74139225 59.13107705 C-19.21767107 55.99164944 -19.69613595 52.85255455 -20.17407227 49.71337891 C-20.34499893 48.58076126 -20.5159256 47.44814362 -20.69203186 46.28120422 C-20.85038513 45.24365494 -21.0087384 44.20610565 -21.17189026 43.13711548 C-21.30848336 42.23635599 -21.44507647 41.3355965 -21.58580875 40.40754128 C-21.95966326 38.23446262 -22.43149139 36.12939413 -23 34 C-24.67732641 37.45553245 -26.35431283 40.91122923 -28.03076172 44.3671875 C-29.47550508 47.34548736 -30.92129901 50.32327434 -32.36767578 53.30078125 C-35.90036757 60.57750492 -39.41847064 67.86028327 -42.88671875 75.16796875 C-43.48337885 76.42151616 -44.08013721 77.67501681 -44.67700195 78.9284668 C-45.79392186 81.27777251 -46.90588338 83.62944311 -48.01245117 85.98364258 C-48.51107666 87.03060303 -49.00970215 88.07756348 -49.5234375 89.15625 C-49.95575684 90.07212891 -50.38807617 90.98800781 -50.83349609 91.93164062 C-52 94 -52 94 -54 95 C-58.31372601 93.38124963 -62.41769603 91.25738992 -66.5625 89.25 C-67.73748047 88.69828125 -68.91246094 88.1465625 -70.12304688 87.578125 C-71.23873047 87.041875 -72.35441406 86.505625 -73.50390625 85.953125 C-74.53330322 85.45973633 -75.5627002 84.96634766 -76.62329102 84.45800781 C-79 83 -79 83 -80 80 C-78.88073874 77.36701331 -77.69652906 74.90926058 -76.36328125 72.38671875 C-75.97240829 71.62872986 -75.58153534 70.87074097 -75.17881775 70.08978271 C-73.90006234 67.61700861 -72.60674851 65.15219545 -71.3125 62.6875 C-70.43202962 60.99452745 -69.55214803 59.30124857 -68.67285156 57.60766602 C-62.64743191 46.02959297 -56.54901186 34.48973665 -50.17236328 23.10058594 C-49.08939076 21.1601662 -48.02509263 19.21070714 -46.96484375 17.2578125 C-41.17241751 6.84417587 -34.68566649 0.05351333 -23.0546875 -3.61328125 C-14.9236984 -5.14363851 -6.97327227 -4.65809042 0 0 Z " fill="#C80C0A" transform="translate(537,4)"/>
<path d="M0 0 C0.86095465 0.00184359 1.72190929 0.00368717 2.60895348 0.00558662 C3.59615883 0.0028373 4.58336418 0.00008797 5.60048485 -0.00274467 C6.6873307 0.00444588 7.77417656 0.01163643 8.89395714 0.01904488 C10.03541695 0.01875282 11.17687675 0.01846077 12.35292625 0.01815987 C16.14060529 0.01955756 19.92808965 0.03513957 23.71573448 0.05078316 C26.33604385 0.05451172 28.95635462 0.05735943 31.57666588 0.0593586 C37.77796892 0.06558065 43.97920164 0.08200121 50.18047369 0.10205758 C57.23962616 0.12439408 64.29878194 0.13540434 71.35796094 0.14544845 C85.88090093 0.16636685 100.40378547 0.20155686 114.92667198 0.24609566 C116.55879174 4.04932058 117.12204663 6.16465061 116.31729698 10.25781441 C116.05046104 11.64130074 116.05046104 11.64130074 115.77823448 13.05273628 C115.57971886 14.00341988 115.38120323 14.95410347 115.17667198 15.93359566 C114.90210167 17.37702339 114.90210167 17.37702339 114.62198448 18.84961128 C113.20293732 25.96983032 113.20293732 25.96983032 110.92667198 28.24609566 C107.84142259 28.42162985 104.84702996 28.47732363 101.76260948 28.44140816 C100.40179756 28.43716331 100.40179756 28.43716331 99.01349449 28.43283272 C96.10942075 28.42161718 93.20565286 28.39651029 90.30167198 28.37109566 C88.3355306 28.36106762 86.36938439 28.35194147 84.40323448 28.34375191 C79.57759539 28.32167338 74.75218558 28.2871343 69.92667198 28.24609566 C69.87779807 28.89522926 69.82892416 29.54436287 69.77856922 30.21316719 C69.18241641 37.46326169 68.14615008 44.57096278 66.9171505 51.73828316 C66.71539207 52.93475975 66.51363365 54.13123634 66.30576134 55.3639698 C65.75731997 58.60985072 65.20509456 61.85505598 64.65063024 65.09991264 C64.1868822 67.81637173 63.72560069 70.53324753 63.2642321 73.25011158 C62.17646241 79.65489478 61.08408553 86.05888055 59.98892784 92.46240425 C58.86004617 99.06369014 57.73970824 105.6663874 56.62336403 112.269804 C55.66204955 117.95414049 54.69517014 123.63751156 53.72387069 129.32015038 C53.1448452 132.70822734 52.56801483 136.09664154 51.99668121 139.48602486 C51.36108199 143.25510651 50.71390518 147.02214842 50.065588 150.78906441 C49.87798409 151.91113792 49.69038017 153.03321144 49.49709129 154.18928719 C49.23008919 155.72403946 49.23008919 155.72403946 48.9576931 157.28979683 C48.73011487 158.6247847 48.73011487 158.6247847 48.49793911 159.98674202 C47.92667198 162.24609566 47.92667198 162.24609566 45.92667198 165.24609566 C43.38445677 165.52573358 41.08882671 165.61851072 38.54776573 165.57422066 C37.82049782 165.57234749 37.0932299 165.57047432 36.34392357 165.56854439 C34.80643696 165.56181989 33.26896757 165.54789736 31.73160362 165.52734566 C29.37003364 165.49617303 27.00913047 165.48637443 24.64737511 165.48047066 C23.15583046 165.47130159 21.66429263 165.46092613 20.17276573 165.44922066 C19.46236641 165.44497078 18.75196709 165.4407209 18.02004051 165.43634224 C13.04383312 165.36325679 13.04383312 165.36325679 11.92667198 164.24609566 C11.57510638 156.92432266 12.58873566 150.0906165 13.83853722 142.88916206 C14.04175591 141.68322395 14.24497459 140.47728584 14.45435143 139.23480415 C15.00890213 135.95327643 15.56998802 132.67300004 16.13425136 129.39313745 C16.72474871 125.95211 17.3071441 122.50971101 17.89055443 119.06747627 C18.8700493 113.29527097 19.85507745 107.52403281 20.84390831 101.75341988 C22.11310939 94.34645616 23.37317061 86.93796801 24.6303606 79.52895737 C25.71274201 73.15054271 26.79921494 66.77282605 27.88638997 60.39522696 C28.23525611 58.34771461 28.58357506 56.30010971 28.93182755 54.2524929 C29.57999903 50.44336327 30.23242837 46.63496983 30.88541222 42.82666206 C31.07818245 41.69209572 31.27095268 40.55752937 31.46956444 39.38858223 C31.73667229 37.83687325 31.73667229 37.83687325 32.00917625 36.2538166 C32.16311568 35.35385271 32.31705511 34.45388882 32.47565937 33.52665329 C32.92667198 31.24609566 32.92667198 31.24609566 33.92667198 28.24609566 C32.22353844 28.26180611 32.22353844 28.26180611 30.48599815 28.27783394 C26.27606925 28.31401621 22.06615411 28.33698967 17.85611534 28.35595894 C16.03350069 28.36602056 14.21090219 28.37967126 12.3883419 28.39697456 C9.76956764 28.42121587 7.15100667 28.43257704 4.53214073 28.44140816 C3.3085611 28.45689201 3.3085611 28.45689201 2.06026268 28.47268867 C-1.84463557 28.47346426 -3.7485681 28.46260227 -7.07332802 26.24609566 C-5.52734897 0.65607399 -5.52734897 0.65607399 0 0 Z " fill="#C80C0A" transform="translate(7.073328018188477,1.7539043426513672)"/>
<path d="M0 0 C2.54221521 -0.27963793 4.83784527 -0.37241506 7.37890625 -0.328125 C8.10617416 -0.32625183 8.83344208 -0.32437866 9.58274841 -0.32244873 C11.12023502 -0.31572423 12.65770441 -0.30180171 14.19506836 -0.28125 C16.55663834 -0.25007737 18.91754152 -0.24027877 21.27929688 -0.234375 C22.77084152 -0.22520593 24.26237935 -0.21483047 25.75390625 -0.203125 C26.46430557 -0.19887512 27.1747049 -0.19462524 27.90663147 -0.19024658 C32.88283887 -0.11716113 32.88283887 -0.11716113 34 1 C34.30585156 7.33026911 33.46492164 13.21015277 32.36352539 19.43237305 C32.18956741 20.44653793 32.01560944 21.46070282 31.83638 22.50559998 C31.4595528 24.69732975 31.07966774 26.88853554 30.69703865 29.07925987 C30.08986463 32.55633871 29.49097359 36.03475673 28.89414978 39.5136261 C27.62434223 46.90620541 26.34396979 54.29693475 25.0625 61.6875 C23.58022939 70.23955392 22.10238396 78.79233498 20.63415337 87.34681129 C20.04695135 90.75574367 19.45250633 94.16335945 18.85768127 97.57096863 C14.48890601 115.55936714 14.48890601 115.55936714 17 133 C24.26279525 137.72926202 32.79060824 137.16898724 41.1484375 137.28125 C42.72813828 137.30886414 42.72813828 137.30886414 44.3397522 137.33703613 C48.82682502 137.41547113 53.31403442 137.48382167 57.80126953 137.55224609 C61.0837388 137.60377845 64.36607167 137.66105777 67.6484375 137.71875 C68.67125824 137.73232544 69.69407898 137.74590088 70.74789429 137.7598877 C72.15538437 137.78496399 72.15538437 137.78496399 73.59130859 137.81054688 C74.42068939 137.82307495 75.25007019 137.83560303 76.10458374 137.84851074 C78 138 78 138 79 139 C79.57311177 146.10392032 80.28347691 157.7482038 75.74414062 163.6262207 C73.50713349 165.38820827 72.19386328 165.42220438 69.36328125 165.51171875 C68.409375 165.54740967 67.45546875 165.58310059 66.47265625 165.61987305 C65.42980469 165.64218994 64.38695312 165.66450684 63.3125 165.6875 C62.22195313 165.71948486 61.13140625 165.75146973 60.0078125 165.78442383 C56.33862961 165.87969726 52.66998884 165.94409056 49 166 C48.33981873 166.01095703 47.67963745 166.02191406 46.99945068 166.03320312 C-4.76509315 166.8769458 -4.76509315 166.8769458 -17.41015625 154.80078125 C-23.95203536 147.39093784 -23.59254136 138.13446659 -23.20464325 128.80297089 C-22.48707023 118.97447044 -20.52506062 109.23293538 -18.82535219 99.53781939 C-18.23363819 96.14697252 -17.65711564 92.75353814 -17.07846069 89.36044312 C-16.10783659 83.68228737 -15.12639675 78.00608913 -14.13769531 72.33105469 C-12.99558052 65.77494247 -11.86863534 59.21636336 -10.75004065 52.65620005 C-9.66890537 46.31660562 -8.57953514 39.97845727 -7.48557663 33.64106369 C-7.02162621 30.95332181 -6.56014454 28.26517343 -6.10057449 25.57667923 C-5.45923709 21.83708818 -4.80843671 18.09927194 -4.15478516 14.36181641 C-3.9656102 13.24916916 -3.77643524 12.13652191 -3.58152771 10.99015808 C-3.40208115 9.97566086 -3.22263458 8.96116364 -3.03775024 7.91592407 C-2.88473261 7.03372507 -2.73171497 6.15152607 -2.57406044 5.24259377 C-2 3 -2 3 0 0 Z " fill="#C80C0A" transform="translate(640,2)"/>
<path d="M0 0 C10.34110641 9.92821287 12.18058623 22.80197796 13.07421875 36.33984375 C13.09097656 37.36207031 13.10773438 38.38429687 13.125 39.4375 C11.10523244 41.45726756 7.15237504 40.97027031 4.37109375 41.19140625 C3.20792381 41.28916603 3.20792381 41.28916603 2.02125549 41.38890076 C-0.46466445 41.59684659 -2.95105115 41.7984867 -5.4375 42 C-7.11917502 42.13956011 -8.8008162 42.27952869 -10.48242188 42.41992188 C-14.61290289 42.76386218 -18.7438133 43.1021467 -22.875 43.4375 C-24.1585989 40.8703022 -24.30874059 38.53350526 -24.6875 35.6875 C-25.51201282 30.69262524 -26.35095604 27.24727725 -29.875 23.4375 C-38.97964736 17.01435837 -49.17526998 17.65830892 -59.875 18.4375 C-67.55554687 19.86683944 -73.89094151 23.37995199 -78.875 29.4375 C-83.48613169 36.63771259 -85.88224946 44.2256084 -87.8203125 52.50390625 C-89.065978 55.96870177 -89.78301244 56.53886735 -92.875 58.4375 C-95.45864241 59.42207532 -98.0002422 60.3098864 -100.6328125 61.13671875 C-101.37707489 61.3766304 -102.12133728 61.61654205 -102.88815308 61.86372375 C-104.45535914 62.3672931 -106.0237605 62.86715573 -107.59326172 63.36352539 C-110.00110283 64.12534893 -112.40504614 64.89857727 -114.80859375 65.67382812 C-116.33311944 66.16212665 -117.85785212 66.64977947 -119.3828125 67.13671875 C-120.10365021 67.36791916 -120.82448792 67.59911957 -121.56716919 67.83732605 C-126.64135818 69.4375 -126.64135818 69.4375 -128.875 69.4375 C-126.02355519 48.11550221 -120.03679095 26.11887339 -105.875 9.4375 C-105.35808594 8.798125 -104.84117187 8.15875 -104.30859375 7.5 C-82.39799824 -17.1013704 -25.39873732 -20.33586609 0 0 Z " fill="#C80C0A" transform="translate(264.875,11.5625)"/>
<path d="M0 0 C0.98294037 -0.00426498 1.96588074 -0.00852997 2.97860718 -0.01292419 C4.60955574 -0.01224442 4.60955574 -0.01224442 6.27345276 -0.0115509 C7.41155396 -0.01490952 8.54965515 -0.01826813 9.72224426 -0.02172852 C13.50568211 -0.03127161 17.28907587 -0.03318329 21.07252502 -0.03425598 C23.68947366 -0.03746615 26.30642211 -0.04083003 28.92337036 -0.04434204 C34.41718332 -0.05074466 39.91098423 -0.05222374 45.40480042 -0.05158997 C51.76172158 -0.05098901 58.11855792 -0.06154261 64.47545761 -0.07733363 C70.58208664 -0.09196455 76.68867485 -0.0955786 82.79532051 -0.09498024 C85.39775502 -0.09616451 88.00019007 -0.10061106 90.60261345 -0.10831261 C94.23515331 -0.11805596 97.86747221 -0.1152569 101.50001526 -0.10920715 C103.12792747 -0.11763641 103.12792747 -0.11763641 104.78872681 -0.12623596 C105.774487 -0.12204147 106.76024719 -0.11784698 107.77587891 -0.11352539 C108.63553473 -0.11407016 109.49519056 -0.11461493 110.38089657 -0.1151762 C112.45143127 0.13371277 112.45143127 0.13371277 114.45143127 2.13371277 C114.53077498 5.82319523 113.92967184 9.47923295 113.45143127 13.13371277 C113.31479065 14.21910339 113.17815002 15.30449402 113.03736877 16.42277527 C111.73403475 25.50193265 111.73403475 25.50193265 108.45143127 28.13371277 C106.57211304 28.53244019 106.57211304 28.53244019 104.4389801 28.56608582 C103.23807487 28.59577705 103.23807487 28.59577705 102.01290894 28.62606812 C101.15344162 28.63245804 100.2939743 28.63884796 99.40846252 28.64543152 C98.52486557 28.66338272 97.64126862 28.68133392 96.730896 28.6998291 C93.90862298 28.75401273 91.08651983 28.78785338 88.26393127 28.82121277 C86.35049613 28.85437876 84.43708343 28.88886775 82.5236969 28.92472839 C77.83291616 29.01223537 73.14291461 29.07223377 68.45143127 29.13371277 C66.80143127 38.70371277 65.15143127 48.27371277 63.45143127 58.13371277 C59.65190635 59.40022108 56.76225567 58.65704328 52.93971252 57.91886902 C52.21148788 57.7842778 51.48326324 57.64968658 50.73297119 57.51101685 C48.40858734 57.07975456 46.08631142 56.6381251 43.76393127 56.19621277 C42.18788718 55.90190785 40.61171654 55.60827978 39.03541565 55.31535339 C35.17257547 54.59598399 31.31159341 53.86731109 27.45143127 53.13371277 C28.60031789 44.76150713 29.85917958 36.43374821 31.45143127 28.13371277 C30.31600891 28.14942322 29.18058655 28.16513367 28.01075745 28.18132019 C23.80086859 28.23559308 19.59101069 28.27005313 15.38087463 28.29850769 C13.5582306 28.31360037 11.73562292 28.33407672 9.9131012 28.36003113 C7.29427627 28.39639379 4.6759312 28.41343401 2.05690002 28.42668152 C0.83332039 28.4499073 0.83332039 28.4499073 -0.41497803 28.47360229 C-6.12117702 28.47530233 -6.12117702 28.47530233 -8.27664185 26.75256348 C-10.07671393 24.46151356 -9.75452272 23.11849468 -9.42356873 20.25871277 C-6.9876628 0.01362798 -6.9876628 0.01362798 0 0 Z " fill="#C80C0A" transform="translate(318.54856872558594,1.8662872314453125)"/>
<path d="M0 0 C0.79857422 -0.01998047 1.59714844 -0.03996094 2.41992188 -0.06054688 C8.1357207 -0.05588852 12.80777252 0.93586975 17.4375 4.4375 C22.38336584 11.45554678 21.15091644 20.67586007 19.93359375 28.80078125 C18.04936149 37.2744429 14.9283869 44.56842352 7.4375 49.4375 C2.90779157 51.72336399 -1.4059877 51.86185669 -6.375 52.0625 C-9.076875 52.18625 -11.77875 52.31 -14.5625 52.4375 C-15.5525 58.0475 -16.5425 63.6575 -17.5625 69.4375 C-21.8525 69.4375 -26.1425 69.4375 -30.5625 69.4375 C-29.96996007 61.45670464 -29.09477743 53.62119448 -27.8203125 45.72265625 C-27.65127411 44.66388779 -27.48223572 43.60511932 -27.30807495 42.51426697 C-26.9524841 40.29972171 -26.59439642 38.085576 -26.23388672 35.87182617 C-25.68521254 32.48588376 -25.15295833 29.09760271 -24.62109375 25.70898438 C-24.27183402 23.54671313 -23.92160794 21.3845977 -23.5703125 19.22265625 C-23.41394318 18.21429214 -23.25757385 17.20592804 -23.09646606 16.16700745 C-21.57410978 7.0169721 -21.57410978 7.0169721 -18.5625 3.4375 C-12.9681179 0.15690951 -6.32618608 -0.05643799 0 0 Z M-8.5625 12.4375 C-9.80368119 15.53015761 -9.80368119 15.53015761 -10.3125 19.25 C-10.42827393 19.91201416 -10.54404785 20.57402832 -10.66333008 21.25610352 C-11.71971661 27.61032531 -12.24798975 34.00630765 -12.5625 40.4375 C-6.55403412 41.5970285 -3.05029518 41.66561481 2.4375 38.4375 C6.82031287 33.45016122 7.2751031 25.95465197 7.6875 19.5625 C7.44327165 16.50964558 7.30924208 14.84402553 5.4375 12.4375 C0.64691712 9.91614059 -3.85287646 9.59145266 -8.5625 12.4375 Z " fill="#1E325E" transform="translate(523.5625,204.5625)"/>
<path d="M0 0 C3.56380017 2.77976413 5.29149892 5.05328432 6.125 9.4375 C6.40638415 12.80328738 6.34088854 16.06963872 6.125 19.4375 C6.07859375 20.489375 6.07859375 20.489375 6.03125 21.5625 C5.875 23.4375 5.875 23.4375 5.125 26.4375 C2.36436641 28.23137771 -0.1154056 28.75983583 -3.359375 29.0703125 C-4.63941406 29.19599609 -4.63941406 29.19599609 -5.9453125 29.32421875 C-6.82960938 29.40285156 -7.71390625 29.48148438 -8.625 29.5625 C-9.49382813 29.64886719 -10.36265625 29.73523438 -11.2578125 29.82421875 C-16.48798795 30.31896508 -21.62236156 30.52300807 -26.875 30.4375 C-26.40646378 33.43155579 -26.40646378 33.43155579 -24.875 36.4375 C-19.28373952 38.70894957 -14.3771036 38.54111431 -8.4375 38.0625 C-7.61056641 38.00578125 -6.78363281 37.9490625 -5.93164062 37.890625 C-3.91197112 37.75053232 -1.89334363 37.59555019 0.125 37.4375 C0.125 40.7375 0.125 44.0375 0.125 47.4375 C-6.08366464 49.62057477 -11.89031262 49.80415432 -18.4375 49.8125 C-19.45263672 49.83699219 -20.46777344 49.86148438 -21.51367188 49.88671875 C-27.6421353 49.91073624 -31.21256891 49.52282236 -35.875 45.4375 C-40.09176834 40.78451424 -40.2172697 35.84734105 -40.16015625 29.78515625 C-39.81962965 25.78746721 -39.06718205 22.01941234 -38.125 18.125 C-37.96813721 17.4556543 -37.81127441 16.78630859 -37.6496582 16.09667969 C-35.87704899 9.2714966 -32.6948315 4.41201908 -26.875 0.4375 C-19.69850002 -3.2031332 -7.46413033 -3.25073339 0 0 Z M-22.875 11.4375 C-24.15789566 14.3720589 -25.07603328 17.33906807 -25.875 20.4375 C-23.64610504 20.49178973 -21.41682529 20.53042338 -19.1875 20.5625 C-17.94613281 20.58570313 -16.70476563 20.60890625 -15.42578125 20.6328125 C-12.06262143 20.44782021 -9.8764413 19.89517895 -6.875 18.4375 C-6.64071687 13.6477679 -6.64071687 13.6477679 -8.875 9.4375 C-13.92047018 7.87132262 -18.98120083 7.54370083 -22.875 11.4375 Z " fill="#1E325E" transform="translate(619.875,206.5625)"/>
<path d="M0 0 C0.73798828 -0.01611328 1.47597656 -0.03222656 2.23632812 -0.04882812 C8.31906518 -0.054235 12.29580388 1.27510481 16.91796875 5.4296875 C19.23116147 9.48464292 19.04044142 12.85661098 18.875 17.4375 C18.86049805 18.65373047 18.86049805 18.65373047 18.84570312 19.89453125 C18.78018464 23.34137307 18.66219078 26.01342767 17.5625 29.3125 C7.35061074 31.72494173 -2.99884665 31.92398988 -13.4375 32.3125 C-12.88910938 35.29470128 -12.88910938 35.29470128 -11.4375 38.3125 C-6.42613139 41.1070015 -1.09199671 40.35387776 4.4375 39.9375 C5.31664062 39.88078125 6.19578125 39.8240625 7.1015625 39.765625 C9.25592162 39.62512332 11.40933563 39.4702566 13.5625 39.3125 C13.5625 42.6125 13.5625 45.9125 13.5625 49.3125 C7.35383536 51.49557477 1.54718738 51.67915432 -5 51.6875 C-6.01513672 51.71199219 -7.03027344 51.73648438 -8.07617188 51.76171875 C-14.20284558 51.78572923 -17.77918389 51.40180356 -22.4375 47.3125 C-27.77671259 41.23684429 -26.88879556 33.98452459 -26.4375 26.3125 C-24.88948268 17.07777597 -22.59615488 9.76231648 -15.3515625 3.609375 C-10.35386449 0.22317961 -5.85354111 -0.02542807 0 0 Z M-10.4375 14.3125 C-12.03131802 17.28279722 -12.4375 18.93639977 -12.4375 22.3125 C-10.18756641 22.33957139 -7.93753905 22.35892829 -5.6875 22.375 C-3.80804688 22.39240234 -3.80804688 22.39240234 -1.890625 22.41015625 C0.84786501 22.33271027 2.98130293 22.14030815 5.5625 21.3125 C6.50857807 18.56288489 6.50857807 18.56288489 6.5625 15.3125 C4.16966289 11.97703009 2.69077784 10.5285532 -1.375 9.75 C-5.26680091 10.46482057 -7.41564067 11.77139102 -10.4375 14.3125 Z " fill="#1E325E" transform="translate(422.4375,204.6875)"/>
<path d="M0 0 C4.62 0 9.24 0 14 0 C17.465 6.435 17.465 6.435 21 13 C23.24609375 10.49348958 25.4921875 7.98697917 27.73828125 5.48046875 C28.48464844 4.66191406 29.23101562 3.84335938 30 3 C30.45375 2.401875 30.9075 1.80375 31.375 1.1875 C34.00368484 -0.733462 36.50737389 -0.28195919 39.6875 -0.1875 C41.45673828 -0.14689453 41.45673828 -0.14689453 43.26171875 -0.10546875 C44.16535156 -0.07066406 45.06898438 -0.03585938 46 0 C44.57811307 4.38415136 42.4155833 6.99823021 39.25 10.3125 C34.66074255 15.23364306 34.66074255 15.23364306 30.25 20.3125 C29.76015625 20.88613281 29.2703125 21.45976562 28.765625 22.05078125 C27.52438646 25.21087324 28.66869091 26.92090278 30 30 C31.63903278 33.28850755 33.3708149 36.52170977 35.125 39.75 C36.04801709 41.45109761 36.96747815 43.15413113 37.8828125 44.859375 C38.28902832 45.60670898 38.69524414 46.35404297 39.11376953 47.12402344 C40 49 40 49 40 51 C37.72975032 51.08097324 35.45867925 51.13917704 33.1875 51.1875 C31.29064453 51.23970703 31.29064453 51.23970703 29.35546875 51.29296875 C26 51 26 51 24.21875 49.8046875 C22.72086344 47.58666317 21.49144074 45.34140619 20.3125 42.9375 C19.87550781 42.05964844 19.43851562 41.18179688 18.98828125 40.27734375 C18 38 18 38 18 36 C14.03951779 39.72045298 10.80132415 43.75609803 7.55078125 48.109375 C6 50 6 50 4 51 C1.62597499 51.07116382 -0.75000677 51.08409085 -3.125 51.0625 C-4.40632813 51.05347656 -5.68765625 51.04445313 -7.0078125 51.03515625 C-8.48894531 51.01775391 -8.48894531 51.01775391 -10 51 C-7.54675895 46.52494994 -4.46847869 42.87833747 -1.125 39.0625 C0.4230304 37.2809139 1.96986981 35.49866477 3.50683594 33.70751953 C4.49073881 32.58236965 5.49913922 31.47811479 6.53222656 30.39794922 C9.27456689 27.4653486 9.27456689 27.4653486 10.09765625 23.66015625 C8.15599523 18.95456495 5.64385248 14.58110964 3.15039062 10.15039062 C2.74884766 9.41884766 2.34730469 8.68730469 1.93359375 7.93359375 C1.56290771 7.27415771 1.19222168 6.61472168 0.81030273 5.93530273 C0 4 0 4 0 0 Z " fill="#1E325E" transform="translate(450,205)"/>
<path d="M0 0 C1.33514648 -0.01836914 1.33514648 -0.01836914 2.69726562 -0.03710938 C7.60326934 -0.04801969 11.58501812 0.26282576 16.1875 2.1875 C15.933004 3.66956495 15.65838238 5.14818615 15.375 6.625 C15.22417969 7.44871094 15.07335937 8.27242187 14.91796875 9.12109375 C14.67691406 9.80300781 14.43585937 10.48492187 14.1875 11.1875 C10.61943259 12.3768558 8.87109009 11.8130153 5.1875 11.1875 C0.75143633 10.95264957 -3.48525856 11.10568964 -7.8125 12.1875 C-7.80567359 14.62690914 -7.80567359 14.62690914 -6.8125 17.1875 C-3.99768425 18.71475821 -3.99768425 18.71475821 -0.5625 19.6875 C5.39786856 21.75925091 9.27934127 23.37118255 12.1875 29.1875 C12.75337772 36.26097145 11.30923343 41.61908584 6.8125 47.0625 C1.11233261 51.67692122 -4.19510581 51.49600638 -11.25 51.4375 C-12.6431543 51.44910156 -12.6431543 51.44910156 -14.06445312 51.4609375 C-19.0446773 51.44675893 -23.14687778 51.15033272 -27.8125 49.1875 C-27.1525 46.2175 -26.4925 43.2475 -25.8125 40.1875 C-20.94486869 38.97059217 -17.04188851 39.56776852 -12.1015625 40.12890625 C-8.55898775 40.19201625 -6.08499665 39.48760063 -2.8125 38.1875 C-2.4825 36.5375 -2.1525 34.8875 -1.8125 33.1875 C-2.46476563 33.00574219 -3.11703125 32.82398438 -3.7890625 32.63671875 C-15.37464916 29.30458099 -15.37464916 29.30458099 -20.1875 25.125 C-22.57287018 20.81298468 -22.44032882 17.00860524 -21.8125 12.1875 C-20.01896165 6.90652596 -17.20250798 4.38854749 -12.8125 1.1875 C-8.54622045 -0.23459318 -4.46861837 0.00319415 0 0 Z " fill="#1E325E" transform="translate(699.8125,204.8125)"/>
<path d="M0 0 C0.92425781 -0.00322266 1.84851563 -0.00644531 2.80078125 -0.00976562 C7.75477094 0.02921427 11.85924555 0.37111772 16.5 2.3125 C16.05090939 3.79449902 15.59043436 5.27305236 15.125 6.75 C14.74214844 7.98556641 14.74214844 7.98556641 14.3515625 9.24609375 C13.5 11.3125 13.5 11.3125 11.5 12.3125 C9.16574212 11.9857039 6.83257494 11.65109959 4.5 11.3125 C-1.87592721 10.77788425 -1.87592721 10.77788425 -7.5 13.3125 C-8.11425968 15.35238716 -8.11425968 15.35238716 -8.5 17.3125 C-7.943125 17.48265625 -7.38625 17.6528125 -6.8125 17.828125 C8.10720131 22.56613825 8.10720131 22.56613825 11.5 28.3125 C12.3621474 33.38441219 12.27070448 38.61897294 9.875 43.25 C6.66415259 47.39030324 3.45607025 49.66047658 -1.5 51.3125 C-4.95436744 51.54173808 -8.41380817 51.49766136 -11.875 51.5 C-12.82117188 51.51224609 -13.76734375 51.52449219 -14.7421875 51.53710938 C-23.33370177 51.55520948 -23.33370177 51.55520948 -27.5 49.3125 C-26.75 42.6875 -26.75 42.6875 -24.5 39.3125 C-21.80863248 39.30951291 -19.34663695 39.44927837 -16.6875 39.75 C-9.83493423 40.61528066 -9.83493423 40.61528066 -3.5 38.3125 C-2.61306697 36.27144361 -2.61306697 36.27144361 -2.5 34.3125 C-3.056875 34.07015625 -3.61375 33.8278125 -4.1875 33.578125 C-8.12523839 31.84871287 -12.05292915 30.09606211 -15.9375 28.25 C-16.57558594 27.94964844 -17.21367188 27.64929688 -17.87109375 27.33984375 C-20.77923771 25.5056906 -21.48762836 23.36507947 -22.25 20.125 C-22.61923352 14.49418889 -21.73728666 10.30099642 -18.75 5.5 C-13.07020065 -0.02202715 -7.50111432 -0.13077256 0 0 Z " fill="#1E325E" transform="translate(656.5,204.6875)"/>
<path d="M0 0 C0.25394531 1.02480469 0.50789063 2.04960938 0.76953125 3.10546875 C1.11676597 4.46625347 1.46444584 5.82692465 1.8125 7.1875 C1.97814453 7.86103516 2.14378906 8.53457031 2.31445312 9.22851562 C3.63133763 14.3221255 4.83735936 18.48727209 9.26171875 21.58203125 C10.06222656 21.98808594 10.86273438 22.39414063 11.6875 22.8125 C12.89986328 23.44091797 12.89986328 23.44091797 14.13671875 24.08203125 C15.05904297 24.53642578 15.05904297 24.53642578 16 25 C14.38411916 28.23176168 10.96014515 28.65600465 7.7109375 29.78515625 C6.97428864 30.04630722 6.23763977 30.30745819 5.47866821 30.57652283 C3.91460893 31.12889188 2.34924591 31.67758082 0.78271484 32.22290039 C-1.59784199 33.05302967 -3.97288249 33.89763036 -6.34765625 34.74414062 C-7.8694807 35.27953056 -9.39160725 35.81406271 -10.9140625 36.34765625 C-11.97072617 36.72423119 -11.97072617 36.72423119 -13.04873657 37.1084137 C-17.3749154 38.60203596 -21.44901855 39.49206802 -26 40 C-32.67567331 31.05589402 -35.5409216 23.17904636 -35 12 C-28.03400656 8.53298033 -20.89093497 5.77995701 -13.5625 3.1875 C-12.24813965 2.71654907 -12.24813965 2.71654907 -10.90722656 2.23608398 C-10.07288086 1.94548096 -9.23853516 1.65487793 -8.37890625 1.35546875 C-7.6319751 1.09403076 -6.88504395 0.83259277 -6.11547852 0.56323242 C-4 0 -4 0 0 0 Z " fill="#1E2448" transform="translate(168,114)"/>
<path d="M0 0 C-0.17214609 7.10493856 -1.52630291 13.73287501 -3.375 20.5625 C-3.68860474 21.75915283 -3.68860474 21.75915283 -4.00854492 22.97998047 C-5.63392845 28.7559523 -5.63392845 28.7559523 -9 31 C-10.60603318 31.45659673 -12.23248185 31.8436517 -13.8671875 32.18359375 C-14.82979492 32.38766846 -15.79240234 32.59174316 -16.78417969 32.80200195 C-17.80415039 33.01171631 -18.82412109 33.22143066 -19.875 33.4375 C-21.96108805 33.87689001 -24.04702662 34.3169903 -26.1328125 34.7578125 C-27.14118164 34.96954102 -28.14955078 35.18126953 -29.18847656 35.39941406 C-33.70148013 36.36346311 -38.18656438 37.43418202 -42.671875 38.51953125 C-45 39 -45 39 -48 39 C-47.38035314 35.22764438 -46.26031999 32.10175997 -44.6875 28.625 C-43.14354057 25.1040727 -41.87503485 21.74576096 -41.09765625 17.98828125 C-40.95303955 17.31522949 -40.80842285 16.64217773 -40.65942383 15.94873047 C-40.26735857 14.02277127 -39.9216298 12.08755394 -39.578125 10.15234375 C-37.85510894 6.71057653 -37.56594512 6.43690411 -34.16015625 5.203125 C-28.25654282 3.64751516 -22.21855042 2.72157915 -16.1875 1.8125 C-15.06923828 1.63525391 -13.95097656 1.45800781 -12.79882812 1.27539062 C-8.46453741 0.60197653 -4.39490051 0 0 0 Z " fill="#1E2448" transform="translate(273,89)"/>
<path d="M0 0 C11.72098848 -0.10709533 23.31556633 0.00859351 35 1 C36 5 36 5 33 22 C20.79 22.66 8.58 23.32 -4 24 C-3.525625 20.596875 -3.05125 17.19375 -2.5625 13.6875 C-2.41498291 12.61846436 -2.26746582 11.54942871 -2.11547852 10.44799805 C-1.99615967 9.60277588 -1.87684082 8.75755371 -1.75390625 7.88671875 C-1.63345947 7.02264404 -1.5130127 6.15856934 -1.38891602 5.26831055 C-1 3 -1 3 0 0 Z " fill="#1E2448" transform="translate(341,85)"/>
<path d="M0 0 C-0.75 7.625 -0.75 7.625 -3 11 C-5.3828125 11.51171875 -5.3828125 11.51171875 -8.125 11.6875 C-9.49011719 11.78611328 -9.49011719 11.78611328 -10.8828125 11.88671875 C-11.93082031 11.94279297 -11.93082031 11.94279297 -13 12 C-15.320008 20.38440099 -16.53280967 28.96804929 -17.89819336 37.54663086 C-18.22177088 39.57200398 -18.55014079 41.59655739 -18.87890625 43.62109375 C-19.0704126 44.8217749 -19.26191895 46.02245605 -19.45922852 47.25952148 C-20 50 -20 50 -21 51 C-24.99984478 51.14346646 -28.99829982 51.04212316 -33 51 C-32.47596113 41.88211475 -31.34099609 32.93875232 -29.84326172 23.93945312 C-29.49474901 21.84341936 -29.15500429 19.74609363 -28.81640625 17.6484375 C-27.15040014 7.45120041 -27.15040014 7.45120041 -26 4 C-17.85145323 -0.81505036 -9.10755076 -0.4424721 0 0 Z " fill="#1E325E" transform="translate(582,205)"/>
<path d="M0 0 C6.43887667 1.12424831 12.66700848 2.67734519 18.9375 4.5 C19.68314209 4.71358154 20.42878418 4.92716309 21.19702148 5.1472168 C24.51624683 6.12933235 27.09915285 7.0661019 30 9 C29.34 10.98 28.68 12.96 28 15 C24.02288509 16.02579039 20.93787659 15.89856969 16.89453125 15.2578125 C15.74662109 15.07863281 14.59871094 14.89945313 13.41601562 14.71484375 C12.22685547 14.52019531 11.03769531 14.32554688 9.8125 14.125 C8.61173828 13.93808594 7.41097656 13.75117187 6.17382812 13.55859375 C-2.70357659 12.14821171 -2.70357659 12.14821171 -5 11 C-4.46884894 6.48521602 -2.63379708 3.65333143 0 0 Z " fill="#1E2448" transform="translate(450,98)"/>
</svg>
