<?xml version="1.0" encoding="UTF-8"?>
<svg version="1.1" xmlns="http://www.w3.org/2000/svg" width="702" height="187">
<path d="M0 0 C6.27 0 12.54 0 19 0 C19 0.66 19 1.32 19 2 C20.98 2.33 22.96 2.66 25 3 C25 3.66 25 4.32 25 5 C25.66 5 26.32 5 27 5 C27 5.66 27 6.32 27 7 C27.99 7.33 28.98 7.66 30 8 C30 8.66 30 9.32 30 10 C30.66 10 31.32 10 32 10 C32 10.66 32 11.32 32 12 C32.66 12 33.32 12 34 12 C34.33 14.31 34.66 16.62 35 19 C35.66 19 36.32 19 37 19 C37 19.99 37 20.98 37 22 C37.66 22 38.32 22 39 22 C39 24.31 39 26.62 39 29 C39.66 29 40.32 29 41 29 C41.8891061 36.33259369 42.15323087 43.55512782 42.125 50.9375 C42.12886719 51.94490234 42.13273438 52.95230469 42.13671875 53.99023438 C42.12807446 60.71116878 41.72252965 67.31865809 41 74 C40.34 74 39.68 74 39 74 C39 77.63 39 81.26 39 85 C38.34 85 37.68 85 37 85 C37 87.64 37 90.28 37 93 C36.34 93 35.68 93 35 93 C34.67 96.3 34.34 99.6 34 103 C33.34 103 32.68 103 32 103 C32 104.65 32 106.3 32 108 C31.34 108 30.68 108 30 108 C29.67 111.3 29.34 114.6 29 118 C28.34 118 27.68 118 27 118 C27 119.32 27 120.64 27 122 C26.34 122 25.68 122 25 122 C24.67 124.31 24.34 126.62 24 129 C23.34 129 22.68 129 22 129 C22 130.65 22 132.3 22 134 C21.34 134.33 20.68 134.66 20 135 C19.34786708 137.02463255 19.34786708 137.02463255 19 139 C18.34 139 17.68 139 17 139 C17 139.99 17 140.98 17 142 C16.34 142 15.68 142 15 142 C15 143.32 15 144.64 15 146 C14.34 146.33 13.68 146.66 13 147 C12.34786708 149.02463255 12.34786708 149.02463255 12 151 C10.68 151.33 9.36 151.66 8 152 C7.67 153.65 7.34 155.3 7 157 C6.34 157 5.68 157 5 157 C5 157.66 5 158.32 5 159 C4.34 159 3.68 159 3 159 C2.67 160.32 2.34 161.64 2 163 C0.68 163.33 -0.64 163.66 -2 164 C-2.33 165.32 -2.66 166.64 -3 168 C-4.32 168.33 -5.64 168.66 -7 169 C-7 169.66 -7 170.32 -7 171 C-7.66 171 -8.32 171 -9 171 C-9.33 171.99 -9.66 172.98 -10 174 C-10.66 174 -11.32 174 -12 174 C-12 174.66 -12 175.32 -12 176 C-12.99 176 -13.98 176 -15 176 C-15 176.66 -15 177.32 -15 178 C-16.65 178.33 -18.3 178.66 -20 179 C-20 179.66 -20 180.32 -20 181 C-21.32 181 -22.64 181 -24 181 C-24 181.66 -24 182.32 -24 183 C-24.99 183 -25.98 183 -27 183 C-27 183.66 -27 184.32 -27 185 C-30.58117288 185.81811277 -33.89195766 186.12844281 -37.5625 186.1328125 C-39.12871094 186.13474609 -39.12871094 186.13474609 -40.7265625 186.13671875 C-41.80679688 186.13285156 -42.88703125 186.12898437 -44 186.125 C-45.62035156 186.13080078 -45.62035156 186.13080078 -47.2734375 186.13671875 C-48.31757813 186.13542969 -49.36171875 186.13414062 -50.4375 186.1328125 C-51.38496094 186.13168457 -52.33242187 186.13055664 -53.30859375 186.12939453 C-55.96758753 186.00155829 -58.40832307 185.59206413 -61 185 C-61 184.34 -61 183.68 -61 183 C-61.99 183 -62.98 183 -64 183 C-64 182.34 -64 181.68 -64 181 C-65.32 181 -66.64 181 -68 181 C-68 180.34 -68 179.68 -68 179 C-68.99 178.67 -69.98 178.34 -71 178 C-71 177.34 -71 176.68 -71 176 C-72.32 176 -73.64 176 -75 176 C-76.75 174.625 -76.75 174.625 -78 173 C-78 172.34 -78 171.68 -78 171 C-78.66 171 -79.32 171 -80 171 C-80.495 168.525 -80.495 168.525 -81 166 C-81.66 166 -82.32 166 -83 166 C-83 165.34 -83 164.68 -83 164 C-83.99 163.67 -84.98 163.34 -86 163 C-86 161.68 -86 160.36 -86 159 C-86.66 159 -87.32 159 -88 159 C-88 158.34 -88 157.68 -88 157 C-88.66 157 -89.32 157 -90 157 C-90 156.01 -90 155.02 -90 154 C-90.66 154 -91.32 154 -92 154 C-92.495 150.535 -92.495 150.535 -93 147 C-93.66 147 -94.32 147 -95 147 C-95 146.01 -95 145.02 -95 144 C-95.66 144 -96.32 144 -97 144 C-97.495 140.535 -97.495 140.535 -98 137 C-98.66 137 -99.32 137 -100 137 C-100 136.01 -100 135.02 -100 134 C-100.66 134 -101.32 134 -102 134 C-102.495 130.535 -102.495 130.535 -103 127 C-104.65 127 -106.3 127 -108 127 C-108 127.66 -108 128.32 -108 129 C-114.27 129 -120.54 129 -127 129 C-127 128.34 -127 127.68 -127 127 C-129.31 127 -131.62 127 -134 127 C-134 126.34 -134 125.68 -134 125 C-136.64 124.67 -139.28 124.34 -142 124 C-142 123.34 -142 122.68 -142 122 C-143.32 122 -144.64 122 -146 122 C-146.33 120.68 -146.66 119.36 -147 118 C-148.65 117.67 -150.3 117.34 -152 117 C-152 116.34 -152 115.68 -152 115 C-153.32 115 -154.64 115 -156 115 C-156 114.34 -156 113.68 -156 113 C-157.485 112.505 -157.485 112.505 -159 112 C-159 111.34 -159 110.68 -159 110 C-159.66 110 -160.32 110 -161 110 C-161 109.34 -161 108.68 -161 108 C-162.485 107.505 -162.485 107.505 -164 107 C-164 106.34 -164 105.68 -164 105 C-164.66 105 -165.32 105 -166 105 C-166 104.34 -166 103.68 -166 103 C-166.66 103 -167.32 103 -168 103 C-168.33 101.35 -168.66 99.7 -169 98 C-169.66 98 -170.32 98 -171 98 C-171 97.34 -171 96.68 -171 96 C-171.66 96 -172.32 96 -173 96 C-173.495 93.525 -173.495 93.525 -174 91 C-174.66 91 -175.32 91 -176 91 C-176 90.01 -176 89.02 -176 88 C-176.66 88 -177.32 88 -178 88 C-178 87.01 -178 86.02 -178 85 C-178.66 85 -179.32 85 -180 85 C-180.33 82.03 -180.66 79.06 -181 76 C-181.66 76 -182.32 76 -183 76 C-183 75.01 -183 74.02 -183 73 C-183.66 73 -184.32 73 -185 73 C-185.33 68.38 -185.66 63.76 -186 59 C-186.66 59 -187.32 59 -188 59 C-188 49.1 -188 39.2 -188 29 C-187.34 29 -186.68 29 -186 29 C-185.505 24.545 -185.505 24.545 -185 20 C-183.68 19.67 -182.36 19.34 -181 19 C-180.67 17.35 -180.34 15.7 -180 14 C-179.34 14 -178.68 14 -178 14 C-178 13.34 -178 12.68 -178 12 C-176.68 12 -175.36 12 -174 12 C-174 11.34 -174 10.68 -174 10 C-173.01 10 -172.02 10 -171 10 C-171 9.34 -171 8.68 -171 8 C-167.53172305 6.84390768 -164.7784416 6.86727602 -161.125 6.875 C-159.91070312 6.87242187 -158.69640625 6.86984375 -157.4453125 6.8671875 C-154.48880905 6.98115702 -151.86808185 7.31296899 -149 8 C-149 8.66 -149 9.32 -149 10 C-148.01 10 -147.02 10 -146 10 C-146 10.66 -146 11.32 -146 12 C-145.34 12 -144.68 12 -144 12 C-144 12.66 -144 13.32 -144 14 C-141.525 14.495 -141.525 14.495 -139 15 C-139 15.66 -139 16.32 -139 17 C-138.34 17 -137.68 17 -137 17 C-135.375 18.375 -135.375 18.375 -134 20 C-134 20.66 -134 21.32 -134 22 C-133.34 22 -132.68 22 -132 22 C-132 22.99 -132 23.98 -132 25 C-131.34 25 -130.68 25 -130 25 C-129.505 27.475 -129.505 27.475 -129 30 C-128.34 30 -127.68 30 -127 30 C-127 31.32 -127 32.64 -127 34 C-126.34 34 -125.68 34 -125 34 C-124.505 36.475 -124.505 36.475 -124 39 C-123.34 39 -122.68 39 -122 39 C-122 39.99 -122 40.98 -122 42 C-121.34 42 -120.68 42 -120 42 C-119.505 46.455 -119.505 46.455 -119 51 C-118.34 51 -117.68 51 -117 51 C-117 51.99 -117 52.98 -117 54 C-116.34 54 -115.68 54 -115 54 C-114.505 58.95 -114.505 58.95 -114 64 C-113.34 64 -112.68 64 -112 64 C-112 65.32 -112 66.64 -112 68 C-111.34 68 -110.68 68 -110 68 C-110 69.65 -110 71.3 -110 73 C-109.34 73 -108.68 73 -108 73 C-107.505 77.95 -107.505 77.95 -107 83 C-106.34 83 -105.68 83 -105 83 C-105 84.65 -105 86.3 -105 88 C-104.34 88 -103.68 88 -103 88 C-102.505 92.95 -102.505 92.95 -102 98 C-101.34 98 -100.68 98 -100 98 C-100 99.32 -100 100.64 -100 102 C-99.34 102 -98.68 102 -98 102 C-97.505 105.96 -97.505 105.96 -97 110 C-96.34 110 -95.68 110 -95 110 C-95 109.34 -95 108.68 -95 108 C-93.75 106.375 -93.75 106.375 -92 105 C-90.68 105 -89.36 105 -88 105 C-88 104.34 -88 103.68 -88 103 C-87.34 102.67 -86.68 102.34 -86 102 C-85.34786708 99.97536745 -85.34786708 99.97536745 -85 98 C-84.34 98 -83.68 98 -83 98 C-83 97.34 -83 96.68 -83 96 C-81.625 94.375 -81.625 94.375 -80 93 C-79.34 93 -78.68 93 -78 93 C-78 92.34 -78 91.68 -78 91 C-77.34 91 -76.68 91 -76 91 C-75.67 89.35 -75.34 87.7 -75 86 C-73.68 85.67 -72.36 85.34 -71 85 C-70.67 83.35 -70.34 81.7 -70 80 C-69.34 80 -68.68 80 -68 80 C-68 79.34 -68 78.68 -68 78 C-67.34 78 -66.68 78 -66 78 C-66 76.68 -66 75.36 -66 74 C-65.34 73.67 -64.68 73.34 -64 73 C-63.34786708 70.97536745 -63.34786708 70.97536745 -63 69 C-61.68 68.67 -60.36 68.34 -59 68 C-58.67 66.35 -58.34 64.7 -58 63 C-57.34 63 -56.68 63 -56 63 C-56 62.34 -56 61.68 -56 61 C-55.34 61 -54.68 61 -54 61 C-53.67 59.35 -53.34 57.7 -53 56 C-52.34 56 -51.68 56 -51 56 C-51 54.68 -51 53.36 -51 52 C-49.68 51.67 -48.36 51.34 -47 51 C-46.67 49.35 -46.34 47.7 -46 46 C-45.34 46 -44.68 46 -44 46 C-44 45.34 -44 44.68 -44 44 C-43.34 44 -42.68 44 -42 44 C-41.67 42.35 -41.34 40.7 -41 39 C-40.34 39 -39.68 39 -39 39 C-39 38.01 -39 37.02 -39 36 C-38.34 36 -37.68 36 -37 36 C-36.67 34.68 -36.34 33.36 -36 32 C-35.34 32 -34.68 32 -34 32 C-34 31.01 -34 30.02 -34 29 C-33.34 29 -32.68 29 -32 29 C-31.67 27.68 -31.34 26.36 -31 25 C-30.34 25 -29.68 25 -29 25 C-29 24.01 -29 23.02 -29 22 C-28.34 22 -27.68 22 -27 22 C-27 21.34 -27 20.68 -27 20 C-25.625 18.375 -25.625 18.375 -24 17 C-23.34 17 -22.68 17 -22 17 C-22 16.34 -22 15.68 -22 15 C-20.625 13.375 -20.625 13.375 -19 12 C-18.34 12 -17.68 12 -17 12 C-17 11.34 -17 10.68 -17 10 C-16.34 10 -15.68 10 -15 10 C-14.67 9.01 -14.34 8.02 -14 7 C-12.68 7 -11.36 7 -10 7 C-9.67 5.68 -9.34 4.36 -9 3 C-4.545 2.505 -4.545 2.505 0 2 C0 1.34 0 0.68 0 0 Z M5 12 C5 12.66 5 13.32 5 14 C2.36 14.33 -0.28 14.66 -3 15 C-3 15.66 -3 16.32 -3 17 C-3.66 17 -4.32 17 -5 17 C-5 17.66 -5 18.32 -5 19 C-6.65 19.33 -8.3 19.66 -10 20 C-10 20.66 -10 21.32 -10 22 C-10.66 22 -11.32 22 -12 22 C-12 22.66 -12 23.32 -12 24 C-12.66 24 -13.32 24 -14 24 C-14.33 25.65 -14.66 27.3 -15 29 C-16.32 29.33 -17.64 29.66 -19 30 C-19.33 31.98 -19.66 33.96 -20 36 C-21.32 36.33 -22.64 36.66 -24 37 C-24.495 39.475 -24.495 39.475 -25 42 C-25.66 42 -26.32 42 -27 42 C-27 42.66 -27 43.32 -27 44 C-27.66 44 -28.32 44 -29 44 C-29 44.99 -29 45.98 -29 47 C-29.66 47 -30.32 47 -31 47 C-31.33 48.32 -31.66 49.64 -32 51 C-32.66 51 -33.32 51 -34 51 C-34 51.99 -34 52.98 -34 54 C-34.66 54 -35.32 54 -36 54 C-36.33 55.65 -36.66 57.3 -37 59 C-37.66 59 -38.32 59 -39 59 C-39 59.66 -39 60.32 -39 61 C-39.66 61 -40.32 61 -41 61 C-41.33 62.65 -41.66 64.3 -42 66 C-42.66 66 -43.32 66 -44 66 C-44 66.66 -44 67.32 -44 68 C-44.66 68 -45.32 68 -46 68 C-46.33 69.65 -46.66 71.3 -47 73 C-47.66 73 -48.32 73 -49 73 C-49 73.99 -49 74.98 -49 76 C-49.66 76 -50.32 76 -51 76 C-51 76.66 -51 77.32 -51 78 C-51.66 78 -52.32 78 -53 78 C-53.33 79.65 -53.66 81.3 -54 83 C-54.66 83 -55.32 83 -56 83 C-56 83.66 -56 84.32 -56 85 C-56.66 85 -57.32 85 -58 85 C-58.33 86.65 -58.66 88.3 -59 90 C-60.98 90.495 -60.98 90.495 -63 91 C-63.12375 91.639375 -63.2475 92.27875 -63.375 92.9375 C-63.58125 93.618125 -63.7875 94.29875 -64 95 C-64.99 95.495 -64.99 95.495 -66 96 C-66 96.66 -66 97.32 -66 98 C-66.66 98 -67.32 98 -68 98 C-68 99.32 -68 100.64 -68 102 C-69.485 102.495 -69.485 102.495 -71 103 C-71 103.66 -71 104.32 -71 105 C-71.66 105 -72.32 105 -73 105 C-73 105.66 -73 106.32 -73 107 C-74.485 107.495 -74.485 107.495 -76 108 C-76 108.66 -76 109.32 -76 110 C-76.66 110 -77.32 110 -78 110 C-78 110.66 -78 111.32 -78 112 C-79.485 112.495 -79.485 112.495 -81 113 C-81 113.66 -81 114.32 -81 115 C-81.66 115 -82.32 115 -83 115 C-83 115.66 -83 116.32 -83 117 C-85.475 117.495 -85.475 117.495 -88 118 C-88 118.66 -88 119.32 -88 120 C-88.66 120 -89.32 120 -90 120 C-90 120.66 -90 121.32 -90 122 C-90.66 122 -91.32 122 -92 122 C-92 122.66 -92 123.32 -92 124 C-91.34 124 -90.68 124 -90 124 C-90 125.65 -90 127.3 -90 129 C-89.34 129 -88.68 129 -88 129 C-88 129.99 -88 130.98 -88 132 C-87.34 132 -86.68 132 -86 132 C-85.67 134.31 -85.34 136.62 -85 139 C-84.34 139 -83.68 139 -83 139 C-83 139.99 -83 140.98 -83 142 C-82.34 142 -81.68 142 -81 142 C-80.67 144.31 -80.34 146.62 -80 149 C-79.34 149 -78.68 149 -78 149 C-78 149.66 -78 150.32 -78 151 C-77.34 151 -76.68 151 -76 151 C-75.67 152.65 -75.34 154.3 -75 156 C-74.34 156 -73.68 156 -73 156 C-73 156.99 -73 157.98 -73 159 C-72.34 159 -71.68 159 -71 159 C-70.505 160.98 -70.505 160.98 -70 163 C-68.68 163.33 -67.36 163.66 -66 164 C-66 164.66 -66 165.32 -66 166 C-65.34 166 -64.68 166 -64 166 C-64 166.66 -64 167.32 -64 168 C-62.35 168.33 -60.7 168.66 -59 169 C-59 169.66 -59 170.32 -59 171 C-58.01 171 -57.02 171 -56 171 C-56 171.66 -56 172.32 -56 173 C-47.92906697 174.40364053 -40.07093303 174.40364053 -32 173 C-32 172.34 -32 171.68 -32 171 C-31.01 171 -30.02 171 -29 171 C-29 170.34 -29 169.68 -29 169 C-26.69 168.67 -24.38 168.34 -22 168 C-22 167.34 -22 166.68 -22 166 C-21.34 166 -20.68 166 -20 166 C-19.67 165.34 -19.34 164.68 -19 164 C-16.9375 163.375 -16.9375 163.375 -15 163 C-14.67 161.68 -14.34 160.36 -14 159 C-13.34 159 -12.68 159 -12 159 C-12 158.34 -12 157.68 -12 157 C-11.01 156.67 -10.02 156.34 -9 156 C-9 155.34 -9 154.68 -9 154 C-8.34 154 -7.68 154 -7 154 C-7 153.01 -7 152.02 -7 151 C-6.34 151 -5.68 151 -5 151 C-5 150.34 -5 149.68 -5 149 C-4.34 149 -3.68 149 -3 149 C-2.67 147.35 -2.34 145.7 -2 144 C-1.34 144 -0.68 144 0 144 C0 143.34 0 142.68 0 142 C0.66 142 1.32 142 2 142 C2.33 140.35 2.66 138.7 3 137 C3.66 137 4.32 137 5 137 C5 136.01 5 135.02 5 134 C5.66 134 6.32 134 7 134 C7.33 131.69 7.66 129.38 8 127 C8.66 127 9.32 127 10 127 C10 126.01 10 125.02 10 124 C10.66 124 11.32 124 12 124 C12.33 121.69 12.66 119.38 13 117 C13.66 117 14.32 117 15 117 C15 115.68 15 114.36 15 113 C15.66 113 16.32 113 17 113 C17 111.35 17 109.7 17 108 C17.66 108 18.32 108 19 108 C19.33 104.7 19.66 101.4 20 98 C20.66 98 21.32 98 22 98 C22 96.35 22 94.7 22 93 C22.66 93 23.32 93 24 93 C24.84681133 87.91913204 25.09038099 83.15171623 25 78 C25.66 78 26.32 78 27 78 C27 74.7 27 71.4 27 68 C27.66 68 28.32 68 29 68 C29 57.44 29 46.88 29 36 C28.34 36 27.68 36 27 36 C27 33.69 27 31.38 27 29 C26.34 29 25.68 29 25 29 C24.505 24.545 24.505 24.545 24 20 C22.68 19.67 21.36 19.34 20 19 C20 17.68 20 16.36 20 15 C17.69 14.67 15.38 14.34 13 14 C13 13.34 13 12.68 13 12 C10.36 12 7.72 12 5 12 Z M-166 20 C-166 20.66 -166 21.32 -166 22 C-166.99 22 -167.98 22 -169 22 C-169 22.66 -169 23.32 -169 24 C-170.32 24.33 -171.64 24.66 -173 25 C-174.17571451 28.67410785 -174.07366746 32.16929183 -174 36 C-174.66 36 -175.32 36 -176 36 C-176 40.95 -176 45.9 -176 51 C-175.34 51 -174.68 51 -174 51 C-174.01160156 51.66386719 -174.02320313 52.32773437 -174.03515625 53.01171875 C-174.11893409 59.56306787 -174.11893409 59.56306787 -173 66 C-172.34 66 -171.68 66 -171 66 C-171 67.65 -171 69.3 -171 71 C-170.34 71 -169.68 71 -169 71 C-168.67 73.97 -168.34 76.94 -168 80 C-167.34 80 -166.68 80 -166 80 C-166 80.99 -166 81.98 -166 83 C-165.34 83 -164.68 83 -164 83 C-163.67 84.65 -163.34 86.3 -163 88 C-162.34 88 -161.68 88 -161 88 C-161 88.66 -161 89.32 -161 90 C-160.34 90 -159.68 90 -159 90 C-158.67 91.65 -158.34 93.3 -158 95 C-156.68 95.33 -155.36 95.66 -154 96 C-154 96.66 -154 97.32 -154 98 C-153.34 98 -152.68 98 -152 98 C-151.67 99.32 -151.34 100.64 -151 102 C-149.68 102.33 -148.36 102.66 -147 103 C-146.67 104.32 -146.34 105.64 -146 107 C-145.0409375 107.185625 -145.0409375 107.185625 -144.0625 107.375 C-143.381875 107.58125 -142.70125 107.7875 -142 108 C-141.67 108.66 -141.34 109.32 -141 110 C-139.68 110 -138.36 110 -137 110 C-137 110.66 -137 111.32 -137 112 C-134.36 112.33 -131.72 112.66 -129 113 C-129 113.66 -129 114.32 -129 115 C-122.07 115 -115.14 115 -108 115 C-108 114.01 -108 113.02 -108 112 C-108.66 112 -109.32 112 -110 112 C-110 110.68 -110 109.36 -110 108 C-110.66 108 -111.32 108 -112 108 C-112 106.35 -112 104.7 -112 103 C-112.66 103 -113.32 103 -114 103 C-114.33 99.7 -114.66 96.4 -115 93 C-115.66 93 -116.32 93 -117 93 C-117 91.35 -117 89.7 -117 88 C-117.66 88 -118.32 88 -119 88 C-119.33 84.7 -119.66 81.4 -120 78 C-120.66 78 -121.32 78 -122 78 C-122 76.68 -122 75.36 -122 74 C-122.66 74 -123.32 74 -124 74 C-124.33 70.7 -124.66 67.4 -125 64 C-125.66 64 -126.32 64 -127 64 C-127 63.01 -127 62.02 -127 61 C-127.66 61 -128.32 61 -129 61 C-129.495 56.545 -129.495 56.545 -130 52 C-130.66 52 -131.32 52 -132 52 C-132 51.01 -132 50.02 -132 49 C-132.66 49 -133.32 49 -134 49 C-134 48.01 -134 47.02 -134 46 C-134.66 46 -135.32 46 -136 46 C-136.495 42.535 -136.495 42.535 -137 39 C-137.66 39 -138.32 39 -139 39 C-139 38.01 -139 37.02 -139 36 C-139.66 36 -140.32 36 -141 36 C-141.495 33.03 -141.495 33.03 -142 30 C-143.32 29.67 -144.64 29.34 -146 29 C-146.33 27.68 -146.66 26.36 -147 25 C-148.32 24.67 -149.64 24.34 -151 24 C-151 23.34 -151 22.68 -151 22 C-151.99 22 -152.98 22 -154 22 C-154 21.34 -154 20.68 -154 20 C-157.96 20 -161.92 20 -166 20 Z " fill="#BF4563" transform="translate(188,0)"/>
<path d="M0 0 C0.91523438 -0.00128906 1.83046875 -0.00257812 2.7734375 -0.00390625 C3.72734375 -0.00003906 4.68125 0.00382812 5.6640625 0.0078125 C7.08332031 0.00201172 7.08332031 0.00201172 8.53125 -0.00390625 C9.4490625 -0.00261719 10.366875 -0.00132813 11.3125 0 C12.14700684 0.00112793 12.98151367 0.00225586 13.84130859 0.00341797 C16.40566146 0.13897622 18.7864229 0.57065366 21.2890625 1.1328125 C21.7840625 3.1128125 21.7840625 3.1128125 22.2890625 5.1328125 C24.2690625 5.4628125 26.2490625 5.7928125 28.2890625 6.1328125 C28.7840625 8.1128125 28.7840625 8.1128125 29.2890625 10.1328125 C29.9490625 10.1328125 30.6090625 10.1328125 31.2890625 10.1328125 C31.2890625 11.1228125 31.2890625 12.1128125 31.2890625 13.1328125 C31.9490625 13.1328125 32.6090625 13.1328125 33.2890625 13.1328125 C33.7840625 16.5978125 33.7840625 16.5978125 34.2890625 20.1328125 C34.9490625 20.1328125 35.6090625 20.1328125 36.2890625 20.1328125 C36.2890625 25.0828125 36.2890625 30.0328125 36.2890625 35.1328125 C21.1090625 35.1328125 5.9290625 35.1328125 -9.7109375 35.1328125 C-9.7109375 35.7928125 -9.7109375 36.4528125 -9.7109375 37.1328125 C-9.0509375 37.1328125 -8.3909375 37.1328125 -7.7109375 37.1328125 C-7.7109375 38.1228125 -7.7109375 39.1128125 -7.7109375 40.1328125 C-7.0509375 40.1328125 -6.3909375 40.1328125 -5.7109375 40.1328125 C-5.3809375 41.4528125 -5.0509375 42.7728125 -4.7109375 44.1328125 C-1.2459375 44.6278125 -1.2459375 44.6278125 2.2890625 45.1328125 C2.2890625 45.7928125 2.2890625 46.4528125 2.2890625 47.1328125 C6.9090625 47.1328125 11.5290625 47.1328125 16.2890625 47.1328125 C16.2890625 46.4728125 16.2890625 45.8128125 16.2890625 45.1328125 C18.7640625 44.6378125 18.7640625 44.6378125 21.2890625 44.1328125 C21.2890625 43.4728125 21.2890625 42.8128125 21.2890625 42.1328125 C22.9390625 42.1328125 24.5890625 42.1328125 26.2890625 42.1328125 C26.2890625 42.7928125 26.2890625 43.4528125 26.2890625 44.1328125 C27.2790625 44.4628125 28.2690625 44.7928125 29.2890625 45.1328125 C29.2890625 45.7928125 29.2890625 46.4528125 29.2890625 47.1328125 C29.9490625 47.1328125 30.6090625 47.1328125 31.2890625 47.1328125 C31.2890625 47.7928125 31.2890625 48.4528125 31.2890625 49.1328125 C31.9490625 49.1328125 32.6090625 49.1328125 33.2890625 49.1328125 C33.2890625 50.1228125 33.2890625 51.1128125 33.2890625 52.1328125 C32.6290625 52.1328125 31.9690625 52.1328125 31.2890625 52.1328125 C31.2890625 52.7928125 31.2890625 53.4528125 31.2890625 54.1328125 C28.8140625 54.6278125 28.8140625 54.6278125 26.2890625 55.1328125 C26.2890625 55.7928125 26.2890625 56.4528125 26.2890625 57.1328125 C25.6290625 57.1328125 24.9690625 57.1328125 24.2890625 57.1328125 C24.2890625 57.7928125 24.2890625 58.4528125 24.2890625 59.1328125 C22.6390625 59.1328125 20.9890625 59.1328125 19.2890625 59.1328125 C19.2890625 59.7928125 19.2890625 60.4528125 19.2890625 61.1328125 C12.0290625 61.1328125 4.7690625 61.1328125 -2.7109375 61.1328125 C-2.7109375 60.4728125 -2.7109375 59.8128125 -2.7109375 59.1328125 C-4.3609375 59.1328125 -6.0109375 59.1328125 -7.7109375 59.1328125 C-7.7109375 58.4728125 -7.7109375 57.8128125 -7.7109375 57.1328125 C-8.7009375 57.1328125 -9.6909375 57.1328125 -10.7109375 57.1328125 C-10.7109375 56.4728125 -10.7109375 55.8128125 -10.7109375 55.1328125 C-12.0309375 54.8028125 -13.3509375 54.4728125 -14.7109375 54.1328125 C-14.7109375 53.4728125 -14.7109375 52.8128125 -14.7109375 52.1328125 C-15.7009375 52.1328125 -16.6909375 52.1328125 -17.7109375 52.1328125 C-17.7109375 51.1428125 -17.7109375 50.1528125 -17.7109375 49.1328125 C-18.3709375 49.1328125 -19.0309375 49.1328125 -19.7109375 49.1328125 C-19.7109375 48.4728125 -19.7109375 47.8128125 -19.7109375 47.1328125 C-20.3709375 47.1328125 -21.0309375 47.1328125 -21.7109375 47.1328125 C-22.0409375 44.8228125 -22.3709375 42.5128125 -22.7109375 40.1328125 C-23.3709375 40.1328125 -24.0309375 40.1328125 -24.7109375 40.1328125 C-24.7109375 33.5328125 -24.7109375 26.9328125 -24.7109375 20.1328125 C-24.0509375 20.1328125 -23.3909375 20.1328125 -22.7109375 20.1328125 C-22.3809375 17.8228125 -22.0509375 15.5128125 -21.7109375 13.1328125 C-21.0509375 13.1328125 -20.3909375 13.1328125 -19.7109375 13.1328125 C-19.7109375 12.1428125 -19.7109375 11.1528125 -19.7109375 10.1328125 C-19.0509375 10.1328125 -18.3909375 10.1328125 -17.7109375 10.1328125 C-17.3809375 8.8128125 -17.0509375 7.4928125 -16.7109375 6.1328125 C-14.7309375 5.8028125 -12.7509375 5.4728125 -10.7109375 5.1328125 C-10.7109375 4.4728125 -10.7109375 3.8128125 -10.7109375 3.1328125 C-9.7209375 3.1328125 -8.7309375 3.1328125 -7.7109375 3.1328125 C-7.7109375 2.4728125 -7.7109375 1.8128125 -7.7109375 1.1328125 C-4.8300498 0.1725166 -2.99322577 0.00405665 0 0 Z M-0.7109375 13.1328125 C-0.7109375 13.7928125 -0.7109375 14.4528125 -0.7109375 15.1328125 C-2.0309375 15.1328125 -3.3509375 15.1328125 -4.7109375 15.1328125 C-5.0409375 16.7828125 -5.3709375 18.4328125 -5.7109375 20.1328125 C-6.3709375 20.1328125 -7.0309375 20.1328125 -7.7109375 20.1328125 C-7.7109375 21.1228125 -7.7109375 22.1128125 -7.7109375 23.1328125 C1.8590625 23.1328125 11.4290625 23.1328125 21.2890625 23.1328125 C20.6290625 22.8028125 19.9690625 22.4728125 19.2890625 22.1328125 C19.2890625 20.8128125 19.2890625 19.4928125 19.2890625 18.1328125 C17.99696338 16.34029191 17.99696338 16.34029191 16.2890625 15.1328125 C15.6290625 15.1328125 14.9690625 15.1328125 14.2890625 15.1328125 C14.2890625 14.4728125 14.2890625 13.8128125 14.2890625 13.1328125 C9.3390625 13.1328125 4.3890625 13.1328125 -0.7109375 13.1328125 Z " fill="#24419B" transform="translate(349.7109375,62.8671875)"/>
<path d="M0 0 C0.88945313 -0.00386719 1.77890625 -0.00773437 2.6953125 -0.01171875 C6.92060791 -0.00541234 10.88292676 0.04426827 15 1.125 C15 1.785 15 2.445 15 3.125 C15.66 3.125 16.32 3.125 17 3.125 C17 3.785 17 4.445 17 5.125 C19.475 5.62 19.475 5.62 22 6.125 C22 6.785 22 7.445 22 8.125 C22.66 8.125 23.32 8.125 24 8.125 C24 8.785 24 9.445 24 10.125 C24.99 10.455 25.98 10.785 27 11.125 C27 12.445 27 13.765 27 15.125 C27.66 15.125 28.32 15.125 29 15.125 C29 16.115 29 17.105 29 18.125 C29.66 18.125 30.32 18.125 31 18.125 C32.81265169 25.979824 32.43580976 34.22804631 31 42.125 C30.34 42.125 29.68 42.125 29 42.125 C29 43.115 29 44.105 29 45.125 C28.34 45.125 27.68 45.125 27 45.125 C26.67 46.775 26.34 48.425 26 50.125 C25.34 50.125 24.68 50.125 24 50.125 C24 50.785 24 51.445 24 52.125 C23.34 52.125 22.68 52.125 22 52.125 C21.67 53.115 21.34 54.105 21 55.125 C19.68 55.125 18.36 55.125 17 55.125 C17 55.785 17 56.445 17 57.125 C16.34 57.125 15.68 57.125 15 57.125 C15 57.785 15 58.445 15 59.125 C13.35 59.125 11.7 59.125 10 59.125 C10 59.785 10 60.445 10 61.125 C3.4 61.125 -3.2 61.125 -10 61.125 C-10 60.465 -10 59.805 -10 59.125 C-11.65 59.125 -13.3 59.125 -15 59.125 C-15 58.465 -15 57.805 -15 57.125 C-15.99 57.125 -16.98 57.125 -18 57.125 C-18 56.465 -18 55.805 -18 55.125 C-19.65 54.795 -21.3 54.465 -23 54.125 C-23 53.465 -23 52.805 -23 52.125 C-23.66 52.125 -24.32 52.125 -25 52.125 C-25 51.135 -25 50.145 -25 49.125 C-25.66 49.125 -26.32 49.125 -27 49.125 C-27 48.465 -27 47.805 -27 47.125 C-27.66 47.125 -28.32 47.125 -29 47.125 C-29.33 44.815 -29.66 42.505 -30 40.125 C-30.66 40.125 -31.32 40.125 -32 40.125 C-32 33.525 -32 26.925 -32 20.125 C-31.34 20.125 -30.68 20.125 -30 20.125 C-29.67 17.815 -29.34 15.505 -29 13.125 C-28.34 13.125 -27.68 13.125 -27 13.125 C-27 12.465 -27 11.805 -27 11.125 C-26.34 11.125 -25.68 11.125 -25 11.125 C-25 10.135 -25 9.145 -25 8.125 C-24.34 8.125 -23.68 8.125 -23 8.125 C-23 7.465 -23 6.805 -23 6.125 C-21.35 5.795 -19.7 5.465 -18 5.125 C-18 4.465 -18 3.805 -18 3.125 C-17.01 3.125 -16.02 3.125 -15 3.125 C-15 2.465 -15 1.805 -15 1.125 C-10.0329825 -0.17884209 -5.09475835 -0.02215112 0 0 Z M-7 13.125 C-7 13.785 -7 14.445 -7 15.125 C-7.99 15.125 -8.98 15.125 -10 15.125 C-10 15.785 -10 16.445 -10 17.125 C-10.99 17.455 -11.98 17.785 -13 18.125 C-13 19.445 -13 20.765 -13 22.125 C-13.66 22.125 -14.32 22.125 -15 22.125 C-15 23.775 -15 25.425 -15 27.125 C-15.66 27.125 -16.32 27.125 -17 27.125 C-17 29.105 -17 31.085 -17 33.125 C-16.34 33.125 -15.68 33.125 -15 33.125 C-15 35.105 -15 37.085 -15 39.125 C-14.34 39.125 -13.68 39.125 -13 39.125 C-12.67 40.775 -12.34 42.425 -12 44.125 C-10.35 44.455 -8.7 44.785 -7 45.125 C-7 45.785 -7 46.445 -7 47.125 C-3.04 47.125 0.92 47.125 5 47.125 C5 46.465 5 45.805 5 45.125 C6.65 44.795 8.3 44.465 10 44.125 C10 43.465 10 42.805 10 42.125 C10.66 42.125 11.32 42.125 12 42.125 C12 41.465 12 40.805 12 40.125 C12.66 40.125 13.32 40.125 14 40.125 C15.16698437 36.62404689 15.13268287 33.8127768 15.125 30.125 C15.12757813 28.8875 15.13015625 27.65 15.1328125 26.375 C15.14991302 23.11269227 15.14991302 23.11269227 14 20.125 C13.34 20.125 12.68 20.125 12 20.125 C12 19.465 12 18.805 12 18.125 C10.79252059 16.41709912 10.79252059 16.41709912 9 15.125 C7.68 15.125 6.36 15.125 5 15.125 C5 14.465 5 13.805 5 13.125 C1.04 13.125 -2.92 13.125 -7 13.125 Z " fill="#25419A" transform="translate(533,62.875)"/>
<path d="M0 0 C0.88945312 -0.00386719 1.77890625 -0.00773437 2.6953125 -0.01171875 C6.92060791 -0.00541234 10.88292676 0.04426827 15 1.125 C15 1.785 15 2.445 15 3.125 C15.66 3.125 16.32 3.125 17 3.125 C17 3.785 17 4.445 17 5.125 C19.475 5.62 19.475 5.62 22 6.125 C22 6.785 22 7.445 22 8.125 C22.66 8.125 23.32 8.125 24 8.125 C25.125 14.875 25.125 14.875 24 17.125 C22.66666667 17.45833333 21.33333333 17.79166667 20 18.125 C19.67 18.785 19.34 19.445 19 20.125 C16.69 20.125 14.38 20.125 12 20.125 C12 19.135 12 18.145 12 17.125 C10.68 17.125 9.36 17.125 8 17.125 C8 16.465 8 15.805 8 15.125 C7.01 15.125 6.02 15.125 5 15.125 C5 14.465 5 13.805 5 13.125 C1.04 13.125 -2.92 13.125 -7 13.125 C-7 13.785 -7 14.445 -7 15.125 C-7.99 15.125 -8.98 15.125 -10 15.125 C-10 15.785 -10 16.445 -10 17.125 C-11.32 17.455 -12.64 17.785 -14 18.125 C-14.33 21.095 -14.66 24.065 -15 27.125 C-15.66 27.125 -16.32 27.125 -17 27.125 C-17 29.105 -17 31.085 -17 33.125 C-16.34 33.125 -15.68 33.125 -15 33.125 C-14.67 36.095 -14.34 39.065 -14 42.125 C-13.34 42.125 -12.68 42.125 -12 42.125 C-12 42.785 -12 43.445 -12 44.125 C-8.535 44.62 -8.535 44.62 -5 45.125 C-5 45.785 -5 46.445 -5 47.125 C-1.7 47.125 1.6 47.125 5 47.125 C5 46.465 5 45.805 5 45.125 C7.475 44.63 7.475 44.63 10 44.125 C10 43.465 10 42.805 10 42.125 C10.66 42.125 11.32 42.125 12 42.125 C12.33 41.135 12.66 40.145 13 39.125 C15.97 39.62 15.97 39.62 19 40.125 C19 40.785 19 41.445 19 42.125 C19.99 42.125 20.98 42.125 22 42.125 C22 42.785 22 43.445 22 44.125 C22.99 44.455 23.98 44.785 25 45.125 C24.67 47.435 24.34 49.745 24 52.125 C23.34 52.125 22.68 52.125 22 52.125 C22 52.785 22 53.445 22 54.125 C19.525 54.62 19.525 54.62 17 55.125 C17 55.785 17 56.445 17 57.125 C16.34 57.125 15.68 57.125 15 57.125 C15 57.785 15 58.445 15 59.125 C13.35 59.125 11.7 59.125 10 59.125 C10 59.785 10 60.445 10 61.125 C3.4 61.125 -3.2 61.125 -10 61.125 C-10 60.465 -10 59.805 -10 59.125 C-11.65 59.125 -13.3 59.125 -15 59.125 C-15 58.465 -15 57.805 -15 57.125 C-16.32 57.125 -17.64 57.125 -19 57.125 C-20.75 55.75 -20.75 55.75 -22 54.125 C-22 53.465 -22 52.805 -22 52.125 C-22.66 52.125 -23.32 52.125 -24 52.125 C-25.625 50.75 -25.625 50.75 -27 49.125 C-27 48.465 -27 47.805 -27 47.125 C-27.66 47.125 -28.32 47.125 -29 47.125 C-29 46.135 -29 45.145 -29 44.125 C-29.66 44.125 -30.32 44.125 -31 44.125 C-32.2596123 39.2664954 -32.14763888 34.48055337 -32.125 29.5 C-32.12886719 28.64148438 -32.13273437 27.78296875 -32.13671875 26.8984375 C-32.13542969 26.0734375 -32.13414062 25.2484375 -32.1328125 24.3984375 C-32.13168457 23.64997559 -32.13055664 22.90151367 -32.12939453 22.13037109 C-32 20.125 -32 20.125 -31 17.125 C-30.34 17.125 -29.68 17.125 -29 17.125 C-29 15.805 -29 14.485 -29 13.125 C-28.34 13.125 -27.68 13.125 -27 13.125 C-27 12.465 -27 11.805 -27 11.125 C-25.625 9.5 -25.625 9.5 -24 8.125 C-23.34 8.125 -22.68 8.125 -22 8.125 C-22 7.465 -22 6.805 -22 6.125 C-20.75 4.5 -20.75 4.5 -19 3.125 C-17.68 3.125 -16.36 3.125 -15 3.125 C-15 2.465 -15 1.805 -15 1.125 C-10.0329825 -0.17884209 -5.09475835 -0.02215112 0 0 Z " fill="#25419A" transform="translate(425,62.875)"/>
<path d="M0 0 C5.61 0 11.22 0 17 0 C17 1.65 17 3.3 17 5 C17.66 5 18.32 5 19 5 C19.33 7.64 19.66 10.28 20 13 C20.66 13 21.32 13 22 13 C22 14.32 22 15.64 22 17 C22.66 17 23.32 17 24 17 C24.33 19.64 24.66 22.28 25 25 C25.66 25 26.32 25 27 25 C27 25.99 27 26.98 27 28 C27.66 28 28.32 28 29 28 C29.33 30.97 29.66 33.94 30 37 C30.66 37 31.32 37 32 37 C32 37.99 32 38.98 32 40 C32.66 40 33.32 40 34 40 C34 39.01 34 38.02 34 37 C34.66 37 35.32 37 36 37 C36.33 34.03 36.66 31.06 37 28 C37.66 28 38.32 28 39 28 C39 27.01 39 26.02 39 25 C39.66 25 40.32 25 41 25 C41.33 22.36 41.66 19.72 42 17 C42.66 17 43.32 17 44 17 C44 15.68 44 14.36 44 13 C44.66 13 45.32 13 46 13 C46.33 10.36 46.66 7.72 47 5 C47.66 5 48.32 5 49 5 C49 3.68 49 2.36 49 1 C52.06533164 -0.53266582 55.26754272 -0.10276471 58.625 -0.0625 C59.68460937 -0.05573242 59.68460937 -0.05573242 60.765625 -0.04882812 C62.51045275 -0.03703875 64.255237 -0.01910324 66 0 C66 0.99 66 1.98 66 3 C65.34 3 64.68 3 64 3 C63.67 5.64 63.34 8.28 63 11 C62.34 11 61.68 11 61 11 C61 12.32 61 13.64 61 15 C60.34 15 59.68 15 59 15 C58.67 17.64 58.34 20.28 58 23 C57.34 23 56.68 23 56 23 C56 24.32 56 25.64 56 27 C55.34 27 54.68 27 54 27 C54 27.99 54 28.98 54 30 C53.34 30 52.68 30 52 30 C51.67 32.97 51.34 35.94 51 39 C50.34 39 49.68 39 49 39 C49 39.99 49 40.98 49 42 C48.34 42 47.68 42 47 42 C46.67 44.64 46.34 47.28 46 50 C45.34 50 44.68 50 44 50 C44 51.32 44 52.64 44 54 C43.34 54 42.68 54 42 54 C41.67 56.31 41.34 58.62 41 61 C35.72 61 30.44 61 25 61 C24.67 59.02 24.34 57.04 24 55 C23.34 55 22.68 55 22 55 C22 54.01 22 53.02 22 52 C21.34 52 20.68 52 20 52 C19.67 49.36 19.34 46.72 19 44 C18.34 44 17.68 44 17 44 C17 42.68 17 41.36 17 40 C16.34 40 15.68 40 15 40 C14.67 37.36 14.34 34.72 14 32 C13.34 32 12.68 32 12 32 C12 30.68 12 29.36 12 28 C11.34 28 10.68 28 10 28 C10 26.35 10 24.7 10 23 C9.34 23 8.68 23 8 23 C7.67 21.02 7.34 19.04 7 17 C6.34 17 5.68 17 5 17 C5 15.02 5 13.04 5 11 C4.34 11 3.68 11 3 11 C2.67 9.02 2.34 7.04 2 5 C1.34 5 0.68 5 0 5 C0 3.35 0 1.7 0 0 Z " fill="#25419A" transform="translate(259,63)"/>
<path d="M0 0 C4.95 0 9.9 0 15 0 C15 4.62 15 9.24 15 14 C19.95 14 24.9 14 30 14 C30 18.29 30 22.58 30 27 C25.05 27 20.1 27 15 27 C15 37.23 15 47.46 15 58 C15.66 58 16.32 58 17 58 C17 58.99 17 59.98 17 61 C20.3 61 23.6 61 27 61 C27 60.34 27 59.68 27 59 C27.99 59 28.98 59 30 59 C30 59.66 30 60.32 30 61 C30.66 61 31.32 61 32 61 C32 61.99 32 62.98 32 64 C32.66 64 33.32 64 34 64 C34 66.31 34 68.62 34 71 C33.34 71 32.68 71 32 71 C32 71.66 32 72.32 32 73 C31.01 73 30.02 73 29 73 C29 73.66 29 74.32 29 75 C23.39 75 17.78 75 12 75 C12 74.34 12 73.68 12 73 C10.68 73 9.36 73 8 73 C8 72.34 8 71.68 8 71 C7.01 71 6.02 71 5 71 C5 70.34 5 69.68 5 69 C4.01 68.67 3.02 68.34 2 68 C2 66.68 2 65.36 2 64 C1.34 64 0.68 64 0 64 C0 51.79 0 39.58 0 27 C-3.3 27 -6.6 27 -10 27 C-10 22.71 -10 18.42 -10 14 C-6.7 14 -3.4 14 0 14 C0 9.38 0 4.76 0 0 Z " fill="#25419B" transform="translate(464,49)"/>
<path d="M0 0 C4.95 0 9.9 0 15 0 C15 1.65 15 3.3 15 5 C15.99 5 16.98 5 18 5 C18 4.34 18 3.68 18 3 C18.66 3 19.32 3 20 3 C20 2.34 20 1.68 20 1 C24.98645274 -0.32972073 29.87777466 -0.06829634 35 0 C35 4.95 35 9.9 35 15 C31.04 15 27.08 15 23 15 C22.67 15.99 22.34 16.98 22 18 C21.34 18 20.68 18 20 18 C20 18.66 20 19.32 20 20 C19.34 20 18.68 20 18 20 C18 20.66 18 21.32 18 22 C17.34 22 16.68 22 16 22 C16 34.87 16 47.74 16 61 C10.72 61 5.44 61 0 61 C0 40.87 0 20.74 0 0 Z " fill="#25419A" transform="translate(576,63)"/>
<path d="M0 0 C2.64 0 5.28 0 8 0 C8 0.66 8 1.32 8 2 C9.32 2 10.64 2 12 2 C12 2.66 12 3.32 12 4 C12.99 4 13.98 4 15 4 C15 4.99 15 5.98 15 7 C15.66 7 16.32 7 17 7 C17 9.31 17 11.62 17 14 C14.69 14 12.38 14 10 14 C10 13.34 10 12.68 10 12 C9.34 12 8.68 12 8 12 C8 11.01 8 10.02 8 9 C5.36 9 2.72 9 0 9 C0 9.99 0 10.98 0 12 C-0.66 12 -1.32 12 -2 12 C-2 15.3 -2 18.6 -2 22 C-1.34 22 -0.68 22 0 22 C0 22.66 0 23.32 0 24 C0.66 24 1.32 24 2 24 C2 24.66 2 25.32 2 26 C3.65 26 5.3 26 7 26 C7.33 24.35 7.66 22.7 8 21 C10.97 21 13.94 21 17 21 C17 22.65 17 24.3 17 26 C16.34 26 15.68 26 15 26 C15 26.99 15 27.98 15 29 C14.34 29 13.68 29 13 29 C12.67 30.32 12.34 31.64 12 33 C1.44191344 34.33257403 1.44191344 34.33257403 -3 33 C-3 32.34 -3 31.68 -3 31 C-3.66 31 -4.32 31 -5 31 C-5 30.34 -5 29.68 -5 29 C-5.66 29 -6.32 29 -7 29 C-7 28.34 -7 27.68 -7 27 C-7.66 27 -8.32 27 -9 27 C-10.1151293 23.6546121 -10.13299072 21.08241188 -10.125 17.5625 C-10.12886719 15.86287109 -10.12886719 15.86287109 -10.1328125 14.12890625 C-10.02325193 11.54778817 -9.75864877 9.45055595 -9 7 C-8.34 7 -7.68 7 -7 7 C-7 6.01 -7 5.02 -7 4 C-6.34 4 -5.68 4 -5 4 C-5 3.34 -5 2.68 -5 2 C-3.35 2 -1.7 2 0 2 C0 1.34 0 0.68 0 0 Z " fill="#25419B" transform="translate(684,47)"/>
<path d="M0 0 C8.25 0 16.5 0 25 0 C25 0.66 25 1.32 25 2 C25.66 2 26.32 2 27 2 C27 4.31 27 6.62 27 9 C23.7 9 20.4 9 17 9 C17.33 9.66 17.66 10.32 18 11 C18.09540112 12.49761762 18.13073486 13.99934828 18.1328125 15.5 C18.13474609 16.8303125 18.13474609 16.8303125 18.13671875 18.1875 C18.13285156 19.115625 18.12898437 20.04375 18.125 21 C18.13080078 22.3921875 18.13080078 22.3921875 18.13671875 23.8125 C18.13542969 24.699375 18.13414062 25.58625 18.1328125 26.5 C18.13168457 27.3146875 18.13055664 28.129375 18.12939453 28.96875 C18 31 18 31 17 33 C14.03 33 11.06 33 8 33 C8 25.74 8 18.48 8 11 C8.66 11 9.32 11 10 11 C10 10.34 10 9.68 10 9 C6.7 9 3.4 9 0 9 C0 6.03 0 3.06 0 0 Z " fill="#263996" transform="translate(647,47)"/>
<path d="M0 0 C1.98 0 3.96 0 6 0 C6 0.66 6 1.32 6 2 C6.66 2 7.32 2 8 2 C8 12.23 8 22.46 8 33 C5.36 33 2.72 33 0 33 C0 22.11 0 11.22 0 0 Z " fill="#26429B" transform="translate(637,47)"/>
<path d="M0 0 C1.65 0 3.3 0 5 0 C4.67 0.99 4.34 1.98 4 3 C1.4375 4.1875 1.4375 4.1875 -1 5 C-0.67 3.35 -0.34 1.7 0 0 Z " fill="#C63687" transform="translate(8,14)"/>
</svg>
